<?xml version="1.0" encoding="utf-8"?>
<!-- Generator: Fusion 360, Shaper Origin Export Add-In, Version 1.6.10  -->
<svg xmlns="http://www.w3.org/2000/svg" xmlns:xlink="http://www.w3.org/1999/xlink" xmlns:shaper="http://www.shapertools.com/namespaces/shaper" shaper:fusionaddin="version:1.6.10" width="66.87995cm" height="24.9767527cm" version="1.1" x="0cm" y="0cm" viewBox="0 0 66.87995 24.9767527" enable-background="new 0 0 66.87995 24.9767527" xml:space="preserve"><path d="M-33.439975,12.5780579 L-33.439975,-11.3497918 -33.439975,-11.3497917 -33.1783651,-11.3745659 -32.9159018,-11.3991275 -32.6525967,-11.4234734 -32.3884614,-11.4476003 -32.1235075,-11.471505 -31.8577465,-11.4951842 -31.59119,-11.5186347 -31.3238495,-11.5418533 -31.0557367,-11.5648366 -30.7868631,-11.5875814 -30.5172403,-11.6100846 -30.2468798,-11.6323427 -29.9757932,-11.6543527 -29.7039922,-11.6761112 -29.4314882,-11.697615 -29.1582928,-11.7188608 -28.8844177,-11.7398455 -28.6098743,-11.7605657 -28.3346743,-11.7810181 -28.0588292,-11.8011997 -27.7823505,-11.821107 -27.50525,-11.8407369 -27.2275391,-11.8600861 -26.9492294,-11.8791513 -26.6703325,-11.8979294 -26.3908599,-11.916417 -26.1108233,-11.9346109 -25.8302341,-11.9525079 -25.549104,-11.9701047 -25.2674446,-11.987398 -24.7025838,-12.0210614 -24.1357445,-12.0534721 -23.5670192,-12.0846041 -22.9965004,-12.1144314 -22.4242807,-12.1429281 -21.8504527,-12.170068 -21.2751089,-12.1958253 -20.698342,-12.2201739 -20.1202445,-12.2430879 -19.5409089,-12.2645413 -18.9604279,-12.2845081 -18.378894,-12.3029623 -17.7963998,-12.3198779 -17.2130379,-12.335229 -16.6289007,-12.3489895 -16.044081,-12.3611334 -15.4586712,-12.3716348 -14.872764,-12.3804677 -14.2864519,-12.3876061 -13.6998274,-12.393024 -13.1129833,-12.3966954 -12.5260119,-12.3985943 -11.9390059,-12.3986948 -11.3520579,-12.3969709 -10.7652605,-12.3933965 -10.1787061,-12.3879457 -9.5924875,-12.3805924 -9.006697,-12.3713108 -8.4214275,-12.3600748 -7.8367712,-12.3468585 -7.2528366,-12.3316365 -6.9615336,-12.323283 -6.6709369,-12.3144455 -6.3810432,-12.3051241 -6.0918491,-12.2953188 -5.8033515,-12.2850296 -5.515547,-12.2742567 -5.2284324,-12.263 -4.9420044,-12.2512596 -4.6562597,-12.2390356 -4.3711952,-12.226328 -4.0868074,-12.2131368 -3.8030932,-12.1994622 -3.5200493,-12.1853041 -3.2376724,-12.1706627 -2.9559593,-12.1555379 -2.6749066,-12.1399299 -2.3945111,-12.1238386 -2.1147696,-12.1072641 -1.8356787,-12.0902066 -1.5572352,-12.0726659 -1.2794359,-12.0546422 -1.0022775,-12.0361356 -0.7257566,-12.0171461 -0.4498701,-11.9976737 -0.1746146,-11.9777184 0.100013,-11.9572805 0.3740161,-11.9363598 0.647398,-11.9149564 0.9201618,-11.8930705 1.192311,-11.870702 1.4638487,-11.8478509 1.7347781,-11.8245175 2.0051027,-11.8007016 2.2748256,-11.7764034 2.5439501,-11.7516229 2.8124795,-11.7263601 3.080417,-11.7006152 3.347766,-11.6743881 3.6145296,-11.6476789 3.8807112,-11.6204877 4.146314,-11.5928145 4.4113413,-11.5646594 4.6757963,-11.5360224 4.9396824,-11.5069035 5.2030027,-11.4773029 5.4657606,-11.4472205 5.7279593,-11.4166565 5.9896021,-11.3856108 6.2506923,-11.3540836 6.5112331,-11.3220748 6.7712278,-11.2895846 7.0306797,-11.256613 7.2895919,-11.22316 7.5479679,-11.1892256 7.8058109,-11.15481 8.0631241,-11.1199132 8.3199107,-11.0845353 8.5761742,-11.0486762 8.8319177,-11.0123361 9.0871445,-10.9755149 9.3418578,-10.9382128 9.596061,-10.9004299 9.8497573,-10.862166 10.10295,-10.8234214 10.3556423,-10.784196 10.6078375,-10.7444899 10.8595389,-10.7043032 11.1107498,-10.6636359 11.3614734,-10.622488 11.6117129,-10.5808596 11.8614717,-10.5387509 12.110753,-10.4961617 12.3595601,-10.4530922 12.6078963,-10.4095424 12.8557647,-10.3655124 13.1031688,-10.3210022 13.3501117,-10.2760118 13.5965967,-10.2305414 13.8426271,-10.184591 14.0882062,-10.1381606 14.3333372,-10.0912503 14.5780234,-10.0438601 14.8222681,-9.9959901 15.0660745,-9.9476403 15.3094459,-9.8988108 15.5523855,-9.8495016 15.7948967,-9.7997129 16.0369827,-9.7494445 16.2786467,-9.6986967 16.5198921,-9.6474694 16.7607221,-9.5957627 17.0011399,-9.5435767 17.2411489,-9.4909113 17.4807523,-9.4377667 17.7199534,-9.3841429 17.9587554,-9.33004 18.1971616,-9.2754579 18.4351753,-9.2203968 18.6727998,-9.1648568 18.9100382,-9.1088377 19.146894,-9.0523398 19.3833702,-8.9953631 19.6194703,-8.9379076 19.8551975,-8.8799733 20.090555,-8.8215603 20.3255462,-8.7626688 20.7944424,-8.6434499 21.2619123,-8.5223172 21.7279821,-8.3992709 22.1926778,-8.2743116 22.6560256,-8.1474397 23.1180517,-8.0186554 23.5787821,-7.8879594 24.0382431,-7.7553519 24.4964608,-7.6208334 24.9534613,-7.4844043 25.4092708,-7.346065 25.8639153,-7.2058159 26.3174211,-7.0636575 26.7698143,-6.9195902 27.2211211,-6.7736143 27.6713674,-6.6257303 28.1205796,-6.4759385 28.5687838,-6.3242395 29.0160061,-6.1706336 29.4622725,-6.0151213 29.9076094,-5.8577028 30.3520428,-5.6983788 30.7955988,-5.5371495 31.2383037,-5.3740154 31.6801835,-5.2089768 32.1212644,-5.0420343 32.5615725,-4.8731883 33.001134,-4.702439 33.439975,-4.529787 33.439975,12.5780579 -33.439975,12.5780579z" transform="matrix(1,0,0,-1,33.439975,12.5780579)" fill="rgb(0,0,0)" stroke-linecap="round" stroke-linejoin="round" /><path d="M30.5112801,8.4505579 a0.245745,0.245745 0 1,1 0.49149,0 a0.245745,0.245745 0 1,1 -0.49149,0z" transform="matrix(1,0,0,-1,33.439975,12.5780579)" fill="rgb(255,255,255)" stroke="rgb(0,0,0)" stroke-width="0.0010cm" stroke-linecap="round" stroke-linejoin="round" /><path d="M-30.999162,-9.2521728 a0.099187,0.099187 0 1,1 0.198374,0 a0.099187,0.099187 0 1,1 -0.198374,0z" transform="matrix(1,0,0,-1,33.439975,12.5780579)" fill="rgb(255,255,255)" stroke="rgb(0,0,0)" stroke-width="0.0010cm" stroke-linecap="round" stroke-linejoin="round" /><path d="M-27.6124953,-9.2521728 a0.099187,0.099187 0 1,1 0.198374,0 a0.099187,0.099187 0 1,1 -0.198374,0z" transform="matrix(1,0,0,-1,33.439975,12.5780579)" fill="rgb(255,255,255)" stroke="rgb(0,0,0)" stroke-width="0.0010cm" stroke-linecap="round" stroke-linejoin="round" /><path d="M-29.3058287,9.7205579 a0.099187,0.099187 0 1,1 0.198374,0 a0.099187,0.099187 0 1,1 -0.198374,0z" transform="matrix(1,0,0,-1,33.439975,12.5780579)" fill="rgb(255,255,255)" stroke="rgb(0,0,0)" stroke-width="0.0010cm" stroke-linecap="round" stroke-linejoin="round" /><path d="M-27.6124953,9.7205579 a0.099187,0.099187 0 1,1 0.198374,0 a0.099187,0.099187 0 1,1 -0.198374,0z" transform="matrix(1,0,0,-1,33.439975,12.5780579)" fill="rgb(255,255,255)" stroke="rgb(0,0,0)" stroke-width="0.0010cm" stroke-linecap="round" stroke-linejoin="round" /><path d="M-30.999162,9.7205579 a0.099187,0.099187 0 1,1 0.198374,0 a0.099187,0.099187 0 1,1 -0.198374,0z" transform="matrix(1,0,0,-1,33.439975,12.5780579)" fill="rgb(255,255,255)" stroke="rgb(0,0,0)" stroke-width="0.0010cm" stroke-linecap="round" stroke-linejoin="round" /><path d="M-29.3058287,-9.2521728 a0.099187,0.099187 0 1,1 0.198374,0 a0.099187,0.099187 0 1,1 -0.198374,0z" transform="matrix(1,0,0,-1,33.439975,12.5780579)" fill="rgb(255,255,255)" stroke="rgb(0,0,0)" stroke-width="0.0010cm" stroke-linecap="round" stroke-linejoin="round" /><path d="M30.5112801,3.3705579 a0.245745,0.245745 0 1,1 0.49149,0 a0.245745,0.245745 0 1,1 -0.49149,0z" transform="matrix(1,0,0,-1,33.439975,12.5780579)" fill="rgb(255,255,255)" stroke="rgb(0,0,0)" stroke-width="0.0010cm" stroke-linecap="round" stroke-linejoin="round" /><path d="M30.5112801,-1.7094421 a0.245745,0.245745 0 1,1 0.49149,0 a0.245745,0.245745 0 1,1 -0.49149,0z" transform="matrix(1,0,0,-1,33.439975,12.5780579)" fill="rgb(255,255,255)" stroke="rgb(0,0,0)" stroke-width="0.0010cm" stroke-linecap="round" stroke-linejoin="round" /></svg>