<?xml version="1.0" encoding="utf-8"?>
<!-- Generator: Fusion 360, Shaper Origin Export Add-In, Version 1.6.10  -->
<svg xmlns="http://www.w3.org/2000/svg" xmlns:xlink="http://www.w3.org/1999/xlink" xmlns:shaper="http://www.shapertools.com/namespaces/shaper" shaper:fusionaddin="version:1.6.10" width="123.9976967cm" height="8.9850198cm" version="1.1" x="0cm" y="0cm" viewBox="0 0 123.9976967 8.9850198" enable-background="new 0 0 123.9976967 8.9850198" xml:space="preserve"><path d="M-61.7504754,-4.5393925 L61.9988485,-4.4456273 61.7747111,3.6626528 61.7531533,4.4425191 61.7531533,4.4425191 -61.9988482,4.4456273 -61.9772045,3.6626528 -61.7504754,-4.5393925z" transform="matrix(1,0,0,-1,61.9988482,4.4456273)" fill="rgb(0,0,0)" shaper:cutDepth="0.01905" stroke-linecap="round" stroke-linejoin="round" /><path d="M60.1211479,-2.8593634 a0.245745,0.245745 0 1,1 0.49149,0 a0.245745,0.245745 0 1,1 -0.49149,0z" transform="matrix(1,0,0,-1,61.9988482,4.4456273)" fill="rgb(255,255,255)" stroke="rgb(0,0,0)" stroke-width="0.0010cm" stroke-linecap="round" stroke-linejoin="round" shaper:cutDepth="0.01905" /><path d="M59.9807243,2.2205317 a0.245745,0.245745 0 1,1 0.49149,0 a0.245745,0.245745 0 1,1 -0.49149,0z" transform="matrix(1,0,0,-1,61.9988482,4.4456273)" fill="rgb(255,255,255)" stroke="rgb(0,0,0)" stroke-width="0.0010cm" stroke-linecap="round" stroke-linejoin="round" shaper:cutDepth="0.01905" /><path d="M46.0056805,2.2099427 a0.245745,0.245745 0 1,1 0.49149,0 a0.245745,0.245745 0 1,1 -0.49149,0z" transform="matrix(1,0,0,-1,61.9988482,4.4456273)" fill="rgb(255,255,255)" stroke="rgb(0,0,0)" stroke-width="0.0010cm" stroke-linecap="round" stroke-linejoin="round" shaper:cutDepth="0.01905" /><path d="M46.1461042,-2.8699523 a0.245745,0.245745 0 1,1 0.49149,0 a0.245745,0.245745 0 1,1 -0.49149,0z" transform="matrix(1,0,0,-1,61.9988482,4.4456273)" fill="rgb(255,255,255)" stroke="rgb(0,0,0)" stroke-width="0.0010cm" stroke-linecap="round" stroke-linejoin="round" shaper:cutDepth="0.01905" /><path d="M41.2536576,-1.603659 a0.245745,0.245745 0 1,1 0.49149,0 a0.245745,0.245745 0 1,1 -0.49149,0z" transform="matrix(1,0,0,-1,61.9988482,4.4456273)" fill="rgb(255,255,255)" stroke="rgb(0,0,0)" stroke-width="0.0010cm" stroke-linecap="round" stroke-linejoin="round" shaper:cutDepth="0.01905" /><path d="M41.1483398,2.2062623 a0.245745,0.245745 0 1,1 0.49149,0 a0.245745,0.245745 0 1,1 -0.49149,0z" transform="matrix(1,0,0,-1,61.9988482,4.4456273)" fill="rgb(255,255,255)" stroke="rgb(0,0,0)" stroke-width="0.0010cm" stroke-linecap="round" stroke-linejoin="round" shaper:cutDepth="0.01905" /><path d="M31.9653197,2.1993043 a0.245745,0.245745 0 1,1 0.49149,0 a0.245745,0.245745 0 1,1 -0.49149,0z" transform="matrix(1,0,0,-1,61.9988482,4.4456273)" fill="rgb(255,255,255)" stroke="rgb(0,0,0)" stroke-width="0.0010cm" stroke-linecap="round" stroke-linejoin="round" shaper:cutDepth="0.01905" /><path d="M32.0706374,-1.610617 a0.245745,0.245745 0 1,1 0.49149,0 a0.245745,0.245745 0 1,1 -0.49149,0z" transform="matrix(1,0,0,-1,61.9988482,4.4456273)" fill="rgb(255,255,255)" stroke="rgb(0,0,0)" stroke-width="0.0010cm" stroke-linecap="round" stroke-linejoin="round" shaper:cutDepth="0.01905" /><path d="M8.1288669,-1.6287577 a0.245745,0.245745 0 1,1 0.49149,0 a0.245745,0.245745 0 1,1 -0.49149,0z" transform="matrix(1,0,0,-1,61.9988482,4.4456273)" fill="rgb(255,255,255)" stroke="rgb(0,0,0)" stroke-width="0.0010cm" stroke-linecap="round" stroke-linejoin="round" shaper:cutDepth="0.01905" /><path d="M8.0235492,2.1811636 a0.245745,0.245745 0 1,1 0.49149,0 a0.245745,0.245745 0 1,1 -0.49149,0z" transform="matrix(1,0,0,-1,61.9988482,4.4456273)" fill="rgb(255,255,255)" stroke="rgb(0,0,0)" stroke-width="0.0010cm" stroke-linecap="round" stroke-linejoin="round" shaper:cutDepth="0.01905" /><path d="M-3.0705167,2.1727576 a0.245745,0.245745 0 1,1 0.49149,0 a0.245745,0.245745 0 1,1 -0.49149,0z" transform="matrix(1,0,0,-1,61.9988482,4.4456273)" fill="rgb(255,255,255)" stroke="rgb(0,0,0)" stroke-width="0.0010cm" stroke-linecap="round" stroke-linejoin="round" shaper:cutDepth="0.01905" /><path d="M-2.9651989,-1.6371637 a0.245745,0.245745 0 1,1 0.49149,0 a0.245745,0.245745 0 1,1 -0.49149,0z" transform="matrix(1,0,0,-1,61.9988482,4.4456273)" fill="rgb(255,255,255)" stroke="rgb(0,0,0)" stroke-width="0.0010cm" stroke-linecap="round" stroke-linejoin="round" shaper:cutDepth="0.01905" /><path d="M-8.4335284,-1.6413071 a0.245745,0.245745 0 1,1 0.49149,0 a0.245745,0.245745 0 1,1 -0.49149,0z" transform="matrix(1,0,0,-1,61.9988482,4.4456273)" fill="rgb(255,255,255)" stroke="rgb(0,0,0)" stroke-width="0.0010cm" stroke-linecap="round" stroke-linejoin="round" shaper:cutDepth="0.01905" /><path d="M-8.5388462,2.1686142 a0.245745,0.245745 0 1,1 0.49149,0 a0.245745,0.245745 0 1,1 -0.49149,0z" transform="matrix(1,0,0,-1,61.9988482,4.4456273)" fill="rgb(255,255,255)" stroke="rgb(0,0,0)" stroke-width="0.0010cm" stroke-linecap="round" stroke-linejoin="round" shaper:cutDepth="0.01905" /><path d="M-25.6796513,2.1556266 a0.245745,0.245745 0 1,1 0.49149,0 a0.245745,0.245745 0 1,1 -0.49149,0z" transform="matrix(1,0,0,-1,61.9988482,4.4456273)" fill="rgb(255,255,255)" stroke="rgb(0,0,0)" stroke-width="0.0010cm" stroke-linecap="round" stroke-linejoin="round" shaper:cutDepth="0.01905" /><path d="M-25.5743336,-1.6542947 a0.245745,0.245745 0 1,1 0.49149,0 a0.245745,0.245745 0 1,1 -0.49149,0z" transform="matrix(1,0,0,-1,61.9988482,4.4456273)" fill="rgb(255,255,255)" stroke="rgb(0,0,0)" stroke-width="0.0010cm" stroke-linecap="round" stroke-linejoin="round" shaper:cutDepth="0.01905" /><path d="M-20.1060041,-1.6501514 a0.245745,0.245745 0 1,1 0.49149,0 a0.245745,0.245745 0 1,1 -0.49149,0z" transform="matrix(1,0,0,-1,61.9988482,4.4456273)" fill="rgb(255,255,255)" stroke="rgb(0,0,0)" stroke-width="0.0010cm" stroke-linecap="round" stroke-linejoin="round" shaper:cutDepth="0.01905" /><path d="M-20.2113219,2.1597699 a0.245745,0.245745 0 1,1 0.49149,0 a0.245745,0.245745 0 1,1 -0.49149,0z" transform="matrix(1,0,0,-1,61.9988482,4.4456273)" fill="rgb(255,255,255)" stroke="rgb(0,0,0)" stroke-width="0.0010cm" stroke-linecap="round" stroke-linejoin="round" shaper:cutDepth="0.01905" /><path d="M-46.8297074,-1.6704 a0.245745,0.245745 0 1,1 0.49149,0 a0.245745,0.245745 0 1,1 -0.49149,0z" transform="matrix(1,0,0,-1,61.9988482,4.4456273)" fill="rgb(255,255,255)" stroke="rgb(0,0,0)" stroke-width="0.0010cm" stroke-linecap="round" stroke-linejoin="round" shaper:cutDepth="0.01905" /><path d="M-46.9350251,2.1395213 a0.245745,0.245745 0 1,1 0.49149,0 a0.245745,0.245745 0 1,1 -0.49149,0z" transform="matrix(1,0,0,-1,61.9988482,4.4456273)" fill="rgb(255,255,255)" stroke="rgb(0,0,0)" stroke-width="0.0010cm" stroke-linecap="round" stroke-linejoin="round" shaper:cutDepth="0.01905" /><path d="M-54.5577751,2.1337455 a0.245745,0.245745 0 1,1 0.49149,0 a0.245745,0.245745 0 1,1 -0.49149,0z" transform="matrix(1,0,0,-1,61.9988482,4.4456273)" fill="rgb(255,255,255)" stroke="rgb(0,0,0)" stroke-width="0.0010cm" stroke-linecap="round" stroke-linejoin="round" shaper:cutDepth="0.01905" /><path d="M-57.9111125,-2.9487967 a0.245745,0.245745 0 1,1 0.49149,0 a0.245745,0.245745 0 1,1 -0.49149,0z" transform="matrix(1,0,0,-1,61.9988482,4.4456273)" fill="rgb(255,255,255)" stroke="rgb(0,0,0)" stroke-width="0.0010cm" stroke-linecap="round" stroke-linejoin="round" shaper:cutDepth="0.01905" /><path d="M13.5971964,-1.6246143 a0.245745,0.245745 0 1,1 0.49149,0 a0.245745,0.245745 0 1,1 -0.49149,0z" transform="matrix(1,0,0,-1,61.9988482,4.4456273)" fill="rgb(255,255,255)" stroke="rgb(0,0,0)" stroke-width="0.0010cm" stroke-linecap="round" stroke-linejoin="round" shaper:cutDepth="0.01905" /><path d="M13.4918786,2.1853069 a0.245745,0.245745 0 1,1 0.49149,0 a0.245745,0.245745 0 1,1 -0.49149,0z" transform="matrix(1,0,0,-1,61.9988482,4.4456273)" fill="rgb(255,255,255)" stroke="rgb(0,0,0)" stroke-width="0.0010cm" stroke-linecap="round" stroke-linejoin="round" shaper:cutDepth="0.01905" /><path d="M26.6023079,-1.6147603 a0.245745,0.245745 0 1,1 0.49149,0 a0.245745,0.245745 0 1,1 -0.49149,0z" transform="matrix(1,0,0,-1,61.9988482,4.4456273)" fill="rgb(255,255,255)" stroke="rgb(0,0,0)" stroke-width="0.0010cm" stroke-linecap="round" stroke-linejoin="round" shaper:cutDepth="0.01905" /><path d="M26.4969902,2.195161 a0.245745,0.245745 0 1,1 0.49149,0 a0.245745,0.245745 0 1,1 -0.49149,0z" transform="matrix(1,0,0,-1,61.9988482,4.4456273)" fill="rgb(255,255,255)" stroke="rgb(0,0,0)" stroke-width="0.0010cm" stroke-linecap="round" stroke-linejoin="round" shaper:cutDepth="0.01905" /><path d="M15.9145669,1.2958202 a0.245745,0.245745 0 1,1 0.49149,0 a0.245745,0.245745 0 1,1 -0.49149,0z" transform="matrix(1,0,0,-1,61.9988482,4.4456273)" fill="rgb(255,255,255)" stroke="rgb(0,0,0)" stroke-width="0.0010cm" stroke-linecap="round" stroke-linejoin="round" shaper:cutDepth="0.01905" /><path d="M17.4420858,2.9101906 a0.245745,0.245745 0 1,1 0.49149,0 a0.245745,0.245745 0 1,1 -0.49149,0z" transform="matrix(1,0,0,-1,61.9988482,4.4456273)" fill="rgb(255,255,255)" stroke="rgb(0,0,0)" stroke-width="0.0010cm" stroke-linecap="round" stroke-linejoin="round" shaper:cutDepth="0.01905" /></svg>