<?xml version="1.0" encoding="utf-8"?>
<!-- Generator: Fusion 360, Shaper Origin Export Add-In, Version 1.6.10  -->
<svg xmlns="http://www.w3.org/2000/svg" xmlns:xlink="http://www.w3.org/1999/xlink" xmlns:shaper="http://www.shapertools.com/namespaces/shaper" shaper:fusionaddin="version:1.6.10" width="59.9707072cm" height="21.1420525cm" version="1.1" x="0cm" y="0cm" viewBox="0 0 59.9707072 21.1420525" enable-background="new 0 0 59.9707072 21.1420525" xml:space="preserve"><path d="M8.0028821,-3.5914662 A7.62,7.62 124.9940277 0,0 13.6968652,-2.3297632 L13.6820069,-2.4139775 A5.08,5.08 96.0127453 0,0 15.0967895,-2.4632991 L17.4161493,-2.872514 17.6182501,-1.7270415 17.6182501,-1.7270415 17.8659447,-1.757562 18.1130387,-1.7885744 18.3595363,-1.8200783 18.6054413,-1.8520737 18.8507578,-1.8845604 19.0954899,-1.917538 19.3396414,-1.9510063 19.5832165,-1.9849653 19.8262191,-2.0194146 20.0686533,-2.054354 20.3105231,-2.0897833 20.5518324,-2.1257023 20.7925853,-2.1621108 21.0327858,-2.1990086 21.2724379,-2.2363954 21.5115457,-2.274271 21.750113,-2.3126352 21.988144,-2.3514879 22.2256427,-2.3908287 22.462613,-2.4306575 22.699059,-2.4709741 22.9349847,-2.5117781 23.1703941,-2.5530696 23.4052911,-2.5948481 23.63968,-2.6371134 23.8735659,-2.6798642 24.1069544,-2.7230994 24.3398495,-2.7668191 24.5722557,-2.8110235 24.8041772,-2.8557127 25.0356182,-2.9008869 25.266583,-2.9465462 25.4970758,-2.9926907 25.727101,-3.0393206 25.9566627,-3.086436 26.1857653,-3.134037 26.4144131,-3.1821239 26.6426101,-3.2306966 26.8703609,-3.2797554 27.0976695,-3.3293004 27.3245402,-3.3793318 27.5509775,-3.4298496 27.7769853,-3.480854 28.0025682,-3.5323452 28.2277302,-3.5843232 28.4524758,-3.6367883 28.6768091,-3.6897406 28.9007343,-3.7431801 29.1242559,-3.7971071 29.347378,-3.8515217 29.5701048,-3.9064239 29.7924408,-3.9618141 30.01439,-4.0176922 30.2359568,-4.0740584 30.4571455,-4.1309129 30.6779603,-4.1882558 30.8984054,-4.2460873 31.1184852,-4.3044074 31.3382039,-4.3632163 31.5575657,-4.4225142 31.776575,-4.4823012 31.995236,-4.5425774 32.43153,-4.6645981 A0.635,0.635 74.2325805 0,0 32.7070881,-4.8257895 L38.9775782,-11.0711009 42.6499842,-11.0637129 42.6499842,-4.1037142 42.6499842,-4.1037142 42.2563877,-3.9492504 41.8621415,-3.7964716 41.4672232,-3.6453783 41.0716103,-3.4959708 40.6752803,-3.3482494 40.2782106,-3.2022147 39.8803788,-3.0578668 39.4817624,-2.9152063 39.0823388,-2.7742335 38.6820857,-2.6349488 38.2809804,-2.4973526 37.8790004,-2.3614452 37.4761234,-2.227227 37.0723268,-2.0946985 36.667588,-1.96386 36.2618846,-1.8347118 35.8551941,-1.7072544 35.447494,-1.5814882 35.0387617,-1.4574135 34.6289749,-1.3350306 34.2181109,-1.2143401 33.8061473,-1.0953422 33.3930617,-0.9780374 32.9788314,-0.8624261 32.563434,-0.7485085 32.146847,-0.6362851 31.7290479,-0.5257563 31.3100141,-0.4169225 30.8897233,-0.309784 30.4681529,-0.2043412 30.0452804,-0.1005946 29.6210832,0.0014556 29.195539,0.1018089 28.7686252,0.200465 28.3403193,0.2974235 27.9105987,0.3926839 27.4794411,0.4862459 27.0468239,0.5781092 26.6127246,0.6682733 26.1771207,0.7567379 25.7399897,0.8435025 25.3013091,0.9285669 24.8610564,1.0119306 24.4192091,1.0935932 23.9757448,1.1735543 23.5306408,1.2518137 23.0838748,1.3283708 22.8598615,1.3660109 22.6354242,1.4032253 22.4105601,1.440014 22.1852665,1.4763769 21.9595405,1.5123139 21.7333792,1.5478251 21.5067799,1.5829103 21.2797398,1.6175696 21.0522561,1.6518028 20.8243259,1.68561 20.5959464,1.718991 20.3671149,1.7519458 20.1378284,1.7844745 19.9080843,1.8165768 19.6778796,1.8482529 19.4472116,1.8795026 19.2160774,1.9103258 18.9844743,1.9407226 18.7523994,1.9706929 18.51985,2.0002367 18.2868231,2.0293539 18.053316,2.0580444 17.819326,2.0863082 17.58485,2.1141452 17.3498855,2.1415555 17.1144295,2.1685389 16.8784792,2.1950955 16.6420318,2.2212251 16.4050846,2.2469277 16.1676346,2.2722033 15.9296792,2.2970518 15.6912153,2.3214732 15.4522404,2.3454674 15.2127515,2.3690344 14.9727458,2.3921742 14.7322206,2.4148866 14.4911729,2.4371716 14.2496001,2.4590293 14.0074992,2.4804594 13.7648675,2.5014621 13.5217022,2.5220372 13.2780004,2.5421847 13.0337594,2.5619046 12.7889762,2.5811968 12.5436482,2.6000612 12.2977725,2.6184978 12.0513462,2.6365066 11.8043667,2.6540875 11.5568309,2.6712404 11.3087363,2.6879654 11.0600799,2.7042623 10.8108588,2.7201312 10.5610705,2.7355719 10.3107119,2.7505845 10.0597802,2.7651688 9.8082728,2.7793249 9.5561867,2.7930526 9.3035192,2.806352 9.0502674,2.819223 8.7964285,2.8316655 8.5419998,2.8436795 8.2869783,2.8552649 8.0313613,2.8664217 7.775146,2.8771499 7.5183296,2.8874494 7.2609092,2.8973201 7.002882,2.9067621 6.7442453,2.9157752 6.4849962,2.9243594 6.2251318,2.9325146 5.9646495,2.9402409 5.7035463,2.9475382 5.1803084,2.9608121 4.6564538,2.9723113 4.1320639,2.9820584 3.6072182,2.9900758 3.0819964,2.996386 2.5564783,3.0010116 2.0307434,3.003975 1.5048715,3.0052989 0.9789421,3.0050056 0.453035,3.0031178 -0.0727702,2.9996578 -0.5983938,2.9946484 -1.1237561,2.9881119 -1.6487775,2.9800708 -2.1733784,2.9705478 -2.697479,2.9595653 -3.2209997,2.9471458 -3.7438608,2.9333119 -4.2659827,2.9180861 -4.7872857,2.9014908 -5.3076902,2.8835486 -5.8271164,2.864282 -6.3454847,2.8437136 -6.8627155,2.8218658 -7.3787291,2.7987612 -7.8934458,2.7744222 -8.4067859,2.7488715 -8.9186699,2.7221314 -9.429018,2.6942246 -9.9377506,2.6651735 -10.4447879,2.6350007 -10.9500504,2.6037287 -11.4534584,2.57138 -11.9549322,2.537977 -12.4543921,2.5035424 -12.9517586,2.4680987 -13.1996318,2.4500054 -13.4469518,2.4316683 -13.6937086,2.4130901 -13.9398923,2.3942737 -14.1854928,2.375222 -14.4305002,2.3559376 -14.6749046,2.3364235 -14.9186959,2.3166824 -15.1618643,2.2967171 -15.4043998,2.2765306 -15.6462925,2.2561255 -15.8875323,2.2355047 -16.1281093,2.214671 -16.3680135,2.1936273 -16.6072351,2.1723763 -16.845764,2.1509209 -17.0835902,2.1292638 -17.3207039,2.1074079 -17.320723,-18.1367536 8.341117,-18.1367536 8.7630303,-15.7454216 -1.1816535,-13.9908367 A1.905,1.905 259.9940277 0,0 -1.9431586,-10.5542139 L8.0028821,-3.5914662z" transform="matrix(1,0,0,-1,17.320723,3.0052989)" fill="rgb(0,0,0)" stroke-linecap="round" stroke-linejoin="round" /><path d="M-14.8823138,-12.930889 a0.1016,0.1016 0 1,1 0.2032,0 a0.1016,0.1016 0 1,1 -0.2032,0z" transform="matrix(1,0,0,-1,17.320723,3.0052989)" fill="rgb(255,255,255)" stroke="rgb(0,0,0)" stroke-width="0.0010cm" stroke-linecap="round" stroke-linejoin="round" /><path d="M-13.2924008,-1.881889 a0.099187,0.099187 0 1,1 0.198374,0 a0.099187,0.099187 0 1,1 -0.198374,0z" transform="matrix(1,0,0,-1,17.320723,3.0052989)" fill="rgb(255,255,255)" stroke="rgb(0,0,0)" stroke-width="0.0010cm" stroke-linecap="round" stroke-linejoin="round" /><path d="M-12.8644943,-6.1503073 a4.445,4.445 0 1,1 8.89,0 a4.445,4.445 0 1,1 -8.89,0z" transform="matrix(1,0,0,-1,17.320723,3.0052989)" fill="rgb(255,255,255)" stroke="rgb(0,0,0)" stroke-width="0.0010cm" stroke-linecap="round" stroke-linejoin="round" /><path d="M6.3103879,-17.5017536 a0.245745,0.245745 0 1,1 0.49149,0 a0.245745,0.245745 0 1,1 -0.49149,0z" transform="matrix(1,0,0,-1,17.320723,3.0052989)" fill="rgb(255,255,255)" stroke="rgb(0,0,0)" stroke-width="0.0010cm" stroke-linecap="round" stroke-linejoin="round" /><path d="M7.7725446,-16.3118244 a0.245745,0.245745 0 1,1 0.49149,0 a0.245745,0.245745 0 1,1 -0.49149,0z" transform="matrix(1,0,0,-1,17.320723,3.0052989)" fill="rgb(255,255,255)" stroke="rgb(0,0,0)" stroke-width="0.0010cm" stroke-linecap="round" stroke-linejoin="round" /><path d="M-14.8799015,0.658111 a0.099187,0.099187 0 1,1 0.198374,0 a0.099187,0.099187 0 1,1 -0.198374,0z" transform="matrix(1,0,0,-1,17.320723,3.0052989)" fill="rgb(255,255,255)" stroke="rgb(0,0,0)" stroke-width="0.0010cm" stroke-linecap="round" stroke-linejoin="round" /><path d="M-13.2924015,0.658111 a0.099187,0.099187 0 1,1 0.198374,0 a0.099187,0.099187 0 1,1 -0.198374,0z" transform="matrix(1,0,0,-1,17.320723,3.0052989)" fill="rgb(255,255,255)" stroke="rgb(0,0,0)" stroke-width="0.0010cm" stroke-linecap="round" stroke-linejoin="round" /><path d="M-14.8799015,-17.1842536 a0.099187,0.099187 0 1,1 0.198374,0 a0.099187,0.099187 0 1,1 -0.198374,0z" transform="matrix(1,0,0,-1,17.320723,3.0052989)" fill="rgb(255,255,255)" stroke="rgb(0,0,0)" stroke-width="0.0010cm" stroke-linecap="round" stroke-linejoin="round" /><path d="M-13.2924015,-17.1842536 a0.099187,0.099187 0 1,1 0.198374,0 a0.099187,0.099187 0 1,1 -0.198374,0z" transform="matrix(1,0,0,-1,17.320723,3.0052989)" fill="rgb(255,255,255)" stroke="rgb(0,0,0)" stroke-width="0.0010cm" stroke-linecap="round" stroke-linejoin="round" /><path d="M17.2935333,1.1511152 a0.2286,0.2286 0 1,1 0.4572,0 a0.2286,0.2286 0 1,1 -0.4572,0z" transform="matrix(1,0,0,-1,17.320723,3.0052989)" fill="rgb(255,255,255)" stroke="rgb(0,0,0)" stroke-width="0.0010cm" stroke-linecap="round" stroke-linejoin="round" /><path d="M15.509787,-0.9607031 a0.2286,0.2286 0 1,1 0.4572,0 a0.2286,0.2286 0 1,1 -0.4572,0z" transform="matrix(1,0,0,-1,17.320723,3.0052989)" fill="rgb(255,255,255)" stroke="rgb(0,0,0)" stroke-width="0.0010cm" stroke-linecap="round" stroke-linejoin="round" /><path d="M41.4688842,-9.4781259 a0.2286,0.2286 0 1,1 0.4572,0 a0.2286,0.2286 0 1,1 -0.4572,0z" transform="matrix(1,0,0,-1,17.320723,3.0052989)" fill="rgb(255,255,255)" stroke="rgb(0,0,0)" stroke-width="0.0010cm" stroke-linecap="round" stroke-linejoin="round" /><path d="M41.4688842,-5.6681259 a0.2286,0.2286 0 1,1 0.4572,0 a0.2286,0.2286 0 1,1 -0.4572,0z" transform="matrix(1,0,0,-1,17.320723,3.0052989)" fill="rgb(255,255,255)" stroke="rgb(0,0,0)" stroke-width="0.0010cm" stroke-linecap="round" stroke-linejoin="round" /><path d="M-14.8799008,-1.881889 a0.099187,0.099187 0 1,1 0.198374,0 a0.099187,0.099187 0 1,1 -0.198374,0z" transform="matrix(1,0,0,-1,17.320723,3.0052989)" fill="rgb(255,255,255)" stroke="rgb(0,0,0)" stroke-width="0.0010cm" stroke-linecap="round" stroke-linejoin="round" /><path d="M-13.2948138,-12.930889 a0.1016,0.1016 0 1,1 0.2032,0 a0.1016,0.1016 0 1,1 -0.2032,0z" transform="matrix(1,0,0,-1,17.320723,3.0052989)" fill="rgb(255,255,255)" stroke="rgb(0,0,0)" stroke-width="0.0010cm" stroke-linecap="round" stroke-linejoin="round" /></svg>