  0
SECTION
  2
HEADER
  9
$ACADVER
  1
AC1021
  9
$DWGCODEPAGE
  3
ansi_1252
  9
$HANDSEED
  5
20000
  9
$INSUNITS
  70
4
  0
ENDSEC
  0
SECTION
  2
TABLES
  0
TABLE
  2
VPORT
  5
8
  330
0
  100
AcDbSymbolTable
  70
1
  0
ENDTAB
  0
TABLE
  2
LTYPE
  5
5
  330
0
  100
AcDbSymbolTable
  70
3
  0
LTYPE
  5
14
  330
5
  100
AcDbSymbolTableRecord
  100
AcDbLinetypeTableRecord
  2
ByBlock
  70
0
  3

  72
65
  73
0
  40
0
  0
LTYPE
  5
15
  330
5
  100
AcDbSymbolTableRecord
  100
AcDbLinetypeTableRecord
  2
ByLayer
  70
0
  3

  72
65
  73
0
  40
0
  0
LTYPE
  5
16
  330
5
  100
AcDbSymbolTableRecord
  100
AcDbLinetypeTableRecord
  2
Continuous
  70
0
  3
Solid line
  72
65
  73
0
  40
0
  0
ENDTAB
  0
TABLE
  2
LAYER
  5
2
  330
0
  100
AcDbSymbolTable
  70
1
  0
LAYER
  5
10
  330
2
  100
AcDbSymbolTableRecord
  100
AcDbLayerTableRecord
  2
0
  70
0
  62
7
  6
CONTINUOUS
  370
-3
  390
F
  0
LAYER
  5
91
  330
2
  100
AcDbSymbolTableRecord
  100
AcDbLayerTableRecord
  2
Layer_0
  70
0
  62
7
  6
CONTINUOUS
  370
-3
  390
F
  0
LAYER
  5
92
  330
2
  100
AcDbSymbolTableRecord
  100
AcDbLayerTableRecord
  2
Layer_0
  70
0
  62
7
  6
CONTINUOUS
  370
-3
  390
F
  0
LAYER
  5
93
  330
2
  100
AcDbSymbolTableRecord
  100
AcDbLayerTableRecord
  2
Layer_0
  70
0
  62
7
  6
CONTINUOUS
  370
-3
  390
F
  0
LAYER
  5
94
  330
2
  100
AcDbSymbolTableRecord
  100
AcDbLayerTableRecord
  2
Layer_0
  70
0
  62
7
  6
CONTINUOUS
  370
-3
  390
F
  0
LAYER
  5
95
  330
2
  100
AcDbSymbolTableRecord
  100
AcDbLayerTableRecord
  2
Layer_0
  70
0
  62
7
  6
CONTINUOUS
  370
-3
  390
F
  0
LAYER
  5
96
  330
2
  100
AcDbSymbolTableRecord
  100
AcDbLayerTableRecord
  2
Layer_0
  70
0
  62
7
  6
CONTINUOUS
  370
-3
  390
F
  0
LAYER
  5
97
  330
2
  100
AcDbSymbolTableRecord
  100
AcDbLayerTableRecord
  2
Layer_0
  70
0
  62
7
  6
CONTINUOUS
  370
-3
  390
F
  0
LAYER
  5
98
  330
2
  100
AcDbSymbolTableRecord
  100
AcDbLayerTableRecord
  2
Layer_0
  70
0
  62
7
  6
CONTINUOUS
  370
-3
  390
F
  0
LAYER
  5
99
  330
2
  100
AcDbSymbolTableRecord
  100
AcDbLayerTableRecord
  2
Layer_0
  70
0
  62
7
  6
CONTINUOUS
  370
-3
  390
F
  0
ENDTAB
  0
TABLE
  2
STYLE
  5
3
  330
0
  100
AcDbSymbolTable
  70
3
  0
ENDTAB
  0
TABLE
  2
VIEW
  5
6
  330
0
  100
AcDbSymbolTable
  70
0
  0
ENDTAB
  0
TABLE
  2
UCS
  5
7
  330
0
  100
AcDbSymbolTable
  70
0
  0
ENDTAB
  0
TABLE
  2
APPID
  5
9
  330
0
  100
AcDbSymbolTable
  70
1
  0
APPID
  5
12
  330
9
  100
AcDbSymbolTableRecord
  100
AcDbRegAppTableRecord
  2
ACAD
  70
0
  0
ENDTAB
  0
TABLE
  2
DIMSTYLE
  5
A
  330
0
  100
AcDbSymbolTable
  70
1
  100
AcDbDimStyleTable
  71
1
  0
ENDTAB
  0
TABLE
  2
BLOCK_RECORD
  5
1
  330
0
  100
AcDbSymbolTable
  70
2
  0
BLOCK_RECORD
  5
1F
  330
1
  100
AcDbSymbolTableRecord
  100
AcDbBlockTableRecord
  2
*Model_Space
  70
0
  280
1
  281
0
  0
BLOCK_RECORD
  5
1E
  330
1
  100
AcDbSymbolTableRecord
  100
AcDbBlockTableRecord
  2
*Paper_Space
  70
0
  280
1
  281
0
  0
ENDTAB
  0
ENDSEC
  0
SECTION
  2
BLOCKS
  0
BLOCK
  5
20
  330
1F
  100
AcDbEntity
  8
0
  100
AcDbBlockBegin
  2
*Model_Space
  70
0
  10
0
  20
0
  30
0
  3
*Model_Space
  1

  0
ENDBLK
  5
21
  330
1F
  100
AcDbEntity
  8
0
  100
AcDbBlockEnd
  0
BLOCK
  5
1C
  330
1B
  100
AcDbEntity
  8
0
  100
AcDbBlockBegin
  2
*Paper_Space
  70
0
  10
0
  20
0
  30
0
  3
*Paper_Space
  1

  0
ENDBLK
  5
1D
  330
1F
  100
AcDbEntity
  8
0
  100
AcDbBlockEnd
  0
ENDSEC
  0
SECTION
  2
ENTITIES
  0
LWPOLYLINE
  5
9a
  100
AcDbEntity
  8

  6
Continuous
  62
7
  370
-1
  100
AcDbPolyline
  90
65
  70
1
  10
234.70259
  20
197.93347
  30
0
  10
234.93198
  20
197.91699
  30
0
  10
235.15871
  20
197.87811
  30
0
  10
235.38069
  20
197.81717
  30
0
  10
235.59583
  20
197.73471
  30
0
  10
235.80211
  20
197.63156
  30
0
  10
235.9976
  20
197.50864
  30
0
  10
236.18048
  20
197.3671
  30
0
  10
236.34903
  20
197.20828
  30
0
  10
236.50168
  20
197.03369
  30
0
  10
236.63699
  20
196.84492
  30
0
  10
236.75369
  20
196.64377
  30
0
  10
236.85072
  20
196.4321
  30
0
  10
236.92714
  20
196.21191
  30
0
  10
236.98224
  20
195.98524
  30
0
  10
237.0155
  20
195.75424
  30
0
  10
237.02663
  20
195.52106
  30
0
  10
237.0155
  20
195.28787
  30
0
  10
236.98224
  20
195.05685
  30
0
  10
236.92714
  20
194.8302
  30
0
  10
236.85072
  20
194.61
  30
0
  10
236.75369
  20
194.39835
  30
0
  10
236.63699
  20
194.19719
  30
0
  10
236.50168
  20
194.00842
  30
0
  10
236.34903
  20
193.83382
  30
0
  10
236.18048
  20
193.67502
  30
0
  10
235.9976
  20
193.53348
  30
0
  10
235.80211
  20
193.41055
  30
0
  10
235.59583
  20
193.30739
  30
0
  10
235.38069
  20
193.22495
  30
0
  10
235.15871
  20
193.164
  30
0
  10
234.93198
  20
193.12511
  30
0
  10
234.70259
  20
193.10864
  30
0
  10
234.47322
  20
193.12511
  30
0
  10
234.24648
  20
193.164
  30
0
  10
234.02451
  20
193.22495
  30
0
  10
233.80937
  20
193.30739
  30
0
  10
233.60309
  20
193.41055
  30
0
  10
233.40759
  20
193.53348
  30
0
  10
233.22472
  20
193.67502
  30
0
  10
233.05617
  20
193.83382
  30
0
  10
232.90352
  20
194.00842
  30
0
  10
232.7682
  20
194.19719
  30
0
  10
232.65149
  20
194.39835
  30
0
  10
232.55447
  20
194.61
  30
0
  10
232.47806
  20
194.8302
  30
0
  10
232.42294
  20
195.05685
  30
0
  10
232.38968
  20
195.28787
  30
0
  10
232.37857
  20
195.52106
  30
0
  10
232.38968
  20
195.75424
  30
0
  10
232.42294
  20
195.98524
  30
0
  10
232.47806
  20
196.21191
  30
0
  10
232.55447
  20
196.4321
  30
0
  10
232.65149
  20
196.64377
  30
0
  10
232.7682
  20
196.84492
  30
0
  10
232.90352
  20
197.03369
  30
0
  10
233.05617
  20
197.20828
  30
0
  10
233.22472
  20
197.3671
  30
0
  10
233.40759
  20
197.50864
  30
0
  10
233.60309
  20
197.63156
  30
0
  10
233.80937
  20
197.73471
  30
0
  10
234.02451
  20
197.81717
  30
0
  10
234.24648
  20
197.87811
  30
0
  10
234.47322
  20
197.91699
  30
0
  10
234.70259
  20
197.93347
  30
0
  0
SPLINE
  5
9b
  100
AcDbEntity
  8
Layer_0
  6
Continuous
  62
7
  370
-1
  100
AcDbSpline
  70
0
  71
3
  72
194
  73
190
  74
0
  40
0
  40
0
  40
0
  40
0
  40
1
  40
1
  40
1
  40
2
  40
2
  40
2
  40
3
  40
3
  40
3
  40
4
  40
4
  40
4
  40
5
  40
5
  40
5
  40
6
  40
6
  40
6
  40
7
  40
7
  40
7
  40
8
  40
8
  40
8
  40
9
  40
9
  40
9
  40
10
  40
10
  40
10
  40
11
  40
11
  40
11
  40
12
  40
12
  40
12
  40
13
  40
13
  40
13
  40
14
  40
14
  40
14
  40
15
  40
15
  40
15
  40
16
  40
16
  40
16
  40
17
  40
17
  40
17
  40
18
  40
18
  40
18
  40
19
  40
19
  40
19
  40
20
  40
20
  40
20
  40
21
  40
21
  40
21
  40
22
  40
22
  40
22
  40
23
  40
23
  40
23
  40
24
  40
24
  40
24
  40
25
  40
25
  40
25
  40
26
  40
26
  40
26
  40
27
  40
27
  40
27
  40
28
  40
28
  40
28
  40
29
  40
29
  40
29
  40
30
  40
30
  40
30
  40
31
  40
31
  40
31
  40
32
  40
32
  40
32
  40
33
  40
33
  40
33
  40
34
  40
34
  40
34
  40
35
  40
35
  40
35
  40
36
  40
36
  40
36
  40
37
  40
37
  40
37
  40
38
  40
38
  40
38
  40
39
  40
39
  40
39
  40
40
  40
40
  40
40
  40
41
  40
41
  40
41
  40
42
  40
42
  40
42
  40
43
  40
43
  40
43
  40
44
  40
44
  40
44
  40
45
  40
45
  40
45
  40
46
  40
46
  40
46
  40
47
  40
47
  40
47
  40
48
  40
48
  40
48
  40
49
  40
49
  40
49
  40
50
  40
50
  40
50
  40
51
  40
51
  40
51
  40
52
  40
52
  40
52
  40
53
  40
53
  40
53
  40
54
  40
54
  40
54
  40
55
  40
55
  40
55
  40
56
  40
56
  40
56
  40
57
  40
57
  40
57
  40
58
  40
58
  40
58
  40
59
  40
59
  40
59
  40
60
  40
60
  40
60
  40
61
  40
61
  40
61
  40
62
  40
62
  40
62
  40
63
  40
63
  40
63
  40
63
  10
183.50906
  20
280.76566
  30
0
  10
183.43692
  20
280.72018
  30
0
  10
183.43692
  20
280.72018
  30
0
  10
183.43692
  20
280.72018
  30
0
  10
111.66684
  20
235.45789
  30
0
  10
111.66684
  20
235.45789
  30
0
  10
111.66684
  20
235.45789
  30
0
  10
111.37059
  20
235.28446
  30
0
  10
111.37059
  20
235.28446
  30
0
  10
111.37059
  20
235.28446
  30
0
  10
111.06329
  20
235.13081
  30
0
  10
111.06329
  20
235.13081
  30
0
  10
111.06329
  20
235.13081
  30
0
  10
110.74631
  20
234.99761
  30
0
  10
110.74631
  20
234.99761
  30
0
  10
110.74631
  20
234.99761
  30
0
  10
110.42102
  20
234.88546
  30
0
  10
110.42102
  20
234.88546
  30
0
  10
110.42102
  20
234.88546
  30
0
  10
110.0889
  20
234.79487
  30
0
  10
110.0889
  20
234.79487
  30
0
  10
110.0889
  20
234.79487
  30
0
  10
109.75139
  20
234.7262
  30
0
  10
109.75139
  20
234.7262
  30
0
  10
109.75139
  20
234.7262
  30
0
  10
109.41
  20
234.67979
  30
0
  10
109.41
  20
234.67979
  30
0
  10
109.41
  20
234.67979
  30
0
  10
109.06622
  20
234.65583
  30
0
  10
109.06622
  20
234.65583
  30
0
  10
109.06622
  20
234.65583
  30
0
  10
108.7216
  20
234.65443
  30
0
  10
108.7216
  20
234.65443
  30
0
  10
108.7216
  20
234.65443
  30
0
  10
108.37764
  20
234.67559
  30
0
  10
108.37764
  20
234.67559
  30
0
  10
108.37764
  20
234.67559
  30
0
  10
108.03587
  20
234.71922
  30
0
  10
108.03587
  20
234.71922
  30
0
  10
108.03587
  20
234.71922
  30
0
  10
107.6978
  20
234.78512
  30
0
  10
107.6978
  20
234.78512
  30
0
  10
107.6978
  20
234.78512
  30
0
  10
107.36493
  20
234.87302
  30
0
  10
107.36493
  20
234.87302
  30
0
  10
107.36493
  20
234.87302
  30
0
  10
107.03873
  20
234.98252
  30
0
  10
107.03873
  20
234.98252
  30
0
  10
107.03873
  20
234.98252
  30
0
  10
106.72063
  20
235.11314
  30
0
  10
106.72063
  20
235.11314
  30
0
  10
106.72063
  20
235.11314
  30
0
  10
106.41205
  20
235.26427
  30
0
  10
106.41205
  20
235.26427
  30
0
  10
106.41205
  20
235.26427
  30
0
  10
106.11435
  20
235.4353
  30
0
  10
106.11435
  20
235.4353
  30
0
  10
106.11435
  20
235.4353
  30
0
  10
105.82886
  20
235.62542
  30
0
  10
105.82886
  20
235.62542
  30
0
  10
105.82886
  20
235.62542
  30
0
  10
105.55681
  20
235.83381
  30
0
  10
105.55681
  20
235.83381
  30
0
  10
105.55681
  20
235.83381
  30
0
  10
105.29944
  20
236.05956
  30
0
  10
105.29944
  20
236.05956
  30
0
  10
105.29944
  20
236.05956
  30
0
  10
105.05788
  20
236.30166
  30
0
  10
105.05788
  20
236.30166
  30
0
  10
105.05788
  20
236.30166
  30
0
  10
104.83318
  20
236.55903
  30
0
  10
104.83318
  20
236.55903
  30
0
  10
104.83318
  20
236.55903
  30
0
  10
104.62634
  20
236.83054
  30
0
  10
104.62634
  20
236.83054
  30
0
  10
104.62634
  20
236.83054
  30
0
  10
104.43829
  20
237.115
  30
0
  10
104.43829
  20
237.115
  30
0
  10
104.43829
  20
237.115
  30
0
  10
104.26985
  20
237.41114
  30
0
  10
104.26985
  20
237.41114
  30
0
  10
104.26985
  20
237.41114
  30
0
  10
104.12177
  20
237.71764
  30
0
  10
104.12177
  20
237.71764
  30
0
  10
104.12177
  20
237.71764
  30
0
  10
103.99469
  20
238.03318
  30
0
  10
103.99469
  20
238.03318
  30
0
  10
103.99469
  20
238.03318
  30
0
  10
103.88919
  20
238.35632
  30
0
  10
103.88919
  20
238.35632
  30
0
  10
103.88919
  20
238.35632
  30
0
  10
103.80573
  20
238.68566
  30
0
  10
103.80573
  20
238.68566
  30
0
  10
103.80573
  20
238.68566
  30
0
  10
99.022995
  20
260.64194
  30
0
  10
99.022995
  20
260.64194
  30
0
  10
99.022995
  20
260.64194
  30
0
  10
98.7052
  20
262.10084
  30
0
  10
97.413849
  20
263.14118
  30
0
  10
95.920746
  20
263.14118
  30
0
  10
48.44986
  20
263.14119
  30
0
  10
48.44986
  20
263.14119
  30
0
  10
48.44986
  20
263.14119
  30
0
  10
46.696365
  20
263.14119
  30
0
  10
45.274872
  20
261.71971
  30
0
  10
45.274872
  20
259.9662
  30
0
  10
45.274872
  20
229.8861
  30
0
  10
45.274872
  20
229.8861
  30
0
  10
45.274872
  20
229.8861
  30
0
  10
45.274872
  20
226.3791
  30
0
  10
42.431885
  20
223.5361
  30
0
  10
38.924866
  20
223.5361
  30
0
  10
7.6524963
  20
223.5361
  30
0
  10
7.6524963
  20
223.5361
  30
0
  10
7.6524963
  20
223.5361
  30
0
  10
7.6524658
  20
-81.263916
  30
0
  10
7.6524658
  20
-81.263916
  30
0
  10
7.6524658
  20
-81.263916
  30
0
  10
38.92485
  20
-81.263916
  30
0
  10
38.92485
  20
-81.263916
  30
0
  10
38.92485
  20
-81.263916
  30
0
  10
185.91605
  20
-81.263916
  30
0
  10
185.91605
  20
-81.263916
  30
0
  10
185.91605
  20
-81.263916
  30
0
  10
292.24216
  20
-81.263916
  30
0
  10
292.24216
  20
-81.263916
  30
0
  10
292.24216
  20
-81.263916
  30
0
  10
292.34747
  20
-81.263916
  30
0
  10
292.34747
  20
-81.263916
  30
0
  10
292.34747
  20
-81.263916
  30
0
  10
292.3475
  20
139.02916
  30
0
  10
292.3475
  20
139.02916
  30
0
  10
292.3475
  20
139.02916
  30
0
  10
187.71582
  20
280.00072
  30
0
  10
187.71582
  20
280.00072
  30
0
  10
187.71582
  20
280.00072
  30
0
  10
187.54611
  20
280.21027
  30
0
  10
187.54611
  20
280.21027
  30
0
  10
187.54611
  20
280.21027
  30
0
  10
187.35954
  20
280.40449
  30
0
  10
187.35954
  20
280.40449
  30
0
  10
187.35954
  20
280.40449
  30
0
  10
187.15747
  20
280.58195
  30
0
  10
187.15747
  20
280.58195
  30
0
  10
187.15747
  20
280.58195
  30
0
  10
186.94138
  20
280.74137
  30
0
  10
186.94138
  20
280.74137
  30
0
  10
186.94138
  20
280.74137
  30
0
  10
186.71278
  20
280.8816
  30
0
  10
186.71278
  20
280.8816
  30
0
  10
186.71278
  20
280.8816
  30
0
  10
186.47339
  20
281.00159
  30
0
  10
186.47339
  20
281.00159
  30
0
  10
186.47339
  20
281.00159
  30
0
  10
186.22488
  20
281.10053
  30
0
  10
186.22488
  20
281.10053
  30
0
  10
186.22488
  20
281.10053
  30
0
  10
185.96912
  20
281.17767
  30
0
  10
185.96912
  20
281.17767
  30
0
  10
185.96912
  20
281.17767
  30
0
  10
185.71851
  20
281.22662
  30
0
  10
185.71851
  20
281.22662
  30
0
  10
185.71851
  20
281.22662
  30
0
  10
185.46458
  20
281.25541
  30
0
  10
185.46458
  20
281.25541
  30
0
  10
185.46458
  20
281.25541
  30
0
  10
185.20898
  20
281.26388
  30
0
  10
185.20898
  20
281.26388
  30
0
  10
185.20898
  20
281.26388
  30
0
  10
184.95335
  20
281.25196
  30
0
  10
184.95335
  20
281.25196
  30
0
  10
184.95335
  20
281.25196
  30
0
  10
184.69931
  20
281.21973
  30
0
  10
184.69931
  20
281.21973
  30
0
  10
184.69931
  20
281.21973
  30
0
  10
184.4485
  20
281.16741
  30
0
  10
184.4485
  20
281.16741
  30
0
  10
184.4485
  20
281.16741
  30
0
  10
184.20251
  20
281.09531
  30
0
  10
184.20251
  20
281.09531
  30
0
  10
184.20251
  20
281.09531
  30
0
  10
183.96292
  20
281.00391
  30
0
  10
183.96292
  20
281.00391
  30
0
  10
183.96292
  20
281.00391
  30
0
  10
183.73129
  20
280.89381
  30
0
  10
183.73129
  20
280.89381
  30
0
  10
183.73129
  20
280.89381
  30
0
  10
183.50906
  20
280.76566
  30
0
  10
183.50906
  20
280.76566
  30
0
  10
183.50906
  20
280.76566
  30
0
  41
1
  41
1
  41
1
  41
1
  41
1
  41
1
  41
1
  41
1
  41
1
  41
1
  41
1
  41
1
  41
1
  41
1
  41
1
  41
1
  41
1
  41
1
  41
1
  41
1
  41
1
  41
1
  41
1
  41
1
  41
1
  41
1
  41
1
  41
1
  41
1
  41
1
  41
1
  41
1
  41
1
  41
1
  41
1
  41
1
  41
1
  41
1
  41
1
  41
1
  41
1
  41
1
  41
1
  41
1
  41
1
  41
1
  41
1
  41
1
  41
1
  41
1
  41
1
  41
1
  41
1
  41
1
  41
1
  41
1
  41
1
  41
1
  41
1
  41
1
  41
1
  41
1
  41
1
  41
1
  41
1
  41
1
  41
1
  41
1
  41
1
  41
1
  41
1
  41
1
  41
1
  41
1
  41
1
  41
1
  41
1
  41
1
  41
1
  41
1
  41
1
  41
1
  41
1
  41
1
  41
1
  41
1
  41
1
  41
1
  41
1
  41
1
  41
1
  41
1
  41
1
  41
1
  41
1
  41
1
  41
1
  41
1
  41
1
  41
1
  41
1
  41
1
  41
1
  41
1
  41
1
  41
1
  41
1
  41
1
  41
1
  41
1
  41
1
  41
1
  41
1
  41
1
  41
1
  41
1
  41
1
  41
1
  41
1
  41
1
  41
1
  41
1
  41
1
  41
1
  41
1
  41
1
  41
1
  41
1
  41
1
  41
1
  41
1
  41
1
  41
1
  41
1
  41
1
  41
1
  41
1
  41
1
  41
1
  41
1
  41
1
  41
1
  41
1
  41
1
  41
1
  41
1
  41
1
  41
1
  41
1
  41
1
  41
1
  41
1
  41
1
  41
1
  41
1
  41
1
  41
1
  41
1
  41
1
  41
1
  41
1
  41
1
  41
1
  41
1
  41
1
  41
1
  41
1
  41
1
  41
1
  41
1
  41
1
  41
1
  41
1
  41
1
  41
1
  41
1
  41
1
  41
1
  41
1
  41
1
  41
1
  41
1
  41
1
  41
1
  41
1
  41
1
  41
1
  41
1
  41
1
  41
1
  0
LWPOLYLINE
  5
9c
  100
AcDbEntity
  8

  6
Continuous
  62
7
  370
-1
  100
AcDbPolyline
  90
65
  70
1
  10
20.214081
  20
62.373703
  30
0
  10
19.984711
  20
62.390167
  30
0
  10
19.757996
  20
62.429047
  30
0
  10
19.536011
  20
62.48999
  30
0
  10
19.320892
  20
62.572449
  30
0
  10
19.114594
  20
62.675613
  30
0
  10
18.919098
  20
62.798523
  30
0
  10
18.736237
  20
62.940063
  30
0
  10
18.567657
  20
63.098877
  30
0
  10
18.415009
  20
63.273468
  30
0
  10
18.279724
  20
63.462234
  30
0
  10
18.162994
  20
63.663391
  30
0
  10
18.065979
  20
63.875061
  30
0
  10
17.989563
  20
64.095245
  30
0
  10
17.934479
  20
64.321915
  30
0
  10
17.901184
  20
64.552917
  30
0
  10
17.890076
  20
64.786102
  30
0
  10
17.901184
  20
65.019287
  30
0
  10
17.934479
  20
65.250305
  30
0
  10
17.989563
  20
65.476959
  30
0
  10
18.065979
  20
65.697159
  30
0
  10
18.162994
  20
65.908813
  30
0
  10
18.279724
  20
66.109985
  30
0
  10
18.415009
  20
66.298737
  30
0
  10
18.567657
  20
66.473343
  30
0
  10
18.736237
  20
66.632156
  30
0
  10
18.919098
  20
66.773682
  30
0
  10
19.114594
  20
66.896606
  30
0
  10
19.320892
  20
66.999771
  30
0
  10
19.536011
  20
67.082214
  30
0
  10
19.757996
  20
67.143173
  30
0
  10
19.984711
  20
67.182068
  30
0
  10
20.214081
  20
67.198517
  30
0
  10
20.443481
  20
67.182068
  30
0
  10
20.670227
  20
67.143173
  30
0
  10
20.892181
  20
67.082214
  30
0
  10
21.10733
  20
66.999771
  30
0
  10
21.313629
  20
66.896606
  30
0
  10
21.509094
  20
66.773682
  30
0
  10
21.691986
  20
66.632156
  30
0
  10
21.860535
  20
66.473343
  30
0
  10
22.013184
  20
66.298737
  30
0
  10
22.148499
  20
66.109985
  30
0
  10
22.265198
  20
65.908813
  30
0
  10
22.362213
  20
65.697159
  30
0
  10
22.438629
  20
65.476959
  30
0
  10
22.493744
  20
65.250305
  30
0
  10
22.527008
  20
65.019287
  30
0
  10
22.538147
  20
64.786102
  30
0
  10
22.527008
  20
64.552917
  30
0
  10
22.493744
  20
64.321915
  30
0
  10
22.438629
  20
64.095245
  30
0
  10
22.362213
  20
63.875061
  30
0
  10
22.265198
  20
63.663391
  30
0
  10
22.148499
  20
63.462234
  30
0
  10
22.013184
  20
63.273468
  30
0
  10
21.860535
  20
63.098877
  30
0
  10
21.691986
  20
62.940063
  30
0
  10
21.509094
  20
62.798523
  30
0
  10
21.313629
  20
62.675613
  30
0
  10
21.10733
  20
62.572449
  30
0
  10
20.892181
  20
62.48999
  30
0
  10
20.670227
  20
62.429047
  30
0
  10
20.443481
  20
62.390167
  30
0
  10
20.214081
  20
62.373703
  30
0
  0
LWPOLYLINE
  5
9d
  100
AcDbEntity
  8

  6
Continuous
  62
7
  370
-1
  100
AcDbPolyline
  90
65
  70
1
  10
20.214081
  20
189.37369
  30
0
  10
19.984711
  20
189.39017
  30
0
  10
19.757996
  20
189.42905
  30
0
  10
19.536011
  20
189.48999
  30
0
  10
19.320892
  20
189.57245
  30
0
  10
19.114594
  20
189.67561
  30
0
  10
18.919098
  20
189.79852
  30
0
  10
18.736237
  20
189.94006
  30
0
  10
18.567657
  20
190.09888
  30
0
  10
18.415009
  20
190.27347
  30
0
  10
18.279724
  20
190.46225
  30
0
  10
18.162994
  20
190.66339
  30
0
  10
18.065979
  20
190.87506
  30
0
  10
17.989563
  20
191.09525
  30
0
  10
17.934479
  20
191.32191
  30
0
  10
17.901184
  20
191.55292
  30
0
  10
17.890076
  20
191.7861
  30
0
  10
17.901184
  20
192.01929
  30
0
  10
17.934479
  20
192.25031
  30
0
  10
17.989563
  20
192.47696
  30
0
  10
18.065979
  20
192.69716
  30
0
  10
18.162994
  20
192.90883
  30
0
  10
18.279724
  20
193.10997
  30
0
  10
18.415009
  20
193.29874
  30
0
  10
18.567657
  20
193.47334
  30
0
  10
18.736237
  20
193.63216
  30
0
  10
18.919098
  20
193.77368
  30
0
  10
19.114594
  20
193.89661
  30
0
  10
19.320892
  20
193.99977
  30
0
  10
19.536011
  20
194.08221
  30
0
  10
19.757996
  20
194.14316
  30
0
  10
19.984711
  20
194.18205
  30
0
  10
20.214081
  20
194.19852
  30
0
  10
20.443481
  20
194.18205
  30
0
  10
20.670227
  20
194.14316
  30
0
  10
20.892181
  20
194.08221
  30
0
  10
21.10733
  20
193.99977
  30
0
  10
21.313629
  20
193.89661
  30
0
  10
21.509094
  20
193.77368
  30
0
  10
21.691986
  20
193.63216
  30
0
  10
21.860535
  20
193.47334
  30
0
  10
22.013184
  20
193.29874
  30
0
  10
22.148499
  20
193.10997
  30
0
  10
22.265198
  20
192.90883
  30
0
  10
22.362213
  20
192.69716
  30
0
  10
22.438629
  20
192.47696
  30
0
  10
22.493744
  20
192.25031
  30
0
  10
22.527008
  20
192.01929
  30
0
  10
22.538147
  20
191.7861
  30
0
  10
22.527008
  20
191.55292
  30
0
  10
22.493744
  20
191.32191
  30
0
  10
22.438629
  20
191.09525
  30
0
  10
22.362213
  20
190.87506
  30
0
  10
22.265198
  20
190.66339
  30
0
  10
22.148499
  20
190.46225
  30
0
  10
22.013184
  20
190.27347
  30
0
  10
21.860535
  20
190.09888
  30
0
  10
21.691986
  20
189.94006
  30
0
  10
21.509094
  20
189.79852
  30
0
  10
21.313629
  20
189.67561
  30
0
  10
21.10733
  20
189.57245
  30
0
  10
20.892181
  20
189.48999
  30
0
  10
20.670227
  20
189.42905
  30
0
  10
20.443481
  20
189.39017
  30
0
  10
20.214081
  20
189.37369
  30
0
  0
LWPOLYLINE
  5
9e
  100
AcDbEntity
  8

  6
Continuous
  62
7
  370
-1
  100
AcDbPolyline
  90
65
  70
1
  10
279.78586
  20
-59.915405
  30
0
  10
280.01526
  20
-59.931885
  30
0
  10
280.24197
  20
-59.970764
  30
0
  10
280.46393
  20
-60.031738
  30
0
  10
280.67908
  20
-60.114197
  30
0
  10
280.88538
  20
-60.217346
  30
0
  10
281.08087
  20
-60.340271
  30
0
  10
281.26373
  20
-60.481812
  30
0
  10
281.43228
  20
-60.640625
  30
0
  10
281.58493
  20
-60.815186
  30
0
  10
281.72028
  20
-61.003967
  30
0
  10
281.83698
  20
-61.205139
  30
0
  10
281.93396
  20
-61.416809
  30
0
  10
282.01041
  20
-61.636963
  30
0
  10
282.06549
  20
-61.863647
  30
0
  10
282.09875
  20
-62.094666
  30
0
  10
282.10989
  20
-62.32782
  30
0
  10
282.09875
  20
-62.561035
  30
0
  10
282.06549
  20
-62.792053
  30
0
  10
282.01041
  20
-63.018677
  30
0
  10
281.93396
  20
-63.238892
  30
0
  10
281.83698
  20
-63.450562
  30
0
  10
281.72028
  20
-63.651733
  30
0
  10
281.58493
  20
-63.840454
  30
0
  10
281.43228
  20
-64.015076
  30
0
  10
281.26373
  20
-64.173889
  30
0
  10
281.08087
  20
-64.31543
  30
0
  10
280.88538
  20
-64.438354
  30
0
  10
280.67908
  20
-64.541504
  30
0
  10
280.46393
  20
-64.623962
  30
0
  10
280.24197
  20
-64.684937
  30
0
  10
280.01526
  20
-64.723755
  30
0
  10
279.78586
  20
-64.740234
  30
0
  10
279.55649
  20
-64.723755
  30
0
  10
279.32974
  20
-64.684937
  30
0
  10
279.10776
  20
-64.623962
  30
0
  10
278.89264
  20
-64.541504
  30
0
  10
278.68634
  20
-64.438354
  30
0
  10
278.49084
  20
-64.31543
  30
0
  10
278.30798
  20
-64.173889
  30
0
  10
278.1394
  20
-64.015076
  30
0
  10
277.98679
  20
-63.840454
  30
0
  10
277.85147
  20
-63.651733
  30
0
  10
277.73474
  20
-63.450562
  30
0
  10
277.63773
  20
-63.238892
  30
0
  10
277.56134
  20
-63.018677
  30
0
  10
277.50623
  20
-62.792053
  30
0
  10
277.47296
  20
-62.561035
  30
0
  10
277.46185
  20
-62.32782
  30
0
  10
277.47296
  20
-62.094666
  30
0
  10
277.50623
  20
-61.863647
  30
0
  10
277.56134
  20
-61.636963
  30
0
  10
277.63773
  20
-61.416809
  30
0
  10
277.73474
  20
-61.205139
  30
0
  10
277.85147
  20
-61.003967
  30
0
  10
277.98679
  20
-60.815186
  30
0
  10
278.1394
  20
-60.640625
  30
0
  10
278.30798
  20
-60.481812
  30
0
  10
278.49084
  20
-60.340271
  30
0
  10
278.68634
  20
-60.217346
  30
0
  10
278.89264
  20
-60.114197
  30
0
  10
279.10776
  20
-60.031738
  30
0
  10
279.32974
  20
-59.970764
  30
0
  10
279.55649
  20
-59.931885
  30
0
  10
279.78586
  20
-59.915405
  30
0
  0
LWPOLYLINE
  5
9f
  100
AcDbEntity
  8

  6
Continuous
  62
7
  370
-1
  100
AcDbPolyline
  90
65
  70
1
  10
197.06223
  20
248.64682
  30
0
  10
197.2916
  20
248.63036
  30
0
  10
197.51833
  20
248.59146
  30
0
  10
197.74031
  20
248.53052
  30
0
  10
197.95544
  20
248.44807
  30
0
  10
198.16171
  20
248.34491
  30
0
  10
198.35722
  20
248.22198
  30
0
  10
198.5401
  20
248.08044
  30
0
  10
198.70865
  20
247.92165
  30
0
  10
198.8613
  20
247.74704
  30
0
  10
198.99661
  20
247.55827
  30
0
  10
199.11331
  20
247.35713
  30
0
  10
199.21034
  20
247.14546
  30
0
  10
199.28676
  20
246.92526
  30
0
  10
199.34186
  20
246.69861
  30
0
  10
199.37512
  20
246.46759
  30
0
  10
199.38625
  20
246.23442
  30
0
  10
199.37512
  20
246.00122
  30
0
  10
199.34186
  20
245.77022
  30
0
  10
199.28676
  20
245.54355
  30
0
  10
199.21034
  20
245.32336
  30
0
  10
199.11331
  20
245.11169
  30
0
  10
198.99661
  20
244.91054
  30
0
  10
198.8613
  20
244.72177
  30
0
  10
198.70865
  20
244.54718
  30
0
  10
198.5401
  20
244.38837
  30
0
  10
198.35722
  20
244.24683
  30
0
  10
198.16171
  20
244.12392
  30
0
  10
197.95544
  20
244.02075
  30
0
  10
197.74031
  20
243.93829
  30
0
  10
197.51833
  20
243.87735
  30
0
  10
197.2916
  20
243.83846
  30
0
  10
197.06223
  20
243.82201
  30
0
  10
196.83284
  20
243.83846
  30
0
  10
196.60611
  20
243.87735
  30
0
  10
196.38412
  20
243.93829
  30
0
  10
196.16898
  20
244.02075
  30
0
  10
195.96271
  20
244.12392
  30
0
  10
195.76721
  20
244.24683
  30
0
  10
195.58434
  20
244.38837
  30
0
  10
195.41579
  20
244.54718
  30
0
  10
195.26314
  20
244.72177
  30
0
  10
195.12782
  20
244.91054
  30
0
  10
195.01111
  20
245.11169
  30
0
  10
194.91409
  20
245.32336
  30
0
  10
194.83768
  20
245.54355
  30
0
  10
194.78256
  20
245.77022
  30
0
  10
194.7493
  20
246.00122
  30
0
  10
194.73817
  20
246.23442
  30
0
  10
194.7493
  20
246.46759
  30
0
  10
194.78256
  20
246.69861
  30
0
  10
194.83768
  20
246.92526
  30
0
  10
194.91409
  20
247.14546
  30
0
  10
195.01111
  20
247.35713
  30
0
  10
195.12782
  20
247.55827
  30
0
  10
195.26314
  20
247.74704
  30
0
  10
195.41579
  20
247.92165
  30
0
  10
195.58434
  20
248.08044
  30
0
  10
195.76721
  20
248.22198
  30
0
  10
195.96271
  20
248.34491
  30
0
  10
196.16898
  20
248.44807
  30
0
  10
196.38412
  20
248.53052
  30
0
  10
196.60611
  20
248.59146
  30
0
  10
196.83284
  20
248.63036
  30
0
  10
197.06223
  20
248.64682
  30
0
  0
LWPOLYLINE
  5
a0
  100
AcDbEntity
  8

  6
Continuous
  62
7
  370
-1
  100
AcDbPolyline
  90
65
  70
1
  10
20.214081
  20
-64.626343
  30
0
  10
19.984711
  20
-64.609863
  30
0
  10
19.757996
  20
-64.570984
  30
0
  10
19.536011
  20
-64.51001
  30
0
  10
19.320892
  20
-64.427612
  30
0
  10
19.114594
  20
-64.324402
  30
0
  10
18.919098
  20
-64.201477
  30
0
  10
18.736237
  20
-64.059937
  30
0
  10
18.567657
  20
-63.901184
  30
0
  10
18.415009
  20
-63.726563
  30
0
  10
18.279724
  20
-63.537781
  30
0
  10
18.162994
  20
-63.336609
  30
0
  10
18.065979
  20
-63.124939
  30
0
  10
17.989563
  20
-62.904785
  30
0
  10
17.934479
  20
-62.678101
  30
0
  10
17.901184
  20
-62.447083
  30
0
  10
17.890076
  20
-62.213928
  30
0
  10
17.901184
  20
-61.980713
  30
0
  10
17.934479
  20
-61.749756
  30
0
  10
17.989563
  20
-61.523071
  30
0
  10
18.065979
  20
-61.302856
  30
0
  10
18.162994
  20
-61.091187
  30
0
  10
18.279724
  20
-60.890076
  30
0
  10
18.415009
  20
-60.701294
  30
0
  10
18.567657
  20
-60.526672
  30
0
  10
18.736237
  20
-60.367859
  30
0
  10
18.919098
  20
-60.226318
  30
0
  10
19.114594
  20
-60.103394
  30
0
  10
19.320892
  20
-60.000244
  30
0
  10
19.536011
  20
-59.917786
  30
0
  10
19.757996
  20
-59.856873
  30
0
  10
19.984711
  20
-59.817993
  30
0
  10
20.214081
  20
-59.801514
  30
0
  10
20.443481
  20
-59.817993
  30
0
  10
20.670227
  20
-59.856873
  30
0
  10
20.892181
  20
-59.917786
  30
0
  10
21.10733
  20
-60.000244
  30
0
  10
21.313629
  20
-60.103394
  30
0
  10
21.509094
  20
-60.226318
  30
0
  10
21.691986
  20
-60.367859
  30
0
  10
21.860535
  20
-60.526672
  30
0
  10
22.013184
  20
-60.701294
  30
0
  10
22.148499
  20
-60.890076
  30
0
  10
22.265198
  20
-61.091187
  30
0
  10
22.362213
  20
-61.302856
  30
0
  10
22.438629
  20
-61.523071
  30
0
  10
22.493744
  20
-61.749756
  30
0
  10
22.527008
  20
-61.980713
  30
0
  10
22.538147
  20
-62.213928
  30
0
  10
22.527008
  20
-62.447083
  30
0
  10
22.493744
  20
-62.678101
  30
0
  10
22.438629
  20
-62.904785
  30
0
  10
22.362213
  20
-63.124939
  30
0
  10
22.265198
  20
-63.336609
  30
0
  10
22.148499
  20
-63.537781
  30
0
  10
22.013184
  20
-63.726563
  30
0
  10
21.860535
  20
-63.901184
  30
0
  10
21.691986
  20
-64.059937
  30
0
  10
21.509094
  20
-64.201477
  30
0
  10
21.313629
  20
-64.324402
  30
0
  10
21.10733
  20
-64.427612
  30
0
  10
20.892181
  20
-64.51001
  30
0
  10
20.670227
  20
-64.570984
  30
0
  10
20.443481
  20
-64.609863
  30
0
  10
20.214081
  20
-64.626343
  30
0
  0
LWPOLYLINE
  5
a1
  100
AcDbEntity
  8

  6
Continuous
  62
7
  370
-1
  100
AcDbPolyline
  90
65
  70
1
  10
279.78586
  20
117.88458
  30
0
  10
280.01526
  20
117.86812
  30
0
  10
280.24197
  20
117.82924
  30
0
  10
280.46396
  20
117.76828
  30
0
  10
280.67911
  20
117.68584
  30
0
  10
280.88538
  20
117.58267
  30
0
  10
281.08087
  20
117.45975
  30
0
  10
281.26373
  20
117.31822
  30
0
  10
281.43228
  20
117.15941
  30
0
  10
281.58493
  20
116.9848
  30
0
  10
281.72028
  20
116.79604
  30
0
  10
281.83698
  20
116.59488
  30
0
  10
281.93399
  20
116.38322
  30
0
  10
282.01041
  20
116.16302
  30
0
  10
282.06552
  20
115.93637
  30
0
  10
282.09879
  20
115.70535
  30
0
  10
282.10989
  20
115.47217
  30
0
  10
282.09879
  20
115.23898
  30
0
  10
282.06552
  20
115.00798
  30
0
  10
282.01041
  20
114.78131
  30
0
  10
281.93399
  20
114.56113
  30
0
  10
281.83698
  20
114.34946
  30
0
  10
281.72028
  20
114.1483
  30
0
  10
281.58493
  20
113.95953
  30
0
  10
281.43228
  20
113.78493
  30
0
  10
281.26373
  20
113.62611
  30
0
  10
281.08087
  20
113.48459
  30
0
  10
280.88538
  20
113.36168
  30
0
  10
280.67911
  20
113.2585
  30
0
  10
280.46396
  20
113.17606
  30
0
  10
280.24197
  20
113.11511
  30
0
  10
280.01526
  20
113.07622
  30
0
  10
279.78586
  20
113.05977
  30
0
  10
279.55649
  20
113.07622
  30
0
  10
279.32974
  20
113.11511
  30
0
  10
279.10776
  20
113.17606
  30
0
  10
278.89264
  20
113.2585
  30
0
  10
278.68637
  20
113.36168
  30
0
  10
278.49084
  20
113.48459
  30
0
  10
278.30798
  20
113.62611
  30
0
  10
278.13943
  20
113.78493
  30
0
  10
277.98679
  20
113.95953
  30
0
  10
277.85147
  20
114.1483
  30
0
  10
277.73477
  20
114.34946
  30
0
  10
277.63773
  20
114.56113
  30
0
  10
277.56134
  20
114.78131
  30
0
  10
277.50623
  20
115.00798
  30
0
  10
277.47296
  20
115.23898
  30
0
  10
277.46185
  20
115.47217
  30
0
  10
277.47296
  20
115.70535
  30
0
  10
277.50623
  20
115.93637
  30
0
  10
277.56134
  20
116.16302
  30
0
  10
277.63773
  20
116.38322
  30
0
  10
277.73477
  20
116.59488
  30
0
  10
277.85147
  20
116.79604
  30
0
  10
277.98679
  20
116.9848
  30
0
  10
278.13943
  20
117.15941
  30
0
  10
278.30798
  20
117.31822
  30
0
  10
278.49084
  20
117.45975
  30
0
  10
278.68637
  20
117.58267
  30
0
  10
278.89264
  20
117.68584
  30
0
  10
279.10776
  20
117.76828
  30
0
  10
279.32974
  20
117.82924
  30
0
  10
279.55649
  20
117.86812
  30
0
  10
279.78586
  20
117.88458
  30
0
  0
LWPOLYLINE
  5
a2
  100
AcDbEntity
  8

  6
Continuous
  62
7
  370
-1
  100
AcDbPolyline
  90
65
  70
1
  10
279.78586
  20
28.984573
  30
0
  10
280.01526
  20
28.968124
  30
0
  10
280.24197
  20
28.92923
  30
0
  10
280.46396
  20
28.868271
  30
0
  10
280.67911
  20
28.785843
  30
0
  10
280.88538
  20
28.682663
  30
0
  10
281.08087
  20
28.559738
  30
0
  10
281.26373
  20
28.418213
  30
0
  10
281.43228
  20
28.259415
  30
0
  10
281.58493
  20
28.084793
  30
0
  10
281.72028
  20
27.896042
  30
0
  10
281.83698
  20
27.694885
  30
0
  10
281.93399
  20
27.483215
  30
0
  10
282.01041
  20
27.263016
  30
0
  10
282.06552
  20
27.036362
  30
0
  10
282.09879
  20
26.805359
  30
0
  10
282.10989
  20
26.572159
  30
0
  10
282.09879
  20
26.338974
  30
0
  10
282.06552
  20
26.107971
  30
0
  10
282.01041
  20
25.881302
  30
0
  10
281.93399
  20
25.661118
  30
0
  10
281.83698
  20
25.449448
  30
0
  10
281.72028
  20
25.248306
  30
0
  10
281.58493
  20
25.059525
  30
0
  10
281.43228
  20
24.884933
  30
0
  10
281.26373
  20
24.72612
  30
0
  10
281.08087
  20
24.58461
  30
0
  10
280.88538
  20
24.461685
  30
0
  10
280.67911
  20
24.358505
  30
0
  10
280.46396
  20
24.276077
  30
0
  10
280.24197
  20
24.215103
  30
0
  10
280.01526
  20
24.176224
  30
0
  10
279.78586
  20
24.159744
  30
0
  10
279.55649
  20
24.176224
  30
0
  10
279.32974
  20
24.215103
  30
0
  10
279.10776
  20
24.276077
  30
0
  10
278.89264
  20
24.358505
  30
0
  10
278.68637
  20
24.461685
  30
0
  10
278.49084
  20
24.58461
  30
0
  10
278.30798
  20
24.72612
  30
0
  10
278.13943
  20
24.884933
  30
0
  10
277.98679
  20
25.059525
  30
0
  10
277.85147
  20
25.248306
  30
0
  10
277.73477
  20
25.449448
  30
0
  10
277.63773
  20
25.661118
  30
0
  10
277.56134
  20
25.881302
  30
0
  10
277.50623
  20
26.107971
  30
0
  10
277.47296
  20
26.338974
  30
0
  10
277.46185
  20
26.572159
  30
0
  10
277.47296
  20
26.805359
  30
0
  10
277.50623
  20
27.036362
  30
0
  10
277.56134
  20
27.263016
  30
0
  10
277.63773
  20
27.483215
  30
0
  10
277.73477
  20
27.694885
  30
0
  10
277.85147
  20
27.896042
  30
0
  10
277.98679
  20
28.084793
  30
0
  10
278.13943
  20
28.259415
  30
0
  10
278.30798
  20
28.418213
  30
0
  10
278.49084
  20
28.559738
  30
0
  10
278.68637
  20
28.682663
  30
0
  10
278.89264
  20
28.785843
  30
0
  10
279.10776
  20
28.868271
  30
0
  10
279.32974
  20
28.92923
  30
0
  10
279.55649
  20
28.968124
  30
0
  10
279.78586
  20
28.984573
  30
0
  0
ENDSEC
  0
SECTION
  2
OBJECTS
  0
DICTIONARY
  5
C
  330
0
  100
AcDbDictionary
  281
1
  3
ACAD_GROUP
  350
D
  0
DICTIONARY
  5
D
  330
C
  100
AcDbDictionary
  281
1
  0
ENDSEC
  0
EOF
