<?xml version="1.0" encoding="utf-8"?>
<!-- Generator: Fusion 360, Shaper Origin Export Add-In, Version 1.6.10  -->
<svg xmlns="http://www.w3.org/2000/svg" xmlns:xlink="http://www.w3.org/1999/xlink" xmlns:shaper="http://www.shapertools.com/namespaces/shaper" shaper:fusionaddin="version:1.6.10" width="1.651cm" height="0.92075cm" version="1.1" x="0cm" y="0cm" viewBox="0 0 1.651 0.92075" enable-background="new 0 0 1.651 0.92075" xml:space="preserve"><path d="M0.3873109,0.4595398 L0.3873109,-0.4612102 -1.2636891,-0.4612102 -1.2636891,0.4595398 0.3873109,0.4595398z" transform="matrix(1,0,0,-1,1.2636891,0.4595398)" fill="rgb(0,0,0)" shaper:cutDepth="0.000127" stroke-linecap="round" stroke-linejoin="round" /><path d="M-1.0920659,0.0084448 L-1.0900625,-0.032702 -1.0900625,-0.032702 -1.0889669,-0.0434289 -1.0871412,-0.0540546 -1.0844936,-0.0645074 -1.0809473,-0.0746891 -1.0764046,-0.0844679 -1.0708597,-0.0937135 -1.0644991,-0.1024205 -1.0572873,-0.1104343 -1.0493531,-0.1177357 -1.0407102,-0.124181 -1.0314504,-0.1297037 -1.0216852,-0.1342732 -1.0114776,-0.1377466 -1.0010005,-0.1402896 -0.9903184,-0.1417572 -0.9795579,-0.1424402 -0.9795579,-0.1424402 -0.9663299,-0.1415458 -0.9532783,-0.1392172 -0.9406045,-0.1353249 -0.9284407,-0.1300502 -0.9169788,-0.1233864 -0.9064032,-0.1153928 -0.8969262,-0.1061206 -0.8888494,-0.0956081 -0.8888494,-0.0956081 -0.8822058,-0.0844398 -0.8770864,-0.0724898 -0.8733097,-0.0600537 -0.8703752,-0.0473903 -0.8557405,0.0213004 -0.8557405,0.0213004 -0.8529171,0.0335409 -0.8486679,0.0453503 -0.8486679,0.0453503 -0.8437614,0.0533524 -0.8378348,0.0606305 -0.8308285,0.0668784 -0.8231068,0.0722139 -0.8147214,0.0764345 -0.8058885,0.0796107 -0.7966939,0.0814992 -0.7873335,0.0822064 -0.7873335,0.0822064 -0.776254,0.0812759 -0.7654501,0.0786681 -0.7551641,0.0744456 -0.7457005,0.0686157 -0.7372355,0.0614065 -0.7301081,0.0528793 -0.7246318,0.0432047 -0.721011,0.0326955 -0.721011,0.0326955 -0.7192377,0.0193941 -0.7184246,0.0060002 -0.7184674,-0.0320667 -0.7184674,-0.0320667 -0.7188188,-0.0452285 -0.7195711,-0.0517739 -0.721011,-0.0581977 -0.721011,-0.0581977 -0.7246489,-0.0670453 -0.72965,-0.0752003 -0.7359141,-0.0824307 -0.7431071,-0.0887385 -0.7510777,-0.09403 -0.7597388,-0.0980917 -0.7689593,-0.1006409 -0.7784659,-0.1017046 -0.7784659,-0.1017046 -0.7841929,-0.1011503 -0.7893386,-0.1010656 -0.7893386,-0.1010656 -0.7993219,-0.1027664 -0.8039369,-0.1048657 -0.8080381,-0.107851 -0.8114537,-0.1115979 -0.8140814,-0.1159351 -0.8156063,-0.1207712 -0.8161533,-0.1258134 -0.8161533,-0.1258134 -0.8153458,-0.1322166 -0.8130663,-0.1382562 -0.8093258,-0.1435075 -0.8043624,-0.1476366 -0.7986791,-0.1506999 -0.7925673,-0.1527795 -0.7862045,-0.1538697 -0.7797591,-0.1542638 -0.7797591,-0.1542638 -0.7633337,-0.1529204 -0.7552352,-0.1514093 -0.7472637,-0.1492741 -0.7318571,-0.1434248 -0.7174428,-0.1354373 -0.7042563,-0.1255522 -0.6982688,-0.119891 -0.6927097,-0.1137959 -0.6875889,-0.1073219 -0.6830229,-0.1004646 -0.675472,-0.0858167 -0.675472,-0.0858167 -0.6717909,-0.0728365 -0.669202,-0.0595926 -0.6676732,-0.0461871 -0.6671586,-0.0327033 -0.6671586,0.0088304 -0.6671586,0.0088304 -0.6678604,0.0209569 -0.6693327,0.0330122 -0.6717033,0.0449264 -0.6751491,0.0565725 -0.6797136,0.0678276 -0.6852933,0.078617 -0.6919986,0.0887425 -0.6997519,0.0980918 -0.7084234,0.1065958 -0.7179581,0.1141188 -0.728297,0.1204916 -0.7393112,0.1256103 -0.7507963,0.1295585 -0.7626236,0.1323272 -0.7746502,0.1340172 -0.7867793,0.1346733 -0.7867793,0.1346733 -0.7974529,0.1341659 -0.8080611,0.1328832 -0.8185265,0.1307284 -0.8288001,0.1277873 -0.8387115,0.1237976 -0.848272,0.1190254 -0.8572952,0.1133017 -0.8657928,0.1068245 -0.8736735,0.0996076 -0.8809184,0.0917547 -0.8873701,0.0832361 -0.8930543,0.074189 -0.8979422,0.0646863 -0.9020981,0.0548425 -0.9054434,0.0446941 -0.908155,0.0343582 -0.9223394,-0.0346168 -0.9223394,-0.0346168 -0.9247668,-0.0459272 -0.9281071,-0.0569969 -0.9281071,-0.0569969 -0.9320115,-0.064206 -0.9369335,-0.0707626 -0.9428458,-0.0764422 -0.9495123,-0.0812152 -0.9567993,-0.0849718 -0.9645499,-0.0876497 -0.9725791,-0.0893003 -0.9807587,-0.089881 -0.9807587,-0.089881 -0.9924263,-0.0887577 -0.9981288,-0.0874209 -1.0036752,-0.0854813 -1.0090038,-0.0830074 -1.0140076,-0.079959 -1.0185993,-0.0763146 -1.0227866,-0.0721927 -1.0265632,-0.0676992 -1.0298493,-0.0628483 -1.0348542,-0.0522459 -1.0378946,-0.0409326 -1.0392297,-0.0292856 -1.039891,0.0026985 -1.039891,0.0058909 -1.039891,0.0058909 -1.0391803,0.0174054 -1.0368116,0.0286895 -1.0325567,0.0394096 -1.0296461,0.0443967 -1.0261928,0.0490228 -1.0178637,0.0569984 -1.008202,0.0632935 -0.9975878,0.0678045 -0.9864857,0.0709372 -0.9864857,0.0709372 -0.9779092,0.0742409 -0.9739788,0.0766297 -0.9704913,0.0796291 -0.9676817,0.0832663 -0.965716,0.0874233 -0.964785,0.0919258 -0.9646861,0.096524 -0.9646861,0.096524 -0.965197,0.10182 -0.9666675,0.106931 -0.9692022,0.1116068 -0.9727041,0.1156111 -0.9769723,0.1187823 -0.9818368,0.1209403 -0.9870049,0.1221921 -0.9923051,0.122665 -0.9923051,0.122665 -1.0040174,0.1213427 -1.0153593,0.1180709 -1.0262533,0.113565 -1.0366433,0.107978 -1.0366433,0.107978 -1.0486507,0.0998976 -1.0595752,0.0904078 -1.069124,0.0795323 -1.0771557,0.067494 -1.0835672,0.0545198 -1.0882691,0.0408337 -1.0910461,0.0266312 -1.0919736,0.0121891 -1.0920659,0.0084448z" transform="matrix(1,0,0,-1,1.2636891,0.4595398)" fill="rgb(120,120,120)" fill-rule="nonzero" shaper:cutDepth="0.0000254" stroke-linecap="round" stroke-linejoin="round" /><path d="M-0.2431198,-0.0957928 L-0.2431198,-0.0957928 -0.2309042,-0.0965777 -0.2249461,-0.0979476 -0.2193243,-0.1003898 -0.2146762,-0.10434 -0.2117307,-0.109695 -0.2102688,-0.1156347 -0.2099586,-0.1217491 -0.2099586,-0.1217491 -0.2102739,-0.1274113 -0.2115266,-0.13294 -0.2141075,-0.1379843 -0.217973,-0.1421299 -0.2227557,-0.1451607 -0.2281226,-0.147006 -0.2337125,-0.1479418 -0.2393759,-0.1482597 -0.5962548,-0.148352 -0.5962548,-0.148352 -0.6048312,-0.1482823 -0.6133322,-0.147161 -0.6213944,-0.1442614 -0.6250185,-0.1419384 -0.6280725,-0.1389333 -0.6303984,-0.1353165 -0.6320892,-0.1313645 -0.6340773,-0.1230238 -0.6348179,-0.1144811 -0.6348659,-0.1059046 -0.6347736,-0.0019437 -0.6347736,-0.0019437 -0.6345022,0.0111967 -0.6334787,0.0243002 -0.6310212,0.0372099 -0.6271992,0.0497842 -0.6271992,0.0497842 -0.623703,0.0584147 -0.6195244,0.0667354 -0.6147951,0.0747569 -0.6094042,0.0823487 -0.6034587,0.0895148 -0.5969064,0.0961307 -0.5898376,0.1021911 -0.5823279,0.107697 -0.5744403,0.1126446 -0.5661634,0.1169122 -0.5576114,0.1205918 -0.5487639,0.1234994 -0.5397519,0.125835 -0.5305721,0.1274053 -0.5213187,0.1284331 -0.5120123,0.1287615 -0.5120123,0.1287615 -0.5016591,0.1282665 -0.4913712,0.1270134 -0.4812006,0.1250153 -0.4712077,0.1222647 -0.4614914,0.1186576 -0.4521348,0.1141988 -0.4431995,0.1089475 -0.4346857,0.1030363 -0.4266758,0.0964588 -0.4192804,0.0891973 -0.4125479,0.0813176 -0.4064835,0.0729126 -0.40124,0.0639726 -0.3968408,0.0545882 -0.3932486,0.0448662 -0.3903595,0.0349124 -0.3903595,0.0349124 -0.3885768,0.0250019 -0.3876903,0.0149683 -0.3873111,-0.005168 -0.3873111,-0.0957928 -0.2431198,-0.0957928z M-0.582399,-0.0957928 L-0.4397781,-0.0957928 -0.4397781,-0.0000039 -0.4397781,-0.0000039 -0.4408913,0.014701 -0.4423258,0.0219389 -0.444348,0.0290349 -0.4470087,0.0359157 -0.4502997,0.0425197 -0.4543043,0.0487161 -0.4590247,0.0543846 -0.4642728,0.0595724 -0.4701365,0.0640479 -0.4764357,0.0678889 -0.4831321,0.0709847 -0.4901363,0.0733053 -0.4973238,0.074968 -0.5120123,0.0762947 -0.5120123,0.0762947 -0.5269858,0.0749195 -0.5342932,0.0731378 -0.5413989,0.0706698 -0.5481193,0.0672892 -0.5543842,0.0631306 -0.5600484,0.0581778 -0.5651036,0.052611 -0.5694947,0.0465015 -0.5732237,0.0399687 -0.5761644,0.0330472 -0.5784703,0.0258837 -0.5802179,0.0185695 -0.5813591,0.0111319 -0.582399,-0.0038734 -0.582399,-0.0957928z" transform="matrix(1,0,0,-1,1.2636891,0.4595398)" fill="rgb(120,120,120)" fill-rule="nonzero" shaper:cutDepth="0.0000254" stroke-linecap="round" stroke-linejoin="round" /><path d="M-0.143581,0.0851623 L0.131934,0.0852545 -0.1595038,-0.1052898 -0.1595038,-0.1052898 -0.1663407,-0.1104585 -0.1723445,-0.1165583 -0.1747339,-0.1201315 -0.1764548,-0.1240731 -0.1775736,-0.1325565 -0.1775736,-0.1325565 -0.1765229,-0.1399254 -0.173393,-0.1466671 -0.1711902,-0.1497245 -0.1685673,-0.152348 -0.1620552,-0.1559264 -0.1620552,-0.1559264 -0.1577994,-0.1568996 -0.1534318,-0.1571185 -0.1446895,-0.1572196 0.2129962,-0.1571273 0.2129962,-0.1571273 0.2238027,-0.1569346 0.2291641,-0.1562687 0.2343094,-0.1546332 0.2343094,-0.1546332 0.2398053,-0.150339 0.2439453,-0.1447263 0.2463537,-0.1381854 0.2472414,-0.1312633 0.2472414,-0.1312633 0.2467392,-0.1255805 0.245243,-0.1200773 0.2424762,-0.1150911 0.2385237,-0.1109924 0.2336048,-0.1080933 0.2282424,-0.1061607 0.2169437,-0.1046604 -0.0630012,-0.1046604 0.2303667,0.0852545 0.2303667,0.0852545 0.2370109,0.0903387 0.2424968,0.0966233 0.2446374,0.1002512 0.2461937,0.1041333 0.2472414,0.1124118 0.2472414,0.1124118 0.2468131,0.1179283 0.2453412,0.1232591 0.2426344,0.1280773 0.238658,0.13192 0.2338323,0.1346152 0.2285611,0.1363099 0.2175903,0.1376291 -0.1459935,0.1377214 -0.1459935,0.1377214 -0.1577607,0.1367299 -0.163473,0.1351873 -0.1687618,0.1325554 -0.1730948,0.1285451 -0.1760199,0.1234153 -0.1774208,0.1176758 -0.1775736,0.1117652 -0.1775736,0.1117652 -0.1772425,0.1055051 -0.1757604,0.0994175 -0.1726685,0.0939788 -0.1679282,0.0898897 -0.1622064,0.0873462 -0.1560837,0.0859813 -0.143581,0.0851623z" transform="matrix(1,0,0,-1,1.2636891,0.4595398)" fill="rgb(120,120,120)" fill-rule="nonzero" shaper:cutDepth="0.0000254" stroke-linecap="round" stroke-linejoin="round" /></svg>