<?xml version="1.0" encoding="utf-8"?>
<!-- Generator: Fusion 360, Shaper Origin Export Add-In, Version 1.6.10  -->
<svg xmlns="http://www.w3.org/2000/svg" xmlns:xlink="http://www.w3.org/1999/xlink" xmlns:shaper="http://www.shapertools.com/namespaces/shaper" shaper:fusionaddin="version:1.6.10" width="16.8275cm" height="4.572cm" version="1.1" x="0cm" y="0cm" viewBox="0 0 16.8275 4.572" enable-background="new 0 0 16.8275 4.572" xml:space="preserve"><path d="M9.4080068,2.286 L-1.7044932,2.286 A15.24,15.24 109.5243799 0,1 -7.4194932,-1.3335 L-7.4194932,-2.286 9.4080068,-2.286 9.4080068,2.286z" transform="matrix(1,0,0,-1,7.4194932,2.286)" fill="rgb(0,0,0)" shaper:cutDepth="0.003175" stroke-linecap="round" stroke-linejoin="round" /><path d="M1.7270732,0.7263877 L2.5144732,0.7263877 2.5144732,0.0913877 2.1638675,0.0913877 A0.13335,0.13335 90 0,1 2.1638675,-0.1753123 L2.5297132,-0.1753123 2.5297132,-0.7849123 1.8020032,-0.7849123 A0.15875,0.15875 90 0,1 1.6432532,-0.9436623 L1.6432532,-1.2500123 1.0590532,-1.2500123 1.0590532,-0.6680033 A0.15875,0.15875 0 0,1 0.9897928,-0.5368806 A0.65,0.65 235.6869717 0,0 1.0691546,0.5831818 A0.15875,0.15875 296.2072096 0,1 1.157785,0.7276123 A0.1984375,0.1984375 180.7216875 0,0 1.5367459,0.812471 A0.15875,0.15875 204.5217803 0,1 1.7270732,0.7263877z" transform="matrix(1,0,0,-1,7.4194932,2.286)" fill="rgb(255,255,255)" stroke="rgb(0,0,0)" stroke-width="0.0010cm" stroke-linecap="round" stroke-linejoin="round" shaper:cutDepth="0.003175" /><path d="M1.1682732,0.8076877 L1.1682732,1.3918877 0.5840732,1.3918877 0.5840732,0.8076877 1.1682732,0.8076877z" transform="matrix(1,0,0,-1,7.4194932,2.286)" fill="rgb(255,255,255)" stroke="rgb(0,0,0)" stroke-width="0.0010cm" stroke-linecap="round" stroke-linejoin="round" shaper:cutDepth="0.003175" /><path d="M0.5510532,0.1141877 L0.5510532,0.6983877 -0.0331468,0.6983877 -0.0331468,0.1141877 0.5510532,0.1141877z" transform="matrix(1,0,0,-1,7.4194932,2.286)" fill="rgb(255,255,255)" stroke="rgb(0,0,0)" stroke-width="0.0010cm" stroke-linecap="round" stroke-linejoin="round" shaper:cutDepth="0.003175" /><path d="M0.5485132,-0.7189123 L0.5485132,-0.1347123 -0.0356868,-0.1347123 -0.0356868,-0.7189123 0.5485132,-0.7189123z" transform="matrix(1,0,0,-1,7.4194932,2.286)" fill="rgb(255,255,255)" stroke="rgb(0,0,0)" stroke-width="0.0010cm" stroke-linecap="round" stroke-linejoin="round" shaper:cutDepth="0.003175" /><path d="M-0.7087868,-1.1458123 L-0.7087868,-0.5616123 -1.2929868,-0.5616123 -1.2929868,-1.1458123 -0.7087868,-1.1458123z" transform="matrix(1,0,0,-1,7.4194932,2.286)" fill="rgb(255,255,255)" stroke="rgb(0,0,0)" stroke-width="0.0010cm" stroke-linecap="round" stroke-linejoin="round" shaper:cutDepth="0.003175" /><path d="M-1.6562068,-1.8035123 L-1.6562068,-1.2193123 -2.2404068,-1.2193123 -2.2404068,-1.8035123 -1.6562068,-1.8035123z" transform="matrix(1,0,0,-1,7.4194932,2.286)" fill="rgb(255,255,255)" stroke="rgb(0,0,0)" stroke-width="0.0010cm" stroke-linecap="round" stroke-linejoin="round" shaper:cutDepth="0.003175" /><path d="M-1.9889268,0.2372877 L-1.9889268,0.8214877 -2.5731268,0.8214877 -2.5731268,0.2372877 -1.9889268,0.2372877z" transform="matrix(1,0,0,-1,7.4194932,2.286)" fill="rgb(255,255,255)" stroke="rgb(0,0,0)" stroke-width="0.0010cm" stroke-linecap="round" stroke-linejoin="round" shaper:cutDepth="0.003175" /><path d="M-1.3488268,0.2435877 L-1.3488268,0.8277877 -1.9330268,0.8277877 -1.9330268,0.2435877 -1.3488268,0.2435877z" transform="matrix(1,0,0,-1,7.4194932,2.286)" fill="rgb(255,255,255)" stroke="rgb(0,0,0)" stroke-width="0.0010cm" stroke-linecap="round" stroke-linejoin="round" shaper:cutDepth="0.003175" /><path d="M-0.7062068,-0.3099123 L-0.7062068,0.2742877 -1.2904068,0.2742877 -1.2904068,-0.3099123 -0.7062068,-0.3099123z" transform="matrix(1,0,0,-1,7.4194932,2.286)" fill="rgb(255,255,255)" stroke="rgb(0,0,0)" stroke-width="0.0010cm" stroke-linecap="round" stroke-linejoin="round" shaper:cutDepth="0.003175" /><path d="M6.3626132,-2.0194123 L6.3626132,-1.5622123 5.9054132,-1.5622123 5.9054132,-2.0194123 6.3626132,-2.0194123z" transform="matrix(1,0,0,-1,7.4194932,2.286)" fill="rgb(255,255,255)" stroke="rgb(0,0,0)" stroke-width="0.0010cm" stroke-linecap="round" stroke-linejoin="round" shaper:cutDepth="0.003175" /><path d="M5.7998132,-2.0179123 L5.7998132,-1.5607123 5.3426132,-1.5607123 5.3426132,-2.0179123 5.7998132,-2.0179123z" transform="matrix(1,0,0,-1,7.4194932,2.286)" fill="rgb(255,255,255)" stroke="rgb(0,0,0)" stroke-width="0.0010cm" stroke-linecap="round" stroke-linejoin="round" shaper:cutDepth="0.003175" /><path d="M6.6312179,-0.6920927 L5.5807957,-0.6920927 A0.3239073,0.3239073 90 0,1 5.5807957,-1.3399073 L6.6312179,-1.3399073 A0.3239073,0.3239073 270 0,1 6.6312179,-0.6920927z" transform="matrix(1,0,0,-1,7.4194932,2.286)" fill="rgb(255,255,255)" stroke="rgb(0,0,0)" stroke-width="0.0010cm" stroke-linecap="round" stroke-linejoin="round" shaper:cutDepth="0.003175" /><path d="M2.6033732,0.8431877 L2.6033732,1.4273877 2.0191732,1.4273877 2.0191732,0.8431877 2.6033732,0.8431877z" transform="matrix(1,0,0,-1,7.4194932,2.286)" fill="rgb(255,255,255)" stroke="rgb(0,0,0)" stroke-width="0.0010cm" stroke-linecap="round" stroke-linejoin="round" shaper:cutDepth="0.003175" /><path d="M2.5805132,-1.4809123 L2.5805132,-0.8967123 1.9963132,-0.8967123 1.9963132,-1.4809123 2.5805132,-1.4809123z" transform="matrix(1,0,0,-1,7.4194932,2.286)" fill="rgb(255,255,255)" stroke="rgb(0,0,0)" stroke-width="0.0010cm" stroke-linecap="round" stroke-linejoin="round" shaper:cutDepth="0.003175" /><path d="M5.1281132,-2.0168123 L5.1281132,-1.4326123 4.5439132,-1.4326123 4.5439132,-2.0168123 5.1281132,-2.0168123z" transform="matrix(1,0,0,-1,7.4194932,2.286)" fill="rgb(255,255,255)" stroke="rgb(0,0,0)" stroke-width="0.0010cm" stroke-linecap="round" stroke-linejoin="round" shaper:cutDepth="0.003175" /><path d="M4.0061855,2.0590456 L4.0061855,1.6356535 5.5428205,1.6356535 5.5428205,2.0590456 4.0061855,2.0590456z" transform="matrix(1,0,0,-1,7.4194932,2.286)" fill="rgb(255,255,255)" stroke="rgb(0,0,0)" stroke-width="0.0010cm" stroke-linecap="round" stroke-linejoin="round" shaper:cutDepth="0.003175" /><path d="M5.7117202,2.085869 L5.7117202,1.6356535 7.332354,1.6356535 7.332354,2.085869 5.7117202,2.085869z" transform="matrix(1,0,0,-1,7.4194932,2.286)" fill="rgb(255,255,255)" stroke="rgb(0,0,0)" stroke-width="0.0010cm" stroke-linecap="round" stroke-linejoin="round" shaper:cutDepth="0.003175" /><path d="M2.765722,1.632948 L2.765722,-0.198583 3.642929,-0.198583 3.642929,1.632948 2.765722,1.632948z" transform="matrix(1,0,0,-1,7.4194932,2.286)" fill="rgb(255,255,255)" stroke="rgb(0,0,0)" stroke-width="0.0010cm" stroke-linecap="round" stroke-linejoin="round" shaper:cutDepth="0.003175" /><path d="M5.1256132,-1.2345123 L5.1256132,-0.6503123 4.5414132,-0.6503123 4.5414132,-1.2345123 5.1256132,-1.2345123z" transform="matrix(1,0,0,-1,7.4194932,2.286)" fill="rgb(255,255,255)" stroke="rgb(0,0,0)" stroke-width="0.0010cm" stroke-linecap="round" stroke-linejoin="round" shaper:cutDepth="0.003175" /><path d="M5.1231132,-0.4928123 L5.1231132,0.0913877 4.5389132,0.0913877 4.5389132,-0.4928123 5.1231132,-0.4928123z" transform="matrix(1,0,0,-1,7.4194932,2.286)" fill="rgb(255,255,255)" stroke="rgb(0,0,0)" stroke-width="0.0010cm" stroke-linecap="round" stroke-linejoin="round" shaper:cutDepth="0.003175" /><path d="M4.4957132,-0.4903123 L4.4957132,0.0938877 3.9115132,0.0938877 3.9115132,-0.4903123 4.4957132,-0.4903123z" transform="matrix(1,0,0,-1,7.4194932,2.286)" fill="rgb(255,255,255)" stroke="rgb(0,0,0)" stroke-width="0.0010cm" stroke-linecap="round" stroke-linejoin="round" shaper:cutDepth="0.003175" /><path d="M4.4957132,-1.2308123 L4.4957132,-0.6466123 3.9115132,-0.6466123 3.9115132,-1.2308123 4.4957132,-1.2308123z" transform="matrix(1,0,0,-1,7.4194932,2.286)" fill="rgb(255,255,255)" stroke="rgb(0,0,0)" stroke-width="0.0010cm" stroke-linecap="round" stroke-linejoin="round" shaper:cutDepth="0.003175" /><path d="M-2.5985068,-0.3303123 L-2.5985068,0.2538877 -3.1827068,0.2538877 -3.1827068,-0.3303123 -2.5985068,-0.3303123z" transform="matrix(1,0,0,-1,7.4194932,2.286)" fill="rgb(255,255,255)" stroke="rgb(0,0,0)" stroke-width="0.0010cm" stroke-linecap="round" stroke-linejoin="round" shaper:cutDepth="0.003175" /><path d="M-2.6036268,-1.3336123 L-2.6036268,-0.7494123 -3.1878268,-0.7494123 -3.1878268,-1.3336123 -2.6036268,-1.3336123z" transform="matrix(1,0,0,-1,7.4194932,2.286)" fill="rgb(255,255,255)" stroke="rgb(0,0,0)" stroke-width="0.0010cm" stroke-linecap="round" stroke-linejoin="round" shaper:cutDepth="0.003175" /><path d="M-3.4341668,-0.0813123 L-3.4341668,0.5028877 -4.0183668,0.5028877 -4.0183668,-0.0813123 -3.4341668,-0.0813123z" transform="matrix(1,0,0,-1,7.4194932,2.286)" fill="rgb(255,255,255)" stroke="rgb(0,0,0)" stroke-width="0.0010cm" stroke-linecap="round" stroke-linejoin="round" shaper:cutDepth="0.003175" /><path d="M-3.4316268,-0.8791123 L-3.4316268,-0.2949123 -4.0158268,-0.2949123 -4.0158268,-0.8791123 -3.4316268,-0.8791123z" transform="matrix(1,0,0,-1,7.4194932,2.286)" fill="rgb(255,255,255)" stroke="rgb(0,0,0)" stroke-width="0.0010cm" stroke-linecap="round" stroke-linejoin="round" shaper:cutDepth="0.003175" /><path d="M7.4706048,2.085869 L7.4706048,1.5998166 9.1412165,1.5998166 9.1412165,2.085869 7.4706048,2.085869z" transform="matrix(1,0,0,-1,7.4194932,2.286)" fill="rgb(255,255,255)" stroke="rgb(0,0,0)" stroke-width="0.0010cm" stroke-linecap="round" stroke-linejoin="round" shaper:cutDepth="0.003175" /><path d="M3.1596132,-1.0135123 L3.1596132,-1.5977123 3.7438132,-1.5977123 3.7438132,-1.0135123 3.1596132,-1.0135123z" transform="matrix(1,0,0,-1,7.4194932,2.286)" fill="rgb(255,255,255)" stroke="rgb(0,0,0)" stroke-width="0.0010cm" stroke-linecap="round" stroke-linejoin="round" shaper:cutDepth="0.003175" /><path d="M3.1647132,-0.3049123 L3.1647132,-0.8891123 3.7489132,-0.8891123 3.7489132,-0.3049123 3.1647132,-0.3049123z" transform="matrix(1,0,0,-1,7.4194932,2.286)" fill="rgb(255,255,255)" stroke="rgb(0,0,0)" stroke-width="0.0010cm" stroke-linecap="round" stroke-linejoin="round" shaper:cutDepth="0.003175" /><path d="M-3.4342068,-1.7351123 L-3.4342068,-1.1509123 -4.0184068,-1.1509123 -4.0184068,-1.7351123 -3.4342068,-1.7351123z" transform="matrix(1,0,0,-1,7.4194932,2.286)" fill="rgb(255,255,255)" stroke="rgb(0,0,0)" stroke-width="0.0010cm" stroke-linecap="round" stroke-linejoin="round" shaper:cutDepth="0.003175" /><path d="M8.3082132,-1.2421123 L8.3082132,-0.6579123 7.7240132,-0.6579123 7.7240132,-1.2421123 8.3082132,-1.2421123z" transform="matrix(1,0,0,-1,7.4194932,2.286)" fill="rgb(255,255,255)" stroke="rgb(0,0,0)" stroke-width="0.0010cm" stroke-linecap="round" stroke-linejoin="round" shaper:cutDepth="0.003175" /><path d="M8.3082132,-0.4420123 L8.3082132,0.1421877 7.7240132,0.1421877 7.7240132,-0.4420123 8.3082132,-0.4420123z" transform="matrix(1,0,0,-1,7.4194932,2.286)" fill="rgb(255,255,255)" stroke="rgb(0,0,0)" stroke-width="0.0010cm" stroke-linecap="round" stroke-linejoin="round" shaper:cutDepth="0.003175" /><path d="M9.0702132,-0.5055123 L9.0702132,0.0786877 8.4860132,0.0786877 8.4860132,-0.5055123 9.0702132,-0.5055123z" transform="matrix(1,0,0,-1,7.4194932,2.286)" fill="rgb(255,255,255)" stroke="rgb(0,0,0)" stroke-width="0.0010cm" stroke-linecap="round" stroke-linejoin="round" shaper:cutDepth="0.003175" /><path d="M9.1083132,-2.0094123 L9.1083132,-1.4252123 8.5241132,-1.4252123 8.5241132,-2.0094123 9.1083132,-2.0094123z" transform="matrix(1,0,0,-1,7.4194932,2.286)" fill="rgb(255,255,255)" stroke="rgb(0,0,0)" stroke-width="0.0010cm" stroke-linecap="round" stroke-linejoin="round" shaper:cutDepth="0.003175" /><path d="M9.3140132,-1.2523123 L9.3140132,-0.7951123 8.8568132,-0.7951123 8.8568132,-1.2523123 9.3140132,-1.2523123z" transform="matrix(1,0,0,-1,7.4194932,2.286)" fill="rgb(255,255,255)" stroke="rgb(0,0,0)" stroke-width="0.0010cm" stroke-linecap="round" stroke-linejoin="round" shaper:cutDepth="0.003175" /><path d="M6.9010132,-2.0399123 L6.9010132,-1.5827123 6.4438132,-1.5827123 6.4438132,-2.0399123 6.9010132,-2.0399123z" transform="matrix(1,0,0,-1,7.4194932,2.286)" fill="rgb(255,255,255)" stroke="rgb(0,0,0)" stroke-width="0.0010cm" stroke-linecap="round" stroke-linejoin="round" shaper:cutDepth="0.003175" /><path d="M7.6300132,-2.0321123 L7.6300132,-1.4479123 7.0458132,-1.4479123 7.0458132,-2.0321123 7.6300132,-2.0321123z" transform="matrix(1,0,0,-1,7.4194932,2.286)" fill="rgb(255,255,255)" stroke="rgb(0,0,0)" stroke-width="0.0010cm" stroke-linecap="round" stroke-linejoin="round" shaper:cutDepth="0.003175" /><path d="M7.6249132,-1.2322123 L7.6249132,-0.6480123 7.0407132,-0.6480123 7.0407132,-1.2322123 7.6249132,-1.2322123z" transform="matrix(1,0,0,-1,7.4194932,2.286)" fill="rgb(255,255,255)" stroke="rgb(0,0,0)" stroke-width="0.0010cm" stroke-linecap="round" stroke-linejoin="round" shaper:cutDepth="0.003175" /><path d="M7.6148132,-0.4155123 L7.6148132,0.1686877 7.0306132,0.1686877 7.0306132,-0.4155123 7.6148132,-0.4155123z" transform="matrix(1,0,0,-1,7.4194932,2.286)" fill="rgb(255,255,255)" stroke="rgb(0,0,0)" stroke-width="0.0010cm" stroke-linecap="round" stroke-linejoin="round" shaper:cutDepth="0.003175" /><path d="M8.3159132,-2.0374123 L8.3159132,-1.4532123 7.7317132,-1.4532123 7.7317132,-2.0374123 8.3159132,-2.0374123z" transform="matrix(1,0,0,-1,7.4194932,2.286)" fill="rgb(255,255,255)" stroke="rgb(0,0,0)" stroke-width="0.0010cm" stroke-linecap="round" stroke-linejoin="round" shaper:cutDepth="0.003175" /><path d="M5.6957132,-0.4812123 L5.6957132,-0.0240123 5.2385132,-0.0240123 5.2385132,-0.4812123 5.6957132,-0.4812123z" transform="matrix(1,0,0,-1,7.4194932,2.286)" fill="rgb(255,255,255)" stroke="rgb(0,0,0)" stroke-width="0.0010cm" stroke-linecap="round" stroke-linejoin="round" shaper:cutDepth="0.003175" /><path d="M6.2393132,-0.4838123 L6.2393132,-0.0266123 5.7821132,-0.0266123 5.7821132,-0.4838123 6.2393132,-0.4838123z" transform="matrix(1,0,0,-1,7.4194932,2.286)" fill="rgb(255,255,255)" stroke="rgb(0,0,0)" stroke-width="0.0010cm" stroke-linecap="round" stroke-linejoin="round" shaper:cutDepth="0.003175" /><path d="M6.7828132,-0.4863123 L6.7828132,-0.0291123 6.3256132,-0.0291123 6.3256132,-0.4863123 6.7828132,-0.4863123z" transform="matrix(1,0,0,-1,7.4194932,2.286)" fill="rgb(255,255,255)" stroke="rgb(0,0,0)" stroke-width="0.0010cm" stroke-linecap="round" stroke-linejoin="round" shaper:cutDepth="0.003175" /><path d="M4.4957132,-2.0194123 L4.4957132,-1.4352123 3.9115132,-1.4352123 3.9115132,-2.0194123 4.4957132,-2.0194123z" transform="matrix(1,0,0,-1,7.4194932,2.286)" fill="rgb(255,255,255)" stroke="rgb(0,0,0)" stroke-width="0.0010cm" stroke-linecap="round" stroke-linejoin="round" shaper:cutDepth="0.003175" /><path d="M8.3989918,-1.016 a0.215265,0.215265 0 1,1 0.43053,0 a0.215265,0.215265 0 1,1 -0.43053,0z" transform="matrix(1,0,0,-1,7.4194932,2.286)" fill="rgb(255,255,255)" stroke="rgb(0,0,0)" stroke-width="0.0010cm" stroke-linecap="round" stroke-linejoin="round" shaper:cutDepth="0.003175" /><path d="M-1.5514582,1.35255 a0.215265,0.215265 0 1,1 0.43053,0 a0.215265,0.215265 0 1,1 -0.43053,0z" transform="matrix(1,0,0,-1,7.4194932,2.286)" fill="rgb(255,255,255)" stroke="rgb(0,0,0)" stroke-width="0.0010cm" stroke-linecap="round" stroke-linejoin="round" shaper:cutDepth="0.003175" /><path d="M-5.8059582,-1.3716 a0.215265,0.215265 0 1,1 0.43053,0 a0.215265,0.215265 0 1,1 -0.43053,0z" transform="matrix(1,0,0,-1,7.4194932,2.286)" fill="rgb(255,255,255)" stroke="rgb(0,0,0)" stroke-width="0.0010cm" stroke-linecap="round" stroke-linejoin="round" shaper:cutDepth="0.003175" /><path d="M4.0319872,0.85725 a0.215265,0.215265 0 1,1 0.43053,0 a0.215265,0.215265 0 1,1 -0.43053,0z" transform="matrix(1,0,0,-1,7.4194932,2.286)" fill="rgb(255,255,255)" stroke="rgb(0,0,0)" stroke-width="0.0010cm" stroke-linecap="round" stroke-linejoin="round" shaper:cutDepth="0.003175" /><path d="M8.6344672,0.85725 a0.215265,0.215265 0 1,1 0.43053,0 a0.215265,0.215265 0 1,1 -0.43053,0z" transform="matrix(1,0,0,-1,7.4194932,2.286)" fill="rgb(255,255,255)" stroke="rgb(0,0,0)" stroke-width="0.0010cm" stroke-linecap="round" stroke-linejoin="round" shaper:cutDepth="0.003175" /><path d="M-3.0263277,-0.5395364 a0.1389126,0.1389126 0 1,1 0.2778252,0 a0.1389126,0.1389126 0 1,1 -0.2778252,0z" transform="matrix(1,0,0,-1,7.4194932,2.286)" fill="rgb(255,255,255)" stroke="rgb(0,0,0)" stroke-width="0.0010cm" stroke-linecap="round" stroke-linejoin="round" shaper:cutDepth="0.003175" /><path d="M5.4544584,0.85725 a0.1389126,0.1389126 0 1,1 0.2778252,0 a0.1389126,0.1389126 0 1,1 -0.2778252,0z" transform="matrix(1,0,0,-1,7.4194932,2.286)" fill="rgb(255,255,255)" stroke="rgb(0,0,0)" stroke-width="0.0010cm" stroke-linecap="round" stroke-linejoin="round" shaper:cutDepth="0.003175" /><path d="M-2.5807932,-0.53975 a0.635,0.635 0 1,1 1.27,0 a0.635,0.635 0 1,1 -1.27,0z" transform="matrix(1,0,0,-1,7.4194932,2.286)" fill="rgb(255,255,255)" stroke="rgb(0,0,0)" stroke-width="0.0010cm" stroke-linecap="round" stroke-linejoin="round" shaper:cutDepth="0.003175" /><path d="M5.9122222,0.85725 a0.635,0.635 0 1,1 1.27,0 a0.635,0.635 0 1,1 -1.27,0z" transform="matrix(1,0,0,-1,7.4194932,2.286)" fill="rgb(255,255,255)" stroke="rgb(0,0,0)" stroke-width="0.0010cm" stroke-linecap="round" stroke-linejoin="round" shaper:cutDepth="0.003175" /></svg>