<?xml version="1.0" encoding="utf-8"?>
<!-- Generator: Fusion 360, Shaper Origin Export Add-In, Version 1.6.10  -->
<svg xmlns="http://www.w3.org/2000/svg" xmlns:xlink="http://www.w3.org/1999/xlink" xmlns:shaper="http://www.shapertools.com/namespaces/shaper" shaper:fusionaddin="version:1.6.10" width="1.2573cm" height="1.2573cm" version="1.1" x="0cm" y="0cm" viewBox="0 0 1.2573 1.2573" enable-background="new 0 0 1.2573 1.2573" xml:space="preserve"><path d="M-0.62865,0.62865 L0.62865,0.62865 0.62865,-0.62865 -0.62865,-0.62865 -0.62865,0.62865z" transform="matrix(1,0,0,-1,0.62865,0.62865)" fill="rgb(0,0,0)" shaper:cutDepth="0.000762" stroke-linecap="round" stroke-linejoin="round" /><path d="M-0.0783873,0.4855513 L-0.1088184,0.4947503 -0.1088184,0.4947503 -0.1127762,0.4967707 -0.1157763,0.500043 -0.1173833,0.5041785 -0.1177989,0.5086059 -0.1177989,0.5086059 -0.1169503,0.5139758 -0.1143677,0.5187459 -0.1125009,0.5207305 -0.1102254,0.5222206 -0.1076738,0.523172 -0.1049696,0.523488 -0.1049696,0.523488 -0.0987905,0.5223928 -0.0927381,0.5206677 0.1081512,0.4603163 0.1081512,0.4603163 0.1125062,0.4584355 0.1159708,0.4552094 0.1178709,0.4508809 0.1182608,0.4461528 0.1182608,0.4461528 0.1176468,0.4406164 0.1165238,0.4380607 0.1147962,0.4358663 0.1101121,0.4328535 0.1048761,0.4309258 -0.095168,0.3698952 -0.095168,0.3698952 -0.0996471,0.3686544 -0.1042511,0.3680991 -0.1042511,0.3680991 -0.10974,0.3692272 -0.1121691,0.3706508 -0.114209,0.3725934 -0.1169444,0.3774827 -0.1177989,0.3830325 -0.1177989,0.3830325 -0.1173385,0.3878594 -0.1152196,0.3922012 -0.1115567,0.3953519 -0.1070902,0.3972283 -0.0783873,0.4060961 -0.0783873,0.4855513z M-0.049239,0.4763288 L-0.049239,0.4153186 0.0529028,0.4458237 -0.049239,0.4763288z" transform="matrix(1,0,0,-1,0.62865,0.62865)" fill="rgb(110,110,110)" fill-rule="nonzero" shaper:cutDepth="0.0000762" stroke-linecap="round" stroke-linejoin="round" /><path d="M-0.091935,0.2094773 L-0.091935,0.3010274 0.1024098,0.3010274 0.1024098,0.3010274 0.1085032,0.3016333 0.1114032,0.3026268 0.1140155,0.3042322 0.116074,0.3064983 0.1174582,0.3092314 0.1182608,0.3152936 0.1182608,0.3152936 0.1174218,0.3213063 0.1160498,0.324024 0.1139914,0.326261 0.1113698,0.3278148 0.1084939,0.3288132 0.102455,0.3295598 -0.1003312,0.3295599 -0.1003312,0.3295599 -0.1074924,0.3291359 -0.1108843,0.3279455 -0.1137799,0.3258251 -0.1157807,0.3228424 -0.1169728,0.3194494 -0.1177989,0.3123172 -0.1177989,0.2112855 -0.1177989,0.2112855 -0.1174397,0.2031139 -0.1174397,0.2031139 -0.1159182,0.1991088 -0.1130251,0.1959467 -0.1092561,0.1938872 -0.1050209,0.1931584 -0.1050209,0.1931584 -0.1012527,0.193724 -0.0977702,0.1952524 -0.094815,0.1976694 -0.09291,0.2009586 -0.09291,0.2009586 -0.0920651,0.2051698 -0.091935,0.2094773z" transform="matrix(1,0,0,-1,0.62865,0.62865)" fill="rgb(110,110,110)" fill-rule="nonzero" shaper:cutDepth="0.0000762" stroke-linecap="round" stroke-linejoin="round" /><path d="M-0.0898662,0.0364032 L-0.0915758,0.0353063 -0.0915758,0.0353063 -0.0967063,0.0320852 -0.0994902,0.0309134 -0.1025063,0.0306878 -0.1025063,0.0306878 -0.1081489,0.0317091 -0.1106751,0.0330856 -0.1128458,0.0349743 -0.1156743,0.0399541 -0.1165673,0.0456211 -0.1165673,0.0456211 -0.1162846,0.0493995 -0.1150909,0.0529898 -0.1126413,0.0558729 -0.1095336,0.0580405 -0.0192697,0.1104794 -0.0192697,0.1299664 -0.0986062,0.1299354 -0.0986062,0.1299354 -0.1055971,0.1303306 -0.109028,0.1310526 -0.1122724,0.1323716 -0.1149617,0.1346035 -0.1167279,0.1376226 -0.1176136,0.1410105 -0.1177989,0.1445096 -0.1177989,0.1445096 -0.1174931,0.1478932 -0.1165793,0.1511618 -0.1149243,0.1541288 -0.1125645,0.1565691 -0.1125645,0.1565691 -0.1090901,0.1584316 -0.1051614,0.1589268 -0.0972415,0.1590527 0.0978365,0.1590324 0.0978365,0.1590324 0.1062333,0.1585327 0.1102285,0.1571794 0.1136205,0.1546877 0.1159787,0.1512018 0.1173303,0.1472034 0.1182607,0.1388342 0.1182608,0.0920119 0.1182608,0.0920119 0.1168923,0.0793184 0.1153218,0.0731245 0.1130255,0.0671612 0.1100521,0.0615065 0.1064201,0.0562481 0.1022334,0.0514228 0.0975357,0.0470888 0.0924119,0.0432737 0.086921,0.0400007 0.0811356,0.0372936 0.0751059,0.0351705 0.06264,0.0323941 0.0499061,0.0314062 0.0499061,0.0314062 0.0392075,0.0321449 0.0286761,0.0341512 0.018503,0.0375308 0.0089414,0.042377 0.0001803,0.0485484 -0.0073652,0.0561516 -0.013291,0.065071 -0.0171877,0.0750484 -0.0178817,0.0778828 -0.0898662,0.0364032z M0.0891124,0.1299664 L0.0098786,0.1299664 0.0098786,0.0930896 0.0098786,0.0930896 0.0101277,0.0872296 0.0111443,0.0814596 0.0136667,0.0761671 0.0176275,0.0718442 0.0176275,0.0718442 0.0245517,0.0666473 0.0324733,0.0631509 0.0409018,0.0611367 0.0495469,0.0605031 0.0495469,0.0605031 0.0596516,0.0613868 0.0694064,0.0641482 0.0740278,0.0662492 0.078311,0.0689637 0.0822091,0.0722183 0.085469,0.0761036 0.085469,0.0761036 0.0874685,0.0794586 0.0886029,0.0831987 0.0891124,0.0909923 0.0891124,0.1299664z" transform="matrix(1,0,0,-1,0.62865,0.62865)" fill="rgb(110,110,110)" fill-rule="nonzero" shaper:cutDepth="0.0000762" stroke-linecap="round" stroke-linejoin="round" /><path d="M0.0147024,-0.1024807 L0.014303,-0.0244226 0.014303,-0.0244226 0.0138599,-0.0173745 0.0129354,-0.013962 0.0113954,-0.0107784 0.0090533,-0.0081389 0.0060017,-0.0063618 0.002581,-0.0054757 -0.0009494,-0.0052857 -0.0009494,-0.0052857 -0.0043911,-0.0054334 -0.0077208,-0.0063105 -0.0106567,-0.0080997 -0.0128299,-0.0107667 -0.0142528,-0.0139053 -0.0150934,-0.0172453 -0.0154722,-0.0241191 -0.0154927,-0.102459 -0.0154927,-0.102459 -0.0148441,-0.109064 -0.0138761,-0.1122381 -0.0123104,-0.1151675 -0.0100239,-0.1175694 -0.0071116,-0.1191572 -0.0039032,-0.1200066 -0.0005901,-0.1202365 -0.0005901,-0.1202365 0.0059647,-0.1191331 0.0088719,-0.1175027 0.0112239,-0.1151402 0.0129269,-0.1122746 0.0139696,-0.1091057 0.0147024,-0.1024807z" transform="matrix(1,0,0,-1,0.62865,0.62865)" fill="rgb(110,110,110)" fill-rule="nonzero" shaper:cutDepth="0.0000762" stroke-linecap="round" stroke-linejoin="round" /><path d="M0.0443125,-0.2236409 L0.0443125,-0.2236409 0.0455895,-0.2303078 0.046006,-0.237086 0.046006,-0.237086 0.0454831,-0.2445063 0.0441646,-0.2518276 0.0420955,-0.2589703 0.0391159,-0.2657885 0.0354197,-0.27224 0.0309587,-0.278195 0.0258951,-0.2836416 0.020311,-0.2885588 0.014287,-0.2929201 0.007871,-0.2966878 0.0011384,-0.2998475 -0.0058601,-0.3023735 -0.0203584,-0.3056632 -0.035178,-0.3068776 -0.035178,-0.3068776 -0.0500162,-0.3056683 -0.057352,-0.3043619 -0.0645513,-0.3024645 -0.0715797,-0.2999914 -0.0783766,-0.29695 -0.0848647,-0.2932901 -0.0909884,-0.2890519 -0.0966985,-0.2842684 -0.1019128,-0.2789519 -0.1065437,-0.2731169 -0.1104311,-0.2667673 -0.1135476,-0.2600012 -0.1157851,-0.2528996 -0.1172039,-0.2455875 -0.1177989,-0.2381637 -0.1177989,-0.2381637 -0.1172024,-0.2304474 -0.1158199,-0.2228329 -0.1134723,-0.215459 -0.110207,-0.2084431 -0.1060491,-0.2019173 -0.1010883,-0.1959773 -0.0954811,-0.1906433 -0.0893472,-0.1859234 -0.0827798,-0.1818298 -0.0758706,-0.1783391 -0.0686659,-0.1755175 -0.0612542,-0.1732798 -0.0460489,-0.1704245 -0.0306108,-0.1693985 -0.0306108,-0.1693985 -0.0123677,-0.1704615 0.0056489,-0.1735107 0.0231958,-0.1786136 0.0400635,-0.1856397 0.0560698,-0.1944511 0.0710585,-0.204903 0.0847961,-0.2169546 0.0972521,-0.2303252 0.1161054,-0.254072 0.1161054,-0.254072 0.1182608,-0.2597169 0.1182608,-0.2597169 0.1178336,-0.2649351 0.1164133,-0.2699804 0.1164133,-0.2699804 0.1139433,-0.2728773 0.1106589,-0.2748255 0.1070112,-0.2759187 0.1032248,-0.2763951 0.1032248,-0.2763951 0.0982816,-0.2756199 0.0939363,-0.2731621 0.0939363,-0.2731621 0.0879684,-0.2664342 0.0723717,-0.2476717 0.0708949,-0.2459126 0.0708949,-0.2459126 0.0571932,-0.231749 0.0571932,-0.231749 0.0505638,-0.2264003 0.0436065,-0.221475 0.0443125,-0.2236409z M0.0170255,-0.2382232 L0.0170255,-0.2382232 0.016672,-0.2336985 0.0156389,-0.2292455 0.0118163,-0.2208507 0.0061221,-0.2136265 -0.0009372,-0.2079027 -0.0089429,-0.2036164 -0.0175047,-0.2006727 -0.0263988,-0.1989842 -0.035481,-0.1984675 -0.0446055,-0.1990434 -0.0535895,-0.2007224 -0.0622162,-0.2035965 -0.0702675,-0.2077607 -0.0774699,-0.2133043 -0.0832715,-0.2202875 -0.0854484,-0.2243328 -0.0870614,-0.2286961 -0.0880818,-0.2332635 -0.0884817,-0.2379186 -0.0882336,-0.2425445 -0.0873097,-0.2470247 -0.0856875,-0.2512462 -0.0834215,-0.255158 -0.0774234,-0.2620436 -0.0702111,-0.2676723 -0.0622368,-0.2720545 -0.0536904,-0.2752115 -0.0447585,-0.2771648 -0.0356282,-0.2779274 -0.0264898,-0.2774731 -0.0175345,-0.2757637 -0.0089537,-0.2727611 -0.0009644,-0.2684248 0.006076,-0.2627018 0.0117598,-0.2555434 0.0156021,-0.2471896 0.0166525,-0.2427452 0.0170255,-0.2382232z" transform="matrix(1,0,0,-1,0.62865,0.62865)" fill="rgb(110,110,110)" fill-rule="nonzero" shaper:cutDepth="0.0000762" stroke-linecap="round" stroke-linejoin="round" /><path d="M0.0891125,-0.3960157 L0.0891124,-0.4573352 -0.0919939,-0.4101587 -0.0919939,-0.4101587 -0.1048156,-0.4077161 -0.1048156,-0.4077161 -0.1101025,-0.4088456 -0.1124412,-0.4102292 -0.114383,-0.4121324 -0.1169866,-0.4168761 -0.1177989,-0.4222389 -0.1177989,-0.4222389 -0.117046,-0.4281412 -0.1156852,-0.4307974 -0.1136392,-0.4329594 -0.1083659,-0.4357263 -0.1026603,-0.4374801 0.0950113,-0.4889045 0.0950113,-0.4889045 0.1030195,-0.490337 0.1030195,-0.490337 0.1064663,-0.4899854 0.1097765,-0.4889684 0.1126832,-0.4870854 0.1149715,-0.4844921 0.1165343,-0.4813981 0.1175304,-0.4780796 0.1182608,-0.4711956 0.1182607,-0.3984532 0.1182607,-0.3984532 0.1177853,-0.3914256 0.11692,-0.3880066 0.1154816,-0.3847871 0.1132507,-0.3820641 0.1102787,-0.380177 0.1068985,-0.3791804 0.1033787,-0.3789784 0.1033787,-0.3789784 0.0997712,-0.3794516 0.0963221,-0.3806078 0.0933253,-0.3826689 0.0908573,-0.3853417 0.0908573,-0.3853417 0.089756,-0.3878415 0.0893097,-0.390545 0.0891125,-0.3960157z" transform="matrix(1,0,0,-1,0.62865,0.62865)" fill="rgb(110,110,110)" fill-rule="nonzero" shaper:cutDepth="0.0000762" stroke-linecap="round" stroke-linejoin="round" /><path d="M-0.4136497,0.4205967 L-0.4136497,0.4205967 -0.4204134,0.4210191 -0.4237288,0.4217154 -0.4268621,0.423015 -0.4294344,0.4252015 -0.4311103,0.428143 -0.4319396,0.4314273 -0.4321239,0.4348116 -0.4321239,0.4348116 -0.431356,0.4411322 -0.4299633,0.4440054 -0.4278719,0.4464159 -0.4251661,0.4481093 -0.42213,0.4491111 -0.4157809,0.449714 -0.2174636,0.4496936 -0.2174636,0.4496936 -0.2083634,0.4493081 -0.2039827,0.4480423 -0.2002474,0.4454513 -0.197888,0.4415605 -0.1966638,0.4371648 -0.1960643,0.4280766 -0.1960643,0.38216 -0.1960643,0.38216 -0.1964033,0.3757962 -0.1973747,0.3694986 -0.1989367,0.3633208 -0.2012196,0.3573713 -0.2041535,0.3517153 -0.207749,0.3464548 -0.2119508,0.3416644 -0.2166434,0.3373523 -0.221773,0.3335741 -0.2272741,0.3303533 -0.2391066,0.3256536 -0.2515605,0.3229989 -0.264265,0.3220675 -0.264265,0.3220675 -0.27271,0.3225133 -0.2810832,0.3236926 -0.2892816,0.325768 -0.2972025,0.3287273 -0.3047639,0.3325152 -0.3118202,0.3371722 -0.3182375,0.3426805 -0.3238444,0.3490091 -0.3238444,0.3490091 -0.3286575,0.3567943 -0.3317739,0.3653983 -0.3332324,0.3744384 -0.3335947,0.3835918 -0.3335947,0.4206277 -0.4136497,0.4205967z M-0.2252126,0.4206277 L-0.3044464,0.4206277 -0.3044464,0.3814416 -0.3044464,0.3814416 -0.3035888,0.3745093 -0.3010115,0.368023 -0.2968622,0.3624062 -0.2914205,0.3580209 -0.285198,0.3548232 -0.2785141,0.352735 -0.2716116,0.351596 -0.2646242,0.3511644 -0.2646242,0.3511644 -0.2574453,0.3515523 -0.2503534,0.352707 -0.2435163,0.3549272 -0.2372139,0.3583833 -0.2319148,0.3632168 -0.2280542,0.3692544 -0.2258645,0.3760836 -0.2252126,0.3832357 -0.2252126,0.4206277z" transform="matrix(1,0,0,-1,0.62865,0.62865)" fill="rgb(110,110,110)" fill-rule="nonzero" shaper:cutDepth="0.0000762" stroke-linecap="round" stroke-linejoin="round" /><path d="M-0.1927799,0.2163538 L-0.1927799,0.2163538 -0.1940555,0.2057391 -0.1974398,0.1955946 -0.2025739,0.1862119 -0.2092015,0.1778145 -0.2092015,0.1778145 -0.2143025,0.1731384 -0.2197994,0.1689297 -0.2317609,0.161986 -0.2446042,0.1568385 -0.2579494,0.153176 -0.2715541,0.1506297 -0.285307,0.1490666 -0.299124,0.1482282 -0.3129651,0.1479991 -0.3129651,0.1479991 -0.3393726,0.1490135 -0.3525108,0.1504524 -0.3655177,0.1527906 -0.3782864,0.1561981 -0.3906336,0.1609077 -0.402285,0.1671495 -0.4128799,0.1750434 -0.4128799,0.1750434 -0.4206662,0.1835405 -0.4266152,0.1934117 -0.4288936,0.1987116 -0.4305808,0.2042262 -0.4317183,0.2098824 -0.4321239,0.2156354 -0.4321239,0.2156354 -0.4316385,0.2220342 -0.4302731,0.2283079 -0.4282627,0.2344019 -0.4256136,0.2402493 -0.4188288,0.2511342 -0.4101601,0.2605893 -0.4101601,0.2605893 -0.4049433,0.2646947 -0.3993547,0.2682771 -0.387374,0.2739832 -0.3747651,0.278131 -0.3618178,0.2810746 -0.3487059,0.2831773 -0.3354985,0.284557 -0.3089623,0.2855295 -0.3089623,0.2855295 -0.2843772,0.2844323 -0.272158,0.2829434 -0.2600627,0.2806733 -0.2481642,0.2775195 -0.2366045,0.2733035 -0.2255897,0.2678088 -0.2154109,0.2608972 -0.2154109,0.2608972 -0.2106941,0.2565411 -0.2064424,0.2517307 -0.1994564,0.2409729 -0.1967601,0.2351458 -0.1946737,0.2290746 -0.1933158,0.222799 -0.19278,0.2164021 -0.1927799,0.2163538z M-0.3118874,0.1771474 L-0.3118874,0.1771474 -0.2937298,0.1777453 -0.2756735,0.1797282 -0.2667449,0.1813965 -0.2579467,0.183658 -0.2493514,0.1865992 -0.2411209,0.1904386 -0.2411209,0.1904386 -0.2342751,0.1952899 -0.2283069,0.2011677 -0.2257987,0.2045527 -0.2238166,0.2082446 -0.2225283,0.2122205 -0.22193,0.2163754 -0.22193,0.2163754 -0.223534,0.2238807 -0.2271595,0.2306668 -0.2320576,0.236593 -0.2378879,0.2416019 -0.2378879,0.2416019 -0.246193,0.2460044 -0.2550271,0.2492437 -0.2641078,0.2516867 -0.2733365,0.2535094 -0.2920111,0.2557353 -0.3108098,0.2563813 -0.3108098,0.2563813 -0.3309245,0.2557057 -0.350914,0.2534013 -0.36078,0.2514169 -0.3704632,0.2486798 -0.3798114,0.2449493 -0.3884529,0.2398058 -0.3884529,0.2398058 -0.3938148,0.2352196 -0.3984198,0.2298777 -0.401643,0.2236192 -0.4029757,0.216713 -0.4029757,0.216713 -0.4025037,0.2127909 -0.4013142,0.209022 -0.397461,0.2021331 -0.3922164,0.1962319 -0.385887,0.1915162 -0.385887,0.1915162 -0.3774087,0.1871783 -0.368452,0.1839154 -0.3592474,0.1814667 -0.3498812,0.1797017 -0.330934,0.1777042 -0.3118874,0.1771474z" transform="matrix(1,0,0,-1,0.62865,0.62865)" fill="rgb(110,110,110)" fill-rule="nonzero" shaper:cutDepth="0.0000762" stroke-linecap="round" stroke-linejoin="round" /><path d="M-0.2082265,0.0176532 L-0.3514765,0.0499597 -0.2092375,0.0825931 -0.2092375,0.0825931 -0.2042822,0.0841351 -0.2000543,0.0871195 -0.1974693,0.0915956 -0.1967827,0.0967331 -0.1967827,0.0967331 -0.1978535,0.1023381 -0.2009894,0.1070979 -0.2057577,0.1102177 -0.2113568,0.1113073 -0.2113568,0.1113073 -0.219157,0.1098704 -0.4153245,0.0652123 -0.4153245,0.0652123 -0.4220973,0.0636371 -0.4254434,0.0626899 -0.4281212,0.0605544 -0.4281212,0.0605544 -0.4299028,0.058262 -0.4311547,0.0556405 -0.4321239,0.0499317 -0.4321239,0.0499317 -0.4313378,0.0441934 -0.4300467,0.0415877 -0.4281174,0.0394265 -0.4230473,0.0366099 -0.4174471,0.0350497 -0.2784061,0.0034926 -0.4178075,-0.0284314 -0.4178075,-0.0284314 -0.4233715,-0.0300097 -0.4284155,-0.0327945 -0.4303091,-0.0349852 -0.4314625,-0.0376345 -0.4321239,-0.0433631 -0.4321239,-0.0433631 -0.4314023,-0.0487914 -0.4301099,-0.051219 -0.4282971,-0.0532851 -0.4236513,-0.0562035 -0.4184222,-0.0578859 -0.2172342,-0.1032754 -0.2172342,-0.1032754 -0.2135345,-0.1043356 -0.2097147,-0.1047386 -0.2097147,-0.1047386 -0.2042737,-0.1037157 -0.2017587,-0.1025349 -0.1995816,-0.1008139 -0.1979611,-0.09856 -0.1968778,-0.0960021 -0.1960643,-0.0905237 -0.1960643,-0.0905237 -0.1966641,-0.0854168 -0.1990276,-0.0808701 -0.2030692,-0.0777145 -0.2079186,-0.0760009 -0.3509082,-0.0429745 -0.2068692,-0.0103411 -0.2068692,-0.0103411 -0.2021934,-0.0088969 -0.1984066,-0.0058268 -0.1963775,-0.0013946 -0.1960643,0.0034896 -0.1960643,0.0034896 -0.1965921,0.008633 -0.1974704,0.0110702 -0.1990145,0.0131502 -0.2033175,0.0159965 -0.2082265,0.0176532z" transform="matrix(1,0,0,-1,0.62865,0.62865)" fill="rgb(110,110,110)" fill-rule="nonzero" shaper:cutDepth="0.0000762" stroke-linecap="round" stroke-linejoin="round" /><path d="M-0.2847406,-0.1705478 L-0.2847406,-0.2326727 -0.2847406,-0.2326727 -0.2852747,-0.2392055 -0.2862231,-0.2423514 -0.2877928,-0.2452306 -0.2900826,-0.2475808 -0.2929995,-0.249079 -0.296189,-0.2498477 -0.2994686,-0.250018 -0.2994686,-0.250018 -0.302854,-0.2498775 -0.3061283,-0.2490155 -0.3090192,-0.2472568 -0.3112096,-0.2446798 -0.3126259,-0.2416011 -0.3134493,-0.2383147 -0.3138889,-0.2315581 -0.3138889,-0.1705478 -0.4029757,-0.1705478 -0.4029757,-0.2578182 -0.4029757,-0.2578182 -0.4034016,-0.2645684 -0.404261,-0.267847 -0.405767,-0.2708784 -0.4080851,-0.2733399 -0.411029,-0.2750082 -0.4143191,-0.2758042 -0.4177037,-0.2759332 -0.4177037,-0.2759332 -0.4212046,-0.2757777 -0.4245614,-0.274782 -0.4274533,-0.272809 -0.4295841,-0.2700358 -0.431707,-0.26338 -0.4321239,-0.2563878 -0.4321239,-0.1595969 -0.4321239,-0.1595969 -0.4315575,-0.1516584 -0.4303631,-0.1478586 -0.4280682,-0.1446152 -0.4246347,-0.1426075 -0.4207702,-0.1416558 -0.4128077,-0.1414615 -0.2150003,-0.1414818 -0.2150003,-0.1414818 -0.2071413,-0.1418652 -0.2033645,-0.1429671 -0.2000341,-0.1450584 -0.1978222,-0.1483041 -0.196654,-0.1520648 -0.1960643,-0.1599065 -0.1960643,-0.257459 -0.1960643,-0.257459 -0.1964868,-0.2639825 -0.1973497,-0.2671448 -0.1988686,-0.2700376 -0.2010983,-0.2724353 -0.2039748,-0.2739859 -0.2071613,-0.2747277 -0.2104331,-0.2748555 -0.2104331,-0.2748555 -0.2138606,-0.2747217 -0.2171882,-0.273899 -0.2201507,-0.2721784 -0.2224331,-0.2696267 -0.2239393,-0.266544 -0.2248186,-0.2632298 -0.2252126,-0.2563878 -0.2252126,-0.1705478 -0.2847406,-0.1705478z" transform="matrix(1,0,0,-1,0.62865,0.62865)" fill="rgb(110,110,110)" fill-rule="nonzero" shaper:cutDepth="0.0000762" stroke-linecap="round" stroke-linejoin="round" /><path d="M-0.4041912,-0.4348951 L-0.4059008,-0.4359919 -0.4059008,-0.4359919 -0.4110313,-0.439213 -0.4138152,-0.4403848 -0.4168313,-0.4406105 -0.4168313,-0.4406105 -0.4224739,-0.4395891 -0.4250001,-0.4382126 -0.4271708,-0.4363239 -0.4299993,-0.4313442 -0.4308923,-0.4256771 -0.4308923,-0.4256771 -0.4306096,-0.4218987 -0.4294159,-0.4183084 -0.4269663,-0.4154253 -0.4238586,-0.4132577 -0.3335947,-0.3608189 -0.3335947,-0.3413318 -0.4129312,-0.3413628 -0.4129312,-0.3413628 -0.4199221,-0.3409676 -0.423353,-0.3402456 -0.4265974,-0.3389266 -0.4292867,-0.3366948 -0.4310529,-0.3336756 -0.4319386,-0.3302877 -0.4321239,-0.3267887 -0.4321239,-0.3267887 -0.4318181,-0.323405 -0.4309043,-0.3201365 -0.4292493,-0.3171694 -0.4268895,-0.3147291 -0.4268895,-0.3147291 -0.4234151,-0.3128667 -0.4194864,-0.3123715 -0.4115665,-0.3122455 -0.2164885,-0.3122659 -0.2164885,-0.3122659 -0.2080917,-0.3127655 -0.2040965,-0.3141189 -0.2007045,-0.3166105 -0.1983463,-0.3200964 -0.1969947,-0.3240948 -0.1960643,-0.332464 -0.1960643,-0.3792863 -0.1960643,-0.3792863 -0.1974327,-0.3919799 -0.1990033,-0.3981737 -0.2012995,-0.404137 -0.2042729,-0.4097917 -0.2079049,-0.4150501 -0.2120916,-0.4198755 -0.2167893,-0.4242095 -0.2219131,-0.4280245 -0.227404,-0.4312975 -0.2331894,-0.4340047 -0.2392191,-0.4361277 -0.251685,-0.4389041 -0.2644189,-0.439892 -0.2644189,-0.439892 -0.2751175,-0.4391534 -0.2856489,-0.4371471 -0.295822,-0.4337674 -0.3053836,-0.4289212 -0.3141447,-0.4227498 -0.3216903,-0.4151466 -0.327616,-0.4062272 -0.3315127,-0.3962499 -0.3322067,-0.3934154 -0.4041912,-0.4348951z M-0.2252126,-0.3413318 L-0.3044464,-0.3413318 -0.3044464,-0.3782086 -0.3044464,-0.3782086 -0.3041973,-0.3840686 -0.3031807,-0.3898386 -0.3006583,-0.3951311 -0.2966975,-0.399454 -0.2966975,-0.399454 -0.2897733,-0.404651 -0.2818517,-0.4081473 -0.2734232,-0.4101616 -0.2647781,-0.4107951 -0.2647781,-0.4107951 -0.2546734,-0.4099114 -0.2449186,-0.40715 -0.2402972,-0.4050491 -0.236014,-0.4023345 -0.2321159,-0.3990799 -0.228856,-0.3951946 -0.228856,-0.3951946 -0.2268566,-0.3918396 -0.2257221,-0.3880996 -0.2252126,-0.3803059 -0.2252126,-0.3413318z" transform="matrix(1,0,0,-1,0.62865,0.62865)" fill="rgb(110,110,110)" fill-rule="nonzero" shaper:cutDepth="0.0000762" stroke-linecap="round" stroke-linejoin="round" /></svg>