<?xml version="1.0" encoding="utf-8"?>
<!-- Generator: Fusion 360, Shaper Origin Export Add-In, Version 1.6.10  -->
<svg xmlns="http://www.w3.org/2000/svg" xmlns:xlink="http://www.w3.org/1999/xlink" xmlns:shaper="http://www.shapertools.com/namespaces/shaper" shaper:fusionaddin="version:1.6.10" width="1.2573cm" height="1.2573cm" version="1.1" x="0cm" y="0cm" viewBox="0 0 1.2573 1.2573" enable-background="new 0 0 1.2573 1.2573" xml:space="preserve"><path d="M0.62865,0.62865 L0.62865,-0.62865 -0.62865,-0.62865 -0.62865,0.62865 0.62865,0.62865z" transform="matrix(1,0,0,-1,0.62865,0.62865)" fill="rgb(0,0,0)" shaper:cutDepth="0.000127" stroke-linecap="round" stroke-linejoin="round" /><path d="M-0.3268027,-0.2056613 L-0.3268027,-0.2056613 -0.3262683,-0.1967129 -0.3251804,-0.1923538 -0.3232775,-0.1882939 -0.3203373,-0.1849063 -0.3164742,-0.1826368 -0.3121386,-0.181485 -0.3076562,-0.1812445 -0.3076562,-0.1812445 -0.3030994,-0.1815511 -0.2986993,-0.1827623 -0.2948275,-0.1851711 -0.2920724,-0.1887912 -0.2903861,-0.1930441 -0.2894487,-0.1975072 -0.2889099,-0.2066258 -0.2889099,-0.2845558 -0.1600881,-0.2845155 -0.1600881,-0.2845155 -0.1511076,-0.285082 -0.1467086,-0.2860306 -0.1425403,-0.2877361 -0.1390413,-0.290545 -0.136684,-0.2943718 -0.1354648,-0.2987019 -0.1352044,-0.303195 -0.1352044,-0.303195 -0.1355266,-0.3077154 -0.1366597,-0.3121004 -0.139039,-0.3159525 -0.1424957,-0.3188673 -0.1466304,-0.3207256 -0.1510377,-0.3217835 -0.1600753,-0.3224083 -0.4163976,-0.3224082 -0.4163976,-0.3224082 -0.4217149,-0.3222488 -0.4269615,-0.3214074 -0.4319731,-0.3196219 -0.4363405,-0.3166009 -0.4395721,-0.3123863 -0.4414851,-0.307428 -0.4421849,-0.302158 -0.4420818,-0.2968407 -0.4420819,-0.1719715 -0.4420819,-0.1719715 -0.4411313,-0.1636646 -0.4399039,-0.1596547 -0.4378384,-0.1560246 -0.434943,-0.1529975 -0.4313205,-0.1509096 -0.4273062,-0.1497272 -0.4231355,-0.149356 -0.4231355,-0.149356 -0.418921,-0.1496496 -0.414849,-0.1507626 -0.4111599,-0.1528105 -0.4082357,-0.1558537 -0.4062295,-0.1595669 -0.4049825,-0.163606 -0.4041891,-0.1720012 -0.4041891,-0.2845155 -0.3268027,-0.2845155 -0.3268027,-0.2056613z" transform="matrix(1,0,0,-1,0.62865,0.62865)" fill="rgb(120,120,120)" fill-rule="nonzero" shaper:cutDepth="0.0000254" stroke-linecap="round" stroke-linejoin="round" /><path d="M-0.1864395,-0.0848146 L-0.146879,-0.0967732 -0.146879,-0.0967732 -0.1417339,-0.0993997 -0.1378337,-0.1036537 -0.1357447,-0.1090299 -0.1352044,-0.1147855 -0.1352044,-0.1147855 -0.1363075,-0.1217664 -0.1377153,-0.1250135 -0.1396649,-0.1279675 -0.1420917,-0.1305474 -0.1450499,-0.1324846 -0.148367,-0.1337215 -0.1518825,-0.1341322 -0.1518825,-0.1341322 -0.1599153,-0.1327085 -0.1677834,-0.1304659 -0.4289395,-0.0520091 -0.4289395,-0.0520091 -0.434601,-0.049564 -0.439105,-0.0453701 -0.4406532,-0.042696 -0.441575,-0.039743 -0.4420819,-0.0335964 -0.4420819,-0.0335964 -0.4412837,-0.0263992 -0.4398238,-0.0230768 -0.437578,-0.0202241 -0.4314887,-0.0163074 -0.4246818,-0.0138014 -0.1646246,0.0655384 -0.1646246,0.0655384 -0.1588017,0.0671515 -0.1528165,0.0678733 -0.1528165,0.0678733 -0.1491729,0.0675034 -0.1456809,0.0664068 -0.1425231,0.0645562 -0.1398712,0.0620307 -0.1377619,0.0590407 -0.1363152,0.0556747 -0.1352044,0.04846 -0.1352044,0.04846 -0.1358028,0.042185 -0.1368891,0.0392207 -0.1385574,0.0365406 -0.1407221,0.0342455 -0.1433192,0.0324447 -0.1491257,0.0300054 -0.1864395,0.0184773 -0.1864395,-0.0848146z M-0.2243323,0.006488 L-0.3571166,-0.0331687 -0.2243323,-0.0728253 -0.2243323,0.006488z" transform="matrix(1,0,0,-1,0.62865,0.62865)" fill="rgb(120,120,120)" fill-rule="nonzero" shaper:cutDepth="0.0000254" stroke-linecap="round" stroke-linejoin="round" /><path d="M-0.1562855,0.1211232 L-0.1562855,0.1211232 -0.14826,0.1204229 -0.1443927,0.1192472 -0.1408697,0.117291 -0.1380227,0.1144322 -0.1362381,0.1108172 -0.135369,0.1068779 -0.1352044,0.102844 -0.1352044,0.102844 -0.1355798,0.0984649 -0.1367189,0.0942211 -0.1388142,0.0903583 -0.1416088,0.0869664 -0.1416088,0.0869664 -0.1448415,0.0849795 -0.1486042,0.0842911 -0.1562399,0.084031 -0.4201335,0.0840311 -0.4201335,0.0840311 -0.4284846,0.0847054 -0.4325304,0.0858523 -0.4362029,0.0878621 -0.4391837,0.090817 -0.4410955,0.0945465 -0.4419768,0.0986476 -0.4420819,0.102844 -0.4420819,0.102844 -0.4419231,0.1068221 -0.4410841,0.1107107 -0.4393618,0.1142959 -0.4366345,0.1171897 -0.4331995,0.1191913 -0.4294056,0.1204084 -0.4214944,0.1211232 -0.1562855,0.1211232z" transform="matrix(1,0,0,-1,0.62865,0.62865)" fill="rgb(120,120,120)" fill-rule="nonzero" shaper:cutDepth="0.0000254" stroke-linecap="round" stroke-linejoin="round" /><path d="M-0.1688275,0.291587 L-0.1688275,0.291587 -0.1686583,0.2971868 -0.1675599,0.3026613 -0.1675599,0.3026613 -0.1650834,0.3069373 -0.1612417,0.3100793 -0.1567144,0.3120663 -0.1518158,0.3128016 -0.1518158,0.3128016 -0.1463101,0.3118541 -0.1414103,0.3091768 -0.1376493,0.3050661 -0.1356713,0.2998594 -0.1356713,0.2998594 -0.1352044,0.2892363 -0.1352044,0.1578952 -0.1352044,0.1578952 -0.1362783,0.1486233 -0.137828,0.1442123 -0.1404291,0.1403349 -0.1441933,0.1375783 -0.1486028,0.1360308 -0.1532365,0.1354312 -0.1579124,0.1354797 -0.4215344,0.1354798 -0.4215344,0.1354798 -0.429385,0.1364504 -0.4331237,0.1377482 -0.4365317,0.1397682 -0.4392076,0.1426763 -0.4409912,0.1462093 -0.4418542,0.1500726 -0.4420819,0.1540258 -0.4420819,0.1540258 -0.4410386,0.1619067 -0.4392391,0.1654597 -0.436563,0.1684057 -0.433167,0.1704927 -0.4293971,0.1717843 -0.4214757,0.1725719 -0.1688275,0.1725719 -0.1688275,0.291587z" transform="matrix(1,0,0,-1,0.62865,0.62865)" fill="rgb(120,120,120)" fill-rule="nonzero" shaper:cutDepth="0.0000254" stroke-linecap="round" stroke-linejoin="round" /><path d="M0.2997032,-0.0687272 L0.2997032,-0.0687272 0.3073986,-0.0625395 0.3155183,-0.0569233 0.3240599,-0.0519688 0.3330131,-0.0478072 0.3423703,-0.0446577 0.3520163,-0.0425514 0.361817,-0.0413559 0.371686,-0.0410415 0.371686,-0.0410415 0.3827321,-0.0415952 0.3937057,-0.0429692 0.4044913,-0.0454157 0.4149922,-0.0488866 0.4250845,-0.0534105 0.4345871,-0.0590629 0.443323,-0.0658477 0.4510072,-0.0737974 0.4510072,-0.0737974 0.4579863,-0.0845566 0.460731,-0.0903567 0.4628782,-0.0964032 0.4654568,-0.1089628 0.4660842,-0.1217786 0.4660842,-0.1900106 0.4660842,-0.1900106 0.465165,-0.1997851 0.4635336,-0.204424 0.4606397,-0.2083859 0.4564491,-0.2109407 0.4516996,-0.2122223 0.4418863,-0.2126201 0.1824893,-0.2125594 0.1824893,-0.2125594 0.1730848,-0.2117638 0.1685843,-0.2103025 0.1646637,-0.2076765 0.1618949,-0.203855 0.1602936,-0.1994036 0.1592067,-0.190025 0.1592066,-0.1102224 0.1592066,-0.1102224 0.1597318,-0.1029645 0.1608962,-0.0957816 0.1628857,-0.088782 0.1656029,-0.082033 0.1691509,-0.0756793 0.1733821,-0.06976 0.1782191,-0.0643237 0.1835885,-0.0594124 0.189406,-0.0550406 0.1956186,-0.0512522 0.2021836,-0.0481134 0.2090143,-0.0456045 0.2231606,-0.0422304 0.2376606,-0.0410415 0.2376606,-0.0410415 0.2462376,-0.0412822 0.2547473,-0.0423714 0.2631105,-0.0442896 0.2712009,-0.0471448 0.2789527,-0.0508216 0.2862577,-0.0553221 0.2930479,-0.0605659 0.2992988,-0.0664437 0.2992988,-0.0669048 0.2997032,-0.0687272z M0.4281915,-0.1771135 L0.4281915,-0.1244989 0.4281915,-0.1244989 0.4278307,-0.1158949 0.426231,-0.1074389 0.4246176,-0.1034502 0.4223576,-0.0997846 0.4195902,-0.0964851 0.4163834,-0.093611 0.4163834,-0.093611 0.4066529,-0.0869897 0.3958421,-0.0823424 0.3843609,-0.0797459 0.37262,-0.0788675 0.37262,-0.0788675 0.3588668,-0.0801165 0.345586,-0.083898 0.3393058,-0.0867773 0.3333907,-0.0903492 0.3279546,-0.0946164 0.323186,-0.0996151 0.323186,-0.0996151 0.3199166,-0.104406 0.3177819,-0.1097983 0.3168273,-0.1155174 0.3166482,-0.1213175 0.3166482,-0.1771135 0.4281915,-0.1771135z M0.2787555,-0.1748079 L0.2787555,-0.1129576 0.2787555,-0.1129576 0.2785471,-0.1069086 0.277541,-0.1009429 0.2750795,-0.0954189 0.2710835,-0.0908758 0.2710835,-0.0908758 0.2638177,-0.0854277 0.2555581,-0.0816398 0.2467217,-0.0795501 0.2376606,-0.0788675 0.2376606,-0.0788675 0.2284767,-0.0796854 0.2195195,-0.0818512 0.2111679,-0.0857578 0.2038373,-0.0913428 0.2038373,-0.0913428 0.2001279,-0.0960161 0.1980237,-0.1015945 0.197231,-0.1075076 0.1970995,-0.1134784 0.1970995,-0.1748079 0.2787555,-0.1748079z" transform="matrix(1,0,0,-1,0.62865,0.62865)" fill="rgb(120,120,120)" fill-rule="nonzero" shaper:cutDepth="0.0000254" stroke-linecap="round" stroke-linejoin="round" /><path d="M0.445003,0.0100069 L0.445003,0.0100069 0.4530285,0.0093065 0.4568959,0.0081309 0.4604189,0.0061746 0.4632658,0.0033159 0.4650504,-0.0002991 0.4659195,-0.0042385 0.4660842,-0.0082724 0.4660842,-0.0082724 0.4657087,-0.0126514 0.4645696,-0.0168953 0.4624744,-0.0207581 0.4596798,-0.0241499 0.4596798,-0.0241499 0.4564471,-0.0261368 0.4526843,-0.0268253 0.4450486,-0.0270853 0.1811551,-0.0270853 0.1811551,-0.0270853 0.1728039,-0.026411 0.1687581,-0.0252641 0.1650857,-0.0232542 0.1621048,-0.0202993 0.160193,-0.0165699 0.1593117,-0.0124687 0.1592066,-0.0082724 0.1592066,-0.0082724 0.1593655,-0.0042942 0.1602045,-0.0004056 0.1619268,0.0031795 0.164654,0.0060733 0.1680891,0.0080749 0.1718829,0.0092921 0.1797941,0.0100069 0.445003,0.0100069z" transform="matrix(1,0,0,-1,0.62865,0.62865)" fill="rgb(120,120,120)" fill-rule="nonzero" shaper:cutDepth="0.0000254" stroke-linecap="round" stroke-linejoin="round" /><path d="M0.4426681,0.1301694 L0.4426681,0.1301694 0.4513447,0.129645 0.4555694,0.1285724 0.4594818,0.1266821 0.4627638,0.1238228 0.4649503,0.12007 0.4659717,0.1158416 0.4660842,0.1114899 0.4660842,0.1114899 0.465679,0.1071873 0.464551,0.1030182 0.4625083,0.0992108 0.4596798,0.0959459 0.4596798,0.0959459 0.4553691,0.0934335 0.4504294,0.092537 0.4404,0.0922767 0.1970995,0.0922767 0.1970993,0.0461784 0.1970993,0.0461784 0.1962147,0.0375949 0.1949135,0.0334693 0.1927333,0.0297479 0.1896934,0.0266767 0.1859044,0.0246094 0.1817262,0.0235166 0.1774192,0.0231626 0.1774192,0.0231626 0.1730226,0.0235058 0.168817,0.0248135 0.165217,0.0273622 0.1625471,0.0308546 0.1608626,0.0349358 0.1598072,0.0392188 0.1592067,0.0480088 0.1592066,0.1768015 0.1592066,0.1768015 0.1601161,0.1852654 0.1614509,0.1893165 0.1636219,0.1929806 0.1666832,0.1959423 0.1704433,0.1979452 0.1745705,0.1990046 0.1788201,0.1993503 0.1788201,0.1993503 0.1830434,0.1989579 0.1870993,0.1977288 0.190645,0.1954027 0.1934024,0.1921919 0.1952206,0.1883573 0.1963251,0.184262 0.1970995,0.1758207 0.1970995,0.1301694 0.4426681,0.1301694z" transform="matrix(1,0,0,-1,0.62865,0.62865)" fill="rgb(120,120,120)" fill-rule="nonzero" shaper:cutDepth="0.0000254" stroke-linecap="round" stroke-linejoin="round" /></svg>