<?xml version="1.0" encoding="utf-8"?>
<!-- Generator: Fusion 360, Shaper Origin Export Add-In, Version 1.6.10  -->
<svg xmlns="http://www.w3.org/2000/svg" xmlns:xlink="http://www.w3.org/1999/xlink" xmlns:shaper="http://www.shapertools.com/namespaces/shaper" shaper:fusionaddin="version:1.6.10" width="1.2573cm" height="1.2573cm" version="1.1" x="0cm" y="0cm" viewBox="0 0 1.2573 1.2573" enable-background="new 0 0 1.2573 1.2573" xml:space="preserve"><path d="M0.62865,0.62865 L0.62865,-0.62865 -0.62865,-0.62865 -0.62865,0.62865 0.62865,0.62865z" transform="matrix(1,0,0,-1,0.62865,0.62865)" fill="rgb(0,0,0)" shaper:cutDepth="0.000127" stroke-linecap="round" stroke-linejoin="round" /><path d="M-0.1688275,-0.1873554 L-0.1688275,-0.1873554 -0.1686583,-0.1817556 -0.1675599,-0.1762811 -0.1675599,-0.1762811 -0.1650834,-0.1720052 -0.1612417,-0.1688631 -0.1567144,-0.1668762 -0.1518158,-0.1661408 -0.1518158,-0.1661408 -0.1463101,-0.1670883 -0.1414103,-0.1697656 -0.1376493,-0.1738764 -0.1356713,-0.1790831 -0.1356713,-0.1790831 -0.1352044,-0.1897061 -0.1352044,-0.3210473 -0.1352044,-0.3210473 -0.1362783,-0.3303191 -0.137828,-0.3347301 -0.1404291,-0.3386075 -0.1441933,-0.3413641 -0.1486028,-0.3429116 -0.1532365,-0.3435113 -0.1579124,-0.3434628 -0.4215344,-0.3434627 -0.4215344,-0.3434627 -0.429385,-0.3424921 -0.4331237,-0.3411942 -0.4365317,-0.3391743 -0.4392076,-0.3362661 -0.4409912,-0.3327331 -0.4418542,-0.3288698 -0.4420819,-0.3249166 -0.4420819,-0.3249166 -0.4410386,-0.3170357 -0.4392391,-0.3134827 -0.436563,-0.3105368 -0.433167,-0.3084497 -0.4293971,-0.3071582 -0.4214757,-0.3063705 -0.1688275,-0.3063705 -0.1688275,-0.1873554z" transform="matrix(1,0,0,-1,0.62865,0.62865)" fill="rgb(120,120,120)" fill-rule="nonzero" shaper:cutDepth="0.0000254" stroke-linecap="round" stroke-linejoin="round" /><path d="M-0.1562855,-0.1182946 L-0.1562855,-0.1182946 -0.14826,-0.118995 -0.1443927,-0.1201706 -0.1408697,-0.1221269 -0.1380227,-0.1249856 -0.1362381,-0.1286006 -0.135369,-0.13254 -0.1352044,-0.1365739 -0.1352044,-0.1365739 -0.1355798,-0.1409529 -0.1367189,-0.1451968 -0.1388142,-0.1490596 -0.1416088,-0.1524514 -0.1416088,-0.1524514 -0.1448415,-0.1544383 -0.1486042,-0.1551268 -0.1562399,-0.1553868 -0.4201335,-0.1553868 -0.4201335,-0.1553868 -0.4284846,-0.1547125 -0.4325304,-0.1535656 -0.4362029,-0.1515557 -0.4391837,-0.1486008 -0.4410955,-0.1448714 -0.4419768,-0.1407702 -0.4420819,-0.1365739 -0.4420819,-0.1365739 -0.4419231,-0.1325957 -0.4410841,-0.1287071 -0.4393618,-0.125122 -0.4366345,-0.1222282 -0.4331995,-0.1202266 -0.4294056,-0.1190094 -0.4214944,-0.1182946 -0.1562855,-0.1182946z" transform="matrix(1,0,0,-1,0.62865,0.62865)" fill="rgb(120,120,120)" fill-rule="nonzero" shaper:cutDepth="0.0000254" stroke-linecap="round" stroke-linejoin="round" /><path d="M-0.4313412,0.0522359 L-0.3036811,-0.0083104 -0.429568,-0.0692527 -0.429568,-0.0692527 -0.4341943,-0.0715528 -0.4382258,-0.0747684 -0.4397135,-0.0768766 -0.4406136,-0.0793187 -0.4411479,-0.084458 -0.4411479,-0.084458 -0.4409301,-0.0889806 -0.4399519,-0.0934 -0.4378608,-0.0974121 -0.4346311,-0.1005591 -0.4305441,-0.1025225 -0.426161,-0.1036382 -0.4171314,-0.1042717 -0.1602714,-0.1042981 -0.1602714,-0.1042981 -0.151417,-0.1037018 -0.1470661,-0.1028062 -0.1429302,-0.1011969 -0.1393707,-0.0985569 -0.1368106,-0.0949359 -0.1355514,-0.0906848 -0.1352044,-0.0862593 -0.1352044,-0.0862593 -0.1353792,-0.0817384 -0.1364233,-0.0773387 -0.1386424,-0.0734037 -0.1419415,-0.0703106 -0.1459627,-0.0682572 -0.1503444,-0.0671014 -0.1593543,-0.0664457 -0.3364209,-0.0664859 -0.2529574,-0.0263171 -0.2529574,-0.0263171 -0.2479118,-0.0234782 -0.2434616,-0.0198024 -0.2419982,-0.0173131 -0.2412554,-0.0145166 -0.2410104,-0.0087393 -0.2410104,-0.0087393 -0.2415408,-0.0023484 -0.2426433,0.0006674 -0.2445452,0.0032489 -0.2496182,0.0071778 -0.2552869,0.010207 -0.3364209,0.0494075 -0.1584269,0.0494075 -0.1584269,0.0494075 -0.1507083,0.0496252 -0.1468673,0.0500897 -0.1432099,0.0513019 -0.1432099,0.0513019 -0.1395489,0.0545384 -0.1370376,0.0587386 -0.1357246,0.0634475 -0.1352044,0.0683136 -0.1352044,0.0683136 -0.1354211,0.072359 -0.1363881,0.0762879 -0.1381644,0.0799247 -0.1409174,0.0828923 -0.1443519,0.0850261 -0.148187,0.0863375 -0.1562188,0.08726 -0.4220291,0.0872196 -0.4220291,0.0872196 -0.4300218,0.0866871 -0.4338698,0.0855713 -0.4373532,0.0835878 -0.4398768,0.0804894 -0.4412978,0.0767423 -0.4420819,0.0687806 -0.4420819,0.0687806 -0.4417573,0.0634875 -0.4396849,0.0586114 -0.4359642,0.0548422 -0.4313412,0.0522359z" transform="matrix(1,0,0,-1,0.62865,0.62865)" fill="rgb(120,120,120)" fill-rule="nonzero" shaper:cutDepth="0.0000254" stroke-linecap="round" stroke-linejoin="round" /><path d="M-0.1562855,0.1383084 L-0.1562855,0.1383084 -0.14826,0.137608 -0.1443927,0.1364324 -0.1408697,0.1344761 -0.1380227,0.1316174 -0.1362381,0.1280024 -0.135369,0.124063 -0.1352044,0.1200291 -0.1352044,0.1200291 -0.1355798,0.1156501 -0.1367189,0.1114062 -0.1388142,0.1075434 -0.1416088,0.1041516 -0.1416088,0.1041516 -0.1448415,0.1021647 -0.1486042,0.1014762 -0.1562399,0.1012162 -0.4201335,0.1012162 -0.4201335,0.1012162 -0.4284846,0.1018905 -0.4325304,0.1030374 -0.4362029,0.1050473 -0.4391837,0.1080022 -0.4410955,0.1117316 -0.4419768,0.1158328 -0.4420819,0.1200291 -0.4420819,0.1200291 -0.4419231,0.1240073 -0.4410841,0.1278959 -0.4393618,0.131481 -0.4366345,0.1343748 -0.4331995,0.1363764 -0.4294056,0.1375936 -0.4214944,0.1383084 -0.1562855,0.1383084z" transform="matrix(1,0,0,-1,0.62865,0.62865)" fill="rgb(120,120,120)" fill-rule="nonzero" shaper:cutDepth="0.0000254" stroke-linecap="round" stroke-linejoin="round" /><path d="M-0.1586204,0.2584709 L-0.1586204,0.2584709 -0.1499438,0.2579465 -0.1457191,0.2568739 -0.1418067,0.2549836 -0.1385247,0.2521243 -0.1363382,0.2483715 -0.1353169,0.2441431 -0.1352044,0.2397914 -0.1352044,0.2397914 -0.1356095,0.2354888 -0.1367375,0.2313197 -0.1387803,0.2275123 -0.1416088,0.2242474 -0.1416088,0.2242474 -0.1459195,0.221735 -0.1508591,0.2208385 -0.1608885,0.2205782 -0.4041891,0.2205782 -0.4041892,0.1744799 -0.4041892,0.1744799 -0.4050739,0.1658964 -0.4063751,0.1617708 -0.4085553,0.1580494 -0.4115951,0.1549782 -0.4153841,0.1529109 -0.4195623,0.1518181 -0.4238694,0.1514641 -0.4238694,0.1514641 -0.428266,0.1518073 -0.4324715,0.153115 -0.4360715,0.1556637 -0.4387414,0.1591561 -0.440426,0.1632373 -0.4414813,0.1675203 -0.4420818,0.1763103 -0.4420819,0.305103 -0.4420819,0.305103 -0.4411724,0.3135669 -0.4398377,0.317618 -0.4376666,0.3212821 -0.4346053,0.3242438 -0.4308452,0.3262467 -0.426718,0.3273061 -0.4224684,0.3276518 -0.4224684,0.3276518 -0.4182452,0.3272594 -0.4141892,0.3260303 -0.4106435,0.3237042 -0.4078861,0.3204934 -0.406068,0.3166588 -0.4049635,0.3125635 -0.4041891,0.3041222 -0.4041891,0.2584709 -0.1586204,0.2584709z" transform="matrix(1,0,0,-1,0.62865,0.62865)" fill="rgb(120,120,120)" fill-rule="nonzero" shaper:cutDepth="0.0000254" stroke-linecap="round" stroke-linejoin="round" /><path d="M0.1592066,-0.5262016 L0.1592066,-0.5262016 0.1596424,-0.5171366 0.160995,-0.5081635 0.1633585,-0.4994016 0.1667393,-0.4909802 0.1710487,-0.4829946 0.176298,-0.4755907 0.1822795,-0.4687676 0.1889604,-0.4626246 0.1889604,-0.4626246 0.2019983,-0.4528755 0.2160686,-0.4446798 0.2309387,-0.4380573 0.2464413,-0.4330776 0.2623404,-0.4295762 0.278465,-0.4272979 0.2946974,-0.4260573 0.3109776,-0.4257326 0.3109776,-0.4257326 0.3349639,-0.4263953 0.3469252,-0.4273769 0.3588081,-0.4290332 0.3705634,-0.4314461 0.3821238,-0.4346586 0.3934554,-0.4386076 0.4045085,-0.4432779 0.4045085,-0.4432779 0.4166873,-0.4494438 0.4282943,-0.456627 0.439082,-0.4649873 0.448609,-0.4747554 0.4527595,-0.4801783 0.4563939,-0.4859536 0.461962,-0.4984067 0.463832,-0.504972 0.4650933,-0.5116808 0.4660842,-0.525286 0.4660842,-0.5775702 0.4660842,-0.5775702 0.4649143,-0.5882224 0.4628428,-0.593164 0.4591661,-0.5970361 0.4542392,-0.5991589 0.4489588,-0.600105 0.4382338,-0.6002122 0.1830897,-0.6001858 0.1830897,-0.6001858 0.1781967,-0.6001724 0.173351,-0.5995008 0.1687717,-0.5977864 0.1648132,-0.5949194 0.1619099,-0.590989 0.1601847,-0.5864108 0.1593922,-0.5815846 0.1592067,-0.5766949 0.1592066,-0.5262016z M0.1970995,-0.525286 L0.1970995,-0.5624 0.4281915,-0.5624 0.4281915,-0.5257346 0.4281915,-0.5257346 0.4275943,-0.5157591 0.4266109,-0.5108541 0.4250414,-0.506106 0.4227331,-0.5016707 0.4197582,-0.4976512 0.4123806,-0.4909107 0.4123806,-0.4909107 0.3988137,-0.4817298 0.3841005,-0.4745259 0.3686346,-0.4691239 0.3526729,-0.4654265 0.3526729,-0.4654265 0.3436038,-0.4640819 0.3344513,-0.4635923 0.3161145,-0.4635585 0.3161145,-0.4635585 0.2859597,-0.4639301 0.2709607,-0.4654072 0.2563401,-0.4690957 0.2563401,-0.4690957 0.2414347,-0.4742553 0.2272342,-0.4811204 0.2204966,-0.4852292 0.2141113,-0.4898607 0.2082347,-0.4951279 0.2031035,-0.5011177 0.2031035,-0.5011177 0.1999936,-0.5066389 0.1980321,-0.5126637 0.1972581,-0.5189498 0.1970995,-0.525286z" transform="matrix(1,0,0,-1,0.62865,0.62865)" fill="rgb(120,120,120)" fill-rule="nonzero" shaper:cutDepth="0.0000254" stroke-linecap="round" stroke-linejoin="round" /><path d="M0.445003,-0.3746841 L0.445003,-0.3746841 0.4530285,-0.3753845 0.4568959,-0.3765601 0.4604189,-0.3785164 0.4632658,-0.3813752 0.4650504,-0.3849901 0.4659195,-0.3889295 0.4660842,-0.3929634 0.4660842,-0.3929634 0.4657087,-0.3973425 0.4645696,-0.4015863 0.4624744,-0.4054491 0.4596798,-0.4088409 0.4596798,-0.4088409 0.4564471,-0.4108278 0.4526843,-0.4115163 0.4450486,-0.4117764 0.1811551,-0.4117763 0.1811551,-0.4117763 0.1728039,-0.411102 0.1687581,-0.4099551 0.1650857,-0.4079452 0.1621048,-0.4049903 0.160193,-0.4012609 0.1593117,-0.3971597 0.1592066,-0.3929634 0.1592066,-0.3929634 0.1593655,-0.3889852 0.1602045,-0.3850967 0.1619268,-0.3815115 0.164654,-0.3786177 0.1680891,-0.3766161 0.1718829,-0.3753989 0.1797941,-0.3746841 0.445003,-0.3746841z" transform="matrix(1,0,0,-1,0.62865,0.62865)" fill="rgb(120,120,120)" fill-rule="nonzero" shaper:cutDepth="0.0000254" stroke-linecap="round" stroke-linejoin="round" /><path d="M0.1592067,-0.264243 L0.1604076,-0.2883517 0.1604076,-0.2883517 0.1611234,-0.2955571 0.1625349,-0.3026587 0.1646261,-0.3095907 0.1674511,-0.316257 0.1710376,-0.3225465 0.1753094,-0.3283923 0.1801664,-0.3337621 0.185534,-0.3386219 0.1913722,-0.3429037 0.1976104,-0.3465811 0.2041643,-0.3496571 0.2109772,-0.3521118 0.225099,-0.3552721 0.2395285,-0.3563916 0.2395285,-0.3563916 0.2490198,-0.3558519 0.2584282,-0.3544898 0.2676293,-0.3521014 0.2765584,-0.3488373 0.2851205,-0.3447076 0.293169,-0.3396492 0.300432,-0.3335167 0.3067747,-0.3264377 0.3067747,-0.3264377 0.3110696,-0.3197091 0.3145046,-0.3125018 0.3193167,-0.2972843 0.3295713,-0.2566794 0.3295713,-0.2566794 0.3309031,-0.2517236 0.3328036,-0.2469651 0.3353613,-0.2425112 0.3387967,-0.2387107 0.3387967,-0.2387107 0.3430242,-0.2351213 0.3476994,-0.2321331 0.3578198,-0.2276232 0.3685742,-0.224927 0.3796248,-0.224034 0.3796248,-0.224034 0.3909354,-0.2250366 0.4019031,-0.2279861 0.4121054,-0.232968 0.416739,-0.2362617 0.4209198,-0.2401117 0.4209198,-0.2401117 0.4249517,-0.2455219 0.4275367,-0.2517658 0.428847,-0.258386 0.4292589,-0.2651289 0.4293153,-0.287879 0.4293153,-0.287879 0.4289896,-0.2963545 0.4278955,-0.3004617 0.4262127,-0.3043598 0.4210917,-0.3111174 0.4144918,-0.3164503 0.4069515,-0.3203786 0.3988572,-0.3229639 0.3904524,-0.3242217 0.3819597,-0.3245697 0.3819597,-0.3245697 0.3735786,-0.3251471 0.3695106,-0.3262022 0.3656656,-0.3279096 0.3623443,-0.3304745 0.3599523,-0.3339264 0.3586854,-0.3379315 0.3582768,-0.3421151 0.3582768,-0.3421151 0.3588753,-0.346776 0.360416,-0.3512133 0.3630599,-0.3550921 0.3666735,-0.3580919 0.3709041,-0.360131 0.3754257,-0.3614269 0.3847616,-0.3623957 0.3847616,-0.3623957 0.400204,-0.3611894 0.4153047,-0.3577457 0.4225576,-0.3550326 0.4295161,-0.3516192 0.4360998,-0.3475383 0.4422168,-0.3427824 0.4478137,-0.3374255 0.4528042,-0.3314994 0.4570614,-0.3250269 0.4605138,-0.3180916 0.4631545,-0.3108082 0.4650037,-0.3032844 0.4661143,-0.2956172 0.4664845,-0.2878778 0.4660842,-0.2637702 0.4660842,-0.2637702 0.4655202,-0.2556711 0.4642855,-0.2476472 0.4622397,-0.2397909 0.4594032,-0.2321849 0.455626,-0.2249982 0.451132,-0.2182386 0.4458648,-0.2120613 0.4399367,-0.2065142 0.4334999,-0.2015664 0.4265773,-0.1973286 0.4192508,-0.1938269 0.4116403,-0.1910037 0.4037924,-0.1889241 0.3958041,-0.1874678 0.3796248,-0.186208 0.3796248,-0.186208 0.3651284,-0.1871922 0.3508745,-0.1899978 0.3371952,-0.194881 0.3306848,-0.1981164 0.3244907,-0.2019175 0.3132395,-0.2111039 0.3083087,-0.2164421 0.3038704,-0.2221989 0.3000678,-0.2283925 0.2968121,-0.234891 0.2919645,-0.2485842 0.281787,-0.2892972 0.281787,-0.2892972 0.2801426,-0.2948613 0.2778982,-0.3001999 0.274851,-0.3051476 0.2706165,-0.3090924 0.2706165,-0.3090924 0.2636409,-0.3132848 0.2560817,-0.3163026 0.2481122,-0.3179528 0.2399955,-0.3185656 0.2399955,-0.3185656 0.2300999,-0.3177626 0.2204697,-0.3153872 0.2158549,-0.3135485 0.2115054,-0.3111598 0.2074411,-0.3083033 0.2038373,-0.3048895 0.2038373,-0.3048895 0.2011937,-0.3006992 0.1993444,-0.2960925 0.1980136,-0.2913174 0.1972995,-0.2864101 0.1968886,-0.267552 0.1968886,-0.2656611 0.1968886,-0.2656611 0.1974441,-0.2588594 0.1994,-0.2523222 0.2027924,-0.2464094 0.2075935,-0.2415658 0.2133097,-0.2378359 0.2195089,-0.2349799 0.2325904,-0.2311055 0.2325904,-0.2311055 0.2427974,-0.2283036 0.2427974,-0.2283036 0.2465982,-0.2253699 0.2493088,-0.2214054 0.2507021,-0.2168115 0.2511365,-0.2120257 0.2511365,-0.2120257 0.2496907,-0.2045439 0.2479201,-0.2011625 0.245431,-0.1982696 0.2422765,-0.1961165 0.2387418,-0.1946758 0.2311894,-0.193613 0.2311894,-0.193613 0.2223554,-0.194474 0.2137249,-0.1965843 0.2053622,-0.1995632 0.1972995,-0.2032864 0.1972995,-0.2032864 0.1894488,-0.208042 0.1822104,-0.2136794 0.1757043,-0.2201555 0.1700778,-0.227404 0.1654385,-0.2353225 0.1618756,-0.2437783 0.1597283,-0.2527009 0.1592066,-0.2618599 0.1592067,-0.264243z" transform="matrix(1,0,0,-1,0.62865,0.62865)" fill="rgb(120,120,120)" fill-rule="nonzero" shaper:cutDepth="0.0000254" stroke-linecap="round" stroke-linejoin="round" /><path d="M0.4420677,-0.1347593 L0.4420677,-0.1347593 0.4508606,-0.1353083 0.4551706,-0.1362135 0.4592438,-0.1379031 0.4625878,-0.1407455 0.4647665,-0.1445695 0.4658446,-0.148839 0.4660842,-0.1532386 0.4660842,-0.1532386 0.4659333,-0.15739 0.4650859,-0.1614554 0.4632755,-0.1651906 0.4605565,-0.1683243 0.4570391,-0.1705256 0.4530922,-0.171828 0.4448383,-0.1726117 0.1870258,-0.1725853 0.1870258,-0.1725853 0.181096,-0.1726453 0.1751956,-0.1720841 0.1695007,-0.1704386 0.166898,-0.1690022 0.1646448,-0.1670703 0.1615775,-0.1620122 0.159986,-0.1562978 0.159292,-0.1504139 0.1592067,-0.1444831 0.1592066,-0.0847916 0.1592066,-0.0847916 0.1596475,-0.0765186 0.1609103,-0.0683318 0.1629409,-0.0603005 0.1659086,-0.0525663 0.1697227,-0.0452134 0.1743968,-0.0383748 0.1798592,-0.0321472 0.1859596,-0.0265415 0.1926281,-0.0216299 0.1997795,-0.0174428 0.2073252,-0.0140335 0.2151617,-0.0113332 0.2231804,-0.0092681 0.2313517,-0.0078821 0.2478676,-0.0066713 0.2478676,-0.0066713 0.2588462,-0.0072509 0.2697313,-0.0087839 0.2803891,-0.0114819 0.2906863,-0.0153291 0.3005162,-0.0202533 0.3096894,-0.0263074 0.3180318,-0.0334682 0.3253208,-0.0416953 0.3253208,-0.0416953 0.3315779,-0.0518161 0.3338959,-0.0573021 0.3356292,-0.0630014 0.3375253,-0.0747535 0.3379962,-0.0866529 0.3379962,-0.1347995 0.4420677,-0.1347593z M0.3001035,-0.1347995 L0.3001035,-0.0838576 0.3001035,-0.0838576 0.2989886,-0.0748456 0.2976113,-0.0705123 0.2956381,-0.0664134 0.290244,-0.0591116 0.2831698,-0.0534108 0.2750806,-0.0492537 0.2663914,-0.046539 0.2574182,-0.0450583 0.2483346,-0.0444972 0.2483346,-0.0444972 0.239002,-0.0450015 0.2297826,-0.0465027 0.2208944,-0.0493889 0.2127011,-0.0538818 0.2058123,-0.0601654 0.2030154,-0.0639074 0.2007936,-0.0680143 0.1990837,-0.0723616 0.1979469,-0.0768922 0.1970995,-0.08619 0.1970995,-0.1347995 0.3001035,-0.1347995z" transform="matrix(1,0,0,-1,0.62865,0.62865)" fill="rgb(120,120,120)" fill-rule="nonzero" shaper:cutDepth="0.0000254" stroke-linecap="round" stroke-linejoin="round" /><path d="M0.4324611,0.1633923 L0.4324611,0.1633923 0.4326302,0.168992 0.4337286,0.1744666 0.4337286,0.1744666 0.4362052,0.1787425 0.4400469,0.1818846 0.4445742,0.1838715 0.4494728,0.1846069 0.4494728,0.1846069 0.4549785,0.1836593 0.4598783,0.1809821 0.4636392,0.1768713 0.4656172,0.1716646 0.4656172,0.1716646 0.4660842,0.1610416 0.4660842,0.0297004 0.4660842,0.0297004 0.4650103,0.0204286 0.4634605,0.0160176 0.4608594,0.0121402 0.4570953,0.0093836 0.4526858,0.0078361 0.448052,0.0072364 0.4433761,0.0072849 0.1797541,0.007285 0.1797541,0.007285 0.1719036,0.0082556 0.1681649,0.0095535 0.1647568,0.0115734 0.1620809,0.0144816 0.1602973,0.0180146 0.1594343,0.0218779 0.1592066,0.0258311 0.1592066,0.0258311 0.16025,0.0337119 0.1620495,0.037265 0.1647255,0.0402109 0.1681215,0.042298 0.1718914,0.0435895 0.1798129,0.0443772 0.4324611,0.0443772 0.4324611,0.1633923z" transform="matrix(1,0,0,-1,0.62865,0.62865)" fill="rgb(120,120,120)" fill-rule="nonzero" shaper:cutDepth="0.0000254" stroke-linecap="round" stroke-linejoin="round" /><path d="M0.414849,0.2444784 L0.4544095,0.2325198 0.4544095,0.2325198 0.4595547,0.2298933 0.4634548,0.2256393 0.4655438,0.220263 0.4660842,0.2145074 0.4660842,0.2145074 0.4649811,0.2075266 0.4635733,0.2042795 0.4616237,0.2013254 0.4591969,0.1987455 0.4562386,0.1968084 0.4529215,0.1955715 0.4494061,0.1951608 0.4494061,0.1951608 0.4413732,0.1965844 0.4335052,0.1988271 0.172349,0.2772839 0.172349,0.2772839 0.1666875,0.279729 0.1621835,0.2839228 0.1606353,0.2865969 0.1597135,0.2895499 0.1592066,0.2956965 0.1592066,0.2956965 0.1600048,0.3028937 0.1614647,0.3062162 0.1637106,0.3090689 0.1697999,0.3129855 0.1766068,0.3154915 0.436664,0.3948313 0.436664,0.3948313 0.4424869,0.3964444 0.4484721,0.3971663 0.4484721,0.3971663 0.4521157,0.3967964 0.4556076,0.3956998 0.4587654,0.3938491 0.4614174,0.3913236 0.4635266,0.3883336 0.4649733,0.3849676 0.4660842,0.3777529 0.4660842,0.3777529 0.4654857,0.3714779 0.4643995,0.3685137 0.4627312,0.3658335 0.4605664,0.3635384 0.4579694,0.3617377 0.4521628,0.3592983 0.414849,0.3477702 0.414849,0.2444784z M0.3769563,0.335781 L0.2441719,0.2961243 0.3769563,0.2564676 0.3769563,0.335781z" transform="matrix(1,0,0,-1,0.62865,0.62865)" fill="rgb(120,120,120)" fill-rule="nonzero" shaper:cutDepth="0.0000254" stroke-linecap="round" stroke-linejoin="round" /><path d="M0.1708813,0.5504849 L0.2905495,0.5001836 0.1723484,0.4499211 0.1723484,0.4499211 0.166992,0.4470805 0.162559,0.4429598 0.1609051,0.440405 0.1598477,0.4375594 0.1592066,0.4315365 0.1592066,0.4315365 0.160411,0.4243539 0.161982,0.4210617 0.1640871,0.418079 0.1667345,0.4155685 0.1698515,0.4136708 0.1733295,0.4125677 0.1769522,0.4121232 0.1769522,0.4121232 0.1841619,0.4134623 0.1909618,0.4162594 0.1928241,0.4171813 0.3436004,0.4812776 0.4445833,0.4812776 0.4445833,0.4812776 0.4527836,0.4821027 0.4567429,0.4832918 0.4603037,0.4853637 0.4631355,0.4883633 0.4650183,0.4920331 0.4659242,0.4960583 0.4660842,0.5001837 0.4660842,0.5001837 0.4658334,0.5041381 0.4649251,0.5079935 0.4634164,0.5116569 0.4612809,0.5149939 0.4612809,0.5149939 0.4572748,0.5177506 0.4524656,0.5187501 0.4426681,0.5191301 0.3431351,0.5190897 0.1942202,0.5818026 0.1914281,0.5827249 0.1914281,0.5827249 0.1841727,0.5858782 0.1804274,0.5871409 0.1764852,0.587377 0.1764852,0.587377 0.172884,0.5869898 0.1694345,0.5858885 0.1663357,0.584016 0.1637226,0.5815084 0.1616895,0.5785131 0.1602937,0.575169 0.1592066,0.5680303 0.1592066,0.5680303 0.1597272,0.5624161 0.1620229,0.5572703 0.1659604,0.5532462 0.1708813,0.5504849z" transform="matrix(1,0,0,-1,0.62865,0.62865)" fill="rgb(120,120,120)" fill-rule="nonzero" shaper:cutDepth="0.0000254" stroke-linecap="round" stroke-linejoin="round" /></svg>