<?xml version="1.0" encoding="utf-8"?>
<!-- Generator: Fusion 360, Shaper Origin Export Add-In, Version 1.6.10  -->
<svg xmlns="http://www.w3.org/2000/svg" xmlns:xlink="http://www.w3.org/1999/xlink" xmlns:shaper="http://www.shapertools.com/namespaces/shaper" shaper:fusionaddin="version:1.6.10" width="1.2573cm" height="1.2573cm" version="1.1" x="0cm" y="0cm" viewBox="0 0 1.2573 1.2573" enable-background="new 0 0 1.2573 1.2573" xml:space="preserve"><path d="M0.62865,0.62865 L0.62865,-0.62865 -0.62865,-0.62865 -0.62865,0.62865 0.62865,0.62865z" transform="matrix(1,0,0,-1,0.62865,0.62865)" fill="rgb(0,0,0)" shaper:cutDepth="0.000127" stroke-linecap="round" stroke-linejoin="round" /><path d="M-0.460639,-0.1384952 L-0.460639,-0.1384952 -0.460208,-0.1302255 -0.4589781,-0.1220358 -0.4570208,-0.1139896 -0.4543834,-0.1061392 -0.4511394,-0.0985199 -0.4472984,-0.091183 -0.44288,-0.084179 -0.4379567,-0.0775199 -0.4379567,-0.0775199 -0.4317824,-0.0708046 -0.4249753,-0.0647261 -0.4176487,-0.0592941 -0.4099361,-0.0544144 -0.3935132,-0.0464811 -0.3762301,-0.0406453 -0.3584349,-0.0366181 -0.3403712,-0.0340317 -0.3221734,-0.0326889 -0.3039313,-0.0322889 -0.3039313,-0.0322889 -0.2866998,-0.0326967 -0.2695153,-0.0339854 -0.2524467,-0.0364004 -0.2356302,-0.0401609 -0.2192243,-0.0454516 -0.2035242,-0.0525455 -0.1960507,-0.056853 -0.1889166,-0.0616958 -0.1758433,-0.0729168 -0.1758433,-0.0729168 -0.1700563,-0.0796997 -0.1649685,-0.0870215 -0.1605252,-0.0947518 -0.1568225,-0.1028625 -0.1537791,-0.1112437 -0.1515042,-0.119864 -0.1500699,-0.1286644 -0.1494919,-0.1375612 -0.1494919,-0.1375612 -0.1504091,-0.148687 -0.1525987,-0.1596346 -0.1560347,-0.1702566 -0.1605399,-0.1804719 -0.165995,-0.1902131 -0.1723751,-0.199374 -0.1796673,-0.2078284 -0.1879183,-0.215348 -0.1879183,-0.215348 -0.201337,-0.2237791 -0.2157311,-0.2304276 -0.2307022,-0.2356367 -0.2460826,-0.2394702 -0.2617115,-0.2421389 -0.2774608,-0.2439503 -0.2932845,-0.2449115 -0.3091349,-0.2452352 -0.3091349,-0.2452352 -0.3252452,-0.2447922 -0.3413103,-0.2435251 -0.3572538,-0.2411707 -0.3729923,-0.2377048 -0.3883937,-0.2329569 -0.403207,-0.2266225 -0.4171688,-0.2185686 -0.4298845,-0.2086767 -0.4298845,-0.2086767 -0.4364747,-0.2014221 -0.4423809,-0.1936004 -0.4474944,-0.1852389 -0.4518904,-0.1764784 -0.4554631,-0.167352 -0.4582372,-0.1579516 -0.4599783,-0.1483064 -0.4606389,-0.1385282 -0.460639,-0.1384952z M-0.3062662,-0.0701816 L-0.3062662,-0.0701816 -0.3198408,-0.0704192 -0.3333798,-0.0713609 -0.3468429,-0.073134 -0.3601263,-0.0759134 -0.3731035,-0.0799104 -0.3855287,-0.0853585 -0.3970631,-0.092523 -0.4072023,-0.1015364 -0.4072023,-0.1015364 -0.4133707,-0.1096875 -0.4181619,-0.1187179 -0.4214605,-0.1283865 -0.4227453,-0.1385126 -0.4227453,-0.1385126 -0.4211391,-0.1500451 -0.4171837,-0.1610082 -0.4114325,-0.1711443 -0.4039334,-0.1800571 -0.4039334,-0.1800571 -0.3939615,-0.1879507 -0.3827925,-0.1940575 -0.3709275,-0.1986492 -0.3586643,-0.2020608 -0.3461775,-0.2045136 -0.3335525,-0.2061371 -0.3081342,-0.2073425 -0.3081342,-0.2073425 -0.2834236,-0.2064942 -0.2711234,-0.2052391 -0.2589085,-0.2033179 -0.2468554,-0.2005663 -0.2350981,-0.1967454 -0.223827,-0.1916617 -0.2133357,-0.1851272 -0.2133357,-0.1851272 -0.2079612,-0.1807942 -0.203079,-0.1759149 -0.1987325,-0.1705508 -0.1949929,-0.1647488 -0.1918843,-0.1585844 -0.189504,-0.1521055 -0.1879852,-0.1453712 -0.1873846,-0.1384952 -0.1873846,-0.1384952 -0.1878503,-0.1324746 -0.1891077,-0.1265652 -0.1909549,-0.1208168 -0.1934065,-0.1152949 -0.1996961,-0.1049991 -0.2077319,-0.0959993 -0.2077319,-0.0959993 -0.2182514,-0.0883925 -0.229829,-0.0824945 -0.2420175,-0.0780174 -0.2545991,-0.0747838 -0.2673937,-0.0725426 -0.2803083,-0.0711417 -0.3062662,-0.0701816z" transform="matrix(1,0,0,-1,0.62865,0.62865)" fill="rgb(160,160,160)" fill-rule="nonzero" shaper:cutDepth="0.0000762" stroke-linecap="round" stroke-linejoin="round" /><path d="M-0.4318192,0.1945337 L-0.2327694,0.1945335 -0.4432523,0.0569182 -0.4432523,0.0569182 -0.4482261,0.0532441 -0.4525893,0.0488635 -0.4555005,0.0434118 -0.4563694,0.0372923 -0.4563694,0.0372923 -0.4555476,0.0319847 -0.4533423,0.0270946 -0.449862,0.0229953 -0.4451617,0.020414 -0.4451617,0.020414 -0.4389341,0.0195109 -0.4326197,0.0194801 -0.1742245,0.01948 -0.1742245,0.01948 -0.1664533,0.0196547 -0.1625995,0.0201735 -0.1588983,0.021348 -0.1588983,0.021348 -0.1549215,0.0244562 -0.1518805,0.028484 -0.1501357,0.0332176 -0.1494919,0.0382263 -0.1494919,0.0382263 -0.1498548,0.0423336 -0.1509375,0.0463105 -0.1529427,0.0499093 -0.1558317,0.0528483 -0.1593698,0.0549551 -0.16328,0.0562755 -0.1714403,0.0573728 -0.373556,0.0573728 -0.1616791,0.1945335 -0.1616791,0.1945335 -0.1569386,0.1982798 -0.1529323,0.2027932 -0.1503116,0.2082371 -0.1494919,0.2142139 -0.1494919,0.2142139 -0.1498022,0.2182021 -0.1508685,0.2220556 -0.1528781,0.2255112 -0.1557451,0.2282943 -0.1592316,0.2302526 -0.1630373,0.2314872 -0.1709733,0.2324264 -0.4334948,0.2324263 -0.4334948,0.2324263 -0.4420097,0.2317718 -0.4461283,0.2306491 -0.4499514,0.2287348 -0.4530914,0.2258533 -0.455244,0.2221665 -0.4562507,0.2180173 -0.4563694,0.2137469 -0.4563694,0.2137469 -0.4561303,0.209226 -0.4550601,0.2048297 -0.4528274,0.200902 -0.4494047,0.1979474 -0.4452697,0.1961202 -0.4408463,0.1951353 -0.4318192,0.1945337z" transform="matrix(1,0,0,-1,0.62865,0.62865)" fill="rgb(160,160,160)" fill-rule="nonzero" shaper:cutDepth="0.0000762" stroke-linecap="round" stroke-linejoin="round" /></svg>