<?xml version="1.0" encoding="utf-8"?>
<!-- Generator: Fusion 360, Shaper Origin Export Add-In, Version 1.6.10  -->
<svg xmlns="http://www.w3.org/2000/svg" xmlns:xlink="http://www.w3.org/1999/xlink" xmlns:shaper="http://www.shapertools.com/namespaces/shaper" shaper:fusionaddin="version:1.6.10" width="1.2573cm" height="1.2573cm" version="1.1" x="0cm" y="0cm" viewBox="0 0 1.2573 1.2573" enable-background="new 0 0 1.2573 1.2573" xml:space="preserve"><path d="M0.62865,0.62865 L0.62865,-0.62865 -0.62865,-0.62865 -0.62865,0.62865 0.62865,0.62865z" transform="matrix(1,0,0,-1,0.62865,0.62865)" fill="rgb(0,0,0)" shaper:cutDepth="0.000127" stroke-linecap="round" stroke-linejoin="round" /><path d="M-0.3268027,-0.4601829 L-0.3268027,-0.4601829 -0.3261084,-0.4516902 -0.3248754,-0.4476006 -0.3228347,-0.4438577 -0.319858,-0.4408024 -0.316066,-0.4388548 -0.3119197,-0.4378554 -0.3076562,-0.4376341 -0.3076562,-0.4376341 -0.3032552,-0.4378167 -0.2989986,-0.4389373 -0.2952405,-0.4412236 -0.2923929,-0.4445737 -0.2905518,-0.448576 -0.2894813,-0.4528484 -0.2889099,-0.4616319 -0.2889099,-0.5409453 -0.1730971,-0.5409453 -0.1730971,-0.4274938 -0.1730971,-0.4274938 -0.1725433,-0.4187185 -0.1714261,-0.4144563 -0.1694683,-0.4105155 -0.1664548,-0.4073156 -0.1626277,-0.4051468 -0.1583506,-0.4041119 -0.1539506,-0.4039442 -0.1539506,-0.4039442 -0.1493994,-0.4041465 -0.1450356,-0.4054408 -0.1412761,-0.4080058 -0.1385061,-0.4116108 -0.1367594,-0.4158213 -0.1357463,-0.4202634 -0.1352044,-0.4293532 -0.1352044,-0.5551815 -0.1352044,-0.5551815 -0.1359407,-0.5655015 -0.1374933,-0.5704412 -0.1404768,-0.5746577 -0.1449403,-0.5772677 -0.1499641,-0.5785049 -0.1603154,-0.5787575 -0.417465,-0.578731 -0.417465,-0.578731 -0.4276817,-0.5782326 -0.4325916,-0.5768002 -0.4369211,-0.5740815 -0.4397965,-0.569862 -0.4413152,-0.5649732 -0.4420818,-0.554779 -0.4420819,-0.4279608 -0.4420819,-0.4279608 -0.4415326,-0.4194802 -0.4404108,-0.4153691 -0.4384362,-0.4116086 -0.4355377,-0.4084915 -0.4317982,-0.4064757 -0.4276557,-0.4055114 -0.4234024,-0.4053452 -0.4234024,-0.4053452 -0.4189467,-0.4055192 -0.4146208,-0.4065887 -0.4107695,-0.4088255 -0.4078024,-0.4121427 -0.4058443,-0.4161503 -0.4047012,-0.4204587 -0.4041891,-0.4293532 -0.4041891,-0.5409453 -0.3268027,-0.5409453 -0.3268027,-0.4601829z" transform="matrix(1,0,0,-1,0.62865,0.62865)" fill="rgb(120,120,120)" fill-rule="nonzero" shaper:cutDepth="0.0000254" stroke-linecap="round" stroke-linejoin="round" /><path d="M-0.4175317,-0.2540279 L-0.2314919,-0.2540544 -0.4303587,-0.3547139 -0.4303587,-0.3547139 -0.4353458,-0.3577364 -0.4393476,-0.3619612 -0.4416798,-0.3672974 -0.4420819,-0.3731097 -0.4420819,-0.3731097 -0.4418395,-0.3766911 -0.4408813,-0.380148 -0.4392089,-0.383323 -0.4368783,-0.386052 -0.4368783,-0.386052 -0.4330598,-0.3891828 -0.4282411,-0.3903179 -0.4183322,-0.3906551 -0.159937,-0.3906816 -0.159937,-0.3906816 -0.1510017,-0.3901127 -0.1466183,-0.3892162 -0.1424587,-0.3875505 -0.1389595,-0.3847801 -0.1366388,-0.3809604 -0.135452,-0.3766461 -0.1352044,-0.3721758 -0.1352044,-0.3721758 -0.1354948,-0.3680132 -0.1364903,-0.3639626 -0.1384679,-0.3602917 -0.1413406,-0.3572715 -0.1449157,-0.3551253 -0.1488755,-0.3538061 -0.1571528,-0.3528291 -0.3462585,-0.3528694 -0.1459977,-0.252671 -0.1459977,-0.252671 -0.1414547,-0.2495018 -0.1378092,-0.2453362 -0.1357699,-0.2401912 -0.1352044,-0.2346813 -0.1352044,-0.2346813 -0.1354392,-0.2306376 -0.1364549,-0.226719 -0.1384039,-0.2231724 -0.141261,-0.2203088 -0.1447902,-0.2183267 -0.1486471,-0.2170834 -0.1566858,-0.2162019 -0.4192073,-0.2162422 -0.4192073,-0.2162422 -0.4278111,-0.2168251 -0.4320006,-0.217873 -0.4358656,-0.2197845 -0.4389476,-0.2227928 -0.4409118,-0.2266298 -0.4418594,-0.2308378 -0.4420819,-0.2351483 -0.4420819,-0.2351483 -0.4419097,-0.2396664 -0.4408208,-0.2440513 -0.4386283,-0.2479913 -0.4351589,-0.2508799 -0.4309804,-0.2525889 -0.4265501,-0.253516 -0.4175317,-0.2540279z" transform="matrix(1,0,0,-1,0.62865,0.62865)" fill="rgb(120,120,120)" fill-rule="nonzero" shaper:cutDepth="0.0000254" stroke-linecap="round" stroke-linejoin="round" /><path d="M-0.1864395,-0.1531282 L-0.146879,-0.1650868 -0.146879,-0.1650868 -0.1417339,-0.1677133 -0.1378337,-0.1719673 -0.1357447,-0.1773435 -0.1352044,-0.1830992 -0.1352044,-0.1830992 -0.1363075,-0.19008 -0.1377153,-0.1933271 -0.1396649,-0.1962811 -0.1420917,-0.198861 -0.1450499,-0.2007982 -0.148367,-0.2020351 -0.1518825,-0.2024458 -0.1518825,-0.2024458 -0.1599153,-0.2010221 -0.1677834,-0.1987795 -0.4289395,-0.1203227 -0.4289395,-0.1203227 -0.434601,-0.1178776 -0.439105,-0.1136837 -0.4406532,-0.1110096 -0.441575,-0.1080567 -0.4420819,-0.10191 -0.4420819,-0.10191 -0.4412837,-0.0947128 -0.4398238,-0.0913904 -0.437578,-0.0885377 -0.4314887,-0.084621 -0.4246818,-0.082115 -0.1646246,-0.0027752 -0.1646246,-0.0027752 -0.1588017,-0.0011622 -0.1528165,-0.0004403 -0.1528165,-0.0004403 -0.1491729,-0.0008102 -0.1456809,-0.0019068 -0.1425231,-0.0037575 -0.1398712,-0.0062829 -0.1377619,-0.0092729 -0.1363152,-0.012639 -0.1352044,-0.0198536 -0.1352044,-0.0198536 -0.1358028,-0.0261286 -0.1368891,-0.0290929 -0.1385574,-0.031773 -0.1407221,-0.0340681 -0.1433192,-0.0358689 -0.1491257,-0.0383083 -0.1864395,-0.0498364 -0.1864395,-0.1531282z M-0.2243323,-0.0618256 L-0.3571166,-0.1014823 -0.2243323,-0.1411389 -0.2243323,-0.0618256z" transform="matrix(1,0,0,-1,0.62865,0.62865)" fill="rgb(120,120,120)" fill-rule="nonzero" shaper:cutDepth="0.0000254" stroke-linecap="round" stroke-linejoin="round" /><path d="M-0.3015853,0.1621514 L-0.3015853,0.1621514 -0.2938899,0.1683391 -0.2857703,0.1739554 -0.2772287,0.1789099 -0.2682755,0.1830714 -0.2589183,0.1862209 -0.2492722,0.1883273 -0.2394716,0.1895227 -0.2296026,0.1898371 -0.2296026,0.1898371 -0.2185564,0.1892834 -0.2075829,0.1879095 -0.1967972,0.185463 -0.1862964,0.1819921 -0.1762041,0.1774682 -0.1667014,0.1718157 -0.1579656,0.165031 -0.1502814,0.1570813 -0.1502814,0.1570813 -0.1433023,0.1463221 -0.1405576,0.140522 -0.1384103,0.1344754 -0.1358317,0.1219158 -0.1352044,0.1091001 -0.1352044,0.0408681 -0.1352044,0.0408681 -0.1361235,0.0310935 -0.1377549,0.0264547 -0.1406488,0.0224927 -0.1448395,0.019938 -0.149589,0.0186563 -0.1594022,0.0182586 -0.4187992,0.0183193 -0.4187992,0.0183193 -0.4282037,0.0191149 -0.4327042,0.0205762 -0.4366248,0.0232021 -0.4393936,0.0270236 -0.440995,0.0314751 -0.4420818,0.0408537 -0.4420819,0.1206562 -0.4420819,0.1206562 -0.4415568,0.1279142 -0.4403923,0.135097 -0.4384029,0.1420966 -0.4356856,0.1488457 -0.4321377,0.1551993 -0.4279064,0.1611186 -0.4230694,0.1665549 -0.4177001,0.1714663 -0.4118825,0.175838 -0.40567,0.1796265 -0.3991049,0.1827653 -0.3922742,0.1852741 -0.3781279,0.1886482 -0.363628,0.1898371 -0.363628,0.1898371 -0.3550509,0.1895965 -0.3465412,0.1885073 -0.338178,0.1865891 -0.3300876,0.1837338 -0.3223358,0.1800571 -0.3150308,0.1755566 -0.3082406,0.1703128 -0.3019897,0.164435 -0.3019897,0.1639738 -0.3015853,0.1621514z M-0.1730971,0.0537652 L-0.1730971,0.1063798 -0.1730971,0.1063798 -0.1734579,0.1149838 -0.1750576,0.1234397 -0.176671,0.1274285 -0.1789309,0.1310941 -0.1816984,0.1343935 -0.1849052,0.1372677 -0.1849052,0.1372677 -0.1946356,0.1438889 -0.2054464,0.1485362 -0.2169277,0.1511327 -0.2286686,0.1520111 -0.2286686,0.1520111 -0.2424217,0.1507621 -0.2557026,0.1469807 -0.2619827,0.1441013 -0.2678978,0.1405294 -0.2733339,0.1362622 -0.2781025,0.1312635 -0.2781025,0.1312635 -0.2813719,0.1264727 -0.2835067,0.1210803 -0.2844613,0.1153612 -0.2846403,0.1095612 -0.2846403,0.0537652 -0.1730971,0.0537652z M-0.3225331,0.0560708 L-0.3225331,0.117921 -0.3225331,0.117921 -0.3227415,0.12397 -0.3237476,0.1299358 -0.326209,0.1354597 -0.330205,0.1400029 -0.330205,0.1400029 -0.3374709,0.145451 -0.3457304,0.1492389 -0.3545668,0.1513285 -0.363628,0.1520111 -0.363628,0.1520111 -0.3728118,0.1511933 -0.381769,0.1490275 -0.3901206,0.1451208 -0.3974512,0.1395359 -0.3974512,0.1395359 -0.4011606,0.1348626 -0.4032649,0.1292842 -0.4040576,0.1233711 -0.4041891,0.1174003 -0.4041891,0.0560708 -0.3225331,0.0560708z" transform="matrix(1,0,0,-1,0.62865,0.62865)" fill="rgb(120,120,120)" fill-rule="nonzero" shaper:cutDepth="0.0000254" stroke-linecap="round" stroke-linejoin="round" /><path d="M-0.1688275,0.3599006 L-0.1688275,0.3599006 -0.1686583,0.3655004 -0.1675599,0.3709749 -0.1675599,0.3709749 -0.1650834,0.3752509 -0.1612417,0.378393 -0.1567144,0.3803799 -0.1518158,0.3811152 -0.1518158,0.3811152 -0.1463101,0.3801677 -0.1414103,0.3774904 -0.1376493,0.3733797 -0.1356713,0.368173 -0.1356713,0.368173 -0.1352044,0.3575499 -0.1352044,0.2262088 -0.1352044,0.2262088 -0.1362783,0.2169369 -0.137828,0.2125259 -0.1404291,0.2086486 -0.1441933,0.2058919 -0.1486028,0.2043444 -0.1532365,0.2037448 -0.1579124,0.2037933 -0.4215344,0.2037934 -0.4215344,0.2037934 -0.429385,0.204764 -0.4331237,0.2060618 -0.4365317,0.2080818 -0.4392076,0.2109899 -0.4409912,0.2145229 -0.4418542,0.2183862 -0.4420819,0.2223395 -0.4420819,0.2223395 -0.4410386,0.2302203 -0.4392391,0.2337734 -0.436563,0.2367193 -0.433167,0.2388063 -0.4293971,0.2400979 -0.4214757,0.2408855 -0.1688275,0.2408855 -0.1688275,0.3599006z" transform="matrix(1,0,0,-1,0.62865,0.62865)" fill="rgb(120,120,120)" fill-rule="nonzero" shaper:cutDepth="0.0000254" stroke-linecap="round" stroke-linejoin="round" /><path d="M-0.3268027,0.5100839 L-0.3268027,0.5100839 -0.3261084,0.5185765 -0.3248754,0.5226661 -0.3228347,0.5264091 -0.319858,0.5294644 -0.316066,0.531412 -0.3119197,0.5324113 -0.3076562,0.5326327 -0.3076562,0.5326327 -0.3032552,0.5324501 -0.2989986,0.5313294 -0.2952405,0.5290431 -0.2923929,0.5256931 -0.2905518,0.5216907 -0.2894813,0.5174184 -0.2889099,0.5086348 -0.2889099,0.4293215 -0.1730971,0.4293215 -0.1730971,0.542773 -0.1730971,0.542773 -0.1725433,0.5515483 -0.1714261,0.5558105 -0.1694683,0.5597513 -0.1664548,0.5629512 -0.1626277,0.5651199 -0.1583506,0.5661548 -0.1539506,0.5663225 -0.1539506,0.5663225 -0.1493994,0.5661203 -0.1450356,0.5648259 -0.1412761,0.562261 -0.1385061,0.5586559 -0.1367594,0.5544454 -0.1357463,0.5500034 -0.1352044,0.5409135 -0.1352044,0.4150852 -0.1352044,0.4150852 -0.1359407,0.4047653 -0.1374933,0.3998255 -0.1404768,0.3956091 -0.1449403,0.3929991 -0.1499641,0.3917618 -0.1603154,0.3915093 -0.417465,0.3915357 -0.417465,0.3915357 -0.4276817,0.3920341 -0.4325916,0.3934666 -0.4369211,0.3961853 -0.4397965,0.4004047 -0.4413152,0.4052936 -0.4420818,0.4154877 -0.4420819,0.542306 -0.4420819,0.542306 -0.4415326,0.5507865 -0.4404108,0.5548976 -0.4384362,0.5586582 -0.4355377,0.5617753 -0.4317982,0.563791 -0.4276557,0.5647553 -0.4234024,0.5649215 -0.4234024,0.5649215 -0.4189467,0.5647476 -0.4146208,0.563678 -0.4107695,0.5614413 -0.4078024,0.5581241 -0.4058443,0.5541165 -0.4047012,0.5498081 -0.4041891,0.5409135 -0.4041891,0.4293215 -0.3268027,0.4293215 -0.3268027,0.5100839z" transform="matrix(1,0,0,-1,0.62865,0.62865)" fill="rgb(120,120,120)" fill-rule="nonzero" shaper:cutDepth="0.0000254" stroke-linecap="round" stroke-linejoin="round" /><path d="M0.154937,-0.4781953 L0.154937,-0.4781953 0.1553897,-0.4712512 0.1565952,-0.4643962 0.1584736,-0.4576963 0.1609948,-0.4512083 0.1640478,-0.444955 0.1676692,-0.4390108 0.176285,-0.4280942 0.176285,-0.4280942 0.1829164,-0.4220153 0.1900624,-0.4165439 0.1976633,-0.4117353 0.2056123,-0.4075171 0.2223086,-0.4008254 0.2396573,-0.3960642 0.2573435,-0.392754 0.2752223,-0.3907219 0.2931843,-0.3896319 0.3111777,-0.3893342 0.3111777,-0.3893342 0.328358,-0.3896165 0.3455076,-0.3906529 0.3625872,-0.3925234 0.3794962,-0.3955631 0.3960955,-0.3999928 0.4121468,-0.4061153 0.4198663,-0.4099001 0.4272936,-0.4142297 0.441067,-0.4244917 0.441067,-0.4244917 0.4463754,-0.4297883 0.4511891,-0.435538 0.4553401,-0.4417829 0.4589229,-0.4483705 0.4618848,-0.4552604 0.4640781,-0.4624294 0.4655569,-0.4697824 0.4660842,-0.4772613 0.4660842,-0.4772613 0.4654532,-0.4855798 0.4636781,-0.4937355 0.4610646,-0.5016578 0.4576208,-0.5092594 0.4535102,-0.5165216 0.4488006,-0.5234098 0.4434133,-0.5297824 0.4375312,-0.5357015 0.4375312,-0.5357015 0.4307494,-0.5410385 0.4234843,-0.5456955 0.4079094,-0.5531134 0.3915177,-0.5585057 0.3746863,-0.5623323 0.3576408,-0.5650658 0.3404712,-0.5668595 0.3059742,-0.5681237 0.3059742,-0.5681237 0.2899773,-0.5677543 0.2740135,-0.5666973 0.2581285,-0.5647617 0.2424046,-0.5618106 0.2269365,-0.5577107 0.211909,-0.5522299 0.1975897,-0.5450868 0.1843573,-0.5361017 0.1843573,-0.5361017 0.1782255,-0.5304387 0.1726982,-0.5241852 0.1678302,-0.5174049 0.1636164,-0.5102001 0.1601113,-0.5026249 0.157399,-0.4947323 0.1556337,-0.486574 0.1549371,-0.478258 0.154937,-0.4781953z M0.3097768,-0.4272269 L0.3097768,-0.4272269 0.2861719,-0.4280042 0.2626987,-0.4305819 0.2510914,-0.4327508 0.2396538,-0.4356907 0.2284799,-0.4395144 0.2177802,-0.4445055 0.2177802,-0.4445055 0.2088568,-0.4508097 0.201122,-0.4584533 0.1979094,-0.4628588 0.1952847,-0.4676533 0.1934862,-0.4728091 0.1928321,-0.4782233 0.1928321,-0.4782233 0.193544,-0.4831822 0.1949173,-0.4879802 0.1996305,-0.4968022 0.2059237,-0.504579 0.2135773,-0.5110178 0.2135773,-0.5110178 0.224374,-0.5167411 0.2358584,-0.5209521 0.2476632,-0.524128 0.2596606,-0.5264975 0.2839375,-0.5293912 0.3083758,-0.530231 0.3083758,-0.530231 0.3345249,-0.5293528 0.3475549,-0.5281771 0.3605113,-0.5263571 0.3733371,-0.5237773 0.3859253,-0.5202191 0.3980779,-0.5153695 0.4093118,-0.5086829 0.4093118,-0.5086829 0.4162823,-0.5027209 0.4222689,-0.4957763 0.4246479,-0.4918541 0.426459,-0.4876403 0.4277032,-0.4832224 0.4281915,-0.4786623 0.4281915,-0.4786623 0.4275779,-0.4735636 0.4260316,-0.4686639 0.4210224,-0.4597084 0.4142044,-0.4520368 0.4059762,-0.4459064 0.4059762,-0.4459064 0.3949545,-0.4402671 0.3833107,-0.4360253 0.3713447,-0.4328421 0.3591687,-0.4305475 0.3345373,-0.4279508 0.3097768,-0.4272269z" transform="matrix(1,0,0,-1,0.62865,0.62865)" fill="rgb(120,120,120)" fill-rule="nonzero" shaper:cutDepth="0.0000254" stroke-linecap="round" stroke-linejoin="round" /><path d="M0.2744859,-0.2590313 L0.2744859,-0.2590313 0.2750202,-0.2500829 0.2761081,-0.2457238 0.2780111,-0.2416639 0.2809512,-0.2382763 0.2848143,-0.2360068 0.2891499,-0.234855 0.2936324,-0.2346146 0.2936324,-0.2346146 0.2981891,-0.2349212 0.3025893,-0.2361323 0.306461,-0.2385411 0.3092161,-0.2421612 0.3109025,-0.2464142 0.3118398,-0.2508773 0.3123786,-0.2599958 0.3123786,-0.3379258 0.4412004,-0.3378855 0.4412004,-0.3378855 0.450181,-0.338452 0.45458,-0.3394006 0.4587482,-0.3411061 0.4622472,-0.343915 0.4646046,-0.3477418 0.4658237,-0.3520719 0.4660842,-0.356565 0.4660842,-0.356565 0.465762,-0.3610854 0.4646289,-0.3654704 0.4622496,-0.3693226 0.4587929,-0.3722373 0.4546581,-0.3740956 0.4502508,-0.3751535 0.4412132,-0.3757783 0.184891,-0.3757782 0.184891,-0.3757782 0.1795736,-0.3756188 0.174327,-0.3747774 0.1693155,-0.3729919 0.1649481,-0.3699709 0.1617165,-0.3657563 0.1598035,-0.360798 0.1591037,-0.355528 0.1592067,-0.3502107 0.1592066,-0.2253415 0.1592066,-0.2253415 0.1601573,-0.2170346 0.1613846,-0.2130247 0.1634501,-0.2093946 0.1663455,-0.2063675 0.169968,-0.2042796 0.1739823,-0.2030972 0.178153,-0.202726 0.178153,-0.202726 0.1823676,-0.2030196 0.1864396,-0.2041326 0.1901286,-0.2061805 0.1930529,-0.2092237 0.1950591,-0.2129369 0.196306,-0.216976 0.1970995,-0.2253712 0.1970995,-0.3378855 0.2744859,-0.3378855 0.2744859,-0.2590313z" transform="matrix(1,0,0,-1,0.62865,0.62865)" fill="rgb(120,120,120)" fill-rule="nonzero" shaper:cutDepth="0.0000254" stroke-linecap="round" stroke-linejoin="round" /><path d="M0.2744859,-0.0709554 L0.2744859,-0.0709554 0.2750202,-0.062007 0.2761081,-0.0576479 0.2780111,-0.053588 0.2809512,-0.0502004 0.2848143,-0.0479309 0.2891499,-0.0467791 0.2936324,-0.0465386 0.2936324,-0.0465386 0.2981891,-0.0468452 0.3025893,-0.0480564 0.306461,-0.0504652 0.3092161,-0.0540853 0.3109025,-0.0583382 0.3118398,-0.0628013 0.3123786,-0.0719199 0.3123786,-0.1498499 0.4412004,-0.1498096 0.4412004,-0.1498096 0.450181,-0.1503761 0.45458,-0.1513247 0.4587482,-0.1530302 0.4622472,-0.1558391 0.4646046,-0.1596659 0.4658237,-0.163996 0.4660842,-0.1684891 0.4660842,-0.1684891 0.465762,-0.1730095 0.4646289,-0.1773945 0.4622496,-0.1812466 0.4587929,-0.1841614 0.4546581,-0.1860197 0.4502508,-0.1870776 0.4412132,-0.1877024 0.184891,-0.1877023 0.184891,-0.1877023 0.1795736,-0.1875429 0.174327,-0.1867015 0.1693155,-0.184916 0.1649481,-0.181895 0.1617165,-0.1776804 0.1598035,-0.1727221 0.1591037,-0.1674521 0.1592067,-0.1621348 0.1592066,-0.0372656 0.1592066,-0.0372656 0.1601573,-0.0289587 0.1613846,-0.0249488 0.1634501,-0.0213187 0.1663455,-0.0182916 0.169968,-0.0162037 0.1739823,-0.0150213 0.178153,-0.0146501 0.178153,-0.0146501 0.1823676,-0.0149437 0.1864396,-0.0160567 0.1901286,-0.0181046 0.1930529,-0.0211478 0.1950591,-0.024861 0.196306,-0.0289001 0.1970995,-0.0372953 0.1970995,-0.1498096 0.2744859,-0.1498096 0.2744859,-0.0709554z" transform="matrix(1,0,0,-1,0.62865,0.62865)" fill="rgb(120,120,120)" fill-rule="nonzero" shaper:cutDepth="0.0000254" stroke-linecap="round" stroke-linejoin="round" /><path d="M0.1592067,0.0968585 L0.1604076,0.0727498 0.1604076,0.0727498 0.1611234,0.0655443 0.1625349,0.0584428 0.1646261,0.0515108 0.1674511,0.0448444 0.1710376,0.0385549 0.1753094,0.0327091 0.1801664,0.0273394 0.185534,0.0224796 0.1913722,0.0181978 0.1976104,0.0145204 0.2041643,0.0114444 0.2109772,0.0089897 0.225099,0.0058293 0.2395285,0.0047099 0.2395285,0.0047099 0.2490198,0.0052495 0.2584282,0.0066117 0.2676293,0.0090001 0.2765584,0.0122642 0.2851205,0.0163939 0.293169,0.0214523 0.300432,0.0275848 0.3067747,0.0346638 0.3067747,0.0346638 0.3110696,0.0413924 0.3145046,0.0485997 0.3193167,0.0638172 0.3295713,0.104422 0.3295713,0.104422 0.3309031,0.1093779 0.3328036,0.1141364 0.3353613,0.1185903 0.3387967,0.1223908 0.3387967,0.1223908 0.3430242,0.1259801 0.3476994,0.1289683 0.3578198,0.1334783 0.3685742,0.1361745 0.3796248,0.1370675 0.3796248,0.1370675 0.3909354,0.1360648 0.4019031,0.1331154 0.4121054,0.1281335 0.416739,0.1248397 0.4209198,0.1209898 0.4209198,0.1209898 0.4249517,0.1155796 0.4275367,0.1093357 0.428847,0.1027155 0.4292589,0.0959726 0.4293153,0.0732225 0.4293153,0.0732225 0.4289896,0.0647469 0.4278955,0.0606398 0.4262127,0.0567417 0.4210917,0.0499841 0.4144918,0.0446512 0.4069515,0.0407229 0.3988572,0.0381376 0.3904524,0.0368798 0.3819597,0.0365318 0.3819597,0.0365318 0.3735786,0.0359544 0.3695106,0.0348992 0.3656656,0.0331919 0.3623443,0.0306269 0.3599523,0.027175 0.3586854,0.02317 0.3582768,0.0189864 0.3582768,0.0189864 0.3588753,0.0143255 0.360416,0.0098882 0.3630599,0.0060094 0.3666735,0.0030095 0.3709041,0.0009705 0.3754257,-0.0003255 0.3847616,-0.0012942 0.3847616,-0.0012942 0.400204,-0.0000879 0.4153047,0.0033558 0.4225576,0.0060689 0.4295161,0.0094823 0.4360998,0.0135632 0.4422168,0.018319 0.4478137,0.023676 0.4528042,0.0296021 0.4570614,0.0360746 0.4605138,0.0430099 0.4631545,0.0502933 0.4650037,0.0578171 0.4661143,0.0654843 0.4664845,0.0732237 0.4660842,0.0973312 0.4660842,0.0973312 0.4655202,0.1054303 0.4642855,0.1134543 0.4622397,0.1213106 0.4594032,0.1289166 0.455626,0.1361033 0.451132,0.1428629 0.4458648,0.1490401 0.4399367,0.1545872 0.4334999,0.1595351 0.4265773,0.1637729 0.4192508,0.1672745 0.4116403,0.1700978 0.4037924,0.1721774 0.3958041,0.1736336 0.3796248,0.1748935 0.3796248,0.1748935 0.3651284,0.1739093 0.3508745,0.1711037 0.3371952,0.1662205 0.3306848,0.1629851 0.3244907,0.159184 0.3132395,0.1499976 0.3083087,0.1446594 0.3038704,0.1389026 0.3000678,0.1327089 0.2968121,0.1262104 0.2919645,0.1125173 0.281787,0.0718043 0.281787,0.0718043 0.2801426,0.0662402 0.2778982,0.0609016 0.274851,0.0559538 0.2706165,0.0520091 0.2706165,0.0520091 0.2636409,0.0478167 0.2560817,0.0447989 0.2481122,0.0431486 0.2399955,0.0425359 0.2399955,0.0425359 0.2300999,0.0433389 0.2204697,0.0457143 0.2158549,0.047553 0.2115054,0.0499417 0.2074411,0.0527981 0.2038373,0.056212 0.2038373,0.056212 0.2011937,0.0604022 0.1993444,0.0650089 0.1980136,0.0697841 0.1972995,0.0746913 0.1968886,0.0935495 0.1968886,0.0954404 0.1968886,0.0954404 0.1974441,0.1022421 0.1994,0.1087793 0.2027924,0.114692 0.2075935,0.1195357 0.2133097,0.1232655 0.2195089,0.1261216 0.2325904,0.129996 0.2325904,0.129996 0.2427974,0.1327979 0.2427974,0.1327979 0.2465982,0.1357315 0.2493088,0.1396961 0.2507021,0.1442899 0.2511365,0.1490758 0.2511365,0.1490758 0.2496907,0.1565575 0.2479201,0.159939 0.245431,0.1628319 0.2422765,0.164985 0.2387418,0.1664257 0.2311894,0.1674884 0.2311894,0.1674884 0.2223554,0.1666275 0.2137249,0.1645171 0.2053622,0.1615383 0.1972995,0.1578151 0.1972995,0.1578151 0.1894488,0.1530595 0.1822104,0.1474221 0.1757043,0.140946 0.1700778,0.1336975 0.1654385,0.1257789 0.1618756,0.1173231 0.1597283,0.1084006 0.1592066,0.0992415 0.1592067,0.0968585z" transform="matrix(1,0,0,-1,0.62865,0.62865)" fill="rgb(120,120,120)" fill-rule="nonzero" shaper:cutDepth="0.0000254" stroke-linecap="round" stroke-linejoin="round" /><path d="M0.2744859,0.3070643 L0.2744859,0.3070643 0.2751802,0.315557 0.2764132,0.3196466 0.2784538,0.3233895 0.2814305,0.3264449 0.2852225,0.3283925 0.2893689,0.3293918 0.2936324,0.3296132 0.2936324,0.3296132 0.2980333,0.3294306 0.3022899,0.3283099 0.306048,0.3260236 0.3088957,0.3226736 0.3107368,0.3186712 0.3118072,0.3143989 0.3123786,0.3056153 0.3123786,0.2263019 0.4281915,0.2263019 0.4281915,0.3397535 0.4281915,0.3397535 0.4287452,0.3485288 0.4298624,0.352791 0.4318202,0.3567318 0.4348337,0.3599317 0.4386609,0.3621004 0.4429379,0.3631353 0.447338,0.363303 0.447338,0.363303 0.4518892,0.3631008 0.456253,0.3618064 0.4600124,0.3592415 0.4627824,0.3556364 0.4645291,0.3514259 0.4655422,0.3469839 0.4660842,0.337894 0.4660842,0.2120657 0.4660842,0.2120657 0.4653478,0.2017457 0.4637952,0.196806 0.4608118,0.1925896 0.4563482,0.1899796 0.4513244,0.1887423 0.4409732,0.1884898 0.1838236,0.1885162 0.1838236,0.1885162 0.1736068,0.1890146 0.168697,0.190447 0.1643674,0.1931658 0.161492,0.1973852 0.1599733,0.2022741 0.1592067,0.2124682 0.1592066,0.3392865 0.1592066,0.3392865 0.1597559,0.347767 0.1608777,0.3518781 0.1628523,0.3556387 0.1657509,0.3587558 0.1694903,0.3607715 0.1736328,0.3617358 0.1778861,0.361902 0.1778861,0.361902 0.1823419,0.361728 0.1866678,0.3606585 0.1905191,0.3584218 0.1934861,0.3551045 0.1954442,0.351097 0.1965873,0.3467885 0.1970995,0.337894 0.1970995,0.2263019 0.2744859,0.2263019 0.2744859,0.3070643z" transform="matrix(1,0,0,-1,0.62865,0.62865)" fill="rgb(120,120,120)" fill-rule="nonzero" shaper:cutDepth="0.0000254" stroke-linecap="round" stroke-linejoin="round" /><path d="M0.4426681,0.4827317 L0.4426681,0.4827317 0.4513447,0.4822073 0.4555694,0.4811347 0.4594818,0.4792443 0.4627638,0.4763851 0.4649503,0.4726323 0.4659717,0.4684038 0.4660842,0.4640522 0.4660842,0.4640522 0.465679,0.4597496 0.464551,0.4555805 0.4625083,0.4517731 0.4596798,0.4485082 0.4596798,0.4485082 0.4553691,0.4459958 0.4504294,0.4450993 0.4404,0.444839 0.1970995,0.444839 0.1970993,0.3987407 0.1970993,0.3987407 0.1962147,0.3901572 0.1949135,0.3860316 0.1927333,0.3823102 0.1896934,0.379239 0.1859044,0.3771717 0.1817262,0.3760788 0.1774192,0.3757249 0.1774192,0.3757249 0.1730226,0.376068 0.168817,0.3773758 0.165217,0.3799244 0.1625471,0.3834168 0.1608626,0.3874981 0.1598072,0.391781 0.1592067,0.400571 0.1592066,0.5293638 0.1592066,0.5293638 0.1601161,0.5378277 0.1614509,0.5418788 0.1636219,0.5455429 0.1666832,0.5485046 0.1704433,0.5505075 0.1745705,0.5515669 0.1788201,0.5519126 0.1788201,0.5519126 0.1830434,0.5515202 0.1870993,0.550291 0.190645,0.5479649 0.1934024,0.5447542 0.1952206,0.5409195 0.1963251,0.5368242 0.1970995,0.528383 0.1970995,0.4827317 0.4426681,0.4827317z" transform="matrix(1,0,0,-1,0.62865,0.62865)" fill="rgb(120,120,120)" fill-rule="nonzero" shaper:cutDepth="0.0000254" stroke-linecap="round" stroke-linejoin="round" /></svg>