<?xml version="1.0" encoding="utf-8"?>
<!-- Generator: Fusion 360, Shaper Origin Export Add-In, Version 1.6.10  -->
<svg xmlns="http://www.w3.org/2000/svg" xmlns:xlink="http://www.w3.org/1999/xlink" xmlns:shaper="http://www.shapertools.com/namespaces/shaper" shaper:fusionaddin="version:1.6.10" width="1.2573cm" height="1.2573cm" version="1.1" x="0cm" y="0cm" viewBox="0 0 1.2573 1.2573" enable-background="new 0 0 1.2573 1.2573" xml:space="preserve"><path d="M0.62865,0.62865 L0.62865,-0.62865 -0.62865,-0.62865 -0.62865,0.62865 0.62865,0.62865z" transform="matrix(1,0,0,-1,0.62865,0.62865)" fill="rgb(0,0,0)" shaper:cutDepth="0.000127" stroke-linecap="round" stroke-linejoin="round" /><path d="M-0.3268027,-0.4601829 L-0.3268027,-0.4601829 -0.3261084,-0.4516902 -0.3248754,-0.4476006 -0.3228347,-0.4438577 -0.319858,-0.4408024 -0.316066,-0.4388548 -0.3119197,-0.4378554 -0.3076562,-0.4376341 -0.3076562,-0.4376341 -0.3032552,-0.4378167 -0.2989986,-0.4389373 -0.2952405,-0.4412236 -0.2923929,-0.4445737 -0.2905518,-0.448576 -0.2894813,-0.4528484 -0.2889099,-0.4616319 -0.2889099,-0.5409453 -0.1730971,-0.5409453 -0.1730971,-0.4274938 -0.1730971,-0.4274938 -0.1725433,-0.4187185 -0.1714261,-0.4144563 -0.1694683,-0.4105155 -0.1664548,-0.4073156 -0.1626277,-0.4051468 -0.1583506,-0.4041119 -0.1539506,-0.4039442 -0.1539506,-0.4039442 -0.1493994,-0.4041465 -0.1450356,-0.4054408 -0.1412761,-0.4080058 -0.1385061,-0.4116108 -0.1367594,-0.4158213 -0.1357463,-0.4202634 -0.1352044,-0.4293532 -0.1352044,-0.5551815 -0.1352044,-0.5551815 -0.1359407,-0.5655015 -0.1374933,-0.5704412 -0.1404768,-0.5746577 -0.1449403,-0.5772677 -0.1499641,-0.5785049 -0.1603154,-0.5787575 -0.417465,-0.578731 -0.417465,-0.578731 -0.4276817,-0.5782326 -0.4325916,-0.5768002 -0.4369211,-0.5740815 -0.4397965,-0.569862 -0.4413152,-0.5649732 -0.4420818,-0.554779 -0.4420819,-0.4279608 -0.4420819,-0.4279608 -0.4415326,-0.4194802 -0.4404108,-0.4153691 -0.4384362,-0.4116086 -0.4355377,-0.4084915 -0.4317982,-0.4064757 -0.4276557,-0.4055114 -0.4234024,-0.4053452 -0.4234024,-0.4053452 -0.4189467,-0.4055192 -0.4146208,-0.4065887 -0.4107695,-0.4088255 -0.4078024,-0.4121427 -0.4058443,-0.4161503 -0.4047012,-0.4204587 -0.4041891,-0.4293532 -0.4041891,-0.5409453 -0.3268027,-0.5409453 -0.3268027,-0.4601829z" transform="matrix(1,0,0,-1,0.62865,0.62865)" fill="rgb(120,120,120)" fill-rule="nonzero" shaper:cutDepth="0.0000254" stroke-linecap="round" stroke-linejoin="round" /><path d="M-0.4175317,-0.2540279 L-0.2314919,-0.2540544 -0.4303587,-0.3547139 -0.4303587,-0.3547139 -0.4353458,-0.3577364 -0.4393476,-0.3619612 -0.4416798,-0.3672974 -0.4420819,-0.3731097 -0.4420819,-0.3731097 -0.4418395,-0.3766911 -0.4408813,-0.380148 -0.4392089,-0.383323 -0.4368783,-0.386052 -0.4368783,-0.386052 -0.4330598,-0.3891828 -0.4282411,-0.3903179 -0.4183322,-0.3906551 -0.159937,-0.3906816 -0.159937,-0.3906816 -0.1510017,-0.3901127 -0.1466183,-0.3892162 -0.1424587,-0.3875505 -0.1389595,-0.3847801 -0.1366388,-0.3809604 -0.135452,-0.3766461 -0.1352044,-0.3721758 -0.1352044,-0.3721758 -0.1354948,-0.3680132 -0.1364903,-0.3639626 -0.1384679,-0.3602917 -0.1413406,-0.3572715 -0.1449157,-0.3551253 -0.1488755,-0.3538061 -0.1571528,-0.3528291 -0.3462585,-0.3528694 -0.1459977,-0.252671 -0.1459977,-0.252671 -0.1414547,-0.2495018 -0.1378092,-0.2453362 -0.1357699,-0.2401912 -0.1352044,-0.2346813 -0.1352044,-0.2346813 -0.1354392,-0.2306376 -0.1364549,-0.226719 -0.1384039,-0.2231724 -0.141261,-0.2203088 -0.1447902,-0.2183267 -0.1486471,-0.2170834 -0.1566858,-0.2162019 -0.4192073,-0.2162422 -0.4192073,-0.2162422 -0.4278111,-0.2168251 -0.4320006,-0.217873 -0.4358656,-0.2197845 -0.4389476,-0.2227928 -0.4409118,-0.2266298 -0.4418594,-0.2308378 -0.4420819,-0.2351483 -0.4420819,-0.2351483 -0.4419097,-0.2396664 -0.4408208,-0.2440513 -0.4386283,-0.2479913 -0.4351589,-0.2508799 -0.4309804,-0.2525889 -0.4265501,-0.253516 -0.4175317,-0.2540279z" transform="matrix(1,0,0,-1,0.62865,0.62865)" fill="rgb(120,120,120)" fill-rule="nonzero" shaper:cutDepth="0.0000254" stroke-linecap="round" stroke-linejoin="round" /><path d="M-0.1864395,-0.1531282 L-0.146879,-0.1650868 -0.146879,-0.1650868 -0.1417339,-0.1677133 -0.1378337,-0.1719673 -0.1357447,-0.1773435 -0.1352044,-0.1830992 -0.1352044,-0.1830992 -0.1363075,-0.19008 -0.1377153,-0.1933271 -0.1396649,-0.1962811 -0.1420917,-0.198861 -0.1450499,-0.2007982 -0.148367,-0.2020351 -0.1518825,-0.2024458 -0.1518825,-0.2024458 -0.1599153,-0.2010221 -0.1677834,-0.1987795 -0.4289395,-0.1203227 -0.4289395,-0.1203227 -0.434601,-0.1178776 -0.439105,-0.1136837 -0.4406532,-0.1110096 -0.441575,-0.1080567 -0.4420819,-0.10191 -0.4420819,-0.10191 -0.4412837,-0.0947128 -0.4398238,-0.0913904 -0.437578,-0.0885377 -0.4314887,-0.084621 -0.4246818,-0.082115 -0.1646246,-0.0027752 -0.1646246,-0.0027752 -0.1588017,-0.0011622 -0.1528165,-0.0004403 -0.1528165,-0.0004403 -0.1491729,-0.0008102 -0.1456809,-0.0019068 -0.1425231,-0.0037575 -0.1398712,-0.0062829 -0.1377619,-0.0092729 -0.1363152,-0.012639 -0.1352044,-0.0198536 -0.1352044,-0.0198536 -0.1358028,-0.0261286 -0.1368891,-0.0290929 -0.1385574,-0.031773 -0.1407221,-0.0340681 -0.1433192,-0.0358689 -0.1491257,-0.0383083 -0.1864395,-0.0498364 -0.1864395,-0.1531282z M-0.2243323,-0.0618256 L-0.3571166,-0.1014823 -0.2243323,-0.1411389 -0.2243323,-0.0618256z" transform="matrix(1,0,0,-1,0.62865,0.62865)" fill="rgb(120,120,120)" fill-rule="nonzero" shaper:cutDepth="0.0000254" stroke-linecap="round" stroke-linejoin="round" /><path d="M-0.3015853,0.1621514 L-0.3015853,0.1621514 -0.2938899,0.1683391 -0.2857703,0.1739554 -0.2772287,0.1789099 -0.2682755,0.1830714 -0.2589183,0.1862209 -0.2492722,0.1883273 -0.2394716,0.1895227 -0.2296026,0.1898371 -0.2296026,0.1898371 -0.2185564,0.1892834 -0.2075829,0.1879095 -0.1967972,0.185463 -0.1862964,0.1819921 -0.1762041,0.1774682 -0.1667014,0.1718157 -0.1579656,0.165031 -0.1502814,0.1570813 -0.1502814,0.1570813 -0.1433023,0.1463221 -0.1405576,0.140522 -0.1384103,0.1344754 -0.1358317,0.1219158 -0.1352044,0.1091001 -0.1352044,0.0408681 -0.1352044,0.0408681 -0.1361235,0.0310935 -0.1377549,0.0264547 -0.1406488,0.0224927 -0.1448395,0.019938 -0.149589,0.0186563 -0.1594022,0.0182586 -0.4187992,0.0183193 -0.4187992,0.0183193 -0.4282037,0.0191149 -0.4327042,0.0205762 -0.4366248,0.0232021 -0.4393936,0.0270236 -0.440995,0.0314751 -0.4420818,0.0408537 -0.4420819,0.1206562 -0.4420819,0.1206562 -0.4415568,0.1279142 -0.4403923,0.135097 -0.4384029,0.1420966 -0.4356856,0.1488457 -0.4321377,0.1551993 -0.4279064,0.1611186 -0.4230694,0.1665549 -0.4177001,0.1714663 -0.4118825,0.175838 -0.40567,0.1796265 -0.3991049,0.1827653 -0.3922742,0.1852741 -0.3781279,0.1886482 -0.363628,0.1898371 -0.363628,0.1898371 -0.3550509,0.1895965 -0.3465412,0.1885073 -0.338178,0.1865891 -0.3300876,0.1837338 -0.3223358,0.1800571 -0.3150308,0.1755566 -0.3082406,0.1703128 -0.3019897,0.164435 -0.3019897,0.1639738 -0.3015853,0.1621514z M-0.1730971,0.0537652 L-0.1730971,0.1063798 -0.1730971,0.1063798 -0.1734579,0.1149838 -0.1750576,0.1234397 -0.176671,0.1274285 -0.1789309,0.1310941 -0.1816984,0.1343935 -0.1849052,0.1372677 -0.1849052,0.1372677 -0.1946356,0.1438889 -0.2054464,0.1485362 -0.2169277,0.1511327 -0.2286686,0.1520111 -0.2286686,0.1520111 -0.2424217,0.1507621 -0.2557026,0.1469807 -0.2619827,0.1441013 -0.2678978,0.1405294 -0.2733339,0.1362622 -0.2781025,0.1312635 -0.2781025,0.1312635 -0.2813719,0.1264727 -0.2835067,0.1210803 -0.2844613,0.1153612 -0.2846403,0.1095612 -0.2846403,0.0537652 -0.1730971,0.0537652z M-0.3225331,0.0560708 L-0.3225331,0.117921 -0.3225331,0.117921 -0.3227415,0.12397 -0.3237476,0.1299358 -0.326209,0.1354597 -0.330205,0.1400029 -0.330205,0.1400029 -0.3374709,0.145451 -0.3457304,0.1492389 -0.3545668,0.1513285 -0.363628,0.1520111 -0.363628,0.1520111 -0.3728118,0.1511933 -0.381769,0.1490275 -0.3901206,0.1451208 -0.3974512,0.1395359 -0.3974512,0.1395359 -0.4011606,0.1348626 -0.4032649,0.1292842 -0.4040576,0.1233711 -0.4041891,0.1174003 -0.4041891,0.0560708 -0.3225331,0.0560708z" transform="matrix(1,0,0,-1,0.62865,0.62865)" fill="rgb(120,120,120)" fill-rule="nonzero" shaper:cutDepth="0.0000254" stroke-linecap="round" stroke-linejoin="round" /><path d="M-0.1688275,0.3599006 L-0.1688275,0.3599006 -0.1686583,0.3655004 -0.1675599,0.3709749 -0.1675599,0.3709749 -0.1650834,0.3752509 -0.1612417,0.378393 -0.1567144,0.3803799 -0.1518158,0.3811152 -0.1518158,0.3811152 -0.1463101,0.3801677 -0.1414103,0.3774904 -0.1376493,0.3733797 -0.1356713,0.368173 -0.1356713,0.368173 -0.1352044,0.3575499 -0.1352044,0.2262088 -0.1352044,0.2262088 -0.1362783,0.2169369 -0.137828,0.2125259 -0.1404291,0.2086486 -0.1441933,0.2058919 -0.1486028,0.2043444 -0.1532365,0.2037448 -0.1579124,0.2037933 -0.4215344,0.2037934 -0.4215344,0.2037934 -0.429385,0.204764 -0.4331237,0.2060618 -0.4365317,0.2080818 -0.4392076,0.2109899 -0.4409912,0.2145229 -0.4418542,0.2183862 -0.4420819,0.2223395 -0.4420819,0.2223395 -0.4410386,0.2302203 -0.4392391,0.2337734 -0.436563,0.2367193 -0.433167,0.2388063 -0.4293971,0.2400979 -0.4214757,0.2408855 -0.1688275,0.2408855 -0.1688275,0.3599006z" transform="matrix(1,0,0,-1,0.62865,0.62865)" fill="rgb(120,120,120)" fill-rule="nonzero" shaper:cutDepth="0.0000254" stroke-linecap="round" stroke-linejoin="round" /><path d="M-0.3268027,0.5100839 L-0.3268027,0.5100839 -0.3261084,0.5185765 -0.3248754,0.5226661 -0.3228347,0.5264091 -0.319858,0.5294644 -0.316066,0.531412 -0.3119197,0.5324113 -0.3076562,0.5326327 -0.3076562,0.5326327 -0.3032552,0.5324501 -0.2989986,0.5313294 -0.2952405,0.5290431 -0.2923929,0.5256931 -0.2905518,0.5216907 -0.2894813,0.5174184 -0.2889099,0.5086348 -0.2889099,0.4293215 -0.1730971,0.4293215 -0.1730971,0.542773 -0.1730971,0.542773 -0.1725433,0.5515483 -0.1714261,0.5558105 -0.1694683,0.5597513 -0.1664548,0.5629512 -0.1626277,0.5651199 -0.1583506,0.5661548 -0.1539506,0.5663225 -0.1539506,0.5663225 -0.1493994,0.5661203 -0.1450356,0.5648259 -0.1412761,0.562261 -0.1385061,0.5586559 -0.1367594,0.5544454 -0.1357463,0.5500034 -0.1352044,0.5409135 -0.1352044,0.4150852 -0.1352044,0.4150852 -0.1359407,0.4047653 -0.1374933,0.3998255 -0.1404768,0.3956091 -0.1449403,0.3929991 -0.1499641,0.3917618 -0.1603154,0.3915093 -0.417465,0.3915357 -0.417465,0.3915357 -0.4276817,0.3920341 -0.4325916,0.3934666 -0.4369211,0.3961853 -0.4397965,0.4004047 -0.4413152,0.4052936 -0.4420818,0.4154877 -0.4420819,0.542306 -0.4420819,0.542306 -0.4415326,0.5507865 -0.4404108,0.5548976 -0.4384362,0.5586582 -0.4355377,0.5617753 -0.4317982,0.563791 -0.4276557,0.5647553 -0.4234024,0.5649215 -0.4234024,0.5649215 -0.4189467,0.5647476 -0.4146208,0.563678 -0.4107695,0.5614413 -0.4078024,0.5581241 -0.4058443,0.5541165 -0.4047012,0.5498081 -0.4041891,0.5409135 -0.4041891,0.4293215 -0.3268027,0.4293215 -0.3268027,0.5100839z" transform="matrix(1,0,0,-1,0.62865,0.62865)" fill="rgb(120,120,120)" fill-rule="nonzero" shaper:cutDepth="0.0000254" stroke-linecap="round" stroke-linejoin="round" /><path d="M0.1592067,-0.5037676 L0.1604076,-0.5278763 0.1604076,-0.5278763 0.1611234,-0.5350817 0.1625349,-0.5421833 0.1646261,-0.5491153 0.1674511,-0.5557816 0.1710376,-0.5620711 0.1753094,-0.5679169 0.1801664,-0.5732867 0.185534,-0.5781465 0.1913722,-0.5824283 0.1976104,-0.5861057 0.2041643,-0.5891817 0.2109772,-0.5916364 0.225099,-0.5947967 0.2395285,-0.5959162 0.2395285,-0.5959162 0.2490198,-0.5953765 0.2584282,-0.5940144 0.2676293,-0.591626 0.2765584,-0.5883619 0.2851205,-0.5842322 0.293169,-0.5791738 0.300432,-0.5730413 0.3067747,-0.5659622 0.3067747,-0.5659622 0.3110696,-0.5592337 0.3145046,-0.5520264 0.3193167,-0.5368089 0.3295713,-0.496204 0.3295713,-0.496204 0.3309031,-0.4912482 0.3328036,-0.4864897 0.3353613,-0.4820358 0.3387967,-0.4782353 0.3387967,-0.4782353 0.3430242,-0.4746459 0.3476994,-0.4716577 0.3578198,-0.4671478 0.3685742,-0.4644516 0.3796248,-0.4635585 0.3796248,-0.4635585 0.3909354,-0.4645612 0.4019031,-0.4675107 0.4121054,-0.4724926 0.416739,-0.4757863 0.4209198,-0.4796363 0.4209198,-0.4796363 0.4249517,-0.4850465 0.4275367,-0.4912904 0.428847,-0.4979106 0.4292589,-0.5046535 0.4293153,-0.5274036 0.4293153,-0.5274036 0.4289896,-0.5358791 0.4278955,-0.5399863 0.4262127,-0.5438843 0.4210917,-0.550642 0.4144918,-0.5559749 0.4069515,-0.5599032 0.3988572,-0.5624885 0.3904524,-0.5637462 0.3819597,-0.5640943 0.3819597,-0.5640943 0.3735786,-0.5646717 0.3695106,-0.5657268 0.3656656,-0.5674342 0.3623443,-0.5699991 0.3599523,-0.573451 0.3586854,-0.5774561 0.3582768,-0.5816397 0.3582768,-0.5816397 0.3588753,-0.5863006 0.360416,-0.5907379 0.3630599,-0.5946166 0.3666735,-0.5976165 0.3709041,-0.5996556 0.3754257,-0.6009515 0.3847616,-0.6019203 0.3847616,-0.6019203 0.400204,-0.600714 0.4153047,-0.5972703 0.4225576,-0.5945572 0.4295161,-0.5911438 0.4360998,-0.5870628 0.4422168,-0.582307 0.4478137,-0.5769501 0.4528042,-0.571024 0.4570614,-0.5645515 0.4605138,-0.5576162 0.4631545,-0.5503328 0.4650037,-0.542809 0.4661143,-0.5351418 0.4664845,-0.5274024 0.4660842,-0.5032948 0.4660842,-0.5032948 0.4655202,-0.4951957 0.4642855,-0.4871717 0.4622397,-0.4793155 0.4594032,-0.4717095 0.455626,-0.4645228 0.451132,-0.4577632 0.4458648,-0.4515859 0.4399367,-0.4460388 0.4334999,-0.441091 0.4265773,-0.4368532 0.4192508,-0.4333515 0.4116403,-0.4305283 0.4037924,-0.4284487 0.3958041,-0.4269924 0.3796248,-0.4257326 0.3796248,-0.4257326 0.3651284,-0.4267168 0.3508745,-0.4295224 0.3371952,-0.4344056 0.3306848,-0.437641 0.3244907,-0.4414421 0.3132395,-0.4506285 0.3083087,-0.4559667 0.3038704,-0.4617235 0.3000678,-0.4679171 0.2968121,-0.4744156 0.2919645,-0.4881088 0.281787,-0.5288218 0.281787,-0.5288218 0.2801426,-0.5343858 0.2778982,-0.5397245 0.274851,-0.5446722 0.2706165,-0.548617 0.2706165,-0.548617 0.2636409,-0.5528094 0.2560817,-0.5558272 0.2481122,-0.5574774 0.2399955,-0.5580902 0.2399955,-0.5580902 0.2300999,-0.5572872 0.2204697,-0.5549118 0.2158549,-0.5530731 0.2115054,-0.5506844 0.2074411,-0.5478279 0.2038373,-0.5444141 0.2038373,-0.5444141 0.2011937,-0.5402238 0.1993444,-0.5356171 0.1980136,-0.530842 0.1972995,-0.5259347 0.1968886,-0.5070766 0.1968886,-0.5051857 0.1968886,-0.5051857 0.1974441,-0.498384 0.1994,-0.4918468 0.2027924,-0.485934 0.2075935,-0.4810904 0.2133097,-0.4773605 0.2195089,-0.4745045 0.2325904,-0.4706301 0.2325904,-0.4706301 0.2427974,-0.4678281 0.2427974,-0.4678281 0.2465982,-0.4648945 0.2493088,-0.46093 0.2507021,-0.4563361 0.2511365,-0.4515503 0.2511365,-0.4515503 0.2496907,-0.4440685 0.2479201,-0.4406871 0.245431,-0.4377942 0.2422765,-0.4356411 0.2387418,-0.4342004 0.2311894,-0.4331376 0.2311894,-0.4331376 0.2223554,-0.4339986 0.2137249,-0.4361089 0.2053622,-0.4390878 0.1972995,-0.442811 0.1972995,-0.442811 0.1894488,-0.4475666 0.1822104,-0.453204 0.1757043,-0.4596801 0.1700778,-0.4669286 0.1654385,-0.4748471 0.1618756,-0.4833029 0.1597283,-0.4922255 0.1592066,-0.5013845 0.1592067,-0.5037676z" transform="matrix(1,0,0,-1,0.62865,0.62865)" fill="rgb(120,120,120)" fill-rule="nonzero" shaper:cutDepth="0.0000254" stroke-linecap="round" stroke-linejoin="round" /><path d="M0.4420677,-0.3742839 L0.4420677,-0.3742839 0.4508606,-0.3748329 0.4551706,-0.3757381 0.4592438,-0.3774277 0.4625878,-0.3802701 0.4647665,-0.3840941 0.4658446,-0.3883636 0.4660842,-0.3927632 0.4660842,-0.3927632 0.4659333,-0.3969146 0.4650859,-0.40098 0.4632755,-0.4047152 0.4605565,-0.4078489 0.4570391,-0.4100502 0.4530922,-0.4113526 0.4448383,-0.4121363 0.1870258,-0.4121099 0.1870258,-0.4121099 0.181096,-0.4121699 0.1751956,-0.4116087 0.1695007,-0.4099632 0.166898,-0.4085268 0.1646448,-0.4065949 0.1615775,-0.4015368 0.159986,-0.3958224 0.159292,-0.3899384 0.1592067,-0.3840077 0.1592066,-0.3243162 0.1592066,-0.3243162 0.1596475,-0.3160432 0.1609103,-0.3078563 0.1629409,-0.2998251 0.1659086,-0.2920909 0.1697227,-0.284738 0.1743968,-0.2778994 0.1798592,-0.2716718 0.1859596,-0.2660661 0.1926281,-0.2611545 0.1997795,-0.2569674 0.2073252,-0.2535581 0.2151617,-0.2508578 0.2231804,-0.2487927 0.2313517,-0.2474067 0.2478676,-0.2461958 0.2478676,-0.2461958 0.2588462,-0.2467755 0.2697313,-0.2483085 0.2803891,-0.2510065 0.2906863,-0.2548537 0.3005162,-0.2597779 0.3096894,-0.265832 0.3180318,-0.2729928 0.3253208,-0.2812199 0.3253208,-0.2812199 0.3315779,-0.2913407 0.3338959,-0.2968267 0.3356292,-0.302526 0.3375253,-0.314278 0.3379962,-0.3261775 0.3379962,-0.3743241 0.4420677,-0.3742839z M0.3001035,-0.3743241 L0.3001035,-0.3233822 0.3001035,-0.3233822 0.2989886,-0.3143702 0.2976113,-0.3100369 0.2956381,-0.305938 0.290244,-0.2986362 0.2831698,-0.2929353 0.2750806,-0.2887783 0.2663914,-0.2860636 0.2574182,-0.2845829 0.2483346,-0.2840218 0.2483346,-0.2840218 0.239002,-0.2845261 0.2297826,-0.2860272 0.2208944,-0.2889135 0.2127011,-0.2934064 0.2058123,-0.29969 0.2030154,-0.303432 0.2007936,-0.3075388 0.1990837,-0.3118862 0.1979469,-0.3164168 0.1970995,-0.3257146 0.1970995,-0.3743241 0.3001035,-0.3743241z" transform="matrix(1,0,0,-1,0.62865,0.62865)" fill="rgb(120,120,120)" fill-rule="nonzero" shaper:cutDepth="0.0000254" stroke-linecap="round" stroke-linejoin="round" /><path d="M0.2744859,-0.114025 L0.2744859,-0.114025 0.2751802,-0.1055324 0.2764132,-0.1014428 0.2784538,-0.0976998 0.2814305,-0.0946445 0.2852225,-0.0926969 0.2893689,-0.0916975 0.2936324,-0.0914762 0.2936324,-0.0914762 0.2980333,-0.0916588 0.3022899,-0.0927794 0.306048,-0.0950658 0.3088957,-0.0984158 0.3107368,-0.1024182 0.3118072,-0.1066905 0.3123786,-0.1154741 0.3123786,-0.1947874 0.4281915,-0.1947874 0.4281915,-0.0813359 0.4281915,-0.0813359 0.4287452,-0.0725606 0.4298624,-0.0682984 0.4318202,-0.0643576 0.4348337,-0.0611577 0.4386609,-0.0589889 0.4429379,-0.0579541 0.447338,-0.0577864 0.447338,-0.0577864 0.4518892,-0.0579886 0.456253,-0.0592829 0.4600124,-0.0618479 0.4627824,-0.0654529 0.4645291,-0.0696635 0.4655422,-0.0741055 0.4660842,-0.0831954 0.4660842,-0.2090236 0.4660842,-0.2090236 0.4653478,-0.2193436 0.4637952,-0.2242833 0.4608118,-0.2284998 0.4563482,-0.2311098 0.4513244,-0.232347 0.4409732,-0.2325996 0.1838236,-0.2325732 0.1838236,-0.2325732 0.1736068,-0.2320747 0.168697,-0.2306423 0.1643674,-0.2279236 0.161492,-0.2237042 0.1599733,-0.2188153 0.1592067,-0.2086211 0.1592066,-0.0818029 0.1592066,-0.0818029 0.1597559,-0.0733223 0.1608777,-0.0692113 0.1628523,-0.0654507 0.1657509,-0.0623336 0.1694903,-0.0603178 0.1736328,-0.0593536 0.1778861,-0.0591873 0.1778861,-0.0591873 0.1823419,-0.0593613 0.1866678,-0.0604309 0.1905191,-0.0626676 0.1934861,-0.0659848 0.1954442,-0.0699924 0.1965873,-0.0743008 0.1970995,-0.0831954 0.1970995,-0.1947874 0.2744859,-0.1947874 0.2744859,-0.114025z" transform="matrix(1,0,0,-1,0.62865,0.62865)" fill="rgb(120,120,120)" fill-rule="nonzero" shaper:cutDepth="0.0000254" stroke-linecap="round" stroke-linejoin="round" /><path d="M0.1592066,0.0574395 L0.1592067,0.0573847 0.1592067,0.0573847 0.1597836,0.0488602 0.1613428,0.0404589 0.1638397,0.032288 0.1672523,0.0244555 0.1715095,0.017046 0.1764151,0.0100503 0.1819573,0.0035468 0.1879597,-0.0025351 0.1879597,-0.0025351 0.2010658,-0.0126844 0.2153023,-0.0211859 0.2303287,-0.0281873 0.2458945,-0.0339014 0.261843,-0.0384286 0.278096,-0.0417134 0.2945464,-0.0437701 0.311111,-0.0444972 0.311111,-0.0444972 0.3267885,-0.0439333 0.3423829,-0.0422351 0.3578321,-0.0395086 0.3730504,-0.0357035 0.3879557,-0.0308106 0.402425,-0.0247527 0.4163255,-0.0174806 0.4295257,-0.0090062 0.4295257,-0.0090062 0.4371972,-0.0029188 0.444267,0.0038573 0.4504979,0.0114114 0.4559108,0.0195732 0.4602685,0.0283422 0.4634325,0.0376085 0.4653802,0.0472057 0.4660842,0.0569725 0.4660842,0.0569725 0.4653752,0.0656936 0.4636029,0.0742631 0.4608285,0.0825614 0.4571182,0.0904869 0.4525821,0.0979699 0.4472907,0.1049395 0.4412233,0.1112446 0.4345292,0.1168803 0.4345292,0.1168803 0.421897,0.1255991 0.4153078,0.1295301 0.4116134,0.1305672 0.4077775,0.1307565 0.4077775,0.1307565 0.4005311,0.129606 0.3971481,0.1281798 0.3941492,0.1260578 0.3918159,0.1232234 0.3901448,0.1199544 0.3888311,0.1127441 0.3888311,0.1127441 0.3892357,0.1082361 0.3905161,0.1039097 0.392808,0.1000025 0.3962362,0.0970667 0.3962362,0.0970667 0.4076082,0.0898011 0.4179867,0.0811881 0.4223099,0.0760044 0.4256113,0.070128 0.4276558,0.0636929 0.4281915,0.0569725 0.4281915,0.0569725 0.4266042,0.0481987 0.423072,0.0400058 0.4179956,0.03267 0.4117871,0.0262575 0.4048751,0.020611 0.3974247,0.0156946 0.381589,0.0074671 0.3648454,0.0012857 0.3475288,-0.0030301 0.3298628,-0.0055909 0.312045,-0.0066713 0.312045,-0.0066713 0.2942716,-0.0055901 0.2766533,-0.0030096 0.2594179,0.0014472 0.2427714,0.0077507 0.2347921,0.0117058 0.227103,0.0161964 0.2197595,0.0212329 0.212911,0.0269249 0.2069007,0.03349 0.2019877,0.0409081 0.198591,0.0491418 0.1970993,0.0579065 0.1970993,0.0579065 0.1975919,0.0638016 0.1993339,0.0694586 0.2020927,0.0746955 0.2056863,0.079395 0.2144212,0.0873703 0.2243181,0.0938645 0.2243181,0.0938645 0.2291241,0.0969391 0.2331086,0.1010024 0.2355935,0.1061344 0.2360595,0.1118102 0.2360595,0.1118102 0.23569,0.1156248 0.2346948,0.1193251 0.2328712,0.1226947 0.2303884,0.1256125 0.2273342,0.1279266 0.2238606,0.129544 0.2163126,0.1307565 0.2163126,0.1307565 0.2109406,0.1302328 0.2059774,0.1281095 0.1970993,0.1219505 0.1970993,0.1219505 0.1894387,0.1159186 0.1822222,0.1093687 0.1755639,0.1022421 0.1697499,0.0944222 0.1650392,0.0858854 0.1617154,0.0767259 0.1597861,0.0671699 0.1592066,0.0574395z" transform="matrix(1,0,0,-1,0.62865,0.62865)" fill="rgb(120,120,120)" fill-rule="nonzero" shaper:cutDepth="0.0000254" stroke-linecap="round" stroke-linejoin="round" /><path d="M0.445003,0.1810044 L0.445003,0.1810044 0.4530285,0.180304 0.4568959,0.1791284 0.4604189,0.1771721 0.4632658,0.1743134 0.4650504,0.1706984 0.4659195,0.166759 0.4660842,0.1627252 0.4660842,0.1627252 0.4657087,0.1583461 0.4645696,0.1541022 0.4624744,0.1502394 0.4596798,0.1468476 0.4596798,0.1468476 0.4564471,0.1448607 0.4526843,0.1441722 0.4450486,0.1439122 0.1811551,0.1439122 0.1811551,0.1439122 0.1728039,0.1445865 0.1687581,0.1457334 0.1650857,0.1477433 0.1621048,0.1506982 0.160193,0.1544276 0.1593117,0.1585288 0.1592066,0.1627252 0.1592066,0.1627252 0.1593655,0.1667033 0.1602045,0.1705919 0.1619268,0.174177 0.164654,0.1770708 0.1680891,0.1790724 0.1718829,0.1802896 0.1797941,0.1810044 0.445003,0.1810044z" transform="matrix(1,0,0,-1,0.62865,0.62865)" fill="rgb(120,120,120)" fill-rule="nonzero" shaper:cutDepth="0.0000254" stroke-linecap="round" stroke-linejoin="round" /><path d="M0.414849,0.2444784 L0.4544095,0.2325198 0.4544095,0.2325198 0.4595547,0.2298933 0.4634548,0.2256393 0.4655438,0.220263 0.4660842,0.2145074 0.4660842,0.2145074 0.4649811,0.2075266 0.4635733,0.2042795 0.4616237,0.2013254 0.4591969,0.1987455 0.4562386,0.1968084 0.4529215,0.1955715 0.4494061,0.1951608 0.4494061,0.1951608 0.4413732,0.1965844 0.4335052,0.1988271 0.172349,0.2772839 0.172349,0.2772839 0.1666875,0.279729 0.1621835,0.2839228 0.1606353,0.2865969 0.1597135,0.2895499 0.1592066,0.2956965 0.1592066,0.2956965 0.1600048,0.3028937 0.1614647,0.3062162 0.1637106,0.3090689 0.1697999,0.3129855 0.1766068,0.3154915 0.436664,0.3948313 0.436664,0.3948313 0.4424869,0.3964444 0.4484721,0.3971663 0.4484721,0.3971663 0.4521157,0.3967964 0.4556076,0.3956998 0.4587654,0.3938491 0.4614174,0.3913236 0.4635266,0.3883336 0.4649733,0.3849676 0.4660842,0.3777529 0.4660842,0.3777529 0.4654857,0.3714779 0.4643995,0.3685137 0.4627312,0.3658335 0.4605664,0.3635384 0.4579694,0.3617377 0.4521628,0.3592983 0.414849,0.3477702 0.414849,0.2444784z M0.3769563,0.335781 L0.2441719,0.2961243 0.3769563,0.2564676 0.3769563,0.335781z" transform="matrix(1,0,0,-1,0.62865,0.62865)" fill="rgb(120,120,120)" fill-rule="nonzero" shaper:cutDepth="0.0000254" stroke-linecap="round" stroke-linejoin="round" /><path d="M0.4324611,0.5694313 L0.4324611,0.5694313 0.4326302,0.5750311 0.4337286,0.5805056 0.4337286,0.5805056 0.4362052,0.5847815 0.4400469,0.5879236 0.4445742,0.5899105 0.4494728,0.5906459 0.4494728,0.5906459 0.4549785,0.5896984 0.4598783,0.5870211 0.4636392,0.5829103 0.4656172,0.5777037 0.4656172,0.5777037 0.4660842,0.5670806 0.4660842,0.4357394 0.4660842,0.4357394 0.4650103,0.4264676 0.4634605,0.4220566 0.4608594,0.4181792 0.4570953,0.4154226 0.4526858,0.4138751 0.448052,0.4132754 0.4433761,0.413324 0.1797541,0.413324 0.1797541,0.413324 0.1719036,0.4142946 0.1681649,0.4155925 0.1647568,0.4176124 0.1620809,0.4205206 0.1602973,0.4240536 0.1594343,0.4279169 0.1592066,0.4318701 0.1592066,0.4318701 0.16025,0.439751 0.1620495,0.443304 0.1647255,0.44625 0.1681215,0.448337 0.1718914,0.4496285 0.1798129,0.4504162 0.4324611,0.4504162 0.4324611,0.5694313z" transform="matrix(1,0,0,-1,0.62865,0.62865)" fill="rgb(120,120,120)" fill-rule="nonzero" shaper:cutDepth="0.0000254" stroke-linecap="round" stroke-linejoin="round" /></svg>