<?xml version="1.0" encoding="utf-8"?>
<!-- Generator: Fusion 360, Shaper Origin Export Add-In, Version 1.6.10  -->
<svg xmlns="http://www.w3.org/2000/svg" xmlns:xlink="http://www.w3.org/1999/xlink" xmlns:shaper="http://www.shapertools.com/namespaces/shaper" shaper:fusionaddin="version:1.6.10" width="10.5177773cm" height="4.2376273cm" version="1.1" x="0cm" y="0cm" viewBox="0 0 10.5177773 4.2376273" enable-background="new 0 0 10.5177773 4.2376273" xml:space="preserve"><path d="M-5.3450391,-2.3963923 L-5.3450391,1.841235 5.1727382,1.841235 5.1727382,-2.3963923 -5.3450391,-2.3963923z" transform="matrix(1,0,0,-1,5.3450391,1.841235)" fill="rgb(0,0,0)" shaper:cutDepth="0.003175" stroke-linecap="round" stroke-linejoin="round" /><path d="M4.7917383,1.0008577 a0.15875,0.15875 0 1,1 0.3175,0 a0.15875,0.15875 0 1,1 -0.3175,0z" transform="matrix(1,0,0,-1,5.3450391,1.841235)" fill="rgb(255,255,255)" stroke="rgb(0,0,0)" stroke-width="0.0010cm" stroke-linecap="round" stroke-linejoin="round" shaper:cutDepth="0.003175" /><path d="M4.2837383,1.0008577 a0.15875,0.15875 0 1,1 0.3175,0 a0.15875,0.15875 0 1,1 -0.3175,0z" transform="matrix(1,0,0,-1,5.3450391,1.841235)" fill="rgb(255,255,255)" stroke="rgb(0,0,0)" stroke-width="0.0010cm" stroke-linecap="round" stroke-linejoin="round" shaper:cutDepth="0.003175" /><path d="M4.5377383,0.4928577 a0.15875,0.15875 0 1,1 0.3175,0 a0.15875,0.15875 0 1,1 -0.3175,0z" transform="matrix(1,0,0,-1,5.3450391,1.841235)" fill="rgb(255,255,255)" stroke="rgb(0,0,0)" stroke-width="0.0010cm" stroke-linecap="round" stroke-linejoin="round" shaper:cutDepth="0.003175" /><path d="M4.7917383,-1.0311423 a0.15875,0.15875 0 1,1 0.3175,0 a0.15875,0.15875 0 1,1 -0.3175,0z" transform="matrix(1,0,0,-1,5.3450391,1.841235)" fill="rgb(255,255,255)" stroke="rgb(0,0,0)" stroke-width="0.0010cm" stroke-linecap="round" stroke-linejoin="round" shaper:cutDepth="0.003175" /><path d="M4.2837383,-1.0311423 a0.15875,0.15875 0 1,1 0.3175,0 a0.15875,0.15875 0 1,1 -0.3175,0z" transform="matrix(1,0,0,-1,5.3450391,1.841235)" fill="rgb(255,255,255)" stroke="rgb(0,0,0)" stroke-width="0.0010cm" stroke-linecap="round" stroke-linejoin="round" shaper:cutDepth="0.003175" /><path d="M4.5377383,-1.5391423 a0.15875,0.15875 0 1,1 0.3175,0 a0.15875,0.15875 0 1,1 -0.3175,0z" transform="matrix(1,0,0,-1,5.3450391,1.841235)" fill="rgb(255,255,255)" stroke="rgb(0,0,0)" stroke-width="0.0010cm" stroke-linecap="round" stroke-linejoin="round" shaper:cutDepth="0.003175" /><path d="M3.6729631,-2.0630173 a0.125,0.125 0 1,1 0.25,0 a0.125,0.125 0 1,1 -0.25,0z" transform="matrix(1,0,0,-1,5.3450391,1.841235)" fill="rgb(255,255,255)" stroke="rgb(0,0,0)" stroke-width="0.0010cm" stroke-linecap="round" stroke-linejoin="round" shaper:cutDepth="0.003175" /><path d="M-1.3902867,-0.3802674 a0.125,0.125 0 1,1 0.25,0 a0.125,0.125 0 1,1 -0.25,0z" transform="matrix(1,0,0,-1,5.3450391,1.841235)" fill="rgb(255,255,255)" stroke="rgb(0,0,0)" stroke-width="0.0010cm" stroke-linecap="round" stroke-linejoin="round" shaper:cutDepth="0.003175" /><path d="M-3.2802867,-2.0630173 a0.125,0.125 0 1,1 0.25,0 a0.125,0.125 0 1,1 -0.25,0z" transform="matrix(1,0,0,-1,5.3450391,1.841235)" fill="rgb(255,255,255)" stroke="rgb(0,0,0)" stroke-width="0.0010cm" stroke-linecap="round" stroke-linejoin="round" shaper:cutDepth="0.003175" /><path d="M-5.0809117,-1.2851423 a0.735,0.735 0 1,1 1.47,0 a0.735,0.735 0 1,1 -1.47,0z" transform="matrix(1,0,0,-1,5.3450391,1.841235)" fill="rgb(255,255,255)" stroke="rgb(0,0,0)" stroke-width="0.0010cm" stroke-linecap="round" stroke-linejoin="round" shaper:cutDepth="0.003175" /><path d="M3.6983632,0.8103576 a0.125,0.125 0 1,1 0.25,0 a0.125,0.125 0 1,1 -0.25,0z" transform="matrix(1,0,0,-1,5.3450391,1.841235)" fill="rgb(255,255,255)" stroke="rgb(0,0,0)" stroke-width="0.0010cm" stroke-linecap="round" stroke-linejoin="round" shaper:cutDepth="0.003175" /><path d="M1.5764609,-0.921015 L1.5764609,-1.746515 A0.15875,0.15875 180 0,1 1.7352109,-1.905265 L3.1639609,-1.905265 A0.15875,0.15875 270 0,1 3.3227109,-1.746515 L3.3227109,-0.921015 A0.15875,0.15875 0 0,1 3.1639609,-0.762265 L1.7352109,-0.762265 A0.15875,0.15875 90 0,1 1.5764609,-0.921015z" transform="matrix(1,0,0,-1,5.3450391,1.841235)" fill="rgb(255,255,255)" stroke="rgb(0,0,0)" stroke-width="0.0010cm" stroke-linecap="round" stroke-linejoin="round" shaper:cutDepth="0.003175" /><path d="M0.1258476,-0.444765 L0.1258476,-0.500515 A0.15875,0.15875 180 0,1 0.2845976,-0.659265 L0.6897109,-0.659265 A0.15875,0.15875 90 0,0 0.8484609,-0.818015 L0.8484609,-2.0788923 A0.15875,0.15875 0 0,0 0.6897109,-2.2376423 L-2.7330391,-2.2376423 A0.15875,0.15875 270 0,0 -2.8917891,-2.0788923 L-2.8917891,-0.818015 A0.15875,0.15875 180 0,0 -2.7330391,-0.659265 L-0.5606759,-0.659265 A0.15875,0.15875 270 0,1 -0.4019259,-0.500515 L-0.4019259,-0.444765 A0.2638868,0.2638868 180 0,0 0.1258476,-0.444765z" transform="matrix(1,0,0,-1,5.3450391,1.841235)" fill="rgb(255,255,255)" stroke="rgb(0,0,0)" stroke-width="0.0010cm" stroke-linecap="round" stroke-linejoin="round" shaper:cutDepth="0.003175" /><path d="M-4.7756618,1.2689876 L-4.7756618,0.3514876 A0.15875,0.15875 180 0,1 -4.6169118,0.1927376 L3.2872781,0.1927376 A0.15875,0.15875 270 0,1 3.4460281,0.3514876 L3.4460281,1.2689876 A0.15875,0.15875 0 0,1 3.2872781,1.4277376 L-4.6169118,1.4277376 A0.15875,0.15875 90 0,1 -4.7756618,1.2689876z" transform="matrix(1,0,0,-1,5.3450391,1.841235)" fill="rgb(255,255,255)" stroke="rgb(0,0,0)" stroke-width="0.0010cm" stroke-linecap="round" stroke-linejoin="round" shaper:cutDepth="0.003175" /></svg>