<?xml version="1.0" encoding="utf-8"?>
<!-- Generator: Fusion 360, Shaper Origin Export Add-In, Version 1.6.10  -->
<svg xmlns="http://www.w3.org/2000/svg" xmlns:xlink="http://www.w3.org/1999/xlink" xmlns:shaper="http://www.shapertools.com/namespaces/shaper" shaper:fusionaddin="version:1.6.10" width="12.9794cm" height="4.5974cm" version="1.1" x="0cm" y="0cm" viewBox="0 0 12.9794 4.5974" enable-background="new 0 0 12.9794 4.5974" xml:space="preserve"><path d="M-6.4897,1.7907 L-6.4897,-1.7907 A0.508,0.508 180 0,1 -5.9817,-2.2987 L5.9817,-2.2987 A0.508,0.508 270 0,1 6.4897,-1.7907 L6.4897,1.7907 A0.508,0.508 0 0,1 5.9817,2.2987 L-5.9817,2.2987 A0.508,0.508 90 0,1 -6.4897,1.7907z" transform="matrix(1,0,0,-1,6.4897,2.2987)" fill="rgb(0,0,0)" shaper:cutDepth="0.0023495" stroke-linecap="round" stroke-linejoin="round" /><path d="M-4.9268572,0.2367102 L-4.9268572,0.2367102 -4.9302616,0.2419723 -4.931179,0.2449766 -4.9314757,0.2481026 -4.9314757,0.2481026 -4.9311269,0.2515073 -4.9300817,0.2547646 -4.9283926,0.2577398 -4.9261125,0.2602916 -4.9233719,0.2623392 -4.9202743,0.2637944 -4.9135557,0.2649757 -4.9135557,0.2649757 -4.908612,0.2644878 -4.9040935,0.2624628 -4.9004141,0.2591301 -4.8972865,0.255271 -4.8181039,0.1482186 -4.7804181,0.1482186 -4.7804181,0.2434225 -4.7804181,0.2434225 -4.7798455,0.2516807 -4.7788858,0.2557055 -4.7772522,0.2595157 -4.7747089,0.2627689 -4.7712751,0.265076 -4.7673107,0.2662588 -4.7631755,0.2664537 -4.7631755,0.2664537 -4.757402,0.2656298 -4.7521532,0.2630997 -4.7498938,0.261244 -4.7480633,0.2589679 -4.7466857,0.2563899 -4.7458713,0.2535833 -4.7458713,0.2535833 -4.7454401,0.2417848 -4.7454402,0.0076912 -4.7454402,0.0076912 -4.7454526,0.0024686 -4.7462163,-0.0026961 -4.7481454,-0.0075454 -4.7514092,-0.0116127 -4.7557902,-0.0144442 -4.7607523,-0.0160753 -4.7659244,-0.0167747 -4.7711482,-0.0168178 -4.8432305,-0.0168179 -4.8432305,-0.0168179 -4.8598614,-0.015443 -4.8680674,-0.013892 -4.8760929,-0.0115968 -4.8838612,-0.0085355 -4.8912936,-0.0047334 -4.8982865,-0.0001723 -4.904746,0.0051161 -4.9106409,0.0110287 -4.9158576,0.0175462 -4.9202925,0.0246193 -4.9238557,0.0321693 -4.9266167,0.0400479 -4.9285419,0.0481721 -4.9296838,0.0564422 -4.9301825,0.0647766 -4.9301825,0.0647766 -4.9290327,0.0793475 -4.9275961,0.0865175 -4.9255671,0.0935425 -4.9229643,0.1003757 -4.9197272,0.1069324 -4.9158234,0.1131149 -4.911409,0.1189443 -4.9064985,0.1243622 -4.9010676,0.1292583 -4.8951955,0.1336156 -4.8889566,0.1374289 -4.8823832,0.140632 -4.8755597,0.1432608 -4.8614209,0.1469695 -4.9251945,0.2346164 -4.9251945,0.2346164 -4.9268572,0.2367102z M-4.8415062,0.1132407 L-4.8415062,0.1132407 -4.8554896,0.1125522 -4.8623464,0.1111244 -4.8687865,0.1083758 -4.8687865,0.1083758 -4.8745369,0.1050144 -4.8797484,0.1008671 -4.884316,0.0960197 -4.8881694,0.0905868 -4.8912206,0.0846662 -4.8934275,0.0783816 -4.8947436,0.0718529 -4.8952046,0.0652077 -4.8952046,0.0652077 -4.8946729,0.0584721 -4.8932185,0.0518748 -4.8908527,0.0455464 -4.8876225,0.0396125 -4.8835813,0.0341981 -4.8788131,0.029412 -4.8734238,0.0253379 -4.8674933,0.0221011 -4.8674933,0.0221011 -4.8620198,0.0199559 -4.8562704,0.0187258 -4.8445273,0.0181601 -4.7804181,0.0181601 -4.7804181,0.1132407 -4.8415062,0.1132407z" transform="matrix(1,0,0,-1,6.4897,2.2987)" fill="rgb(132,132,132)" fill-rule="nonzero" shaper:cutDepth="0.000762" stroke-linecap="round" stroke-linejoin="round" /><path d="M-4.6852142,-0.0168179 L-4.6852142,-0.0168179 -4.6798847,-0.0162558 -4.6750877,-0.0138884 -4.6713935,-0.0100136 -4.6683411,-0.0056102 -4.5954265,0.1168959 -4.5225754,-0.0039896 -4.5225754,-0.0039896 -4.5198606,-0.0083851 -4.516637,-0.0124219 -4.5122865,-0.0152021 -4.5071842,-0.0159558 -4.5071842,-0.0159558 -4.5030815,-0.0157385 -4.4991103,-0.0146971 -4.4955634,-0.0126416 -4.4928153,-0.0095848 -4.4909428,-0.00594 -4.4898732,-0.0019662 -4.4892642,0.0062133 -4.4892641,0.2433148 -4.4892641,0.2433148 -4.4898298,0.2515699 -4.4907786,0.2555979 -4.4924117,0.2594015 -4.4948925,0.2627112 -4.4982926,0.2650532 -4.50225,0.2662587 -4.5063836,0.2664537 -4.5063836,0.2664537 -4.511286,0.2657826 -4.5158727,0.2639547 -4.5198876,0.2610448 -4.5225794,0.2569087 -4.5225794,0.2569087 -4.5240832,0.2506338 -4.524242,0.2441614 -4.524242,0.0675201 -4.5770976,0.1560559 -4.5770976,0.1560559 -4.5803063,0.1609463 -4.5841486,0.1653503 -4.5865303,0.167055 -4.5892464,0.1681744 -4.5950599,0.1687866 -4.5950599,0.1687866 -4.6015682,0.168102 -4.6045579,0.1667217 -4.6070353,0.1645776 -4.6111086,0.1594288 -4.6146426,0.153884 -4.6666167,0.0675201 -4.6666167,0.2450174 -4.6666167,0.2450174 -4.6667978,0.2514462 -4.66791,0.2577708 -4.66791,0.2577708 -4.6708846,0.2616055 -4.6749157,0.264319 -4.6795349,0.2658096 -4.6843521,0.2664537 -4.6843521,0.2664537 -4.6880079,0.26612 -4.6915566,0.2651848 -4.6947801,0.2634329 -4.6974391,0.2609079 -4.6993506,0.2577754 -4.7005869,0.2543181 -4.7015947,0.2470557 -4.7015946,0.0016924 -4.7015946,0.0016924 -4.701077,-0.0054876 -4.7000836,-0.0089613 -4.6982662,-0.012065 -4.6956243,-0.0145179 -4.6923561,-0.0160358 -4.6888207,-0.0167341 -4.6852142,-0.0168179z" transform="matrix(1,0,0,-1,6.4897,2.2987)" fill="rgb(132,132,132)" fill-rule="nonzero" shaper:cutDepth="0.000762" stroke-linecap="round" stroke-linejoin="round" /><path d="M-4.4053296,0.0118787 L-4.4053296,0.0118787 -4.4154382,0.0232494 -4.4241505,0.0357246 -4.4314036,0.0490965 -4.4370053,0.063244 -4.4410081,0.077921 -4.4435849,0.0929198 -4.4450014,0.108067 -4.4454186,0.1232784 -4.4454186,0.1232784 -4.4447499,0.1452231 -4.443648,0.1561475 -4.441878,0.166983 -4.4392565,0.1776445 -4.4357435,0.1880457 -4.4315177,0.1981795 -4.4265133,0.2079519 -4.4265133,0.2079519 -4.4191789,0.220339 -4.4106784,0.2319557 -4.4007662,0.2423882 -4.3894821,0.2513115 -4.3768607,0.2582175 -4.3633019,0.2630297 -4.3491534,0.2656453 -4.3347855,0.2664537 -4.2747167,0.2664537 -4.2747167,0.2664537 -4.2696775,0.2662944 -4.2646958,0.2655112 -4.2600348,0.2636061 -4.2562618,0.2602922 -4.2540868,0.2557454 -4.2530287,0.2508169 -4.2527939,0.2407456 -4.252794,0.005228 -4.252794,0.005228 -4.2528602,0.0006174 -4.2536302,-0.0039266 -4.2554085,-0.0081774 -4.258253,-0.0117993 -4.2620428,-0.0144154 -4.2663879,-0.0159563 -4.2755519,-0.0168178 -4.3339574,-0.0168179 -4.3339574,-0.0168179 -4.3438437,-0.0164899 -4.3536622,-0.0152973 -4.3633144,-0.0131343 -4.3726928,-0.0099923 -4.3816921,-0.0058878 -4.3901612,-0.0007786 -4.3980735,0.0051563 -4.4053296,0.0118787z M-4.3348196,0.2314758 L-4.3348196,0.2314758 -4.3458782,0.2310109 -4.3567549,0.2290078 -4.3619784,0.2271892 -4.366948,0.2247522 -4.3758324,0.2181743 -4.3758324,0.2181743 -4.3817426,0.2125656 -4.3871278,0.20645 -4.391953,0.199885 -4.3962105,0.1929364 -4.3999583,0.1857022 -4.4031146,0.1781888 -4.4058148,0.1705017 -4.4079159,0.1626285 -4.4079159,0.1626285 -4.4096471,0.1549608 -4.4103394,0.1471311 -4.4104408,0.131407 -4.4104408,0.131407 -4.4101731,0.1010169 -4.4097014,0.0934337 -4.4084209,0.0859479 -4.4063332,0.0786408 -4.4036053,0.0715505 -4.4036053,0.0715505 -4.3965564,0.0570943 -4.3922732,0.0502823 -4.3874859,0.0438153 -4.3821746,0.0377709 -4.3763542,0.0322172 -4.369992,0.0272889 -4.3630236,0.0232712 -4.3630236,0.0232712 -4.35646,0.0204309 -4.3494927,0.0188299 -4.3352129,0.0181601 -4.2877718,0.0181601 -4.2877718,0.2314758 -4.3348196,0.2314758z" transform="matrix(1,0,0,-1,6.4897,2.2987)" fill="rgb(132,132,132)" fill-rule="nonzero" shaper:cutDepth="0.000762" stroke-linecap="round" stroke-linejoin="round" /><path d="M-5.0579011,-2.0318216 L-5.0579011,-2.0318216 -5.0640998,-2.0261222 -5.0697108,-2.0198388 -5.0747249,-2.0130758 -5.0792292,-2.0059564 -5.0865523,-1.9907968 -5.0919392,-1.9748432 -5.0956566,-1.9584168 -5.098044,-1.9417426 -5.0992835,-1.9249447 -5.0996528,-1.9081058 -5.0996528,-1.9081058 -5.0992764,-1.8921998 -5.0980868,-1.8763372 -5.0958575,-1.8605816 -5.0923864,-1.8450586 -5.0875026,-1.8299147 -5.0809544,-1.8154223 -5.072508,-1.8019384 -5.0621501,-1.7898707 -5.0621501,-1.7898707 -5.055889,-1.7845289 -5.0491304,-1.7798325 -5.0419948,-1.7757309 -5.034508,-1.7723131 -5.0267715,-1.7695038 -5.0188142,-1.7674039 -5.0106908,-1.7660799 -5.0024784,-1.7655463 -5.0024784,-1.7655463 -4.9922084,-1.766393 -4.9821029,-1.7684142 -4.972298,-1.7715859 -4.9628685,-1.7757446 -4.9538766,-1.78078 -4.9454204,-1.7866694 -4.9376163,-1.7934006 -4.9306752,-1.8010169 -4.9306752,-1.8010169 -4.9228926,-1.8134034 -4.9167555,-1.8266902 -4.9119471,-1.8405097 -4.9084085,-1.8547071 -4.9059451,-1.8691337 -4.904273,-1.8836715 -4.903087,-1.9129091 -4.903087,-1.9129091 -4.9034959,-1.9277802 -4.9046655,-1.9426095 -4.9068388,-1.9573266 -4.9100381,-1.9718545 -4.9144208,-1.9860711 -4.9202679,-1.9997449 -4.9277023,-2.0126327 -4.9368333,-2.0243703 -4.9368333,-2.0243703 -4.9435299,-2.0304536 -4.9507499,-2.0359054 -4.9584681,-2.0406256 -4.9665547,-2.0446834 -4.9749791,-2.0479813 -4.9836565,-2.050542 -4.9925598,-2.0521492 -5.0015857,-2.052759 -5.0016162,-2.0527591 -5.0016162,-2.0527591 -5.0092498,-2.0523612 -5.0168095,-2.051226 -5.0242367,-2.0494192 -5.0314833,-2.0469847 -5.0385165,-2.0439902 -5.045289,-2.0404447 -5.0579011,-2.0318216z M-4.9632514,-2.0004154 L-4.9632514,-2.0004154 -4.955965,-1.9912106 -4.950328,-1.9809008 -4.9460894,-1.9699485 -4.9429402,-1.9586286 -4.9406762,-1.9471023 -4.9391775,-1.9354484 -4.9380649,-1.9119854 -4.9380649,-1.9119854 -4.9388479,-1.8891757 -4.9400065,-1.8778216 -4.9417798,-1.8665463 -4.9443198,-1.8554204 -4.9478468,-1.8445675 -4.9525395,-1.8341634 -4.9585713,-1.8244791 -4.9585713,-1.8244791 -4.962571,-1.8195181 -4.967075,-1.8150113 -4.9720264,-1.8109992 -4.9773821,-1.8075472 -4.9830724,-1.8046778 -4.9890528,-1.8024806 -4.9952691,-1.8010786 -5.0016162,-1.8005242 -5.0016162,-1.8005242 -5.0071737,-1.8009542 -5.0126285,-1.8021148 -5.0230318,-1.8060829 -5.0325357,-1.8118887 -5.0408432,-1.8193063 -5.0408432,-1.8193063 -5.0478649,-1.8290167 -5.0533092,-1.8397037 -5.0574418,-1.8509546 -5.0604268,-1.8625684 -5.0624955,-1.8743788 -5.0637887,-1.8862999 -5.0646749,-1.9102612 -5.0646749,-1.9102612 -5.0644556,-1.9227915 -5.0635864,-1.935289 -5.0619496,-1.9477165 -5.059384,-1.9599781 -5.0556945,-1.9719571 -5.0506655,-1.9834265 -5.044052,-1.9940737 -5.035732,-2.0034329 -5.035732,-2.0034329 -5.028208,-2.0091268 -5.0198722,-2.0135494 -5.0109473,-2.0165943 -5.0016002,-2.0177803 -5.0016002,-2.0177803 -4.9962348,-2.0173471 -4.9909547,-2.0162976 -4.9808349,-2.0126465 -4.9714786,-2.0073377 -4.9632514,-2.0004154z" transform="matrix(1,0,0,-1,6.4897,2.2987)" fill="rgb(132,132,132)" fill-rule="nonzero" shaper:cutDepth="0.000762" stroke-linecap="round" stroke-linejoin="round" /><path d="M-4.8536992,-1.7725665 L-4.8536992,-1.7725665 -4.8551405,-1.7786921 -4.8553003,-1.7850058 -4.8553003,-2.0298141 -4.8553003,-2.0298141 -4.8546732,-2.0367624 -4.8537411,-2.0401326 -4.8521718,-2.0432477 -4.8498608,-2.0458649 -4.8468864,-2.0476866 -4.843513,-2.0485839 -4.8400283,-2.0488179 -4.8400283,-2.0488179 -4.8360693,-2.0483352 -4.832334,-2.0469402 -4.8290451,-2.044688 -4.8262958,-2.0417977 -4.8262958,-2.0417977 -4.824985,-2.0386807 -4.824471,-2.0353311 -4.8242636,-2.0285578 -4.8242635,-1.7849638 -4.8242635,-1.7849638 -4.8243426,-1.7795142 -4.8246179,-1.7768049 -4.8254952,-1.7742292 -4.8254952,-1.7742292 -4.8279791,-1.7705561 -4.8315381,-1.7678885 -4.8356322,-1.7661816 -4.8400283,-1.7655463 -4.8400283,-1.7655463 -4.843969,-1.7660857 -4.8476948,-1.7674714 -4.8510662,-1.7695919 -4.8536992,-1.7725665z" transform="matrix(1,0,0,-1,6.4897,2.2987)" fill="rgb(132,132,132)" fill-rule="nonzero" shaper:cutDepth="0.000762" stroke-linecap="round" stroke-linejoin="round" /><path d="M-4.740329,-2.0201213 L-4.740329,-2.0201213 -4.7504377,-2.0087506 -4.75915,-1.9962754 -4.766403,-1.9829035 -4.7720047,-1.968756 -4.7760076,-1.954079 -4.7785844,-1.9390802 -4.7800009,-1.923933 -4.7804181,-1.9087216 -4.7804181,-1.9087216 -4.7797494,-1.8867769 -4.7786475,-1.8758525 -4.7768774,-1.865017 -4.7742559,-1.8543555 -4.7707429,-1.8439543 -4.7665171,-1.8338205 -4.7615128,-1.8240481 -4.7615128,-1.8240481 -4.7541784,-1.811661 -4.7456779,-1.8000443 -4.7357657,-1.7896118 -4.7244815,-1.7806885 -4.7118602,-1.7737825 -4.6983014,-1.7689703 -4.6841528,-1.7663547 -4.669785,-1.7655463 -4.6097162,-1.7655463 -4.6097162,-1.7655463 -4.6046769,-1.7657056 -4.5996953,-1.7664888 -4.5950342,-1.7683939 -4.5912613,-1.7717078 -4.5890863,-1.7762546 -4.5880281,-1.7811831 -4.5877933,-1.7912544 -4.5877934,-2.026772 -4.5877934,-2.026772 -4.5878597,-2.0313826 -4.5886297,-2.0359266 -4.5904079,-2.0401774 -4.5932524,-2.0437993 -4.5970422,-2.0464154 -4.6013873,-2.0479563 -4.6105513,-2.0488178 -4.6689569,-2.0488179 -4.6689569,-2.0488179 -4.6788431,-2.0484899 -4.6886616,-2.0472973 -4.6983139,-2.0451343 -4.7076922,-2.0419923 -4.7166915,-2.0378878 -4.7251606,-2.0327786 -4.733073,-2.0268437 -4.740329,-2.0201213z M-4.669819,-1.8005242 L-4.669819,-1.8005242 -4.6808776,-1.8009891 -4.6917544,-1.8029922 -4.6969779,-1.8048108 -4.7019474,-1.8072478 -4.7108318,-1.8138257 -4.7108318,-1.8138257 -4.716742,-1.8194344 -4.7221272,-1.82555 -4.7269524,-1.832115 -4.73121,-1.8390636 -4.7349578,-1.8462978 -4.738114,-1.8538112 -4.7408143,-1.8614983 -4.7429154,-1.8693715 -4.7429154,-1.8693715 -4.7446466,-1.8770392 -4.7453389,-1.8848689 -4.7454402,-1.900593 -4.7454402,-1.900593 -4.7451726,-1.9309831 -4.7447009,-1.9385663 -4.7434203,-1.9460521 -4.7413327,-1.9533592 -4.7386047,-1.9604495 -4.7386047,-1.9604495 -4.7315558,-1.9749057 -4.7272726,-1.9817177 -4.7224854,-1.9881847 -4.717174,-1.9942291 -4.7113537,-1.9997828 -4.7049914,-2.0047111 -4.698023,-2.0087288 -4.698023,-2.0087288 -4.6914595,-2.0115691 -4.6844921,-2.0131701 -4.6702124,-2.0138399 -4.6227713,-2.0138399 -4.6227713,-1.8005242 -4.669819,-1.8005242z" transform="matrix(1,0,0,-1,6.4897,2.2987)" fill="rgb(132,132,132)" fill-rule="nonzero" shaper:cutDepth="0.000762" stroke-linecap="round" stroke-linejoin="round" /><path d="M-4.3901191,-1.833162 L-4.3901191,-1.833162 -4.3858446,-1.8418164 -4.383415,-1.8511546 -4.3825172,-1.8607645 -4.3823599,-1.8704184 -4.3823599,-2.027714 -4.3823599,-2.027714 -4.381738,-2.0355453 -4.3806867,-2.039332 -4.3789023,-2.0428329 -4.376269,-2.0457476 -4.3728497,-2.0476723 -4.3690448,-2.0486512 -4.3651173,-2.0488179 -4.3651173,-2.0488179 -4.3612921,-2.0485446 -4.3575724,-2.0476201 -4.3541783,-2.0458442 -4.3514437,-2.0431576 -4.3494798,-2.0398699 -4.3482762,-2.0362265 -4.347382,-2.0286194 -4.347382,-1.8695385 -4.347382,-1.8695385 -4.3483599,-1.848409 -4.3503364,-1.8380118 -4.3537249,-1.8279892 -4.3537249,-1.8279892 -4.3600257,-1.8146404 -4.368159,-1.8023217 -4.3781296,-1.7914409 -4.3897053,-1.7822846 -4.4025338,-1.7749878 -4.4163173,-1.7697037 -4.4307589,-1.7666326 -4.4454802,-1.7655463 -4.4454802,-1.7655463 -4.4553946,-1.7660946 -4.4652301,-1.7674489 -4.4748994,-1.769707 -4.4842949,-1.7729163 -4.4933095,-1.7770771 -4.50181,-1.7822068 -4.5096712,-1.7882712 -4.5168459,-1.7951342 -4.523282,-1.8026945 -4.5288858,-1.8108901 -4.5335554,-1.8196524 -4.5373227,-1.8288387 -4.5402095,-1.8383385 -4.5422337,-1.8480598 -4.5434293,-1.857916 -4.5439479,-1.867832 -4.5439478,-2.0255707 -4.5439478,-2.0255707 -4.5434955,-2.0339487 -4.5426219,-2.0380523 -4.5410712,-2.0419584 -4.538481,-2.0452364 -4.5349456,-2.047497 -4.5308952,-2.0485794 -4.5267053,-2.0488179 -4.5267053,-2.0488179 -4.5224959,-2.0485772 -4.5184355,-2.0474504 -4.5148629,-2.0452226 -4.5121744,-2.0419845 -4.5104931,-2.0381195 -4.5095414,-2.034009 -4.50897,-2.025602 -4.5089699,-1.8716818 -4.5089699,-1.8716818 -4.5084598,-1.8555965 -4.5072236,-1.8476444 -4.5047209,-1.8399975 -4.5047209,-1.8399975 -4.5006443,-1.8314509 -4.4953332,-1.8236137 -4.4888965,-1.8166707 -4.4813796,-1.8109134 -4.4730896,-1.8063403 -4.4642084,-1.8030579 -4.4549254,-1.8011968 -4.4454802,-1.8005242 -4.4454802,-1.8005242 -4.4370484,-1.8010273 -4.4287531,-1.8026054 -4.4207262,-1.8052354 -4.4131772,-1.8090203 -4.406196,-1.8137734 -4.3999794,-1.8194899 -4.3946128,-1.8260105 -4.3901191,-1.833162z" transform="matrix(1,0,0,-1,6.4897,2.2987)" fill="rgb(132,132,132)" fill-rule="nonzero" shaper:cutDepth="0.000762" stroke-linecap="round" stroke-linejoin="round" /><path d="M-4.1153457,-1.7776162 L-4.1153457,-1.7776162 -4.1125765,-1.7726666 -4.1085983,-1.7686326 -4.1034824,-1.7662124 -4.0978567,-1.7655463 -4.0978567,-1.7655463 -4.0911607,-1.7666027 -4.0880595,-1.7679945 -4.0852613,-1.769924 -4.0828602,-1.7723299 -4.0810494,-1.7752057 -4.0799704,-1.7784279 -4.0795672,-1.7818036 -4.0795672,-1.7818036 -4.0798571,-1.7850567 -4.0807642,-1.7881983 -4.0829515,-1.7943591 -4.1740937,-2.0353933 -4.1740937,-2.0353933 -4.1766801,-2.0407484 -4.1804776,-2.0453076 -4.1856318,-2.0482178 -4.1915211,-2.0488179 -4.1915211,-2.0488179 -4.1951274,-2.0486842 -4.1986596,-2.0479372 -4.2019356,-2.046447 -4.2046791,-2.0440978 -4.2086393,-2.0380765 -4.2114988,-2.0314569 -4.3034749,-1.7914718 -4.3034749,-1.7914718 -4.3051992,-1.7818036 -4.3051992,-1.7818036 -4.3047723,-1.7784366 -4.3036676,-1.7752286 -4.3018069,-1.7723903 -4.2994228,-1.7699766 -4.2935294,-1.7666585 -4.2868481,-1.7655463 -4.2868481,-1.7655463 -4.2837783,-1.7656196 -4.2807831,-1.7662933 -4.2755015,-1.7693664 -4.2716752,-1.7741523 -4.2689619,-1.779657 -4.256618,-1.8128403 -4.1289221,-1.8128403 -4.1153457,-1.7776162z M-4.2425714,-1.8478182 L-4.1923444,-1.9807831 -4.1421173,-1.8478182 -4.2425714,-1.8478182z" transform="matrix(1,0,0,-1,6.4897,2.2987)" fill="rgb(132,132,132)" fill-rule="nonzero" shaper:cutDepth="0.000762" stroke-linecap="round" stroke-linejoin="round" /><path d="M3.904721,-0.0073833 L3.9781561,-0.0073833 3.9781561,-0.0609584 3.8779148,-0.0609584 3.8779148,-0.0609584 3.8716001,-0.061377 3.8656359,-0.0634393 3.8631676,-0.0654233 3.8614314,-0.0680656 3.8605177,-0.0710972 3.8603367,-0.07426 3.8603367,-0.07426 3.8605111,-0.0772377 3.8613118,-0.0801095 3.862863,-0.0826528 3.8651015,-0.0846187 3.8706502,-0.0867289 3.876594,-0.087192 3.987005,-0.0871919 3.987005,-0.0871919 3.9942157,-0.0867505 3.9976762,-0.0857044 4.0007139,-0.0837522 4.0027821,-0.0807962 4.0038842,-0.0773509 4.0043895,-0.0701495 4.0043896,0.1078772 4.0043896,0.1078772 4.0040698,0.1150698 4.0031134,0.1185499 4.0011826,0.1215848 3.9982371,0.1236511 3.9948061,0.124763 3.9876242,0.1252617 3.8779148,0.1252617 3.8779148,0.1252617 3.8713366,0.1249119 3.8650109,0.1231224 3.8622791,0.1212901 3.8602596,0.1186916 3.8592053,0.115574 3.8590435,0.1122836 3.8590435,0.1122836 3.8596973,0.1083345 3.8613572,0.1046982 3.8641516,0.1018392 3.8676802,0.099952 3.8676802,0.099952 3.8719368,0.0990478 3.8763169,0.0990283 3.9781561,0.0990283 3.9781561,0.0188502 3.9060079,0.0188502 3.9060079,0.0188502 3.899715,0.0184749 3.893725,0.0165642 3.8912292,0.0146465 3.8894536,0.0120438 3.8885575,0.0090228 3.8884175,0.005872 3.8884175,0.005872 3.8885786,0.0028512 3.8893534,-0.0000704 3.8908529,-0.0026916 3.8930987,-0.0047155 3.8986989,-0.0069221 3.904721,-0.0073833z" transform="matrix(1,0,0,-1,6.4897,2.2987)" fill="rgb(132,132,132)" fill-rule="nonzero" shaper:cutDepth="0.000762" stroke-linecap="round" stroke-linejoin="round" /><path d="M4.162529,0.1252617 L4.162529,0.1252617 4.1681101,0.1244368 4.1706508,0.1231868 4.1727167,0.1212493 4.1742168,0.1188491 4.1751471,0.1161719 4.1758305,0.1105531 4.1758304,-0.0679326 4.1758304,-0.0679326 4.1752378,-0.0764583 4.1737944,-0.0804849 4.171142,-0.0838262 4.1673637,-0.0858244 4.1631949,-0.0868137 4.1546529,-0.0871919 4.1026263,-0.087192 4.1026263,-0.087192 4.0895043,-0.0865445 4.0830495,-0.0853158 4.0767623,-0.0834047 4.0767623,-0.0834047 4.0682882,-0.0795681 4.0604826,-0.0745092 4.0535925,-0.0682619 4.0478119,-0.0609731 4.0432018,-0.0528913 4.0399072,-0.0441903 4.0379524,-0.035093 4.0372737,-0.0258113 4.0372737,-0.0258113 4.0381485,-0.0154917 4.0405621,-0.0054224 4.0445544,0.0041291 4.0501366,0.0128525 4.057056,0.0205543 4.065212,0.0269322 4.074361,0.0317746 4.0841982,0.0350151 4.0841982,0.0350151 4.0941937,0.0363503 4.1042846,0.0365855 4.149597,0.0365855 4.149597,0.1086349 4.149597,0.1086349 4.1499728,0.114742 4.1518526,0.1205481 4.1538397,0.122864 4.1564992,0.1243743 4.162529,0.1252617z M4.0635071,-0.0258113 L4.0635071,-0.0258113 4.0642046,-0.0333009 4.0663634,-0.0404996 4.070123,-0.0469988 4.0753705,-0.0523728 4.0816978,-0.0564307 4.0887465,-0.0590502 4.0961277,-0.0604916 4.1036373,-0.0609584 4.149597,-0.0609584 4.149597,0.010352 4.1016564,0.010352 4.1016564,0.010352 4.0943049,0.009744 4.0871237,0.0080699 4.0803991,0.0050453 4.0744634,0.0006842 4.0696103,-0.004858 4.0661642,-0.0113689 4.0641621,-0.0184641 4.0635071,-0.0258113z" transform="matrix(1,0,0,-1,6.4897,2.2987)" fill="rgb(132,132,132)" fill-rule="nonzero" shaper:cutDepth="0.000762" stroke-linecap="round" stroke-linejoin="round" /><path d="M4.2247871,-0.087192 L4.2247871,-0.087192 4.2289903,-0.0867698 4.2327285,-0.084778 4.2356513,-0.0817267 4.2379038,-0.0781396 4.284062,0.0088925 4.3295839,-0.0768052 4.3295839,-0.0768052 4.3320017,-0.080749 4.3351145,-0.0841689 4.3390683,-0.086534 4.3436226,-0.087192 4.3436226,-0.087192 4.3486849,-0.0862972 4.3530922,-0.0836677 4.3562028,-0.0795855 4.3573398,-0.0745833 4.3573398,-0.0745833 4.3571989,-0.0724168 4.3564401,-0.070381 4.3544763,-0.0665008 4.3538461,-0.065207 4.2970214,0.0411096 4.2970214,0.1103765 4.2970214,0.1103765 4.2964324,0.1160828 4.2955551,0.1188267 4.2940655,0.1212774 4.2919666,0.123241 4.2893975,0.1245269 4.2837199,0.1252617 4.2837199,0.1252617 4.2803348,0.1250454 4.2770956,0.1240751 4.2741743,0.1223358 4.272035,0.1197195 4.272035,0.1197195 4.2708924,0.1146213 4.270788,0.1093739 4.270788,0.0411096 4.2155595,-0.0639183 4.214921,-0.0648848 4.214921,-0.0648848 4.2132869,-0.067794 4.2132869,-0.067794 4.2116544,-0.0711929 4.21107,-0.0749066 4.21107,-0.0749066 4.2121684,-0.0798809 4.2152926,-0.0838949 4.2197456,-0.0863788 4.2247871,-0.087192z" transform="matrix(1,0,0,-1,6.4897,2.2987)" fill="rgb(132,132,132)" fill-rule="nonzero" shaper:cutDepth="0.000762" stroke-linecap="round" stroke-linejoin="round" /><path d="M4.4523435,0.1184263 L4.4523435,0.1184263 4.4511952,0.1138204 4.4510965,0.1090506 4.4510965,-0.0609584 4.4083184,-0.0609584 4.4083184,-0.0609584 4.4021582,-0.0613874 4.3962979,-0.0632783 4.3938339,-0.0651289 4.3919981,-0.0676124 4.391022,-0.0705384 4.3907319,-0.0736134 4.3907319,-0.0736134 4.3918668,-0.0795877 4.393432,-0.0822075 4.3956634,-0.0842849 4.401287,-0.086596 4.4073587,-0.087192 4.5188311,-0.0871919 4.5188311,-0.0871919 4.525204,-0.0868069 4.5313252,-0.0850164 4.5339829,-0.0832512 4.5359966,-0.0807733 4.5370624,-0.0777672 4.537325,-0.0745833 4.537325,-0.0745833 4.5370668,-0.0715017 4.5361635,-0.068546 4.5345898,-0.0658915 4.5322813,-0.0638329 4.529542,-0.0624083 4.5265689,-0.0615488 4.5204211,-0.0609585 4.47733,-0.0609584 4.47733,0.1074804 4.47733,0.1074804 4.4770066,0.1161632 4.4770066,0.1161632 4.4751838,0.1199223 4.4721286,0.1227751 4.4683653,0.124626 4.4642132,0.1252617 4.4642132,0.1252617 4.4606404,0.124824 4.457276,0.1235595 4.4544364,0.1213519 4.4523435,0.1184263z" transform="matrix(1,0,0,-1,6.4897,2.2987)" fill="rgb(132,132,132)" fill-rule="nonzero" shaper:cutDepth="0.000762" stroke-linecap="round" stroke-linejoin="round" /><path d="M4.71925,-0.087192 L4.7211683,-0.0871919 4.7417417,-0.0861902 4.7417417,-0.0861902 4.7524144,-0.0847664 4.7627091,-0.0816273 4.7722302,-0.0766173 4.7805811,-0.0698296 4.7874464,-0.0615432 4.7924862,-0.0520351 4.7954906,-0.0416987 4.7965647,-0.0309841 4.7965647,-0.0309841 4.7961174,-0.0243701 4.7949532,-0.0178443 4.793007,-0.0115074 4.7903696,-0.0054255 4.7870378,0.0003054 4.7830409,0.0055932 4.7784048,0.0103318 4.7731486,0.0143701 4.7731486,0.0143701 4.7675929,0.017742 4.7615905,0.0202534 4.7490397,0.0236073 4.7147405,0.0309708 4.7147405,0.0309708 4.7086027,0.0323685 4.7026694,0.0344609 4.7026694,0.0344609 4.69867,0.0369143 4.695072,0.0399265 4.6918995,0.043383 4.6892357,0.047246 4.6855386,0.0558529 4.6842413,0.0651281 4.6842413,0.0651281 4.6847527,0.0706619 4.6860124,0.0760741 4.6881594,0.0811992 4.6910444,0.0859493 4.6946454,0.0901814 4.6989017,0.0937531 4.7037433,0.0964798 4.7089968,0.0982894 4.7089968,0.0982894 4.7223444,0.0995825 4.7414241,0.0996074 4.7414241,0.0996074 4.747982,0.0993863 4.7544434,0.0982894 4.7544434,0.0982894 4.7588685,0.0964697 4.7629471,0.093968 4.7665631,0.0908346 4.7697175,0.0872365 4.7723637,0.0832495 4.7743921,0.0789165 4.77571,0.0743164 4.776243,0.0695619 4.776243,0.0695619 4.7759197,0.0666984 4.7759235,0.0641717 4.7759235,0.0641717 4.7767313,0.059169 4.7792557,0.0547917 4.7833103,0.0517758 4.7882513,0.0507182 4.7882513,0.0507182 4.7914528,0.0511219 4.7944727,0.0522617 4.7970983,0.054132 4.7991628,0.0566136 4.8017343,0.0625112 4.8024764,0.0689153 4.8024764,0.0689153 4.80181,0.0771331 4.8000222,0.0851806 4.7970728,0.0928794 4.793059,0.1000806 4.7881117,0.1066758 4.7822539,0.1124767 4.7755625,0.1172919 4.7682529,0.121105 4.7682529,0.121105 4.761764,0.1229427 4.755135,0.1241921 4.7416962,0.1252617 4.7209755,0.1252617 4.7209755,0.1252617 4.7088753,0.1241857 4.69709,0.1212542 4.6860678,0.1161648 4.6809991,0.1128152 4.6763196,0.1089382 4.6720631,0.1046016 4.668297,0.099833 4.6651068,0.0946615 4.6625287,0.0891592 4.659182,0.0774906 4.6580079,0.0654052 4.6580079,0.0654052 4.6589031,0.0547646 4.6614652,0.0443995 4.6658323,0.034658 4.6719328,0.0258979 4.6794676,0.0183353 4.6882504,0.0122675 4.6979235,0.0077457 4.7081655,0.0047174 4.7426991,-0.0023286 4.7426991,-0.0023286 4.753843,-0.0052587 4.753843,-0.0052587 4.7574615,-0.0071913 4.7607285,-0.0096732 4.7635942,-0.0126072 4.7659514,-0.0159659 4.7692155,-0.0234736 4.7703313,-0.0315845 4.7703313,-0.0315845 4.7697689,-0.0374208 4.7681295,-0.0430479 4.7653308,-0.0481973 4.7614494,-0.0525913 4.7567755,-0.0561255 4.7514727,-0.0586304 4.7458135,-0.060152 4.7399873,-0.06082 4.7240415,-0.0611044 4.7224453,-0.0611044 4.7224453,-0.0611044 4.7166802,-0.0607979 4.711033,-0.0596208 4.7056653,-0.0574982 4.700872,-0.0542879 4.6968518,-0.0501498 4.6937027,-0.0453134 4.6914435,-0.0400035 4.689876,-0.034448 4.689876,-0.034448 4.6882241,-0.0301598 4.68553,-0.0264508 4.6816329,-0.0240632 4.6770826,-0.0235482 4.6770826,-0.0235482 4.671879,-0.0245389 4.667539,-0.0275572 4.6648744,-0.0321235 4.664012,-0.0373577 4.664012,-0.0373577 4.6646807,-0.0432127 4.6663085,-0.0488856 4.6713555,-0.0595268 4.6713555,-0.0595268 4.6753953,-0.06553 4.6801396,-0.0709917 4.6855766,-0.075766 4.6915952,-0.0797811 4.6980808,-0.082989 4.7049376,-0.0852963 4.7120297,-0.0867282 4.71925,-0.087192z" transform="matrix(1,0,0,-1,6.4897,2.2987)" fill="rgb(132,132,132)" fill-rule="nonzero" shaper:cutDepth="0.000762" stroke-linecap="round" stroke-linejoin="round" /><path d="M4.8395173,0.1199966 L4.8395173,0.1199966 4.8384362,0.1154024 4.8383164,0.1106671 4.8383164,-0.0729391 4.8383164,-0.0729391 4.8387867,-0.0781503 4.8406628,-0.0830143 4.8423961,-0.0849772 4.8446268,-0.0863434 4.8497705,-0.087192 4.8497705,-0.087192 4.8527397,-0.0868299 4.8555411,-0.0857837 4.8580079,-0.0840945 4.8600698,-0.0819268 4.8600698,-0.0819268 4.8610529,-0.079589 4.8614384,-0.0770769 4.861594,-0.0719969 4.861594,0.1106987 4.861594,0.1106987 4.8615347,0.1147858 4.8606703,0.1187496 4.8606703,0.1187496 4.8588074,0.1215044 4.8561381,0.1235051 4.8530675,0.1247853 4.8497705,0.1252617 4.8497705,0.1252617 4.8468149,0.1248572 4.8440206,0.123818 4.841492,0.1222276 4.8395173,0.1199966z" transform="matrix(1,0,0,-1,6.4897,2.2987)" fill="rgb(132,132,132)" fill-rule="nonzero" shaper:cutDepth="0.000762" stroke-linecap="round" stroke-linejoin="round" /><path d="M4.9245449,-0.0656695 L4.9245449,-0.0656695 4.9169634,-0.0571415 4.9104292,-0.047785 4.9049894,-0.0377562 4.9007881,-0.0271455 4.897786,-0.0161378 4.8958534,-0.0048887 4.894791,0.0064718 4.8944781,0.0178803 4.8944781,0.0178803 4.8949796,0.0343388 4.8971336,0.0506588 4.8990997,0.0586548 4.9017345,0.0664557 4.9049038,0.0740561 4.9086571,0.0813854 4.9086571,0.0813854 4.9141579,0.0906757 4.9205332,0.0993883 4.9279674,0.1072126 4.9364305,0.1139051 4.9458965,0.1190846 4.9560656,0.1226938 4.966677,0.1246554 4.9774529,0.1252617 5.0225045,0.1252617 5.0225045,0.1252617 5.0300202,0.1245549 5.033516,0.1231261 5.0363457,0.1206406 5.037977,0.1172305 5.0387705,0.1135341 5.0389467,0.1059807 5.0389466,-0.0706575 5.0389466,-0.0706575 5.0383194,-0.0775235 5.0369857,-0.0807116 5.0348524,-0.083428 5.03201,-0.08539 5.0287512,-0.0865458 5.0218782,-0.0871919 4.978074,-0.087192 4.978074,-0.087192 4.9706593,-0.0869459 4.9632954,-0.0860515 4.9560563,-0.0844292 4.9490225,-0.0820728 4.942273,-0.0789944 4.9359212,-0.0751625 4.9299869,-0.0707113 4.9245449,-0.0656695z M4.9774274,0.0990283 L4.9774274,0.0990283 4.9691335,0.0986796 4.9609759,0.0971773 4.9533311,0.0939856 4.9466678,0.0890522 4.9466678,0.0890522 4.9381962,0.080259 4.9313842,0.0701238 4.9262062,0.0590631 4.9226051,0.0473928 4.9226051,0.0473928 4.9213067,0.0416421 4.9207875,0.0357698 4.9207115,0.0239767 4.9207115,0.0239767 4.9209122,0.0011842 4.921266,-0.0045033 4.9222264,-0.0101176 4.9258381,-0.0209156 4.9258381,-0.0209156 4.9311248,-0.0317578 4.9379276,-0.0417171 4.9462764,-0.0504156 4.9510481,-0.0541118 4.9562744,-0.0571251 4.9562744,-0.0571251 4.9611971,-0.0592553 4.9664226,-0.0604561 4.9771324,-0.0609584 5.0127132,-0.0609584 5.0127132,0.0990283 4.9774274,0.0990283z" transform="matrix(1,0,0,-1,6.4897,2.2987)" fill="rgb(132,132,132)" fill-rule="nonzero" shaper:cutDepth="0.000762" stroke-linecap="round" stroke-linejoin="round" /><path d="M4.8844483,1.5029979 L4.8844483,1.5029979 4.8875762,1.5031171 4.890612,1.503871 4.8933396,1.5053889 4.8953394,1.5077907 4.8971644,1.5137507 4.8975188,1.5199942 4.8975372,1.648791 4.9672245,1.5111139 4.9672245,1.5111139 4.969317,1.5076613 4.9722418,1.5048908 4.9759361,1.5032763 4.9799601,1.5029979 4.9799601,1.5029979 4.9848327,1.5038291 4.9889201,1.5066004 4.9889201,1.5066004 4.9910876,1.509244 4.9918734,1.5125799 4.9921069,1.5194399 4.9921252,1.698329 4.9921252,1.698329 4.9917314,1.7045149 4.9899576,1.7104293 4.9880396,1.7128518 4.9853952,1.7144585 4.9824084,1.7152801 4.9793135,1.7154516 4.9793135,1.7154516 4.9736274,1.7145613 4.9710861,1.7131922 4.9689951,1.7112034 4.9675093,1.7087283 4.966596,1.705987 4.9659197,1.7002565 4.9659475,1.5693372 4.8965794,1.7079792 4.8965794,1.7079792 4.8943854,1.7111244 4.8915015,1.7136482 4.8879396,1.71506 4.884125,1.7154516 4.884125,1.7154516 4.8786126,1.7145858 4.8761573,1.7132365 4.8741748,1.7112585 4.8719419,1.706145 4.8713316,1.7005798 4.8713595,1.5188341 4.8713595,1.5188341 4.8717631,1.5128777 4.8724885,1.5099773 4.8738118,1.5073015 4.8758945,1.5051677 4.8785509,1.5038079 4.8844483,1.5029979z" transform="matrix(1,0,0,-1,6.4897,2.2987)" fill="rgb(132,132,132)" fill-rule="nonzero" shaper:cutDepth="0.000762" stroke-linecap="round" stroke-linejoin="round" /><path d="M5.1668484,1.3330182 L5.1668484,1.3330182 5.1613285,1.3323025 5.1588258,1.331067 5.1568466,1.329096 5.1546784,1.3239797 5.1541935,1.3184235 5.1541935,1.1348174 5.1541935,1.1348174 5.1546884,1.1293404 5.1569168,1.1243358 5.1589202,1.1224477 5.1614022,1.1212553 5.1668484,1.1205645 5.1668484,1.1205645 5.1725928,1.1212474 5.1751747,1.1225709 5.1772204,1.1246346 5.1786119,1.127177 5.1794059,1.129978 5.1798727,1.1357596 5.1798728,1.3184551 5.1798728,1.3184551 5.1796927,1.3237413 5.1792161,1.3263463 5.1778405,1.3285844 5.1778405,1.3285844 5.1728181,1.3319696 5.1668484,1.3330182z" transform="matrix(1,0,0,-1,6.4897,2.2987)" fill="rgb(132,132,132)" fill-rule="nonzero" shaper:cutDepth="0.000762" stroke-linecap="round" stroke-linejoin="round" /><path d="M5.211787,0.9005918 L5.211787,0.9005918 5.2136053,0.9041539 5.2165504,0.906854 5.2202724,0.9083002 5.2242571,0.9086743 5.2242571,0.9086743 5.2290899,0.9079106 5.233383,0.9055862 5.2365102,0.9018581 5.2376509,0.8971279 5.2376509,0.8971279 5.2366653,0.8915667 5.2351127,0.8861196 5.1807964,0.7053192 5.1807964,0.7053192 5.1791037,0.7013997 5.1762002,0.6982815 5.1723046,0.6965715 5.1680492,0.6962206 5.1680492,0.6962206 5.1630665,0.6967732 5.1607664,0.6977839 5.1587914,0.6993387 5.1560799,0.7035544 5.154345,0.7082668 5.0994174,0.8883064 5.0994174,0.8883064 5.0983007,0.8923377 5.0978009,0.8964813 5.0978009,0.8964813 5.0988162,0.9014213 5.1018458,0.9054434 5.1062462,0.9079052 5.1112409,0.9086743 5.1112409,0.9086743 5.1155852,0.90826 5.1194928,0.906353 5.1223284,0.9030563 5.1240172,0.8990364 5.1319982,0.8732038 5.2035079,0.8732038 5.211787,0.9005918z M5.1402984,0.8469704 L5.1677531,0.7550427 5.1952077,0.8469704 5.1402984,0.8469704z" transform="matrix(1,0,0,-1,6.4897,2.2987)" fill="rgb(132,132,132)" fill-rule="nonzero" shaper:cutDepth="0.000762" stroke-linecap="round" stroke-linejoin="round" /><path d="M4.9634718,0.4525562 L4.9634718,0.4525562 4.9656838,0.4461288 4.9668789,0.4394408 4.9673976,0.4258609 4.9674255,0.3078892 4.9674255,0.3078892 4.967806,0.3020086 4.9698584,0.2965089 4.9718319,0.294321 4.9743759,0.2928346 4.977242,0.2921426 4.980191,0.2920613 4.980191,0.2920613 4.9859617,0.2927675 4.98856,0.2940886 4.9906588,0.296108 4.9921211,0.298633 4.9930138,0.3014078 4.9935848,0.3072101 4.9936031,0.4265208 4.9936031,0.4265208 4.9929226,0.4427776 4.9915848,0.4508052 4.9894281,0.4586527 4.9894281,0.4586527 4.9857032,0.4677459 4.9808843,0.4763085 4.9749907,0.4841685 4.9679779,0.4910437 4.9599767,0.4967353 4.9511359,0.5010132 4.9416595,0.5035899 4.9318809,0.504515 4.9318809,0.504515 4.9250149,0.5040392 4.9182392,0.5028317 4.9116582,0.500821 4.90538,0.4980008 4.8994995,0.4944278 4.8941137,0.4901423 4.8892801,0.4852447 4.8849964,0.4798566 4.8812572,0.4740791 4.8780884,0.4679689 4.8734096,0.4550344 4.8707961,0.4415271 4.8698536,0.4278007 4.8698816,0.3094967 4.8698816,0.3094967 4.8701926,0.3031428 4.8719566,0.2970457 4.8739629,0.2945907 4.8766949,0.2929612 4.8829703,0.2920613 4.8829703,0.2920613 4.886132,0.2922307 4.889199,0.293009 4.8919039,0.2946447 4.8938773,0.2971101 4.8956869,0.3031556 4.8960409,0.3094732 4.8960592,0.4249134 4.8960592,0.4249134 4.8963547,0.4363707 4.8979807,0.4477067 4.8979807,0.4477067 4.8999784,0.4535058 4.9025584,0.4590681 4.9058532,0.4642417 4.90986,0.4688833 4.9145758,0.4728038 4.9199382,0.4757728 4.9257857,0.4776199 4.9318809,0.4782815 4.9318809,0.4782815 4.9372834,0.477773 4.9425011,0.4762802 4.94734,0.473826 4.9516677,0.4705527 4.9554343,0.4666434 4.9586468,0.4622701 4.9634718,0.4525562z" transform="matrix(1,0,0,-1,6.4897,2.2987)" fill="rgb(132,132,132)" fill-rule="nonzero" shaper:cutDepth="0.000762" stroke-linecap="round" stroke-linejoin="round" /><path d="M4.4290198,0.2481703 L4.4836111,0.2481703 4.4836111,0.1945951 4.4057166,0.1945951 4.4057166,0.1945951 4.3999046,0.1940458 4.3945376,0.1917936 4.3924307,0.1897691 4.391013,0.1872151 4.3900392,0.1814783 4.3900392,0.1814783 4.3911147,0.1758117 4.3925602,0.1733039 4.3946559,0.1712994 4.397169,0.1698694 4.3999451,0.1690197 4.4056961,0.1683616 4.492144,0.1683616 4.492144,0.1683616 4.4994736,0.1687748 4.5029063,0.1700991 4.5058241,0.1723364 4.5079155,0.17536 4.5091517,0.1788295 4.5098446,0.186143 4.5098446,0.3635969 4.5098446,0.3635969 4.5094121,0.3698537 4.5073931,0.3757674 4.5053752,0.3781605 4.5027084,0.3798077 4.4965431,0.3808153 4.4965431,0.3808153 4.4934325,0.3806349 4.4904347,0.3797909 4.4877854,0.3781589 4.4858408,0.3757365 4.4840033,0.3698053 4.4836111,0.363588 4.483639,0.2744037 4.4296875,0.2744037 4.4296875,0.2744037 4.4233747,0.2740307 4.4173405,0.2722143 4.4148342,0.2703069 4.4131666,0.2676265 4.4123281,0.2645802 4.4121159,0.2614255 4.4121159,0.2614255 4.4122824,0.2583223 4.4130798,0.2553208 4.4146509,0.2526463 4.4169962,0.2506108 4.4198069,0.2492934 4.4228247,0.2485402 4.4290198,0.2481703z" transform="matrix(1,0,0,-1,6.4897,2.2987)" fill="rgb(132,132,132)" fill-rule="nonzero" shaper:cutDepth="0.000762" stroke-linecap="round" stroke-linejoin="round" /><path d="M3.84429,1.0287 a0.60071,0.60071 0 1,1 1.20142,0 a0.60071,0.60071 0 1,1 -1.20142,0z" transform="matrix(1,0,0,-1,6.4897,2.2987)" fill="rgb(255,255,255)" stroke="rgb(0,0,0)" stroke-width="0.0010cm" stroke-linecap="round" stroke-linejoin="round" shaper:cutDepth="0.0023495" /><path d="M-0.135255,1.822949 a0.135255,0.135255 0 1,1 0.27051,0 a0.135255,0.135255 0 1,1 -0.27051,0z" transform="matrix(1,0,0,-1,6.4897,2.2987)" fill="rgb(255,255,255)" stroke="rgb(0,0,0)" stroke-width="0.0010cm" stroke-linecap="round" stroke-linejoin="round" shaper:cutDepth="0.0023495" /><path d="M-5.1054,1.0287 a0.508,0.508 0 1,1 1.016,0 a0.508,0.508 0 1,1 -1.016,0z" transform="matrix(1,0,0,-1,6.4897,2.2987)" fill="rgb(255,255,255)" stroke="rgb(0,0,0)" stroke-width="0.0010cm" stroke-linecap="round" stroke-linejoin="round" shaper:cutDepth="0.0023495" /><path d="M-5.1054,-1.0033 a0.508,0.508 0 1,1 1.016,0 a0.508,0.508 0 1,1 -1.016,0z" transform="matrix(1,0,0,-1,6.4897,2.2987)" fill="rgb(255,255,255)" stroke="rgb(0,0,0)" stroke-width="0.0010cm" stroke-linecap="round" stroke-linejoin="round" shaper:cutDepth="0.0023495" /><path d="M5.706745,1.524 a0.215265,0.215265 0 1,1 0.43053,0 a0.215265,0.215265 0 1,1 -0.43053,0z" transform="matrix(1,0,0,-1,6.4897,2.2987)" fill="rgb(255,255,255)" stroke="rgb(0,0,0)" stroke-width="0.0010cm" stroke-linecap="round" stroke-linejoin="round" shaper:cutDepth="0.0023495" /><path d="M5.706745,-1.524 a0.215265,0.215265 0 1,1 0.43053,0 a0.215265,0.215265 0 1,1 -0.43053,0z" transform="matrix(1,0,0,-1,6.4897,2.2987)" fill="rgb(255,255,255)" stroke="rgb(0,0,0)" stroke-width="0.0010cm" stroke-linecap="round" stroke-linejoin="round" shaper:cutDepth="0.0023495" /><path d="M-6.137275,-1.524 a0.215265,0.215265 0 1,1 0.43053,0 a0.215265,0.215265 0 1,1 -0.43053,0z" transform="matrix(1,0,0,-1,6.4897,2.2987)" fill="rgb(255,255,255)" stroke="rgb(0,0,0)" stroke-width="0.0010cm" stroke-linecap="round" stroke-linejoin="round" shaper:cutDepth="0.0023495" /><path d="M-6.137275,1.524 a0.215265,0.215265 0 1,1 0.43053,0 a0.215265,0.215265 0 1,1 -0.43053,0z" transform="matrix(1,0,0,-1,6.4897,2.2987)" fill="rgb(255,255,255)" stroke="rgb(0,0,0)" stroke-width="0.0010cm" stroke-linecap="round" stroke-linejoin="round" shaper:cutDepth="0.0023495" /><path d="M-3.556,-2.0193 L5.08,-2.0193 A0.127,0.127 270 0,1 5.207,-1.8923 L5.207,-0.2413 A0.127,0.127 0 0,1 5.08,-0.1143 L-3.556,-0.1143 A0.127,0.127 90 0,1 -3.683,-0.2413 L-3.683,-1.8923 A0.127,0.127 180 0,1 -3.556,-2.0193z" transform="matrix(1,0,0,-1,6.4897,2.2987)" fill="rgb(255,255,255)" stroke="rgb(0,0,0)" stroke-width="0.0010cm" stroke-linecap="round" stroke-linejoin="round" shaper:cutDepth="0.0023495" /></svg>