<?xml version="1.0" encoding="utf-8"?>
<!-- Generator: Fusion 360, Shaper Origin Export Add-In, Version 1.6.10  -->
<svg xmlns="http://www.w3.org/2000/svg" xmlns:xlink="http://www.w3.org/1999/xlink" xmlns:shaper="http://www.shapertools.com/namespaces/shaper" shaper:fusionaddin="version:1.6.10" width="15.24cm" height="6.35cm" version="1.1" x="0cm" y="0cm" viewBox="0 0 15.24 6.35" enable-background="new 0 0 15.24 6.35" xml:space="preserve"><path d="M-7.7074938,-3.1968419 L7.5325062,-3.1968419 7.5325062,3.1531581 -7.7074938,3.1531581 -7.7074938,-3.1968419z" transform="matrix(1,0,0,-1,7.7074938,3.1531581)" fill="rgb(0,0,0)" shaper:cutDepth="0.003175" stroke-linecap="round" stroke-linejoin="round" /><path d="M5.7347336,0.4794714 L6.4210447,0.4794714 A0.15875,0.15875 270 0,1 6.5797947,0.6382214 L6.5797947,1.1006291 A0.15875,0.15875 180 0,0 6.6262915,1.2128823 L6.7935127,1.3801035 A0.15875,0.15875 135 0,0 6.9057659,1.4266003 L7.2567173,1.4266003 A0.15875,0.15875 90 0,0 7.4154673,1.2678503 L7.4154673,-1.7081869 A0.15875,0.15875 0 0,0 7.2567173,-1.8669369 L5.9993547,-1.8669369 A0.15875,0.15875 270 0,0 5.8406047,-1.7081869 L5.8406047,-1.397229 A0.15875,0.15875 180 0,0 5.9993547,-1.238479 L6.6283809,-1.238479 A0.15875,0.15875 270 0,1 6.7871309,-1.079729 L6.7871309,-0.3016415 A0.15875,0.15875 0 0,1 6.6283809,-0.1428915 L6.1709794,-0.1428915 A0.15875,0.15875 90 0,1 6.0306992,-0.3759585 A0.6,0.6 27.9135627 1,0 5.4346564,-0.0604664 A0.15875,0.15875 276.3008885 0,1 5.5759836,0.0973246 L5.5759836,0.3207214 A0.15875,0.15875 180 0,0 5.7347336,0.4794714z" transform="matrix(1,0,0,-1,7.7074938,3.1531581)" fill="rgb(255,255,255)" stroke="rgb(0,0,0)" stroke-width="0.0010cm" stroke-linecap="round" stroke-linejoin="round" shaper:cutDepth="0.003175" /><path d="M-5.7887216,-0.7200743 L-5.5115343,-0.7200743 A0.15875,0.15875 270 0,1 -5.3527843,-0.5613243 L-5.3527843,0.511214 A0.15875,0.15875 0 0,1 -5.5115343,0.669964 L-5.79382,0.669964 A0.15875,0.15875 90 0,1 -5.9418871,0.568465 L-6.0927233,0.1783602 A0.15875,0.15875 158.8607391 0,1 -6.0994173,0.0857466 L-5.9434828,-0.5966869 A0.15875,0.15875 192.8709893 0,1 -5.7887216,-0.7200743z" transform="matrix(1,0,0,-1,7.7074938,3.1531581)" fill="rgb(255,255,255)" stroke="rgb(0,0,0)" stroke-width="0.0010cm" stroke-linecap="round" stroke-linejoin="round" shaper:cutDepth="0.003175" /><path d="M2.9020394,-1.5862977 L2.9020394,-2.1483477 A0.15875,0.15875 180 0,1 3.0607894,-2.3070977 L3.4198663,-2.3070977 A0.15875,0.15875 270 0,1 3.5786163,-2.1483477 L3.5786163,-1.5862977 A0.15875,0.15875 0 0,1 3.4198663,-1.4275477 L3.0607894,-1.4275477 A0.15875,0.15875 90 0,1 2.9020394,-1.5862977z" transform="matrix(1,0,0,-1,7.7074938,3.1531581)" fill="rgb(255,255,255)" stroke="rgb(0,0,0)" stroke-width="0.0010cm" stroke-linecap="round" stroke-linejoin="round" shaper:cutDepth="0.003175" /><path d="M1.6031362,-1.5964 L1.6031362,-2.15845 A0.15875,0.15875 180 0,1 1.7618862,-2.3172 L2.1209632,-2.3172 A0.15875,0.15875 270 0,1 2.2797132,-2.15845 L2.2797132,-1.5964 A0.15875,0.15875 0 0,1 2.1209632,-1.43765 L1.7618862,-1.43765 A0.15875,0.15875 90 0,1 1.6031362,-1.5964z" transform="matrix(1,0,0,-1,7.7074938,3.1531581)" fill="rgb(255,255,255)" stroke="rgb(0,0,0)" stroke-width="0.0010cm" stroke-linecap="round" stroke-linejoin="round" shaper:cutDepth="0.003175" /><path d="M5.3112897,0.8727862 L5.0074981,0.8727862 A0.15875,0.15875 90 0,1 4.8487481,0.7140362 L4.8487481,0.4254157 A0.15875,0.15875 180 0,1 5.0074981,0.2666657 L5.3112897,0.2666657 A0.15875,0.15875 270 0,1 5.4700397,0.4254157 L5.4700397,0.7140362 A0.15875,0.15875 0 0,1 5.3112897,0.8727862z" transform="matrix(1,0,0,-1,7.7074938,3.1531581)" fill="rgb(255,255,255)" stroke="rgb(0,0,0)" stroke-width="0.0010cm" stroke-linecap="round" stroke-linejoin="round" shaper:cutDepth="0.003175" /><path d="M5.2453377,-2.4176279 A0.15875,0.15875 320.7565823 0,0 5.0333832,-2.4486501 A0.15875,0.15875 55.8971035 0,1 4.8569945,-2.4475627 A0.215265,0.215265 303.3964857 1,0 4.7596285,-2.0536157 A0.15875,0.15875 264.3689689 0,1 4.9339553,-1.8956318 L4.9339553,-1.5774596 A0.1694374,0.1694374 180 0,0 5.1033928,-1.4080222 L5.3087356,-1.4080222 A0.15875,0.15875 90 0,0 5.4674856,-1.5667722 L5.4674856,-2.0890726 A0.15875,0.15875 0 0,0 5.431682,-2.1895004 L5.2453377,-2.4176279z" transform="matrix(1,0,0,-1,7.7074938,3.1531581)" fill="rgb(255,255,255)" stroke="rgb(0,0,0)" stroke-width="0.0010cm" stroke-linecap="round" stroke-linejoin="round" shaper:cutDepth="0.003175" /><path d="M1.9573371,0.7674259 L2.3185778,1.1691796 A0.15875,0.15875 318.0393996 0,1 2.3592806,1.2753229 L2.3592806,1.7524428 A0.15875,0.15875 0 0,1 2.2838566,1.8875662 L1.942866,2.0978438 A0.15875,0.15875 238.3392489 0,0 1.8674421,2.2329671 L1.8674421,2.5660261 A0.15875,0.15875 180 0,0 2.0261921,2.7247761 L3.3896306,2.7247761 A0.15875,0.15875 90 0,0 3.5483806,2.5660261 L3.5483806,0.352108 A0.15875,0.15875 0 0,0 3.3896306,0.193358 L2.0753843,0.193358 A0.15875,0.15875 270 0,0 1.9166343,0.352108 L1.9166343,0.6612826 A0.15875,0.15875 180 0,0 1.9573371,0.7674259z" transform="matrix(1,0,0,-1,7.7074938,3.1531581)" fill="rgb(255,255,255)" stroke="rgb(0,0,0)" stroke-width="0.0010cm" stroke-linecap="round" stroke-linejoin="round" shaper:cutDepth="0.003175" /><path d="M3.6416111,-1.5067846 L3.6416111,-0.929976 A0.15875,0.15875 0 0,1 3.4828611,-0.771226 L3.0607894,-0.771226 A0.15875,0.15875 270 0,0 2.9020394,-0.612476 L2.9020394,-0.5748786 A0.15875,0.15875 180 0,0 3.0607894,-0.4161286 L3.6386242,-0.4161286 A0.15875,0.15875 270 0,1 3.7973742,-0.2573786 L3.7973742,0.133077 A0.15875,0.15875 180 0,0 3.9561242,0.291827 L4.2844344,0.291827 A0.15875,0.15875 90 0,0 4.4431844,0.133077 L4.4431844,-1.4761345 A0.15875,0.15875 0 0,0 4.2844344,-1.6348845 L3.7973742,-1.6348845 A0.15875,0.15875 270 0,0 3.6416111,-1.5067846z" transform="matrix(1,0,0,-1,7.7074938,3.1531581)" fill="rgb(255,255,255)" stroke="rgb(0,0,0)" stroke-width="0.0010cm" stroke-linecap="round" stroke-linejoin="round" shaper:cutDepth="0.003175" /><path d="M0.0706246,1.6821123 L0.0706246,2.4014354 A0.15875,0.15875 0 0,1 -0.0881254,2.5601854 L-0.3323776,2.5601854 A0.15875,0.15875 90 0,1 -0.4911276,2.4014354 L-0.4911276,1.6821123 A0.15875,0.15875 180 0,1 -0.3323776,1.5233623 L-0.0881254,1.5233623 A0.15875,0.15875 270 0,1 0.0706246,1.6821123z" transform="matrix(1,0,0,-1,7.7074938,3.1531581)" fill="rgb(255,255,255)" stroke="rgb(0,0,0)" stroke-width="0.0010cm" stroke-linecap="round" stroke-linejoin="round" shaper:cutDepth="0.003175" /><path d="M-0.3942395,0.3948864 L0.2003828,0.3948864 A0.15875,0.15875 270 0,1 0.3591328,0.5536364 L0.3591328,0.8917885 A0.15875,0.15875 0 0,1 0.2003828,1.0505385 L-0.3942395,1.0505385 A0.15875,0.15875 90 0,1 -0.5529895,0.8917885 L-0.5529895,0.5536364 A0.15875,0.15875 180 0,1 -0.3942395,0.3948864z" transform="matrix(1,0,0,-1,7.7074938,3.1531581)" fill="rgb(255,255,255)" stroke="rgb(0,0,0)" stroke-width="0.0010cm" stroke-linecap="round" stroke-linejoin="round" shaper:cutDepth="0.003175" /><path d="M-0.3653641,-2.0779006 L-0.3653641,-2.6342211 A0.1812409,0.1812409 180 0,1 -0.1841232,-2.815462 L1.3064994,-2.815462 A0.1812409,0.1812409 270 0,1 1.4877403,-2.6342211 L1.4877403,0.5186183 A0.1812409,0.1812409 0 0,1 1.3064994,0.6998592 L1.123684,0.6998592 A0.1812409,0.1812409 90 0,1 0.9732812,0.6197483 L0.2939702,-0.3905377 A0.1812409,0.1812409 146.0833241 0,1 0.2631321,-0.4916677 L0.2631321,-0.7991241 A0.1812409,0.1812409 180 0,1 0.444373,-0.980365 L0.7422923,-0.980365 A0.1812409,0.1812409 90 0,0 0.9235333,-1.1616059 L0.9235333,-1.2392085 A0.1812409,0.1812409 0 0,0 0.7422923,-1.4204494 L0.4389751,-1.4204494 A0.15875,0.15875 90 0,1 0.2802251,-1.5791994 L0.2802251,-1.7604006 A0.15875,0.15875 0 0,0 0.1214751,-1.9191506 L-0.2066141,-1.9191506 A0.15875,0.15875 90 0,1 -0.3653641,-2.0779006z" transform="matrix(1,0,0,-1,7.7074938,3.1531581)" fill="rgb(255,255,255)" stroke="rgb(0,0,0)" stroke-width="0.0010cm" stroke-linecap="round" stroke-linejoin="round" shaper:cutDepth="0.003175" /><path d="M1.3735801,2.9516626 L1.1261192,2.9516626 A0.15875,0.15875 90 0,1 0.9673692,2.7929126 L0.9673692,2.4283877 A0.15875,0.15875 180 0,1 1.1261192,2.2696377 L1.3735801,2.2696377 A0.15875,0.15875 270 0,1 1.5323301,2.4283877 L1.5323301,2.7929126 A0.15875,0.15875 0 0,1 1.3735801,2.9516626z" transform="matrix(1,0,0,-1,7.7074938,3.1531581)" fill="rgb(255,255,255)" stroke="rgb(0,0,0)" stroke-width="0.0010cm" stroke-linecap="round" stroke-linejoin="round" shaper:cutDepth="0.003175" /><path d="M-4.3810662,-0.7217094 L-4.698009,-0.7217094 A0.15875,0.15875 90 0,1 -4.8370471,-0.8038435 L-4.9960309,-1.0923584 A0.15875,0.15875 151.1433863 0,1 -4.8569929,-1.3277242 L-4.3810662,-1.3277242 A0.15875,0.15875 270 0,1 -4.2223162,-1.1689742 L-4.2223162,-0.8804594 A0.15875,0.15875 0 0,1 -4.3810662,-0.7217094z" transform="matrix(1,0,0,-1,7.7074938,3.1531581)" fill="rgb(255,255,255)" stroke="rgb(0,0,0)" stroke-width="0.0010cm" stroke-linecap="round" stroke-linejoin="round" shaper:cutDepth="0.003175" /><path d="M-4.6880311,0.6596253 L-4.385907,0.6596253 A0.15875,0.15875 270 0,1 -4.227157,0.8183753 L-4.227157,1.1204056 A0.15875,0.15875 0 0,1 -4.385907,1.2791556 L-4.6880311,1.2791556 A0.15875,0.15875 90 0,1 -4.8467811,1.1204056 L-4.8467811,0.8183753 A0.15875,0.15875 180 0,1 -4.6880311,0.6596253z" transform="matrix(1,0,0,-1,7.7074938,3.1531581)" fill="rgb(255,255,255)" stroke="rgb(0,0,0)" stroke-width="0.0010cm" stroke-linecap="round" stroke-linejoin="round" shaper:cutDepth="0.003175" /><path d="M-3.7200114,-0.2611368 L-3.4155095,-0.2611368 A0.15875,0.15875 270 0,1 -3.2567595,-0.1023868 L-3.2567595,0.0472967 A0.15875,0.15875 0 0,1 -3.4155095,0.2060467 L-3.7075651,0.2060467 A0.15875,0.15875 270 0,0 -3.8663151,0.3647967 L-3.8663151,0.7009208 A0.15875,0.15875 180 0,0 -3.8240373,0.80879 L-3.2005997,1.4819497 A0.15875,0.15875 137.1961072 0,0 -3.0841274,1.5328305 L-2.8327022,1.5328305 A0.15875,0.15875 90 0,0 -2.6739522,1.3740805 L-2.6739522,-1.5862921 A0.15875,0.15875 0 0,0 -2.8327022,-1.7450421 L-3.1489752,-1.7450421 A0.15875,0.15875 270 0,0 -3.2814404,-1.6737822 L-3.8524767,-0.8091995 A0.15875,0.15875 213.4438089 0,0 -3.8787614,-0.7217094 L-3.8787614,-0.4198868 A0.15875,0.15875 180 0,0 -3.7200114,-0.2611368z" transform="matrix(1,0,0,-1,7.7074938,3.1531581)" fill="rgb(255,255,255)" stroke="rgb(0,0,0)" stroke-width="0.0010cm" stroke-linecap="round" stroke-linejoin="round" shaper:cutDepth="0.003175" /><path d="M-1.9698128,0.8183753 L-2.3249486,0.8183753 A0.15875,0.15875 90 0,1 -2.4836986,0.6596253 L-2.4836986,0.352108 A0.15875,0.15875 180 0,1 -2.3249486,0.193358 L-1.9698128,0.193358 A0.15875,0.15875 270 0,1 -1.8110628,0.352108 L-1.8110628,0.6596253 A0.15875,0.15875 0 0,1 -1.9698128,0.8183753z" transform="matrix(1,0,0,-1,7.7074938,3.1531581)" fill="rgb(255,255,255)" stroke="rgb(0,0,0)" stroke-width="0.0010cm" stroke-linecap="round" stroke-linejoin="round" shaper:cutDepth="0.003175" /><path d="M-0.5414888,-0.4916677 L-0.2246477,-0.4916677 A0.15875,0.15875 270 0,1 -0.0658977,-0.3329177 L-0.0658977,-0.0560811 A0.15875,0.15875 0 0,1 -0.2246477,0.1026689 L-0.5414888,0.1026689 A0.15875,0.15875 90 0,1 -0.7002388,-0.0560811 L-0.7002388,-0.3329177 A0.15875,0.15875 180 0,1 -0.5414888,-0.4916677z" transform="matrix(1,0,0,-1,7.7074938,3.1531581)" fill="rgb(255,255,255)" stroke="rgb(0,0,0)" stroke-width="0.0010cm" stroke-linecap="round" stroke-linejoin="round" shaper:cutDepth="0.003175" /><path d="M-1.0772333,-1.9782928 L-1.3132861,-2.3615384 A0.15875,0.15875 148.3697912 0,1 -1.1781184,-2.6035424 L-0.6498776,-2.6035424 A0.15875,0.15875 270 0,1 -0.4911276,-2.4447924 L-0.4911276,-2.0615469 A0.15875,0.15875 0 0,1 -0.6498776,-1.9027969 L-0.9420655,-1.9027969 A0.15875,0.15875 90 0,1 -1.0772333,-1.9782928z" transform="matrix(1,0,0,-1,7.7074938,3.1531581)" fill="rgb(255,255,255)" stroke="rgb(0,0,0)" stroke-width="0.0010cm" stroke-linecap="round" stroke-linejoin="round" shaper:cutDepth="0.003175" /><path d="M-2.4504075,-0.4080395 L-2.4504075,-1.7011701 A0.15875,0.15875 180 0,1 -2.3643627,-1.8422924 L-1.7137282,-2.1774945 A0.15875,0.15875 242.7428113 0,1 -1.5312128,-2.1510163 L-1.2270582,-1.8596863 A0.15875,0.15875 313.766239 0,1 -1.1781184,-1.7450421 L-1.1781184,-0.6433554 A0.15875,0.15875 0 0,1 -1.2766923,-0.4964527 L-1.8511492,-0.2611368 A0.15875,0.15875 67.7244307 0,1 -1.9113252,-0.2492895 L-2.2916575,-0.2492895 A0.15875,0.15875 90 0,1 -2.4504075,-0.4080395z" transform="matrix(1,0,0,-1,7.7074938,3.1531581)" fill="rgb(255,255,255)" stroke="rgb(0,0,0)" stroke-width="0.0010cm" stroke-linecap="round" stroke-linejoin="round" shaper:cutDepth="0.003175" /><path d="M-1.9958264,1.9332412 L-2.4401514,1.9332412 A0.15875,0.15875 90 0,1 -2.5989014,1.7744912 L-2.5989014,1.4340729 A0.15875,0.15875 180 0,1 -2.4401514,1.2753229 L-1.9958264,1.2753229 A0.15875,0.15875 270 0,1 -1.8370764,1.4340729 L-1.8370764,1.7744912 A0.15875,0.15875 0 0,1 -1.9958264,1.9332412z" transform="matrix(1,0,0,-1,7.7074938,3.1531581)" fill="rgb(255,255,255)" stroke="rgb(0,0,0)" stroke-width="0.0010cm" stroke-linecap="round" stroke-linejoin="round" shaper:cutDepth="0.003175" /><path d="M0.0782412,2.1771581 a0.215265,0.215265 0 1,1 0.43053,0 a0.215265,0.215265 0 1,1 -0.43053,0z" transform="matrix(1,0,0,-1,7.7074938,3.1531581)" fill="rgb(255,255,255)" stroke="rgb(0,0,0)" stroke-width="0.0010cm" stroke-linecap="round" stroke-linejoin="round" shaper:cutDepth="0.003175" /><path d="M4.5232412,2.1771581 a0.215265,0.215265 0 1,1 0.43053,0 a0.215265,0.215265 0 1,1 -0.43053,0z" transform="matrix(1,0,0,-1,7.7074938,3.1531581)" fill="rgb(255,255,255)" stroke="rgb(0,0,0)" stroke-width="0.0010cm" stroke-linecap="round" stroke-linejoin="round" shaper:cutDepth="0.003175" /><path d="M0.9000062,1.5021581 a0.6,0.6 0 1,1 1.2,0 a0.6,0.6 0 1,1 -1.2,0z" transform="matrix(1,0,0,-1,7.7074938,3.1531581)" fill="rgb(255,255,255)" stroke="rgb(0,0,0)" stroke-width="0.0010cm" stroke-linecap="round" stroke-linejoin="round" shaper:cutDepth="0.003175" /><path d="M-3.7585939,-0.0218419 a0.1786001,0.1786001 0 1,1 0.3572002,0 a0.1786001,0.1786001 0 1,1 -0.3572002,0z" transform="matrix(1,0,0,-1,7.7074938,3.1531581)" fill="rgb(255,255,255)" stroke="rgb(0,0,0)" stroke-width="0.0010cm" stroke-linecap="round" stroke-linejoin="round" shaper:cutDepth="0.003175" /><path d="M0.3689061,-1.1902419 a0.1786001,0.1786001 0 1,1 0.3572002,0 a0.1786001,0.1786001 0 1,1 -0.3572002,0z" transform="matrix(1,0,0,-1,7.7074938,3.1531581)" fill="rgb(255,255,255)" stroke="rgb(0,0,0)" stroke-width="0.0010cm" stroke-linecap="round" stroke-linejoin="round" shaper:cutDepth="0.003175" /><path d="M-1.0399938,-1.1902419 a0.635,0.635 0 1,1 1.27,0 a0.635,0.635 0 1,1 -1.27,0z" transform="matrix(1,0,0,-1,7.7074938,3.1531581)" fill="rgb(255,255,255)" stroke="rgb(0,0,0)" stroke-width="0.0010cm" stroke-linecap="round" stroke-linejoin="round" shaper:cutDepth="0.003175" /><path d="M-5.1674938,-0.0218419 a0.635,0.635 0 1,1 1.27,0 a0.635,0.635 0 1,1 -1.27,0z" transform="matrix(1,0,0,-1,7.7074938,3.1531581)" fill="rgb(255,255,255)" stroke="rgb(0,0,0)" stroke-width="0.0010cm" stroke-linecap="round" stroke-linejoin="round" shaper:cutDepth="0.003175" /><path d="M-2.3665088,2.3276581 a0.215265,0.215265 0 1,1 0.43053,0 a0.215265,0.215265 0 1,1 -0.43053,0z" transform="matrix(1,0,0,-1,7.7074938,3.1531581)" fill="rgb(255,255,255)" stroke="rgb(0,0,0)" stroke-width="0.0010cm" stroke-linecap="round" stroke-linejoin="round" shaper:cutDepth="0.003175" /><path d="M-2.3665088,-2.3713419 a0.215265,0.215265 0 1,1 0.43053,0 a0.215265,0.215265 0 1,1 -0.43053,0z" transform="matrix(1,0,0,-1,7.7074938,3.1531581)" fill="rgb(255,255,255)" stroke="rgb(0,0,0)" stroke-width="0.0010cm" stroke-linecap="round" stroke-linejoin="round" shaper:cutDepth="0.003175" /><path d="M5.9964412,1.4386581 a0.215265,0.215265 0 1,1 0.43053,0 a0.215265,0.215265 0 1,1 -0.43053,0z" transform="matrix(1,0,0,-1,7.7074938,3.1531581)" fill="rgb(255,255,255)" stroke="rgb(0,0,0)" stroke-width="0.0010cm" stroke-linecap="round" stroke-linejoin="round" shaper:cutDepth="0.003175" /><path d="M5.8884912,2.6642081 a0.215265,0.215265 0 1,1 0.43053,0 a0.215265,0.215265 0 1,1 -0.43053,0z" transform="matrix(1,0,0,-1,7.7074938,3.1531581)" fill="rgb(255,255,255)" stroke="rgb(0,0,0)" stroke-width="0.0010cm" stroke-linecap="round" stroke-linejoin="round" shaper:cutDepth="0.003175" /><path d="M5.8884912,-2.7078919 a0.215265,0.215265 0 1,1 0.43053,0 a0.215265,0.215265 0 1,1 -0.43053,0z" transform="matrix(1,0,0,-1,7.7074938,3.1531581)" fill="rgb(255,255,255)" stroke="rgb(0,0,0)" stroke-width="0.0010cm" stroke-linecap="round" stroke-linejoin="round" shaper:cutDepth="0.003175" /><path d="M-5.5415088,-2.7078919 a0.215265,0.215265 0 1,1 0.43053,0 a0.215265,0.215265 0 1,1 -0.43053,0z" transform="matrix(1,0,0,-1,7.7074938,3.1531581)" fill="rgb(255,255,255)" stroke="rgb(0,0,0)" stroke-width="0.0010cm" stroke-linecap="round" stroke-linejoin="round" shaper:cutDepth="0.003175" /><path d="M-5.5415088,2.6642081 a0.215265,0.215265 0 1,1 0.43053,0 a0.215265,0.215265 0 1,1 -0.43053,0z" transform="matrix(1,0,0,-1,7.7074938,3.1531581)" fill="rgb(255,255,255)" stroke="rgb(0,0,0)" stroke-width="0.0010cm" stroke-linecap="round" stroke-linejoin="round" shaper:cutDepth="0.003175" /></svg>