M48
; DRILL file {KiCad (6.0.9)} date Sat Jan 21 18:50:51 2023
; FORMAT={-:-/ absolute / inch / decimal}
; #@! TF.CreationDate,2023-01-21T18:50:51-09:00
; #@! TF.GenerationSoftware,Kicad,Pcbnew,(6.0.9)
; #@! TF.FileFunction,Plated,1,4,PTH
FMAT,2
INCH
; #@! TA.AperFunction,Plated,PTH,ViaDrill
T1C0.0157
; #@! TA.AperFunction,Plated,PTH,ComponentDrill
T2C0.0295
; #@! TA.AperFunction,Plated,PTH,ComponentDrill
T3C0.0315
; #@! TA.AperFunction,Plated,PTH,ComponentDrill
T4C0.0394
%
G90
G05
T1
X0.865Y-0.1843
X0.99Y-1.2543
X1.05Y-0.8493
X1.1276Y-0.9319
T2
X0.315Y-0.1575
X0.3937Y-0.1575
X0.4724Y-0.1575
X0.5512Y-0.1575
X0.6299Y-0.1575
X0.7087Y-0.1575
X1.378Y-0.0787
X1.378Y-0.1575
X1.378Y-0.2362
X1.378Y-0.315
X1.378Y-0.3937
X1.3789Y-0.6169
X1.3789Y-0.6957
X1.3789Y-0.7744
X1.3789Y-0.8531
X1.3789Y-0.9319
X1.3789Y-1.0106
X1.3789Y-1.2469
X1.3789Y-1.3256
X1.3789Y-1.4043
X1.3789Y-1.4831
X1.3789Y-1.5618
X1.3789Y-1.6406
T3
X0.0789Y-1.0806
X0.0789Y-1.6806
X0.1789Y-1.0806
X0.1789Y-1.6806
X0.2789Y-1.0806
X0.2789Y-1.6806
X0.3789Y-1.0806
X0.3789Y-1.6806
X0.4789Y-1.0806
X0.4789Y-1.6806
X0.5789Y-1.0806
X0.5789Y-1.6806
X0.6789Y-1.0806
X0.6789Y-1.6806
X0.7789Y-1.0806
X0.7789Y-1.6806
X0.8789Y-1.0806
X0.8789Y-1.6806
X0.9789Y-1.0806
X0.9789Y-1.6806
X1.0789Y-1.0806
X1.0789Y-1.6806
X1.1789Y-1.0806
X1.1789Y-1.6806
T4
X0.1378Y-0.3921
X0.1378Y-0.4921
X0.2378Y-0.3921
X0.2378Y-0.4921
X0.3378Y-0.3921
X0.3378Y-0.4921
X0.4378Y-0.3921
X0.4378Y-0.4921
X0.5378Y-0.3921
X0.5378Y-0.4921
X0.6378Y-0.3921
X0.6378Y-0.4921
X0.7378Y-0.3921
X0.7378Y-0.4921
T0
M30
