G04 #@! TF.GenerationSoftware,KiCad,Pcbnew,(5.1.4)-1*
G04 #@! TF.CreationDate,2020-11-11T12:39:36-07:00*
G04 #@! TF.ProjectId,ABSIS_Solenoid_Driver_Accessory,41425349-535f-4536-9f6c-656e6f69645f,1*
G04 #@! TF.SameCoordinates,Original*
G04 #@! TF.FileFunction,Copper,L1,Top*
G04 #@! TF.FilePolarity,Positive*
%FSLAX46Y46*%
G04 Gerber Fmt 4.6, Leading zero omitted, Abs format (unit mm)*
G04 Created by KiCad (PCBNEW (5.1.4)-1) date 2020-11-11 12:39:36*
%MOMM*%
%LPD*%
G04 APERTURE LIST*
%ADD10R,1.200000X0.900000*%
%ADD11R,1.700000X1.700000*%
%ADD12O,1.700000X1.700000*%
%ADD13O,2.000000X1.905000*%
%ADD14R,2.000000X1.905000*%
%ADD15C,0.100000*%
%ADD16C,1.425000*%
%ADD17C,0.600000*%
%ADD18C,1.500000*%
%ADD19C,1.625600*%
%ADD20C,0.914400*%
%ADD21C,0.304800*%
%ADD22C,0.254000*%
G04 APERTURE END LIST*
D10*
X152400000Y-61340000D03*
X152400000Y-58040000D03*
X152400000Y-74040000D03*
X152400000Y-70740000D03*
X152400000Y-86740000D03*
X152400000Y-83440000D03*
X152400000Y-96140000D03*
X152400000Y-99440000D03*
X152400000Y-108840000D03*
X152400000Y-112140000D03*
X152400000Y-121540000D03*
X152400000Y-124840000D03*
D11*
X156210000Y-52070000D03*
D12*
X158750000Y-52070000D03*
D11*
X133350000Y-81280000D03*
D12*
X133350000Y-83820000D03*
X133350000Y-86360000D03*
X133350000Y-88900000D03*
X133350000Y-91440000D03*
X133350000Y-93980000D03*
X133350000Y-96520000D03*
X161290000Y-69850000D03*
D11*
X158750000Y-69850000D03*
X158750000Y-77470000D03*
D12*
X161290000Y-77470000D03*
X161290000Y-85090000D03*
D11*
X158750000Y-85090000D03*
X158750000Y-92710000D03*
D12*
X161290000Y-92710000D03*
X161290000Y-100330000D03*
D11*
X158750000Y-100330000D03*
X158750000Y-107950000D03*
D12*
X161290000Y-107950000D03*
D13*
X146050000Y-62230000D03*
X146050000Y-59690000D03*
D14*
X146050000Y-57150000D03*
D13*
X146050000Y-74930000D03*
X146050000Y-72390000D03*
D14*
X146050000Y-69850000D03*
X146050000Y-82550000D03*
D13*
X146050000Y-85090000D03*
X146050000Y-87630000D03*
X146050000Y-100330000D03*
X146050000Y-97790000D03*
D14*
X146050000Y-95250000D03*
X146050000Y-107950000D03*
D13*
X146050000Y-110490000D03*
X146050000Y-113030000D03*
D14*
X146050000Y-120650000D03*
D13*
X146050000Y-123190000D03*
X146050000Y-125730000D03*
D15*
G36*
X142889504Y-57491204D02*
G01*
X142913773Y-57494804D01*
X142937571Y-57500765D01*
X142960671Y-57509030D01*
X142982849Y-57519520D01*
X143003893Y-57532133D01*
X143023598Y-57546747D01*
X143041777Y-57563223D01*
X143058253Y-57581402D01*
X143072867Y-57601107D01*
X143085480Y-57622151D01*
X143095970Y-57644329D01*
X143104235Y-57667429D01*
X143110196Y-57691227D01*
X143113796Y-57715496D01*
X143115000Y-57740000D01*
X143115000Y-58665000D01*
X143113796Y-58689504D01*
X143110196Y-58713773D01*
X143104235Y-58737571D01*
X143095970Y-58760671D01*
X143085480Y-58782849D01*
X143072867Y-58803893D01*
X143058253Y-58823598D01*
X143041777Y-58841777D01*
X143023598Y-58858253D01*
X143003893Y-58872867D01*
X142982849Y-58885480D01*
X142960671Y-58895970D01*
X142937571Y-58904235D01*
X142913773Y-58910196D01*
X142889504Y-58913796D01*
X142865000Y-58915000D01*
X141615000Y-58915000D01*
X141590496Y-58913796D01*
X141566227Y-58910196D01*
X141542429Y-58904235D01*
X141519329Y-58895970D01*
X141497151Y-58885480D01*
X141476107Y-58872867D01*
X141456402Y-58858253D01*
X141438223Y-58841777D01*
X141421747Y-58823598D01*
X141407133Y-58803893D01*
X141394520Y-58782849D01*
X141384030Y-58760671D01*
X141375765Y-58737571D01*
X141369804Y-58713773D01*
X141366204Y-58689504D01*
X141365000Y-58665000D01*
X141365000Y-57740000D01*
X141366204Y-57715496D01*
X141369804Y-57691227D01*
X141375765Y-57667429D01*
X141384030Y-57644329D01*
X141394520Y-57622151D01*
X141407133Y-57601107D01*
X141421747Y-57581402D01*
X141438223Y-57563223D01*
X141456402Y-57546747D01*
X141476107Y-57532133D01*
X141497151Y-57519520D01*
X141519329Y-57509030D01*
X141542429Y-57500765D01*
X141566227Y-57494804D01*
X141590496Y-57491204D01*
X141615000Y-57490000D01*
X142865000Y-57490000D01*
X142889504Y-57491204D01*
X142889504Y-57491204D01*
G37*
D16*
X142240000Y-58202500D03*
D15*
G36*
X142889504Y-60466204D02*
G01*
X142913773Y-60469804D01*
X142937571Y-60475765D01*
X142960671Y-60484030D01*
X142982849Y-60494520D01*
X143003893Y-60507133D01*
X143023598Y-60521747D01*
X143041777Y-60538223D01*
X143058253Y-60556402D01*
X143072867Y-60576107D01*
X143085480Y-60597151D01*
X143095970Y-60619329D01*
X143104235Y-60642429D01*
X143110196Y-60666227D01*
X143113796Y-60690496D01*
X143115000Y-60715000D01*
X143115000Y-61640000D01*
X143113796Y-61664504D01*
X143110196Y-61688773D01*
X143104235Y-61712571D01*
X143095970Y-61735671D01*
X143085480Y-61757849D01*
X143072867Y-61778893D01*
X143058253Y-61798598D01*
X143041777Y-61816777D01*
X143023598Y-61833253D01*
X143003893Y-61847867D01*
X142982849Y-61860480D01*
X142960671Y-61870970D01*
X142937571Y-61879235D01*
X142913773Y-61885196D01*
X142889504Y-61888796D01*
X142865000Y-61890000D01*
X141615000Y-61890000D01*
X141590496Y-61888796D01*
X141566227Y-61885196D01*
X141542429Y-61879235D01*
X141519329Y-61870970D01*
X141497151Y-61860480D01*
X141476107Y-61847867D01*
X141456402Y-61833253D01*
X141438223Y-61816777D01*
X141421747Y-61798598D01*
X141407133Y-61778893D01*
X141394520Y-61757849D01*
X141384030Y-61735671D01*
X141375765Y-61712571D01*
X141369804Y-61688773D01*
X141366204Y-61664504D01*
X141365000Y-61640000D01*
X141365000Y-60715000D01*
X141366204Y-60690496D01*
X141369804Y-60666227D01*
X141375765Y-60642429D01*
X141384030Y-60619329D01*
X141394520Y-60597151D01*
X141407133Y-60576107D01*
X141421747Y-60556402D01*
X141438223Y-60538223D01*
X141456402Y-60521747D01*
X141476107Y-60507133D01*
X141497151Y-60494520D01*
X141519329Y-60484030D01*
X141542429Y-60475765D01*
X141566227Y-60469804D01*
X141590496Y-60466204D01*
X141615000Y-60465000D01*
X142865000Y-60465000D01*
X142889504Y-60466204D01*
X142889504Y-60466204D01*
G37*
D16*
X142240000Y-61177500D03*
D15*
G36*
X142889504Y-73166204D02*
G01*
X142913773Y-73169804D01*
X142937571Y-73175765D01*
X142960671Y-73184030D01*
X142982849Y-73194520D01*
X143003893Y-73207133D01*
X143023598Y-73221747D01*
X143041777Y-73238223D01*
X143058253Y-73256402D01*
X143072867Y-73276107D01*
X143085480Y-73297151D01*
X143095970Y-73319329D01*
X143104235Y-73342429D01*
X143110196Y-73366227D01*
X143113796Y-73390496D01*
X143115000Y-73415000D01*
X143115000Y-74340000D01*
X143113796Y-74364504D01*
X143110196Y-74388773D01*
X143104235Y-74412571D01*
X143095970Y-74435671D01*
X143085480Y-74457849D01*
X143072867Y-74478893D01*
X143058253Y-74498598D01*
X143041777Y-74516777D01*
X143023598Y-74533253D01*
X143003893Y-74547867D01*
X142982849Y-74560480D01*
X142960671Y-74570970D01*
X142937571Y-74579235D01*
X142913773Y-74585196D01*
X142889504Y-74588796D01*
X142865000Y-74590000D01*
X141615000Y-74590000D01*
X141590496Y-74588796D01*
X141566227Y-74585196D01*
X141542429Y-74579235D01*
X141519329Y-74570970D01*
X141497151Y-74560480D01*
X141476107Y-74547867D01*
X141456402Y-74533253D01*
X141438223Y-74516777D01*
X141421747Y-74498598D01*
X141407133Y-74478893D01*
X141394520Y-74457849D01*
X141384030Y-74435671D01*
X141375765Y-74412571D01*
X141369804Y-74388773D01*
X141366204Y-74364504D01*
X141365000Y-74340000D01*
X141365000Y-73415000D01*
X141366204Y-73390496D01*
X141369804Y-73366227D01*
X141375765Y-73342429D01*
X141384030Y-73319329D01*
X141394520Y-73297151D01*
X141407133Y-73276107D01*
X141421747Y-73256402D01*
X141438223Y-73238223D01*
X141456402Y-73221747D01*
X141476107Y-73207133D01*
X141497151Y-73194520D01*
X141519329Y-73184030D01*
X141542429Y-73175765D01*
X141566227Y-73169804D01*
X141590496Y-73166204D01*
X141615000Y-73165000D01*
X142865000Y-73165000D01*
X142889504Y-73166204D01*
X142889504Y-73166204D01*
G37*
D16*
X142240000Y-73877500D03*
D15*
G36*
X142889504Y-70191204D02*
G01*
X142913773Y-70194804D01*
X142937571Y-70200765D01*
X142960671Y-70209030D01*
X142982849Y-70219520D01*
X143003893Y-70232133D01*
X143023598Y-70246747D01*
X143041777Y-70263223D01*
X143058253Y-70281402D01*
X143072867Y-70301107D01*
X143085480Y-70322151D01*
X143095970Y-70344329D01*
X143104235Y-70367429D01*
X143110196Y-70391227D01*
X143113796Y-70415496D01*
X143115000Y-70440000D01*
X143115000Y-71365000D01*
X143113796Y-71389504D01*
X143110196Y-71413773D01*
X143104235Y-71437571D01*
X143095970Y-71460671D01*
X143085480Y-71482849D01*
X143072867Y-71503893D01*
X143058253Y-71523598D01*
X143041777Y-71541777D01*
X143023598Y-71558253D01*
X143003893Y-71572867D01*
X142982849Y-71585480D01*
X142960671Y-71595970D01*
X142937571Y-71604235D01*
X142913773Y-71610196D01*
X142889504Y-71613796D01*
X142865000Y-71615000D01*
X141615000Y-71615000D01*
X141590496Y-71613796D01*
X141566227Y-71610196D01*
X141542429Y-71604235D01*
X141519329Y-71595970D01*
X141497151Y-71585480D01*
X141476107Y-71572867D01*
X141456402Y-71558253D01*
X141438223Y-71541777D01*
X141421747Y-71523598D01*
X141407133Y-71503893D01*
X141394520Y-71482849D01*
X141384030Y-71460671D01*
X141375765Y-71437571D01*
X141369804Y-71413773D01*
X141366204Y-71389504D01*
X141365000Y-71365000D01*
X141365000Y-70440000D01*
X141366204Y-70415496D01*
X141369804Y-70391227D01*
X141375765Y-70367429D01*
X141384030Y-70344329D01*
X141394520Y-70322151D01*
X141407133Y-70301107D01*
X141421747Y-70281402D01*
X141438223Y-70263223D01*
X141456402Y-70246747D01*
X141476107Y-70232133D01*
X141497151Y-70219520D01*
X141519329Y-70209030D01*
X141542429Y-70200765D01*
X141566227Y-70194804D01*
X141590496Y-70191204D01*
X141615000Y-70190000D01*
X142865000Y-70190000D01*
X142889504Y-70191204D01*
X142889504Y-70191204D01*
G37*
D16*
X142240000Y-70902500D03*
D15*
G36*
X142889504Y-83108704D02*
G01*
X142913773Y-83112304D01*
X142937571Y-83118265D01*
X142960671Y-83126530D01*
X142982849Y-83137020D01*
X143003893Y-83149633D01*
X143023598Y-83164247D01*
X143041777Y-83180723D01*
X143058253Y-83198902D01*
X143072867Y-83218607D01*
X143085480Y-83239651D01*
X143095970Y-83261829D01*
X143104235Y-83284929D01*
X143110196Y-83308727D01*
X143113796Y-83332996D01*
X143115000Y-83357500D01*
X143115000Y-84282500D01*
X143113796Y-84307004D01*
X143110196Y-84331273D01*
X143104235Y-84355071D01*
X143095970Y-84378171D01*
X143085480Y-84400349D01*
X143072867Y-84421393D01*
X143058253Y-84441098D01*
X143041777Y-84459277D01*
X143023598Y-84475753D01*
X143003893Y-84490367D01*
X142982849Y-84502980D01*
X142960671Y-84513470D01*
X142937571Y-84521735D01*
X142913773Y-84527696D01*
X142889504Y-84531296D01*
X142865000Y-84532500D01*
X141615000Y-84532500D01*
X141590496Y-84531296D01*
X141566227Y-84527696D01*
X141542429Y-84521735D01*
X141519329Y-84513470D01*
X141497151Y-84502980D01*
X141476107Y-84490367D01*
X141456402Y-84475753D01*
X141438223Y-84459277D01*
X141421747Y-84441098D01*
X141407133Y-84421393D01*
X141394520Y-84400349D01*
X141384030Y-84378171D01*
X141375765Y-84355071D01*
X141369804Y-84331273D01*
X141366204Y-84307004D01*
X141365000Y-84282500D01*
X141365000Y-83357500D01*
X141366204Y-83332996D01*
X141369804Y-83308727D01*
X141375765Y-83284929D01*
X141384030Y-83261829D01*
X141394520Y-83239651D01*
X141407133Y-83218607D01*
X141421747Y-83198902D01*
X141438223Y-83180723D01*
X141456402Y-83164247D01*
X141476107Y-83149633D01*
X141497151Y-83137020D01*
X141519329Y-83126530D01*
X141542429Y-83118265D01*
X141566227Y-83112304D01*
X141590496Y-83108704D01*
X141615000Y-83107500D01*
X142865000Y-83107500D01*
X142889504Y-83108704D01*
X142889504Y-83108704D01*
G37*
D16*
X142240000Y-83820000D03*
D15*
G36*
X142889504Y-86083704D02*
G01*
X142913773Y-86087304D01*
X142937571Y-86093265D01*
X142960671Y-86101530D01*
X142982849Y-86112020D01*
X143003893Y-86124633D01*
X143023598Y-86139247D01*
X143041777Y-86155723D01*
X143058253Y-86173902D01*
X143072867Y-86193607D01*
X143085480Y-86214651D01*
X143095970Y-86236829D01*
X143104235Y-86259929D01*
X143110196Y-86283727D01*
X143113796Y-86307996D01*
X143115000Y-86332500D01*
X143115000Y-87257500D01*
X143113796Y-87282004D01*
X143110196Y-87306273D01*
X143104235Y-87330071D01*
X143095970Y-87353171D01*
X143085480Y-87375349D01*
X143072867Y-87396393D01*
X143058253Y-87416098D01*
X143041777Y-87434277D01*
X143023598Y-87450753D01*
X143003893Y-87465367D01*
X142982849Y-87477980D01*
X142960671Y-87488470D01*
X142937571Y-87496735D01*
X142913773Y-87502696D01*
X142889504Y-87506296D01*
X142865000Y-87507500D01*
X141615000Y-87507500D01*
X141590496Y-87506296D01*
X141566227Y-87502696D01*
X141542429Y-87496735D01*
X141519329Y-87488470D01*
X141497151Y-87477980D01*
X141476107Y-87465367D01*
X141456402Y-87450753D01*
X141438223Y-87434277D01*
X141421747Y-87416098D01*
X141407133Y-87396393D01*
X141394520Y-87375349D01*
X141384030Y-87353171D01*
X141375765Y-87330071D01*
X141369804Y-87306273D01*
X141366204Y-87282004D01*
X141365000Y-87257500D01*
X141365000Y-86332500D01*
X141366204Y-86307996D01*
X141369804Y-86283727D01*
X141375765Y-86259929D01*
X141384030Y-86236829D01*
X141394520Y-86214651D01*
X141407133Y-86193607D01*
X141421747Y-86173902D01*
X141438223Y-86155723D01*
X141456402Y-86139247D01*
X141476107Y-86124633D01*
X141497151Y-86112020D01*
X141519329Y-86101530D01*
X141542429Y-86093265D01*
X141566227Y-86087304D01*
X141590496Y-86083704D01*
X141615000Y-86082500D01*
X142865000Y-86082500D01*
X142889504Y-86083704D01*
X142889504Y-86083704D01*
G37*
D16*
X142240000Y-86795000D03*
D15*
G36*
X142889504Y-98566204D02*
G01*
X142913773Y-98569804D01*
X142937571Y-98575765D01*
X142960671Y-98584030D01*
X142982849Y-98594520D01*
X143003893Y-98607133D01*
X143023598Y-98621747D01*
X143041777Y-98638223D01*
X143058253Y-98656402D01*
X143072867Y-98676107D01*
X143085480Y-98697151D01*
X143095970Y-98719329D01*
X143104235Y-98742429D01*
X143110196Y-98766227D01*
X143113796Y-98790496D01*
X143115000Y-98815000D01*
X143115000Y-99740000D01*
X143113796Y-99764504D01*
X143110196Y-99788773D01*
X143104235Y-99812571D01*
X143095970Y-99835671D01*
X143085480Y-99857849D01*
X143072867Y-99878893D01*
X143058253Y-99898598D01*
X143041777Y-99916777D01*
X143023598Y-99933253D01*
X143003893Y-99947867D01*
X142982849Y-99960480D01*
X142960671Y-99970970D01*
X142937571Y-99979235D01*
X142913773Y-99985196D01*
X142889504Y-99988796D01*
X142865000Y-99990000D01*
X141615000Y-99990000D01*
X141590496Y-99988796D01*
X141566227Y-99985196D01*
X141542429Y-99979235D01*
X141519329Y-99970970D01*
X141497151Y-99960480D01*
X141476107Y-99947867D01*
X141456402Y-99933253D01*
X141438223Y-99916777D01*
X141421747Y-99898598D01*
X141407133Y-99878893D01*
X141394520Y-99857849D01*
X141384030Y-99835671D01*
X141375765Y-99812571D01*
X141369804Y-99788773D01*
X141366204Y-99764504D01*
X141365000Y-99740000D01*
X141365000Y-98815000D01*
X141366204Y-98790496D01*
X141369804Y-98766227D01*
X141375765Y-98742429D01*
X141384030Y-98719329D01*
X141394520Y-98697151D01*
X141407133Y-98676107D01*
X141421747Y-98656402D01*
X141438223Y-98638223D01*
X141456402Y-98621747D01*
X141476107Y-98607133D01*
X141497151Y-98594520D01*
X141519329Y-98584030D01*
X141542429Y-98575765D01*
X141566227Y-98569804D01*
X141590496Y-98566204D01*
X141615000Y-98565000D01*
X142865000Y-98565000D01*
X142889504Y-98566204D01*
X142889504Y-98566204D01*
G37*
D16*
X142240000Y-99277500D03*
D15*
G36*
X142889504Y-95591204D02*
G01*
X142913773Y-95594804D01*
X142937571Y-95600765D01*
X142960671Y-95609030D01*
X142982849Y-95619520D01*
X143003893Y-95632133D01*
X143023598Y-95646747D01*
X143041777Y-95663223D01*
X143058253Y-95681402D01*
X143072867Y-95701107D01*
X143085480Y-95722151D01*
X143095970Y-95744329D01*
X143104235Y-95767429D01*
X143110196Y-95791227D01*
X143113796Y-95815496D01*
X143115000Y-95840000D01*
X143115000Y-96765000D01*
X143113796Y-96789504D01*
X143110196Y-96813773D01*
X143104235Y-96837571D01*
X143095970Y-96860671D01*
X143085480Y-96882849D01*
X143072867Y-96903893D01*
X143058253Y-96923598D01*
X143041777Y-96941777D01*
X143023598Y-96958253D01*
X143003893Y-96972867D01*
X142982849Y-96985480D01*
X142960671Y-96995970D01*
X142937571Y-97004235D01*
X142913773Y-97010196D01*
X142889504Y-97013796D01*
X142865000Y-97015000D01*
X141615000Y-97015000D01*
X141590496Y-97013796D01*
X141566227Y-97010196D01*
X141542429Y-97004235D01*
X141519329Y-96995970D01*
X141497151Y-96985480D01*
X141476107Y-96972867D01*
X141456402Y-96958253D01*
X141438223Y-96941777D01*
X141421747Y-96923598D01*
X141407133Y-96903893D01*
X141394520Y-96882849D01*
X141384030Y-96860671D01*
X141375765Y-96837571D01*
X141369804Y-96813773D01*
X141366204Y-96789504D01*
X141365000Y-96765000D01*
X141365000Y-95840000D01*
X141366204Y-95815496D01*
X141369804Y-95791227D01*
X141375765Y-95767429D01*
X141384030Y-95744329D01*
X141394520Y-95722151D01*
X141407133Y-95701107D01*
X141421747Y-95681402D01*
X141438223Y-95663223D01*
X141456402Y-95646747D01*
X141476107Y-95632133D01*
X141497151Y-95619520D01*
X141519329Y-95609030D01*
X141542429Y-95600765D01*
X141566227Y-95594804D01*
X141590496Y-95591204D01*
X141615000Y-95590000D01*
X142865000Y-95590000D01*
X142889504Y-95591204D01*
X142889504Y-95591204D01*
G37*
D16*
X142240000Y-96302500D03*
D15*
G36*
X142889504Y-108291204D02*
G01*
X142913773Y-108294804D01*
X142937571Y-108300765D01*
X142960671Y-108309030D01*
X142982849Y-108319520D01*
X143003893Y-108332133D01*
X143023598Y-108346747D01*
X143041777Y-108363223D01*
X143058253Y-108381402D01*
X143072867Y-108401107D01*
X143085480Y-108422151D01*
X143095970Y-108444329D01*
X143104235Y-108467429D01*
X143110196Y-108491227D01*
X143113796Y-108515496D01*
X143115000Y-108540000D01*
X143115000Y-109465000D01*
X143113796Y-109489504D01*
X143110196Y-109513773D01*
X143104235Y-109537571D01*
X143095970Y-109560671D01*
X143085480Y-109582849D01*
X143072867Y-109603893D01*
X143058253Y-109623598D01*
X143041777Y-109641777D01*
X143023598Y-109658253D01*
X143003893Y-109672867D01*
X142982849Y-109685480D01*
X142960671Y-109695970D01*
X142937571Y-109704235D01*
X142913773Y-109710196D01*
X142889504Y-109713796D01*
X142865000Y-109715000D01*
X141615000Y-109715000D01*
X141590496Y-109713796D01*
X141566227Y-109710196D01*
X141542429Y-109704235D01*
X141519329Y-109695970D01*
X141497151Y-109685480D01*
X141476107Y-109672867D01*
X141456402Y-109658253D01*
X141438223Y-109641777D01*
X141421747Y-109623598D01*
X141407133Y-109603893D01*
X141394520Y-109582849D01*
X141384030Y-109560671D01*
X141375765Y-109537571D01*
X141369804Y-109513773D01*
X141366204Y-109489504D01*
X141365000Y-109465000D01*
X141365000Y-108540000D01*
X141366204Y-108515496D01*
X141369804Y-108491227D01*
X141375765Y-108467429D01*
X141384030Y-108444329D01*
X141394520Y-108422151D01*
X141407133Y-108401107D01*
X141421747Y-108381402D01*
X141438223Y-108363223D01*
X141456402Y-108346747D01*
X141476107Y-108332133D01*
X141497151Y-108319520D01*
X141519329Y-108309030D01*
X141542429Y-108300765D01*
X141566227Y-108294804D01*
X141590496Y-108291204D01*
X141615000Y-108290000D01*
X142865000Y-108290000D01*
X142889504Y-108291204D01*
X142889504Y-108291204D01*
G37*
D16*
X142240000Y-109002500D03*
D15*
G36*
X142889504Y-111266204D02*
G01*
X142913773Y-111269804D01*
X142937571Y-111275765D01*
X142960671Y-111284030D01*
X142982849Y-111294520D01*
X143003893Y-111307133D01*
X143023598Y-111321747D01*
X143041777Y-111338223D01*
X143058253Y-111356402D01*
X143072867Y-111376107D01*
X143085480Y-111397151D01*
X143095970Y-111419329D01*
X143104235Y-111442429D01*
X143110196Y-111466227D01*
X143113796Y-111490496D01*
X143115000Y-111515000D01*
X143115000Y-112440000D01*
X143113796Y-112464504D01*
X143110196Y-112488773D01*
X143104235Y-112512571D01*
X143095970Y-112535671D01*
X143085480Y-112557849D01*
X143072867Y-112578893D01*
X143058253Y-112598598D01*
X143041777Y-112616777D01*
X143023598Y-112633253D01*
X143003893Y-112647867D01*
X142982849Y-112660480D01*
X142960671Y-112670970D01*
X142937571Y-112679235D01*
X142913773Y-112685196D01*
X142889504Y-112688796D01*
X142865000Y-112690000D01*
X141615000Y-112690000D01*
X141590496Y-112688796D01*
X141566227Y-112685196D01*
X141542429Y-112679235D01*
X141519329Y-112670970D01*
X141497151Y-112660480D01*
X141476107Y-112647867D01*
X141456402Y-112633253D01*
X141438223Y-112616777D01*
X141421747Y-112598598D01*
X141407133Y-112578893D01*
X141394520Y-112557849D01*
X141384030Y-112535671D01*
X141375765Y-112512571D01*
X141369804Y-112488773D01*
X141366204Y-112464504D01*
X141365000Y-112440000D01*
X141365000Y-111515000D01*
X141366204Y-111490496D01*
X141369804Y-111466227D01*
X141375765Y-111442429D01*
X141384030Y-111419329D01*
X141394520Y-111397151D01*
X141407133Y-111376107D01*
X141421747Y-111356402D01*
X141438223Y-111338223D01*
X141456402Y-111321747D01*
X141476107Y-111307133D01*
X141497151Y-111294520D01*
X141519329Y-111284030D01*
X141542429Y-111275765D01*
X141566227Y-111269804D01*
X141590496Y-111266204D01*
X141615000Y-111265000D01*
X142865000Y-111265000D01*
X142889504Y-111266204D01*
X142889504Y-111266204D01*
G37*
D16*
X142240000Y-111977500D03*
D15*
G36*
X142889504Y-123966204D02*
G01*
X142913773Y-123969804D01*
X142937571Y-123975765D01*
X142960671Y-123984030D01*
X142982849Y-123994520D01*
X143003893Y-124007133D01*
X143023598Y-124021747D01*
X143041777Y-124038223D01*
X143058253Y-124056402D01*
X143072867Y-124076107D01*
X143085480Y-124097151D01*
X143095970Y-124119329D01*
X143104235Y-124142429D01*
X143110196Y-124166227D01*
X143113796Y-124190496D01*
X143115000Y-124215000D01*
X143115000Y-125140000D01*
X143113796Y-125164504D01*
X143110196Y-125188773D01*
X143104235Y-125212571D01*
X143095970Y-125235671D01*
X143085480Y-125257849D01*
X143072867Y-125278893D01*
X143058253Y-125298598D01*
X143041777Y-125316777D01*
X143023598Y-125333253D01*
X143003893Y-125347867D01*
X142982849Y-125360480D01*
X142960671Y-125370970D01*
X142937571Y-125379235D01*
X142913773Y-125385196D01*
X142889504Y-125388796D01*
X142865000Y-125390000D01*
X141615000Y-125390000D01*
X141590496Y-125388796D01*
X141566227Y-125385196D01*
X141542429Y-125379235D01*
X141519329Y-125370970D01*
X141497151Y-125360480D01*
X141476107Y-125347867D01*
X141456402Y-125333253D01*
X141438223Y-125316777D01*
X141421747Y-125298598D01*
X141407133Y-125278893D01*
X141394520Y-125257849D01*
X141384030Y-125235671D01*
X141375765Y-125212571D01*
X141369804Y-125188773D01*
X141366204Y-125164504D01*
X141365000Y-125140000D01*
X141365000Y-124215000D01*
X141366204Y-124190496D01*
X141369804Y-124166227D01*
X141375765Y-124142429D01*
X141384030Y-124119329D01*
X141394520Y-124097151D01*
X141407133Y-124076107D01*
X141421747Y-124056402D01*
X141438223Y-124038223D01*
X141456402Y-124021747D01*
X141476107Y-124007133D01*
X141497151Y-123994520D01*
X141519329Y-123984030D01*
X141542429Y-123975765D01*
X141566227Y-123969804D01*
X141590496Y-123966204D01*
X141615000Y-123965000D01*
X142865000Y-123965000D01*
X142889504Y-123966204D01*
X142889504Y-123966204D01*
G37*
D16*
X142240000Y-124677500D03*
D15*
G36*
X142889504Y-120991204D02*
G01*
X142913773Y-120994804D01*
X142937571Y-121000765D01*
X142960671Y-121009030D01*
X142982849Y-121019520D01*
X143003893Y-121032133D01*
X143023598Y-121046747D01*
X143041777Y-121063223D01*
X143058253Y-121081402D01*
X143072867Y-121101107D01*
X143085480Y-121122151D01*
X143095970Y-121144329D01*
X143104235Y-121167429D01*
X143110196Y-121191227D01*
X143113796Y-121215496D01*
X143115000Y-121240000D01*
X143115000Y-122165000D01*
X143113796Y-122189504D01*
X143110196Y-122213773D01*
X143104235Y-122237571D01*
X143095970Y-122260671D01*
X143085480Y-122282849D01*
X143072867Y-122303893D01*
X143058253Y-122323598D01*
X143041777Y-122341777D01*
X143023598Y-122358253D01*
X143003893Y-122372867D01*
X142982849Y-122385480D01*
X142960671Y-122395970D01*
X142937571Y-122404235D01*
X142913773Y-122410196D01*
X142889504Y-122413796D01*
X142865000Y-122415000D01*
X141615000Y-122415000D01*
X141590496Y-122413796D01*
X141566227Y-122410196D01*
X141542429Y-122404235D01*
X141519329Y-122395970D01*
X141497151Y-122385480D01*
X141476107Y-122372867D01*
X141456402Y-122358253D01*
X141438223Y-122341777D01*
X141421747Y-122323598D01*
X141407133Y-122303893D01*
X141394520Y-122282849D01*
X141384030Y-122260671D01*
X141375765Y-122237571D01*
X141369804Y-122213773D01*
X141366204Y-122189504D01*
X141365000Y-122165000D01*
X141365000Y-121240000D01*
X141366204Y-121215496D01*
X141369804Y-121191227D01*
X141375765Y-121167429D01*
X141384030Y-121144329D01*
X141394520Y-121122151D01*
X141407133Y-121101107D01*
X141421747Y-121081402D01*
X141438223Y-121063223D01*
X141456402Y-121046747D01*
X141476107Y-121032133D01*
X141497151Y-121019520D01*
X141519329Y-121009030D01*
X141542429Y-121000765D01*
X141566227Y-120994804D01*
X141590496Y-120991204D01*
X141615000Y-120990000D01*
X142865000Y-120990000D01*
X142889504Y-120991204D01*
X142889504Y-120991204D01*
G37*
D16*
X142240000Y-121702500D03*
D17*
X140462000Y-99314000D03*
X140462000Y-62484000D03*
X140462000Y-75184000D03*
X140462000Y-87884000D03*
X140462000Y-123698000D03*
X140462000Y-112522000D03*
D18*
X154686000Y-57912000D03*
X154686000Y-61722000D03*
X154686000Y-59944000D03*
D17*
X140462000Y-58674000D03*
X139446000Y-70866000D03*
X139446000Y-83820000D03*
X141478000Y-94996000D03*
X142240000Y-107696000D03*
X138176000Y-98552000D03*
D19*
X143292500Y-125730000D02*
X142240000Y-124677500D01*
X146050000Y-125730000D02*
X143292500Y-125730000D01*
X143292500Y-113030000D02*
X142240000Y-111977500D01*
X146050000Y-113030000D02*
X143292500Y-113030000D01*
X143292500Y-100330000D02*
X142240000Y-99277500D01*
X146050000Y-100330000D02*
X143292500Y-100330000D01*
X143075000Y-87630000D02*
X142240000Y-86795000D01*
X146050000Y-87630000D02*
X143075000Y-87630000D01*
X143292500Y-74930000D02*
X142240000Y-73877500D01*
X146050000Y-74930000D02*
X143292500Y-74930000D01*
X143292500Y-62230000D02*
X142240000Y-61177500D01*
X146050000Y-62230000D02*
X143292500Y-62230000D01*
D20*
X142203500Y-99314000D02*
X142240000Y-99277500D01*
X140462000Y-99314000D02*
X142203500Y-99314000D01*
X140933500Y-62484000D02*
X142240000Y-61177500D01*
X140462000Y-62484000D02*
X140933500Y-62484000D01*
X141768500Y-73877500D02*
X140462000Y-75184000D01*
X142240000Y-73877500D02*
X141768500Y-73877500D01*
X141551000Y-86795000D02*
X140462000Y-87884000D01*
X142240000Y-86795000D02*
X141551000Y-86795000D01*
X141260500Y-123698000D02*
X142240000Y-124677500D01*
X140462000Y-123698000D02*
X141260500Y-123698000D01*
X141006500Y-111977500D02*
X140462000Y-112522000D01*
X142240000Y-111977500D02*
X141006500Y-111977500D01*
D19*
X152532011Y-63547611D02*
X156189692Y-63547611D01*
X152400000Y-61340000D02*
X152400000Y-63415600D01*
X152400000Y-63415600D02*
X152532011Y-63547611D01*
X161290000Y-68647919D02*
X161290000Y-69850000D01*
X156189692Y-63547611D02*
X161290000Y-68647919D01*
X146050000Y-59690000D02*
X148675600Y-59690000D01*
X150325600Y-61340000D02*
X152400000Y-61340000D01*
X148675600Y-59690000D02*
X150325600Y-61340000D01*
X152528000Y-57912000D02*
X152400000Y-58040000D01*
X154686000Y-57912000D02*
X152528000Y-57912000D01*
X154686000Y-57912000D02*
X154686000Y-59944000D01*
X154686000Y-61722000D02*
X154686000Y-61722000D01*
X154686000Y-59944000D02*
X154686000Y-61722000D01*
X155320000Y-96140000D02*
X158750000Y-92710000D01*
X152400000Y-96140000D02*
X155320000Y-96140000D01*
X152400000Y-106680000D02*
X158750000Y-100330000D01*
X152400000Y-108840000D02*
X152400000Y-106680000D01*
X158750000Y-113114400D02*
X158750000Y-110425600D01*
X152400000Y-119464400D02*
X158750000Y-113114400D01*
X152400000Y-121540000D02*
X152400000Y-119464400D01*
X158750000Y-110425600D02*
X158750000Y-107950000D01*
X157100000Y-83440000D02*
X158750000Y-85090000D01*
X152400000Y-83440000D02*
X157100000Y-83440000D01*
X152400000Y-121540000D02*
X150496000Y-121540000D01*
X150496000Y-121540000D02*
X150368000Y-121412000D01*
X150368000Y-121412000D02*
X150368000Y-121412000D01*
X152400000Y-70740000D02*
X154625600Y-70740000D01*
X158750000Y-74864400D02*
X158750000Y-77470000D01*
X154625600Y-70740000D02*
X158750000Y-74864400D01*
X152400000Y-58040000D02*
X150496000Y-58040000D01*
X152400000Y-70740000D02*
X150114000Y-70740000D01*
X152400000Y-83440000D02*
X150368000Y-83440000D01*
X152400000Y-108840000D02*
X150114000Y-108840000D01*
X152400000Y-96140000D02*
X150368000Y-96140000D01*
X146050000Y-72390000D02*
X148675600Y-72390000D01*
X150325600Y-74040000D02*
X152400000Y-74040000D01*
X148675600Y-72390000D02*
X150325600Y-74040000D01*
X161290000Y-78672081D02*
X161290000Y-77470000D01*
X160629280Y-79332801D02*
X161290000Y-78672081D01*
X155617201Y-79332801D02*
X160629280Y-79332801D01*
X152400000Y-76115600D02*
X155617201Y-79332801D01*
X152400000Y-74040000D02*
X152400000Y-76115600D01*
X161290000Y-86292081D02*
X161290000Y-85090000D01*
X160629280Y-86952801D02*
X161290000Y-86292081D01*
X154838401Y-86952801D02*
X160629280Y-86952801D01*
X154625600Y-86740000D02*
X154838401Y-86952801D01*
X152400000Y-86740000D02*
X154625600Y-86740000D01*
X146050000Y-85090000D02*
X149436197Y-85090000D01*
X151086197Y-86740000D02*
X152400000Y-86740000D01*
X149436197Y-85090000D02*
X151086197Y-86740000D01*
X161290000Y-93912081D02*
X161290000Y-92710000D01*
X155762081Y-99440000D02*
X161290000Y-93912081D01*
X152400000Y-99440000D02*
X155762081Y-99440000D01*
X146050000Y-97790000D02*
X148675600Y-97790000D01*
X150325600Y-99440000D02*
X152400000Y-99440000D01*
X148675600Y-97790000D02*
X150325600Y-99440000D01*
X161290000Y-101532081D02*
X161290000Y-100330000D01*
X154625600Y-108196481D02*
X161290000Y-101532081D01*
X154625600Y-110064400D02*
X154625600Y-108196481D01*
X152550000Y-112140000D02*
X154625600Y-110064400D01*
X152400000Y-112140000D02*
X152550000Y-112140000D01*
X146050000Y-110490000D02*
X148675600Y-110490000D01*
X150325600Y-112140000D02*
X152400000Y-112140000D01*
X148675600Y-110490000D02*
X150325600Y-112140000D01*
X157407199Y-117039003D02*
X161290000Y-113156202D01*
X161290000Y-109152081D02*
X161290000Y-107950000D01*
X161290000Y-113156202D02*
X161290000Y-109152081D01*
X152400000Y-124840000D02*
X152550000Y-124840000D01*
X152550000Y-124840000D02*
X157407199Y-119982801D01*
X157407199Y-119982801D02*
X157407199Y-117039003D01*
X146050000Y-123190000D02*
X148675600Y-123190000D01*
X150325600Y-124840000D02*
X152400000Y-124840000D01*
X148675600Y-123190000D02*
X150325600Y-124840000D01*
D20*
X144997500Y-58202500D02*
X146050000Y-57150000D01*
X142240000Y-58202500D02*
X144997500Y-58202500D01*
D21*
X142240000Y-58202500D02*
X140933500Y-58202500D01*
X140933500Y-58202500D02*
X140462000Y-58674000D01*
D20*
X144997500Y-70902500D02*
X146050000Y-69850000D01*
X142240000Y-70902500D02*
X144997500Y-70902500D01*
D21*
X142240000Y-70902500D02*
X139482500Y-70902500D01*
X139482500Y-70902500D02*
X139446000Y-70866000D01*
D20*
X144780000Y-83820000D02*
X146050000Y-82550000D01*
X142240000Y-83820000D02*
X144780000Y-83820000D01*
D21*
X142240000Y-83820000D02*
X139446000Y-83820000D01*
D20*
X144997500Y-96302500D02*
X146050000Y-95250000D01*
X142240000Y-96302500D02*
X144997500Y-96302500D01*
D21*
X142240000Y-96302500D02*
X142240000Y-95758000D01*
X142240000Y-95758000D02*
X141478000Y-94996000D01*
D20*
X144997500Y-109002500D02*
X146050000Y-107950000D01*
X142240000Y-109002500D02*
X144997500Y-109002500D01*
D21*
X133350000Y-91440000D02*
X135890000Y-93980000D01*
X142240000Y-109002500D02*
X142240000Y-107696000D01*
X138176000Y-96266000D02*
X135890000Y-93980000D01*
X138176000Y-98552000D02*
X138176000Y-96266000D01*
D20*
X144997500Y-121702500D02*
X146050000Y-120650000D01*
X142240000Y-121702500D02*
X144997500Y-121702500D01*
D21*
X141468653Y-120931153D02*
X142240000Y-121702500D01*
X135128000Y-114590500D02*
X141468653Y-120931153D01*
X135128000Y-95758000D02*
X135128000Y-114590500D01*
X133350000Y-93980000D02*
X135128000Y-95758000D01*
D22*
G36*
X163145000Y-130125000D02*
G01*
X131495000Y-130125000D01*
X131495000Y-119921872D01*
X132385000Y-119921872D01*
X132385000Y-120362128D01*
X132470890Y-120793925D01*
X132639369Y-121200669D01*
X132883962Y-121566729D01*
X133195271Y-121878038D01*
X133561331Y-122122631D01*
X133968075Y-122291110D01*
X134399872Y-122377000D01*
X134840128Y-122377000D01*
X135271925Y-122291110D01*
X135678669Y-122122631D01*
X136044729Y-121878038D01*
X136356038Y-121566729D01*
X136600631Y-121200669D01*
X136769110Y-120793925D01*
X136855000Y-120362128D01*
X136855000Y-119921872D01*
X136769110Y-119490075D01*
X136600631Y-119083331D01*
X136356038Y-118717271D01*
X136044729Y-118405962D01*
X135678669Y-118161369D01*
X135271925Y-117992890D01*
X134840128Y-117907000D01*
X134399872Y-117907000D01*
X133968075Y-117992890D01*
X133561331Y-118161369D01*
X133195271Y-118405962D01*
X132883962Y-118717271D01*
X132639369Y-119083331D01*
X132470890Y-119490075D01*
X132385000Y-119921872D01*
X131495000Y-119921872D01*
X131495000Y-83820000D01*
X131857815Y-83820000D01*
X131886487Y-84111111D01*
X131971401Y-84391034D01*
X132109294Y-84649014D01*
X132294866Y-84875134D01*
X132520986Y-85060706D01*
X132575791Y-85090000D01*
X132520986Y-85119294D01*
X132294866Y-85304866D01*
X132109294Y-85530986D01*
X131971401Y-85788966D01*
X131886487Y-86068889D01*
X131857815Y-86360000D01*
X131886487Y-86651111D01*
X131971401Y-86931034D01*
X132109294Y-87189014D01*
X132294866Y-87415134D01*
X132520986Y-87600706D01*
X132575791Y-87630000D01*
X132520986Y-87659294D01*
X132294866Y-87844866D01*
X132109294Y-88070986D01*
X131971401Y-88328966D01*
X131886487Y-88608889D01*
X131857815Y-88900000D01*
X131886487Y-89191111D01*
X131971401Y-89471034D01*
X132109294Y-89729014D01*
X132294866Y-89955134D01*
X132520986Y-90140706D01*
X132575791Y-90170000D01*
X132520986Y-90199294D01*
X132294866Y-90384866D01*
X132109294Y-90610986D01*
X131971401Y-90868966D01*
X131886487Y-91148889D01*
X131857815Y-91440000D01*
X131886487Y-91731111D01*
X131971401Y-92011034D01*
X132109294Y-92269014D01*
X132294866Y-92495134D01*
X132520986Y-92680706D01*
X132575791Y-92710000D01*
X132520986Y-92739294D01*
X132294866Y-92924866D01*
X132109294Y-93150986D01*
X131971401Y-93408966D01*
X131886487Y-93688889D01*
X131857815Y-93980000D01*
X131886487Y-94271111D01*
X131971401Y-94551034D01*
X132109294Y-94809014D01*
X132294866Y-95035134D01*
X132520986Y-95220706D01*
X132575791Y-95250000D01*
X132520986Y-95279294D01*
X132294866Y-95464866D01*
X132109294Y-95690986D01*
X131971401Y-95948966D01*
X131886487Y-96228889D01*
X131857815Y-96520000D01*
X131886487Y-96811111D01*
X131971401Y-97091034D01*
X132109294Y-97349014D01*
X132294866Y-97575134D01*
X132520986Y-97760706D01*
X132778966Y-97898599D01*
X133058889Y-97983513D01*
X133277050Y-98005000D01*
X133422950Y-98005000D01*
X133641111Y-97983513D01*
X133921034Y-97898599D01*
X134179014Y-97760706D01*
X134340600Y-97628096D01*
X134340601Y-114551827D01*
X134336792Y-114590500D01*
X134351995Y-114744857D01*
X134397018Y-114893282D01*
X134397019Y-114893283D01*
X134470135Y-115030072D01*
X134568532Y-115149969D01*
X134598573Y-115174623D01*
X140726928Y-121302980D01*
X140726928Y-122165000D01*
X140743992Y-122338254D01*
X140794528Y-122504850D01*
X140848487Y-122605800D01*
X140408351Y-122605800D01*
X140247891Y-122621604D01*
X140042011Y-122684057D01*
X139852271Y-122785475D01*
X139685962Y-122921962D01*
X139549475Y-123088271D01*
X139448057Y-123278011D01*
X139385604Y-123483891D01*
X139364516Y-123698000D01*
X139385604Y-123912109D01*
X139448057Y-124117989D01*
X139549475Y-124307729D01*
X139685962Y-124474038D01*
X139852271Y-124610525D01*
X140042011Y-124711943D01*
X140247891Y-124774396D01*
X140408351Y-124790200D01*
X140726928Y-124790200D01*
X140726928Y-125140000D01*
X140743992Y-125313254D01*
X140794528Y-125479850D01*
X140876595Y-125633386D01*
X140987038Y-125767962D01*
X141121614Y-125878405D01*
X141275150Y-125960472D01*
X141441746Y-126011008D01*
X141535216Y-126020214D01*
X142218466Y-126703465D01*
X142263798Y-126758702D01*
X142319035Y-126804034D01*
X142319041Y-126804040D01*
X142461664Y-126921087D01*
X142484254Y-126939626D01*
X142735770Y-127074065D01*
X143008681Y-127156851D01*
X143034205Y-127159365D01*
X143221378Y-127177800D01*
X143221385Y-127177800D01*
X143292500Y-127184804D01*
X143363614Y-127177800D01*
X145343492Y-127177800D01*
X145392051Y-127203755D01*
X145691296Y-127294530D01*
X145924514Y-127317500D01*
X146175486Y-127317500D01*
X146408704Y-127294530D01*
X146707949Y-127203755D01*
X146983735Y-127056345D01*
X147225463Y-126857963D01*
X147423845Y-126616235D01*
X147571255Y-126340449D01*
X147662030Y-126041204D01*
X147692681Y-125730000D01*
X147662030Y-125418796D01*
X147571255Y-125119551D01*
X147423845Y-124843765D01*
X147254813Y-124637800D01*
X148075902Y-124637800D01*
X149251562Y-125813460D01*
X149296898Y-125868702D01*
X149352140Y-125914038D01*
X149352141Y-125914039D01*
X149369240Y-125928072D01*
X149517354Y-126049626D01*
X149768870Y-126184065D01*
X150041782Y-126266851D01*
X150254478Y-126287800D01*
X150254487Y-126287800D01*
X150325599Y-126294804D01*
X150396711Y-126287800D01*
X152478888Y-126287800D01*
X152550000Y-126294804D01*
X152621112Y-126287800D01*
X152621122Y-126287800D01*
X152833818Y-126266851D01*
X153106730Y-126184065D01*
X153358246Y-126049626D01*
X153506360Y-125928072D01*
X153523458Y-125914040D01*
X153523460Y-125914038D01*
X153578702Y-125868702D01*
X153624038Y-125813460D01*
X158118461Y-121319038D01*
X158283962Y-121566729D01*
X158595271Y-121878038D01*
X158961331Y-122122631D01*
X159368075Y-122291110D01*
X159799872Y-122377000D01*
X160240128Y-122377000D01*
X160671925Y-122291110D01*
X161078669Y-122122631D01*
X161444729Y-121878038D01*
X161756038Y-121566729D01*
X162000631Y-121200669D01*
X162169110Y-120793925D01*
X162255000Y-120362128D01*
X162255000Y-119921872D01*
X162169110Y-119490075D01*
X162000631Y-119083331D01*
X161756038Y-118717271D01*
X161444729Y-118405962D01*
X161078669Y-118161369D01*
X160671925Y-117992890D01*
X160240128Y-117907000D01*
X159874619Y-117907000D01*
X160105696Y-117695730D01*
X160125597Y-117672557D01*
X160137333Y-117650601D01*
X160144560Y-117626776D01*
X160147000Y-117602000D01*
X160147000Y-116346700D01*
X162263470Y-114230231D01*
X162318701Y-114184904D01*
X162364030Y-114129671D01*
X162364040Y-114129661D01*
X162499625Y-113964449D01*
X162499627Y-113964447D01*
X162634065Y-113712932D01*
X162678378Y-113566850D01*
X162716851Y-113440021D01*
X162719365Y-113414497D01*
X162737800Y-113227324D01*
X162737800Y-113227317D01*
X162744804Y-113156202D01*
X162737800Y-113085088D01*
X162737800Y-108292910D01*
X162753513Y-108241111D01*
X162782185Y-107950000D01*
X162753513Y-107658889D01*
X162668599Y-107378966D01*
X162530706Y-107120986D01*
X162345134Y-106894866D01*
X162119014Y-106709294D01*
X161861034Y-106571401D01*
X161581111Y-106486487D01*
X161362950Y-106465000D01*
X161217050Y-106465000D01*
X160998889Y-106486487D01*
X160718966Y-106571401D01*
X160460986Y-106709294D01*
X160234866Y-106894866D01*
X160147000Y-107001931D01*
X160147000Y-104722580D01*
X162263470Y-102606110D01*
X162318701Y-102560783D01*
X162364030Y-102505550D01*
X162364040Y-102505540D01*
X162499625Y-102340328D01*
X162499627Y-102340326D01*
X162634065Y-102088811D01*
X162716851Y-101815899D01*
X162737800Y-101603203D01*
X162737800Y-101603196D01*
X162744804Y-101532081D01*
X162737800Y-101460967D01*
X162737800Y-100672910D01*
X162753513Y-100621111D01*
X162782185Y-100330000D01*
X162753513Y-100038889D01*
X162668599Y-99758966D01*
X162530706Y-99500986D01*
X162345134Y-99274866D01*
X162119014Y-99089294D01*
X161861034Y-98951401D01*
X161581111Y-98866487D01*
X161362950Y-98845000D01*
X161217050Y-98845000D01*
X160998889Y-98866487D01*
X160718966Y-98951401D01*
X160460986Y-99089294D01*
X160234866Y-99274866D01*
X160147000Y-99381931D01*
X160147000Y-97102580D01*
X162263470Y-94986110D01*
X162318701Y-94940783D01*
X162364030Y-94885550D01*
X162364040Y-94885540D01*
X162499625Y-94720328D01*
X162499627Y-94720326D01*
X162634065Y-94468811D01*
X162716851Y-94195899D01*
X162737800Y-93983203D01*
X162737800Y-93983194D01*
X162744804Y-93912082D01*
X162737800Y-93840970D01*
X162737800Y-93052910D01*
X162753513Y-93001111D01*
X162782185Y-92710000D01*
X162753513Y-92418889D01*
X162668599Y-92138966D01*
X162530706Y-91880986D01*
X162345134Y-91654866D01*
X162119014Y-91469294D01*
X161861034Y-91331401D01*
X161581111Y-91246487D01*
X161362950Y-91225000D01*
X161217050Y-91225000D01*
X160998889Y-91246487D01*
X160718966Y-91331401D01*
X160460986Y-91469294D01*
X160234866Y-91654866D01*
X160147000Y-91761931D01*
X160147000Y-88400601D01*
X160558168Y-88400601D01*
X160629280Y-88407605D01*
X160700392Y-88400601D01*
X160700402Y-88400601D01*
X160913098Y-88379652D01*
X161186010Y-88296866D01*
X161437526Y-88162427D01*
X161657982Y-87981503D01*
X161703319Y-87926260D01*
X162263459Y-87366119D01*
X162318701Y-87320783D01*
X162499626Y-87100327D01*
X162634065Y-86848811D01*
X162716851Y-86575899D01*
X162737800Y-86363203D01*
X162737800Y-86363194D01*
X162744804Y-86292082D01*
X162737800Y-86220970D01*
X162737800Y-85432910D01*
X162753513Y-85381111D01*
X162782185Y-85090000D01*
X162753513Y-84798889D01*
X162668599Y-84518966D01*
X162530706Y-84260986D01*
X162345134Y-84034866D01*
X162119014Y-83849294D01*
X161861034Y-83711401D01*
X161581111Y-83626487D01*
X161362950Y-83605000D01*
X161217050Y-83605000D01*
X160998889Y-83626487D01*
X160718966Y-83711401D01*
X160460986Y-83849294D01*
X160234866Y-84034866D01*
X160147000Y-84141931D01*
X160147000Y-80780601D01*
X160558168Y-80780601D01*
X160629280Y-80787605D01*
X160700392Y-80780601D01*
X160700402Y-80780601D01*
X160913098Y-80759652D01*
X161186010Y-80676866D01*
X161437526Y-80542427D01*
X161657982Y-80361503D01*
X161703319Y-80306260D01*
X162263459Y-79746119D01*
X162318701Y-79700783D01*
X162499626Y-79480327D01*
X162634065Y-79228811D01*
X162716851Y-78955899D01*
X162737800Y-78743203D01*
X162737800Y-78743194D01*
X162744804Y-78672082D01*
X162737800Y-78600970D01*
X162737800Y-77812910D01*
X162753513Y-77761111D01*
X162782185Y-77470000D01*
X162753513Y-77178889D01*
X162668599Y-76898966D01*
X162530706Y-76640986D01*
X162345134Y-76414866D01*
X162119014Y-76229294D01*
X161861034Y-76091401D01*
X161581111Y-76006487D01*
X161362950Y-75985000D01*
X161217050Y-75985000D01*
X160998889Y-76006487D01*
X160718966Y-76091401D01*
X160460986Y-76229294D01*
X160234866Y-76414866D01*
X160147000Y-76521931D01*
X160147000Y-70798069D01*
X160234866Y-70905134D01*
X160460986Y-71090706D01*
X160718966Y-71228599D01*
X160998889Y-71313513D01*
X161217050Y-71335000D01*
X161362950Y-71335000D01*
X161581111Y-71313513D01*
X161861034Y-71228599D01*
X162119014Y-71090706D01*
X162345134Y-70905134D01*
X162530706Y-70679014D01*
X162668599Y-70421034D01*
X162753513Y-70141111D01*
X162782185Y-69850000D01*
X162753513Y-69558889D01*
X162737800Y-69507090D01*
X162737800Y-68719033D01*
X162744804Y-68647919D01*
X162737800Y-68576804D01*
X162737800Y-68576797D01*
X162716851Y-68364101D01*
X162634065Y-68091189D01*
X162499626Y-67839673D01*
X162487828Y-67825297D01*
X162364040Y-67674460D01*
X162364030Y-67674450D01*
X162318701Y-67619217D01*
X162263470Y-67573890D01*
X157263730Y-62574151D01*
X157218394Y-62518909D01*
X157147189Y-62460472D01*
X157090610Y-62414039D01*
X156997938Y-62337985D01*
X156746422Y-62203546D01*
X156591000Y-62156400D01*
X156591000Y-59215872D01*
X157785000Y-59215872D01*
X157785000Y-59656128D01*
X157870890Y-60087925D01*
X158039369Y-60494669D01*
X158283962Y-60860729D01*
X158595271Y-61172038D01*
X158961331Y-61416631D01*
X159368075Y-61585110D01*
X159799872Y-61671000D01*
X160240128Y-61671000D01*
X160671925Y-61585110D01*
X161078669Y-61416631D01*
X161444729Y-61172038D01*
X161756038Y-60860729D01*
X162000631Y-60494669D01*
X162169110Y-60087925D01*
X162255000Y-59656128D01*
X162255000Y-59215872D01*
X162169110Y-58784075D01*
X162000631Y-58377331D01*
X161756038Y-58011271D01*
X161444729Y-57699962D01*
X161078669Y-57455369D01*
X160671925Y-57286890D01*
X160240128Y-57201000D01*
X159799872Y-57201000D01*
X159368075Y-57286890D01*
X158961331Y-57455369D01*
X158595271Y-57699962D01*
X158283962Y-58011271D01*
X158039369Y-58377331D01*
X157870890Y-58784075D01*
X157785000Y-59215872D01*
X156591000Y-59215872D01*
X156591000Y-57150000D01*
X156588560Y-57125224D01*
X156581333Y-57101399D01*
X156569597Y-57079443D01*
X156553803Y-57060197D01*
X156534557Y-57044403D01*
X156512601Y-57032667D01*
X156488776Y-57025440D01*
X156464000Y-57023000D01*
X151130000Y-57023000D01*
X151105224Y-57025440D01*
X151081399Y-57032667D01*
X151059443Y-57044403D01*
X151040197Y-57060197D01*
X151024403Y-57079443D01*
X151012667Y-57101399D01*
X151005440Y-57125224D01*
X151003000Y-57150000D01*
X151003000Y-59892200D01*
X150925298Y-59892200D01*
X149749638Y-58716540D01*
X149704302Y-58661298D01*
X149483846Y-58480374D01*
X149232330Y-58345935D01*
X148959418Y-58263149D01*
X148746722Y-58242200D01*
X148746712Y-58242200D01*
X148675600Y-58235196D01*
X148604488Y-58242200D01*
X147671196Y-58242200D01*
X147675812Y-58226982D01*
X147688072Y-58102500D01*
X147688072Y-56197500D01*
X147675812Y-56073018D01*
X147639502Y-55953320D01*
X147580537Y-55843006D01*
X147501185Y-55746315D01*
X147404494Y-55666963D01*
X147294180Y-55607998D01*
X147174482Y-55571688D01*
X147050000Y-55559428D01*
X145050000Y-55559428D01*
X144925518Y-55571688D01*
X144805820Y-55607998D01*
X144695506Y-55666963D01*
X144598815Y-55746315D01*
X144519463Y-55843006D01*
X144460498Y-55953320D01*
X144424188Y-56073018D01*
X144411928Y-56197500D01*
X144411928Y-57110300D01*
X143490844Y-57110300D01*
X143358386Y-57001595D01*
X143204850Y-56919528D01*
X143038254Y-56868992D01*
X142865000Y-56851928D01*
X141615000Y-56851928D01*
X141441746Y-56868992D01*
X141275150Y-56919528D01*
X141121614Y-57001595D01*
X140987038Y-57112038D01*
X140876595Y-57246614D01*
X140794528Y-57400150D01*
X140786764Y-57425743D01*
X140779468Y-57426462D01*
X140779143Y-57426494D01*
X140630717Y-57471518D01*
X140493927Y-57544634D01*
X140435273Y-57592771D01*
X140374031Y-57643031D01*
X140349376Y-57673073D01*
X140261980Y-57760469D01*
X140189271Y-57774932D01*
X140019111Y-57845414D01*
X139865972Y-57947738D01*
X139735738Y-58077972D01*
X139633414Y-58231111D01*
X139562932Y-58401271D01*
X139527000Y-58581911D01*
X139527000Y-58766089D01*
X139562932Y-58946729D01*
X139633414Y-59116889D01*
X139735738Y-59270028D01*
X139865972Y-59400262D01*
X140019111Y-59502586D01*
X140189271Y-59573068D01*
X140369911Y-59609000D01*
X140554089Y-59609000D01*
X140734729Y-59573068D01*
X140904889Y-59502586D01*
X141058028Y-59400262D01*
X141084963Y-59373327D01*
X141121614Y-59403405D01*
X141275150Y-59485472D01*
X141441746Y-59536008D01*
X141615000Y-59553072D01*
X142865000Y-59553072D01*
X143038254Y-59536008D01*
X143204850Y-59485472D01*
X143358386Y-59403405D01*
X143490844Y-59294700D01*
X144463480Y-59294700D01*
X144437970Y-59378796D01*
X144407319Y-59690000D01*
X144437970Y-60001204D01*
X144528745Y-60300449D01*
X144676155Y-60576235D01*
X144845187Y-60782200D01*
X143892199Y-60782200D01*
X143745214Y-60635215D01*
X143736008Y-60541746D01*
X143685472Y-60375150D01*
X143603405Y-60221614D01*
X143492962Y-60087038D01*
X143358386Y-59976595D01*
X143204850Y-59894528D01*
X143038254Y-59843992D01*
X142865000Y-59826928D01*
X142775278Y-59826928D01*
X142523818Y-59750650D01*
X142240000Y-59722696D01*
X141956182Y-59750650D01*
X141704722Y-59826928D01*
X141615000Y-59826928D01*
X141441746Y-59843992D01*
X141275150Y-59894528D01*
X141121614Y-59976595D01*
X140987038Y-60087038D01*
X140876595Y-60221614D01*
X140794528Y-60375150D01*
X140743992Y-60541746D01*
X140726928Y-60715000D01*
X140726928Y-61145969D01*
X140481097Y-61391800D01*
X140408351Y-61391800D01*
X140247891Y-61407604D01*
X140042011Y-61470057D01*
X139852271Y-61571475D01*
X139685962Y-61707962D01*
X139549475Y-61874271D01*
X139448057Y-62064011D01*
X139385604Y-62269891D01*
X139364516Y-62484000D01*
X139385604Y-62698109D01*
X139448057Y-62903989D01*
X139549475Y-63093729D01*
X139685962Y-63260038D01*
X139852271Y-63396525D01*
X140042011Y-63497943D01*
X140247891Y-63560396D01*
X140408351Y-63576200D01*
X140879859Y-63576200D01*
X140933500Y-63581483D01*
X140987141Y-63576200D01*
X140987149Y-63576200D01*
X141147609Y-63560396D01*
X141353489Y-63497943D01*
X141543229Y-63396525D01*
X141709538Y-63260038D01*
X141743740Y-63218363D01*
X141988552Y-62973551D01*
X142218466Y-63203465D01*
X142263798Y-63258702D01*
X142319035Y-63304034D01*
X142319041Y-63304040D01*
X142415338Y-63383068D01*
X142484254Y-63439626D01*
X142710197Y-63560396D01*
X142735770Y-63574065D01*
X143008681Y-63656851D01*
X143034205Y-63659365D01*
X143221378Y-63677800D01*
X143221385Y-63677800D01*
X143292500Y-63684804D01*
X143363614Y-63677800D01*
X145343492Y-63677800D01*
X145392051Y-63703755D01*
X145691296Y-63794530D01*
X145924514Y-63817500D01*
X146175486Y-63817500D01*
X146408704Y-63794530D01*
X146707949Y-63703755D01*
X146983735Y-63556345D01*
X147225463Y-63357963D01*
X147423845Y-63116235D01*
X147571255Y-62840449D01*
X147662030Y-62541204D01*
X147692681Y-62230000D01*
X147662030Y-61918796D01*
X147571255Y-61619551D01*
X147423845Y-61343765D01*
X147254813Y-61137800D01*
X148075902Y-61137800D01*
X149251562Y-62313460D01*
X149296898Y-62368702D01*
X149352140Y-62414038D01*
X149352141Y-62414039D01*
X149369240Y-62428072D01*
X149517354Y-62549626D01*
X149768870Y-62684065D01*
X150041782Y-62766851D01*
X150254478Y-62787800D01*
X150254487Y-62787800D01*
X150325599Y-62794804D01*
X150396711Y-62787800D01*
X150952201Y-62787800D01*
X150952201Y-63344479D01*
X150945196Y-63415600D01*
X150973150Y-63699418D01*
X151003000Y-63797822D01*
X151003000Y-72592200D01*
X150925298Y-72592200D01*
X149749638Y-71416540D01*
X149704302Y-71361298D01*
X149483846Y-71180374D01*
X149232330Y-71045935D01*
X148959418Y-70963149D01*
X148746722Y-70942200D01*
X148746712Y-70942200D01*
X148675600Y-70935196D01*
X148604488Y-70942200D01*
X147671196Y-70942200D01*
X147675812Y-70926982D01*
X147688072Y-70802500D01*
X147688072Y-68897500D01*
X147675812Y-68773018D01*
X147639502Y-68653320D01*
X147580537Y-68543006D01*
X147501185Y-68446315D01*
X147404494Y-68366963D01*
X147294180Y-68307998D01*
X147174482Y-68271688D01*
X147050000Y-68259428D01*
X145050000Y-68259428D01*
X144925518Y-68271688D01*
X144805820Y-68307998D01*
X144695506Y-68366963D01*
X144598815Y-68446315D01*
X144519463Y-68543006D01*
X144460498Y-68653320D01*
X144424188Y-68773018D01*
X144411928Y-68897500D01*
X144411928Y-69810300D01*
X143490844Y-69810300D01*
X143358386Y-69701595D01*
X143204850Y-69619528D01*
X143038254Y-69568992D01*
X142865000Y-69551928D01*
X141615000Y-69551928D01*
X141441746Y-69568992D01*
X141275150Y-69619528D01*
X141121614Y-69701595D01*
X140987038Y-69812038D01*
X140876595Y-69946614D01*
X140794528Y-70100150D01*
X140789993Y-70115100D01*
X140005155Y-70115100D01*
X139888889Y-70037414D01*
X139718729Y-69966932D01*
X139538089Y-69931000D01*
X139353911Y-69931000D01*
X139173271Y-69966932D01*
X139003111Y-70037414D01*
X138849972Y-70139738D01*
X138719738Y-70269972D01*
X138617414Y-70423111D01*
X138546932Y-70593271D01*
X138511000Y-70773911D01*
X138511000Y-70958089D01*
X138546932Y-71138729D01*
X138617414Y-71308889D01*
X138719738Y-71462028D01*
X138849972Y-71592262D01*
X139003111Y-71694586D01*
X139173271Y-71765068D01*
X139353911Y-71801000D01*
X139538089Y-71801000D01*
X139718729Y-71765068D01*
X139888889Y-71694586D01*
X139895902Y-71689900D01*
X140789993Y-71689900D01*
X140794528Y-71704850D01*
X140876595Y-71858386D01*
X140987038Y-71992962D01*
X141121614Y-72103405D01*
X141275150Y-72185472D01*
X141441746Y-72236008D01*
X141615000Y-72253072D01*
X142865000Y-72253072D01*
X143038254Y-72236008D01*
X143204850Y-72185472D01*
X143358386Y-72103405D01*
X143490844Y-71994700D01*
X144463480Y-71994700D01*
X144437970Y-72078796D01*
X144407319Y-72390000D01*
X144437970Y-72701204D01*
X144528745Y-73000449D01*
X144676155Y-73276235D01*
X144845187Y-73482200D01*
X143892199Y-73482200D01*
X143745214Y-73335215D01*
X143736008Y-73241746D01*
X143685472Y-73075150D01*
X143603405Y-72921614D01*
X143492962Y-72787038D01*
X143358386Y-72676595D01*
X143204850Y-72594528D01*
X143038254Y-72543992D01*
X142865000Y-72526928D01*
X142775278Y-72526928D01*
X142523818Y-72450650D01*
X142240000Y-72422696D01*
X141956182Y-72450650D01*
X141704722Y-72526928D01*
X141615000Y-72526928D01*
X141441746Y-72543992D01*
X141275150Y-72594528D01*
X141121614Y-72676595D01*
X140987038Y-72787038D01*
X140876595Y-72921614D01*
X140794528Y-73075150D01*
X140743992Y-73241746D01*
X140731356Y-73370040D01*
X139651763Y-74449634D01*
X139549476Y-74574272D01*
X139448057Y-74764012D01*
X139385604Y-74969891D01*
X139364517Y-75184000D01*
X139385604Y-75398109D01*
X139448057Y-75603988D01*
X139549476Y-75793728D01*
X139685962Y-75960038D01*
X139852272Y-76096524D01*
X140042012Y-76197943D01*
X140247891Y-76260396D01*
X140462000Y-76281483D01*
X140676109Y-76260396D01*
X140881988Y-76197943D01*
X141071728Y-76096524D01*
X141196366Y-75994237D01*
X141752802Y-75437801D01*
X142218466Y-75903465D01*
X142263798Y-75958702D01*
X142319035Y-76004034D01*
X142319041Y-76004040D01*
X142431734Y-76096524D01*
X142484254Y-76139626D01*
X142710156Y-76260374D01*
X142735770Y-76274065D01*
X143008681Y-76356851D01*
X143034205Y-76359365D01*
X143221378Y-76377800D01*
X143221385Y-76377800D01*
X143292500Y-76384804D01*
X143363614Y-76377800D01*
X145343492Y-76377800D01*
X145392051Y-76403755D01*
X145691296Y-76494530D01*
X145924514Y-76517500D01*
X146175486Y-76517500D01*
X146408704Y-76494530D01*
X146707949Y-76403755D01*
X146983735Y-76256345D01*
X147225463Y-76057963D01*
X147423845Y-75816235D01*
X147571255Y-75540449D01*
X147662030Y-75241204D01*
X147692681Y-74930000D01*
X147662030Y-74618796D01*
X147571255Y-74319551D01*
X147423845Y-74043765D01*
X147254813Y-73837800D01*
X148075902Y-73837800D01*
X149251562Y-75013460D01*
X149296898Y-75068702D01*
X149352140Y-75114038D01*
X149352141Y-75114039D01*
X149369240Y-75128072D01*
X149517354Y-75249626D01*
X149768870Y-75384065D01*
X150041782Y-75466851D01*
X150254478Y-75487800D01*
X150254487Y-75487800D01*
X150325599Y-75494804D01*
X150396711Y-75487800D01*
X150952201Y-75487800D01*
X150952201Y-76044479D01*
X150945196Y-76115600D01*
X150973150Y-76399418D01*
X151003000Y-76497822D01*
X151003000Y-84609305D01*
X150510235Y-84116540D01*
X150464899Y-84061298D01*
X150244443Y-83880374D01*
X149992927Y-83745935D01*
X149720015Y-83663149D01*
X149507319Y-83642200D01*
X149507309Y-83642200D01*
X149436197Y-83635196D01*
X149365085Y-83642200D01*
X147671196Y-83642200D01*
X147675812Y-83626982D01*
X147688072Y-83502500D01*
X147688072Y-81597500D01*
X147675812Y-81473018D01*
X147639502Y-81353320D01*
X147580537Y-81243006D01*
X147501185Y-81146315D01*
X147404494Y-81066963D01*
X147294180Y-81007998D01*
X147174482Y-80971688D01*
X147050000Y-80959428D01*
X145050000Y-80959428D01*
X144925518Y-80971688D01*
X144805820Y-81007998D01*
X144695506Y-81066963D01*
X144598815Y-81146315D01*
X144519463Y-81243006D01*
X144460498Y-81353320D01*
X144424188Y-81473018D01*
X144411928Y-81597500D01*
X144411928Y-82643469D01*
X144327597Y-82727800D01*
X143490844Y-82727800D01*
X143358386Y-82619095D01*
X143204850Y-82537028D01*
X143038254Y-82486492D01*
X142865000Y-82469428D01*
X141615000Y-82469428D01*
X141441746Y-82486492D01*
X141275150Y-82537028D01*
X141121614Y-82619095D01*
X140987038Y-82729538D01*
X140876595Y-82864114D01*
X140794528Y-83017650D01*
X140789993Y-83032600D01*
X139950528Y-83032600D01*
X139888889Y-82991414D01*
X139718729Y-82920932D01*
X139538089Y-82885000D01*
X139353911Y-82885000D01*
X139173271Y-82920932D01*
X139003111Y-82991414D01*
X138849972Y-83093738D01*
X138719738Y-83223972D01*
X138617414Y-83377111D01*
X138546932Y-83547271D01*
X138511000Y-83727911D01*
X138511000Y-83912089D01*
X138546932Y-84092729D01*
X138617414Y-84262889D01*
X138719738Y-84416028D01*
X138849972Y-84546262D01*
X139003111Y-84648586D01*
X139173271Y-84719068D01*
X139353911Y-84755000D01*
X139538089Y-84755000D01*
X139718729Y-84719068D01*
X139888889Y-84648586D01*
X139950528Y-84607400D01*
X140789993Y-84607400D01*
X140794528Y-84622350D01*
X140876595Y-84775886D01*
X140987038Y-84910462D01*
X141121614Y-85020905D01*
X141275150Y-85102972D01*
X141441746Y-85153508D01*
X141615000Y-85170572D01*
X142865000Y-85170572D01*
X143038254Y-85153508D01*
X143204850Y-85102972D01*
X143358386Y-85020905D01*
X143490844Y-84912200D01*
X144424831Y-84912200D01*
X144407319Y-85090000D01*
X144437970Y-85401204D01*
X144528745Y-85700449D01*
X144676155Y-85976235D01*
X144845187Y-86182200D01*
X143738269Y-86182200D01*
X143736008Y-86159246D01*
X143685472Y-85992650D01*
X143603405Y-85839114D01*
X143492962Y-85704538D01*
X143358386Y-85594095D01*
X143204850Y-85512028D01*
X143038254Y-85461492D01*
X142865000Y-85444428D01*
X142775278Y-85444428D01*
X142523818Y-85368150D01*
X142240000Y-85340196D01*
X141956182Y-85368150D01*
X141704722Y-85444428D01*
X141615000Y-85444428D01*
X141441746Y-85461492D01*
X141275150Y-85512028D01*
X141121614Y-85594095D01*
X140987038Y-85704538D01*
X140876595Y-85839114D01*
X140794528Y-85992650D01*
X140790386Y-86006304D01*
X140774962Y-86018962D01*
X140740764Y-86060632D01*
X139651763Y-87149634D01*
X139549476Y-87274272D01*
X139448057Y-87464012D01*
X139385604Y-87669891D01*
X139364517Y-87884000D01*
X139385604Y-88098109D01*
X139448057Y-88303988D01*
X139549476Y-88493728D01*
X139685962Y-88660038D01*
X139852272Y-88796524D01*
X140042012Y-88897943D01*
X140247891Y-88960396D01*
X140462000Y-88981483D01*
X140676109Y-88960396D01*
X140881988Y-88897943D01*
X141071728Y-88796524D01*
X141196366Y-88694237D01*
X141644053Y-88246550D01*
X142000958Y-88603455D01*
X142046298Y-88658702D01*
X142266754Y-88839626D01*
X142518270Y-88974065D01*
X142791182Y-89056851D01*
X143003878Y-89077800D01*
X143003887Y-89077800D01*
X143074999Y-89084804D01*
X143146111Y-89077800D01*
X145343492Y-89077800D01*
X145392051Y-89103755D01*
X145691296Y-89194530D01*
X145924514Y-89217500D01*
X146175486Y-89217500D01*
X146408704Y-89194530D01*
X146707949Y-89103755D01*
X146983735Y-88956345D01*
X147225463Y-88757963D01*
X147423845Y-88516235D01*
X147571255Y-88240449D01*
X147662030Y-87941204D01*
X147692681Y-87630000D01*
X147662030Y-87318796D01*
X147571255Y-87019551D01*
X147423845Y-86743765D01*
X147254813Y-86537800D01*
X148836499Y-86537800D01*
X150012157Y-87713458D01*
X150057495Y-87768702D01*
X150112737Y-87814038D01*
X150112738Y-87814039D01*
X150124282Y-87823513D01*
X150277951Y-87949626D01*
X150529467Y-88084065D01*
X150802379Y-88166851D01*
X151003000Y-88186611D01*
X151003000Y-97992200D01*
X150925298Y-97992200D01*
X149749638Y-96816540D01*
X149704302Y-96761298D01*
X149483846Y-96580374D01*
X149232330Y-96445935D01*
X148959418Y-96363149D01*
X148746722Y-96342200D01*
X148746712Y-96342200D01*
X148675600Y-96335196D01*
X148604488Y-96342200D01*
X147671196Y-96342200D01*
X147675812Y-96326982D01*
X147688072Y-96202500D01*
X147688072Y-94297500D01*
X147675812Y-94173018D01*
X147639502Y-94053320D01*
X147580537Y-93943006D01*
X147501185Y-93846315D01*
X147404494Y-93766963D01*
X147294180Y-93707998D01*
X147174482Y-93671688D01*
X147050000Y-93659428D01*
X145050000Y-93659428D01*
X144925518Y-93671688D01*
X144805820Y-93707998D01*
X144695506Y-93766963D01*
X144598815Y-93846315D01*
X144519463Y-93943006D01*
X144460498Y-94053320D01*
X144424188Y-94173018D01*
X144411928Y-94297500D01*
X144411928Y-95210300D01*
X143490844Y-95210300D01*
X143358386Y-95101595D01*
X143204850Y-95019528D01*
X143038254Y-94968992D01*
X142865000Y-94951928D01*
X142547479Y-94951928D01*
X142391531Y-94795980D01*
X142377068Y-94723271D01*
X142306586Y-94553111D01*
X142204262Y-94399972D01*
X142074028Y-94269738D01*
X141920889Y-94167414D01*
X141750729Y-94096932D01*
X141570089Y-94061000D01*
X141385911Y-94061000D01*
X141205271Y-94096932D01*
X141035111Y-94167414D01*
X140881972Y-94269738D01*
X140751738Y-94399972D01*
X140649414Y-94553111D01*
X140578932Y-94723271D01*
X140543000Y-94903911D01*
X140543000Y-95088089D01*
X140578932Y-95268729D01*
X140649414Y-95438889D01*
X140751738Y-95592028D01*
X140763185Y-95603475D01*
X140743992Y-95666746D01*
X140726928Y-95840000D01*
X140726928Y-96765000D01*
X140743992Y-96938254D01*
X140794528Y-97104850D01*
X140876595Y-97258386D01*
X140987038Y-97392962D01*
X141121614Y-97503405D01*
X141275150Y-97585472D01*
X141441746Y-97636008D01*
X141615000Y-97653072D01*
X142865000Y-97653072D01*
X143038254Y-97636008D01*
X143204850Y-97585472D01*
X143358386Y-97503405D01*
X143490844Y-97394700D01*
X144463480Y-97394700D01*
X144437970Y-97478796D01*
X144407319Y-97790000D01*
X144437970Y-98101204D01*
X144528745Y-98400449D01*
X144676155Y-98676235D01*
X144845187Y-98882200D01*
X143892199Y-98882200D01*
X143745214Y-98735215D01*
X143736008Y-98641746D01*
X143685472Y-98475150D01*
X143603405Y-98321614D01*
X143492962Y-98187038D01*
X143358386Y-98076595D01*
X143204850Y-97994528D01*
X143038254Y-97943992D01*
X142865000Y-97926928D01*
X142775278Y-97926928D01*
X142523818Y-97850650D01*
X142240000Y-97822696D01*
X141956182Y-97850650D01*
X141704722Y-97926928D01*
X141615000Y-97926928D01*
X141441746Y-97943992D01*
X141275150Y-97994528D01*
X141121614Y-98076595D01*
X140987038Y-98187038D01*
X140958510Y-98221800D01*
X140408351Y-98221800D01*
X140247891Y-98237604D01*
X140042011Y-98300057D01*
X139852271Y-98401475D01*
X139685962Y-98537962D01*
X139549475Y-98704271D01*
X139448057Y-98894011D01*
X139385604Y-99099891D01*
X139364516Y-99314000D01*
X139385604Y-99528109D01*
X139448057Y-99733989D01*
X139549475Y-99923729D01*
X139685962Y-100090038D01*
X139852271Y-100226525D01*
X140042011Y-100327943D01*
X140247891Y-100390396D01*
X140408351Y-100406200D01*
X141033631Y-100406200D01*
X141121614Y-100478405D01*
X141275150Y-100560472D01*
X141441746Y-100611008D01*
X141535216Y-100620214D01*
X142218466Y-101303465D01*
X142263798Y-101358702D01*
X142319035Y-101404034D01*
X142319041Y-101404040D01*
X142461664Y-101521087D01*
X142484254Y-101539626D01*
X142735770Y-101674065D01*
X143008681Y-101756851D01*
X143034205Y-101759365D01*
X143221378Y-101777800D01*
X143221385Y-101777800D01*
X143292500Y-101784804D01*
X143363614Y-101777800D01*
X145343492Y-101777800D01*
X145392051Y-101803755D01*
X145691296Y-101894530D01*
X145924514Y-101917500D01*
X146175486Y-101917500D01*
X146408704Y-101894530D01*
X146707949Y-101803755D01*
X146983735Y-101656345D01*
X147225463Y-101457963D01*
X147423845Y-101216235D01*
X147571255Y-100940449D01*
X147662030Y-100641204D01*
X147692681Y-100330000D01*
X147662030Y-100018796D01*
X147571255Y-99719551D01*
X147423845Y-99443765D01*
X147254813Y-99237800D01*
X148075902Y-99237800D01*
X149251562Y-100413460D01*
X149296898Y-100468702D01*
X149352140Y-100514038D01*
X149352141Y-100514039D01*
X149369240Y-100528072D01*
X149517354Y-100649626D01*
X149768870Y-100784065D01*
X150041782Y-100866851D01*
X150254478Y-100887800D01*
X150254487Y-100887800D01*
X150325599Y-100894804D01*
X150396711Y-100887800D01*
X151003000Y-100887800D01*
X151003000Y-110692200D01*
X150925298Y-110692200D01*
X149749638Y-109516540D01*
X149704302Y-109461298D01*
X149483846Y-109280374D01*
X149232330Y-109145935D01*
X148959418Y-109063149D01*
X148746722Y-109042200D01*
X148746712Y-109042200D01*
X148675600Y-109035196D01*
X148604488Y-109042200D01*
X147671196Y-109042200D01*
X147675812Y-109026982D01*
X147688072Y-108902500D01*
X147688072Y-106997500D01*
X147675812Y-106873018D01*
X147639502Y-106753320D01*
X147580537Y-106643006D01*
X147501185Y-106546315D01*
X147404494Y-106466963D01*
X147294180Y-106407998D01*
X147174482Y-106371688D01*
X147050000Y-106359428D01*
X145050000Y-106359428D01*
X144925518Y-106371688D01*
X144805820Y-106407998D01*
X144695506Y-106466963D01*
X144598815Y-106546315D01*
X144519463Y-106643006D01*
X144460498Y-106753320D01*
X144424188Y-106873018D01*
X144411928Y-106997500D01*
X144411928Y-107910300D01*
X143490844Y-107910300D01*
X143358386Y-107801595D01*
X143204850Y-107719528D01*
X143175000Y-107710473D01*
X143175000Y-107603911D01*
X143139068Y-107423271D01*
X143068586Y-107253111D01*
X142966262Y-107099972D01*
X142836028Y-106969738D01*
X142682889Y-106867414D01*
X142512729Y-106796932D01*
X142332089Y-106761000D01*
X142147911Y-106761000D01*
X141967271Y-106796932D01*
X141797111Y-106867414D01*
X141643972Y-106969738D01*
X141513738Y-107099972D01*
X141411414Y-107253111D01*
X141340932Y-107423271D01*
X141305000Y-107603911D01*
X141305000Y-107710473D01*
X141275150Y-107719528D01*
X141121614Y-107801595D01*
X140987038Y-107912038D01*
X140876595Y-108046614D01*
X140794528Y-108200150D01*
X140743992Y-108366746D01*
X140726928Y-108540000D01*
X140726928Y-109465000D01*
X140743992Y-109638254D01*
X140794528Y-109804850D01*
X140876595Y-109958386D01*
X140987038Y-110092962D01*
X141121614Y-110203405D01*
X141275150Y-110285472D01*
X141441746Y-110336008D01*
X141615000Y-110353072D01*
X142865000Y-110353072D01*
X143038254Y-110336008D01*
X143204850Y-110285472D01*
X143358386Y-110203405D01*
X143490844Y-110094700D01*
X144463480Y-110094700D01*
X144437970Y-110178796D01*
X144407319Y-110490000D01*
X144437970Y-110801204D01*
X144528745Y-111100449D01*
X144676155Y-111376235D01*
X144845187Y-111582200D01*
X143892199Y-111582200D01*
X143745214Y-111435215D01*
X143736008Y-111341746D01*
X143685472Y-111175150D01*
X143603405Y-111021614D01*
X143492962Y-110887038D01*
X143358386Y-110776595D01*
X143204850Y-110694528D01*
X143038254Y-110643992D01*
X142865000Y-110626928D01*
X142775278Y-110626928D01*
X142523818Y-110550650D01*
X142240000Y-110522696D01*
X141956182Y-110550650D01*
X141704722Y-110626928D01*
X141615000Y-110626928D01*
X141441746Y-110643992D01*
X141275150Y-110694528D01*
X141121614Y-110776595D01*
X140994106Y-110881238D01*
X140952860Y-110885300D01*
X140952851Y-110885300D01*
X140792391Y-110901104D01*
X140586511Y-110963557D01*
X140396771Y-111064975D01*
X140230462Y-111201462D01*
X140196260Y-111243137D01*
X139651763Y-111787634D01*
X139549476Y-111912272D01*
X139448057Y-112102012D01*
X139385604Y-112307891D01*
X139364517Y-112522000D01*
X139385604Y-112736109D01*
X139448057Y-112941988D01*
X139549476Y-113131728D01*
X139685962Y-113298038D01*
X139852272Y-113434524D01*
X140042012Y-113535943D01*
X140247891Y-113598396D01*
X140462000Y-113619483D01*
X140676109Y-113598396D01*
X140881988Y-113535943D01*
X141071728Y-113434524D01*
X141196366Y-113332237D01*
X141270576Y-113258027D01*
X141275150Y-113260472D01*
X141441746Y-113311008D01*
X141535216Y-113320214D01*
X142218466Y-114003465D01*
X142263798Y-114058702D01*
X142319035Y-114104034D01*
X142319041Y-114104040D01*
X142417574Y-114184903D01*
X142484254Y-114239626D01*
X142720360Y-114365828D01*
X142735770Y-114374065D01*
X143008681Y-114456851D01*
X143034205Y-114459365D01*
X143221378Y-114477800D01*
X143221385Y-114477800D01*
X143292500Y-114484804D01*
X143363614Y-114477800D01*
X145343492Y-114477800D01*
X145392051Y-114503755D01*
X145691296Y-114594530D01*
X145924514Y-114617500D01*
X146175486Y-114617500D01*
X146408704Y-114594530D01*
X146707949Y-114503755D01*
X146983735Y-114356345D01*
X147225463Y-114157963D01*
X147423845Y-113916235D01*
X147571255Y-113640449D01*
X147662030Y-113341204D01*
X147692681Y-113030000D01*
X147662030Y-112718796D01*
X147571255Y-112419551D01*
X147423845Y-112143765D01*
X147254813Y-111937800D01*
X148075902Y-111937800D01*
X149251562Y-113113460D01*
X149296898Y-113168702D01*
X149352140Y-113214038D01*
X149352141Y-113214039D01*
X149368328Y-113227323D01*
X149517354Y-113349626D01*
X149768870Y-113484065D01*
X150041782Y-113566851D01*
X150254478Y-113587800D01*
X150254487Y-113587800D01*
X150325599Y-113594804D01*
X150396711Y-113587800D01*
X151003000Y-113587800D01*
X151003000Y-123392200D01*
X150925298Y-123392200D01*
X149749638Y-122216540D01*
X149704302Y-122161298D01*
X149483846Y-121980374D01*
X149232330Y-121845935D01*
X148959418Y-121763149D01*
X148746722Y-121742200D01*
X148746712Y-121742200D01*
X148675600Y-121735196D01*
X148604488Y-121742200D01*
X147671196Y-121742200D01*
X147675812Y-121726982D01*
X147688072Y-121602500D01*
X147688072Y-119697500D01*
X147675812Y-119573018D01*
X147639502Y-119453320D01*
X147580537Y-119343006D01*
X147501185Y-119246315D01*
X147404494Y-119166963D01*
X147294180Y-119107998D01*
X147174482Y-119071688D01*
X147050000Y-119059428D01*
X145050000Y-119059428D01*
X144925518Y-119071688D01*
X144805820Y-119107998D01*
X144695506Y-119166963D01*
X144598815Y-119246315D01*
X144519463Y-119343006D01*
X144460498Y-119453320D01*
X144424188Y-119573018D01*
X144411928Y-119697500D01*
X144411928Y-120610300D01*
X143490844Y-120610300D01*
X143358386Y-120501595D01*
X143204850Y-120419528D01*
X143038254Y-120368992D01*
X142865000Y-120351928D01*
X142002980Y-120351928D01*
X135915400Y-114264350D01*
X135915400Y-95796665D01*
X135919208Y-95758000D01*
X135915400Y-95719335D01*
X135915400Y-95719327D01*
X135904006Y-95603643D01*
X135858982Y-95455217D01*
X135785867Y-95318429D01*
X135785866Y-95318427D01*
X135712122Y-95228570D01*
X135712119Y-95228567D01*
X135687469Y-95198531D01*
X135657434Y-95173882D01*
X134799816Y-94316265D01*
X134813513Y-94271111D01*
X134836291Y-94039843D01*
X135360569Y-94564121D01*
X135360580Y-94564130D01*
X137388601Y-96592153D01*
X137388600Y-98047471D01*
X137347414Y-98109111D01*
X137276932Y-98279271D01*
X137241000Y-98459911D01*
X137241000Y-98644089D01*
X137276932Y-98824729D01*
X137347414Y-98994889D01*
X137449738Y-99148028D01*
X137579972Y-99278262D01*
X137733111Y-99380586D01*
X137903271Y-99451068D01*
X138083911Y-99487000D01*
X138268089Y-99487000D01*
X138448729Y-99451068D01*
X138618889Y-99380586D01*
X138772028Y-99278262D01*
X138902262Y-99148028D01*
X139004586Y-98994889D01*
X139075068Y-98824729D01*
X139111000Y-98644089D01*
X139111000Y-98459911D01*
X139075068Y-98279271D01*
X139004586Y-98109111D01*
X138963400Y-98047472D01*
X138963400Y-96304662D01*
X138967208Y-96265999D01*
X138963400Y-96227336D01*
X138963400Y-96227327D01*
X138952006Y-96111643D01*
X138906982Y-95963217D01*
X138833866Y-95826428D01*
X138735469Y-95706531D01*
X138705433Y-95681881D01*
X136474130Y-93450580D01*
X136474121Y-93450569D01*
X134799816Y-91776265D01*
X134813513Y-91731111D01*
X134842185Y-91440000D01*
X134813513Y-91148889D01*
X134728599Y-90868966D01*
X134590706Y-90610986D01*
X134405134Y-90384866D01*
X134179014Y-90199294D01*
X134124209Y-90170000D01*
X134179014Y-90140706D01*
X134405134Y-89955134D01*
X134590706Y-89729014D01*
X134728599Y-89471034D01*
X134813513Y-89191111D01*
X134842185Y-88900000D01*
X134813513Y-88608889D01*
X134728599Y-88328966D01*
X134590706Y-88070986D01*
X134405134Y-87844866D01*
X134179014Y-87659294D01*
X134124209Y-87630000D01*
X134179014Y-87600706D01*
X134405134Y-87415134D01*
X134590706Y-87189014D01*
X134728599Y-86931034D01*
X134813513Y-86651111D01*
X134842185Y-86360000D01*
X134813513Y-86068889D01*
X134728599Y-85788966D01*
X134590706Y-85530986D01*
X134405134Y-85304866D01*
X134179014Y-85119294D01*
X134124209Y-85090000D01*
X134179014Y-85060706D01*
X134405134Y-84875134D01*
X134590706Y-84649014D01*
X134728599Y-84391034D01*
X134813513Y-84111111D01*
X134842185Y-83820000D01*
X134813513Y-83528889D01*
X134728599Y-83248966D01*
X134590706Y-82990986D01*
X134405134Y-82764866D01*
X134375313Y-82740393D01*
X134444180Y-82719502D01*
X134554494Y-82660537D01*
X134651185Y-82581185D01*
X134730537Y-82484494D01*
X134789502Y-82374180D01*
X134825812Y-82254482D01*
X134838072Y-82130000D01*
X134838072Y-80430000D01*
X134825812Y-80305518D01*
X134789502Y-80185820D01*
X134730537Y-80075506D01*
X134651185Y-79978815D01*
X134554494Y-79899463D01*
X134444180Y-79840498D01*
X134324482Y-79804188D01*
X134200000Y-79791928D01*
X132500000Y-79791928D01*
X132375518Y-79804188D01*
X132255820Y-79840498D01*
X132145506Y-79899463D01*
X132048815Y-79978815D01*
X131969463Y-80075506D01*
X131910498Y-80185820D01*
X131874188Y-80305518D01*
X131861928Y-80430000D01*
X131861928Y-82130000D01*
X131874188Y-82254482D01*
X131910498Y-82374180D01*
X131969463Y-82484494D01*
X132048815Y-82581185D01*
X132145506Y-82660537D01*
X132255820Y-82719502D01*
X132324687Y-82740393D01*
X132294866Y-82764866D01*
X132109294Y-82990986D01*
X131971401Y-83248966D01*
X131886487Y-83528889D01*
X131857815Y-83820000D01*
X131495000Y-83820000D01*
X131495000Y-59215872D01*
X132385000Y-59215872D01*
X132385000Y-59656128D01*
X132470890Y-60087925D01*
X132639369Y-60494669D01*
X132883962Y-60860729D01*
X133195271Y-61172038D01*
X133561331Y-61416631D01*
X133968075Y-61585110D01*
X134399872Y-61671000D01*
X134840128Y-61671000D01*
X135271925Y-61585110D01*
X135678669Y-61416631D01*
X136044729Y-61172038D01*
X136356038Y-60860729D01*
X136600631Y-60494669D01*
X136769110Y-60087925D01*
X136855000Y-59656128D01*
X136855000Y-59215872D01*
X136769110Y-58784075D01*
X136600631Y-58377331D01*
X136356038Y-58011271D01*
X136044729Y-57699962D01*
X135678669Y-57455369D01*
X135271925Y-57286890D01*
X134840128Y-57201000D01*
X134399872Y-57201000D01*
X133968075Y-57286890D01*
X133561331Y-57455369D01*
X133195271Y-57699962D01*
X132883962Y-58011271D01*
X132639369Y-58377331D01*
X132470890Y-58784075D01*
X132385000Y-59215872D01*
X131495000Y-59215872D01*
X131495000Y-52070000D01*
X157257815Y-52070000D01*
X157286487Y-52361111D01*
X157371401Y-52641034D01*
X157509294Y-52899014D01*
X157694866Y-53125134D01*
X157920986Y-53310706D01*
X158178966Y-53448599D01*
X158458889Y-53533513D01*
X158677050Y-53555000D01*
X158822950Y-53555000D01*
X159041111Y-53533513D01*
X159321034Y-53448599D01*
X159579014Y-53310706D01*
X159805134Y-53125134D01*
X159990706Y-52899014D01*
X160128599Y-52641034D01*
X160213513Y-52361111D01*
X160242185Y-52070000D01*
X160213513Y-51778889D01*
X160128599Y-51498966D01*
X159990706Y-51240986D01*
X159805134Y-51014866D01*
X159579014Y-50829294D01*
X159321034Y-50691401D01*
X159041111Y-50606487D01*
X158822950Y-50585000D01*
X158677050Y-50585000D01*
X158458889Y-50606487D01*
X158178966Y-50691401D01*
X157920986Y-50829294D01*
X157694866Y-51014866D01*
X157509294Y-51240986D01*
X157371401Y-51498966D01*
X157286487Y-51778889D01*
X157257815Y-52070000D01*
X131495000Y-52070000D01*
X131495000Y-48945000D01*
X163145001Y-48945000D01*
X163145000Y-130125000D01*
X163145000Y-130125000D01*
G37*
X163145000Y-130125000D02*
X131495000Y-130125000D01*
X131495000Y-119921872D01*
X132385000Y-119921872D01*
X132385000Y-120362128D01*
X132470890Y-120793925D01*
X132639369Y-121200669D01*
X132883962Y-121566729D01*
X133195271Y-121878038D01*
X133561331Y-122122631D01*
X133968075Y-122291110D01*
X134399872Y-122377000D01*
X134840128Y-122377000D01*
X135271925Y-122291110D01*
X135678669Y-122122631D01*
X136044729Y-121878038D01*
X136356038Y-121566729D01*
X136600631Y-121200669D01*
X136769110Y-120793925D01*
X136855000Y-120362128D01*
X136855000Y-119921872D01*
X136769110Y-119490075D01*
X136600631Y-119083331D01*
X136356038Y-118717271D01*
X136044729Y-118405962D01*
X135678669Y-118161369D01*
X135271925Y-117992890D01*
X134840128Y-117907000D01*
X134399872Y-117907000D01*
X133968075Y-117992890D01*
X133561331Y-118161369D01*
X133195271Y-118405962D01*
X132883962Y-118717271D01*
X132639369Y-119083331D01*
X132470890Y-119490075D01*
X132385000Y-119921872D01*
X131495000Y-119921872D01*
X131495000Y-83820000D01*
X131857815Y-83820000D01*
X131886487Y-84111111D01*
X131971401Y-84391034D01*
X132109294Y-84649014D01*
X132294866Y-84875134D01*
X132520986Y-85060706D01*
X132575791Y-85090000D01*
X132520986Y-85119294D01*
X132294866Y-85304866D01*
X132109294Y-85530986D01*
X131971401Y-85788966D01*
X131886487Y-86068889D01*
X131857815Y-86360000D01*
X131886487Y-86651111D01*
X131971401Y-86931034D01*
X132109294Y-87189014D01*
X132294866Y-87415134D01*
X132520986Y-87600706D01*
X132575791Y-87630000D01*
X132520986Y-87659294D01*
X132294866Y-87844866D01*
X132109294Y-88070986D01*
X131971401Y-88328966D01*
X131886487Y-88608889D01*
X131857815Y-88900000D01*
X131886487Y-89191111D01*
X131971401Y-89471034D01*
X132109294Y-89729014D01*
X132294866Y-89955134D01*
X132520986Y-90140706D01*
X132575791Y-90170000D01*
X132520986Y-90199294D01*
X132294866Y-90384866D01*
X132109294Y-90610986D01*
X131971401Y-90868966D01*
X131886487Y-91148889D01*
X131857815Y-91440000D01*
X131886487Y-91731111D01*
X131971401Y-92011034D01*
X132109294Y-92269014D01*
X132294866Y-92495134D01*
X132520986Y-92680706D01*
X132575791Y-92710000D01*
X132520986Y-92739294D01*
X132294866Y-92924866D01*
X132109294Y-93150986D01*
X131971401Y-93408966D01*
X131886487Y-93688889D01*
X131857815Y-93980000D01*
X131886487Y-94271111D01*
X131971401Y-94551034D01*
X132109294Y-94809014D01*
X132294866Y-95035134D01*
X132520986Y-95220706D01*
X132575791Y-95250000D01*
X132520986Y-95279294D01*
X132294866Y-95464866D01*
X132109294Y-95690986D01*
X131971401Y-95948966D01*
X131886487Y-96228889D01*
X131857815Y-96520000D01*
X131886487Y-96811111D01*
X131971401Y-97091034D01*
X132109294Y-97349014D01*
X132294866Y-97575134D01*
X132520986Y-97760706D01*
X132778966Y-97898599D01*
X133058889Y-97983513D01*
X133277050Y-98005000D01*
X133422950Y-98005000D01*
X133641111Y-97983513D01*
X133921034Y-97898599D01*
X134179014Y-97760706D01*
X134340600Y-97628096D01*
X134340601Y-114551827D01*
X134336792Y-114590500D01*
X134351995Y-114744857D01*
X134397018Y-114893282D01*
X134397019Y-114893283D01*
X134470135Y-115030072D01*
X134568532Y-115149969D01*
X134598573Y-115174623D01*
X140726928Y-121302980D01*
X140726928Y-122165000D01*
X140743992Y-122338254D01*
X140794528Y-122504850D01*
X140848487Y-122605800D01*
X140408351Y-122605800D01*
X140247891Y-122621604D01*
X140042011Y-122684057D01*
X139852271Y-122785475D01*
X139685962Y-122921962D01*
X139549475Y-123088271D01*
X139448057Y-123278011D01*
X139385604Y-123483891D01*
X139364516Y-123698000D01*
X139385604Y-123912109D01*
X139448057Y-124117989D01*
X139549475Y-124307729D01*
X139685962Y-124474038D01*
X139852271Y-124610525D01*
X140042011Y-124711943D01*
X140247891Y-124774396D01*
X140408351Y-124790200D01*
X140726928Y-124790200D01*
X140726928Y-125140000D01*
X140743992Y-125313254D01*
X140794528Y-125479850D01*
X140876595Y-125633386D01*
X140987038Y-125767962D01*
X141121614Y-125878405D01*
X141275150Y-125960472D01*
X141441746Y-126011008D01*
X141535216Y-126020214D01*
X142218466Y-126703465D01*
X142263798Y-126758702D01*
X142319035Y-126804034D01*
X142319041Y-126804040D01*
X142461664Y-126921087D01*
X142484254Y-126939626D01*
X142735770Y-127074065D01*
X143008681Y-127156851D01*
X143034205Y-127159365D01*
X143221378Y-127177800D01*
X143221385Y-127177800D01*
X143292500Y-127184804D01*
X143363614Y-127177800D01*
X145343492Y-127177800D01*
X145392051Y-127203755D01*
X145691296Y-127294530D01*
X145924514Y-127317500D01*
X146175486Y-127317500D01*
X146408704Y-127294530D01*
X146707949Y-127203755D01*
X146983735Y-127056345D01*
X147225463Y-126857963D01*
X147423845Y-126616235D01*
X147571255Y-126340449D01*
X147662030Y-126041204D01*
X147692681Y-125730000D01*
X147662030Y-125418796D01*
X147571255Y-125119551D01*
X147423845Y-124843765D01*
X147254813Y-124637800D01*
X148075902Y-124637800D01*
X149251562Y-125813460D01*
X149296898Y-125868702D01*
X149352140Y-125914038D01*
X149352141Y-125914039D01*
X149369240Y-125928072D01*
X149517354Y-126049626D01*
X149768870Y-126184065D01*
X150041782Y-126266851D01*
X150254478Y-126287800D01*
X150254487Y-126287800D01*
X150325599Y-126294804D01*
X150396711Y-126287800D01*
X152478888Y-126287800D01*
X152550000Y-126294804D01*
X152621112Y-126287800D01*
X152621122Y-126287800D01*
X152833818Y-126266851D01*
X153106730Y-126184065D01*
X153358246Y-126049626D01*
X153506360Y-125928072D01*
X153523458Y-125914040D01*
X153523460Y-125914038D01*
X153578702Y-125868702D01*
X153624038Y-125813460D01*
X158118461Y-121319038D01*
X158283962Y-121566729D01*
X158595271Y-121878038D01*
X158961331Y-122122631D01*
X159368075Y-122291110D01*
X159799872Y-122377000D01*
X160240128Y-122377000D01*
X160671925Y-122291110D01*
X161078669Y-122122631D01*
X161444729Y-121878038D01*
X161756038Y-121566729D01*
X162000631Y-121200669D01*
X162169110Y-120793925D01*
X162255000Y-120362128D01*
X162255000Y-119921872D01*
X162169110Y-119490075D01*
X162000631Y-119083331D01*
X161756038Y-118717271D01*
X161444729Y-118405962D01*
X161078669Y-118161369D01*
X160671925Y-117992890D01*
X160240128Y-117907000D01*
X159874619Y-117907000D01*
X160105696Y-117695730D01*
X160125597Y-117672557D01*
X160137333Y-117650601D01*
X160144560Y-117626776D01*
X160147000Y-117602000D01*
X160147000Y-116346700D01*
X162263470Y-114230231D01*
X162318701Y-114184904D01*
X162364030Y-114129671D01*
X162364040Y-114129661D01*
X162499625Y-113964449D01*
X162499627Y-113964447D01*
X162634065Y-113712932D01*
X162678378Y-113566850D01*
X162716851Y-113440021D01*
X162719365Y-113414497D01*
X162737800Y-113227324D01*
X162737800Y-113227317D01*
X162744804Y-113156202D01*
X162737800Y-113085088D01*
X162737800Y-108292910D01*
X162753513Y-108241111D01*
X162782185Y-107950000D01*
X162753513Y-107658889D01*
X162668599Y-107378966D01*
X162530706Y-107120986D01*
X162345134Y-106894866D01*
X162119014Y-106709294D01*
X161861034Y-106571401D01*
X161581111Y-106486487D01*
X161362950Y-106465000D01*
X161217050Y-106465000D01*
X160998889Y-106486487D01*
X160718966Y-106571401D01*
X160460986Y-106709294D01*
X160234866Y-106894866D01*
X160147000Y-107001931D01*
X160147000Y-104722580D01*
X162263470Y-102606110D01*
X162318701Y-102560783D01*
X162364030Y-102505550D01*
X162364040Y-102505540D01*
X162499625Y-102340328D01*
X162499627Y-102340326D01*
X162634065Y-102088811D01*
X162716851Y-101815899D01*
X162737800Y-101603203D01*
X162737800Y-101603196D01*
X162744804Y-101532081D01*
X162737800Y-101460967D01*
X162737800Y-100672910D01*
X162753513Y-100621111D01*
X162782185Y-100330000D01*
X162753513Y-100038889D01*
X162668599Y-99758966D01*
X162530706Y-99500986D01*
X162345134Y-99274866D01*
X162119014Y-99089294D01*
X161861034Y-98951401D01*
X161581111Y-98866487D01*
X161362950Y-98845000D01*
X161217050Y-98845000D01*
X160998889Y-98866487D01*
X160718966Y-98951401D01*
X160460986Y-99089294D01*
X160234866Y-99274866D01*
X160147000Y-99381931D01*
X160147000Y-97102580D01*
X162263470Y-94986110D01*
X162318701Y-94940783D01*
X162364030Y-94885550D01*
X162364040Y-94885540D01*
X162499625Y-94720328D01*
X162499627Y-94720326D01*
X162634065Y-94468811D01*
X162716851Y-94195899D01*
X162737800Y-93983203D01*
X162737800Y-93983194D01*
X162744804Y-93912082D01*
X162737800Y-93840970D01*
X162737800Y-93052910D01*
X162753513Y-93001111D01*
X162782185Y-92710000D01*
X162753513Y-92418889D01*
X162668599Y-92138966D01*
X162530706Y-91880986D01*
X162345134Y-91654866D01*
X162119014Y-91469294D01*
X161861034Y-91331401D01*
X161581111Y-91246487D01*
X161362950Y-91225000D01*
X161217050Y-91225000D01*
X160998889Y-91246487D01*
X160718966Y-91331401D01*
X160460986Y-91469294D01*
X160234866Y-91654866D01*
X160147000Y-91761931D01*
X160147000Y-88400601D01*
X160558168Y-88400601D01*
X160629280Y-88407605D01*
X160700392Y-88400601D01*
X160700402Y-88400601D01*
X160913098Y-88379652D01*
X161186010Y-88296866D01*
X161437526Y-88162427D01*
X161657982Y-87981503D01*
X161703319Y-87926260D01*
X162263459Y-87366119D01*
X162318701Y-87320783D01*
X162499626Y-87100327D01*
X162634065Y-86848811D01*
X162716851Y-86575899D01*
X162737800Y-86363203D01*
X162737800Y-86363194D01*
X162744804Y-86292082D01*
X162737800Y-86220970D01*
X162737800Y-85432910D01*
X162753513Y-85381111D01*
X162782185Y-85090000D01*
X162753513Y-84798889D01*
X162668599Y-84518966D01*
X162530706Y-84260986D01*
X162345134Y-84034866D01*
X162119014Y-83849294D01*
X161861034Y-83711401D01*
X161581111Y-83626487D01*
X161362950Y-83605000D01*
X161217050Y-83605000D01*
X160998889Y-83626487D01*
X160718966Y-83711401D01*
X160460986Y-83849294D01*
X160234866Y-84034866D01*
X160147000Y-84141931D01*
X160147000Y-80780601D01*
X160558168Y-80780601D01*
X160629280Y-80787605D01*
X160700392Y-80780601D01*
X160700402Y-80780601D01*
X160913098Y-80759652D01*
X161186010Y-80676866D01*
X161437526Y-80542427D01*
X161657982Y-80361503D01*
X161703319Y-80306260D01*
X162263459Y-79746119D01*
X162318701Y-79700783D01*
X162499626Y-79480327D01*
X162634065Y-79228811D01*
X162716851Y-78955899D01*
X162737800Y-78743203D01*
X162737800Y-78743194D01*
X162744804Y-78672082D01*
X162737800Y-78600970D01*
X162737800Y-77812910D01*
X162753513Y-77761111D01*
X162782185Y-77470000D01*
X162753513Y-77178889D01*
X162668599Y-76898966D01*
X162530706Y-76640986D01*
X162345134Y-76414866D01*
X162119014Y-76229294D01*
X161861034Y-76091401D01*
X161581111Y-76006487D01*
X161362950Y-75985000D01*
X161217050Y-75985000D01*
X160998889Y-76006487D01*
X160718966Y-76091401D01*
X160460986Y-76229294D01*
X160234866Y-76414866D01*
X160147000Y-76521931D01*
X160147000Y-70798069D01*
X160234866Y-70905134D01*
X160460986Y-71090706D01*
X160718966Y-71228599D01*
X160998889Y-71313513D01*
X161217050Y-71335000D01*
X161362950Y-71335000D01*
X161581111Y-71313513D01*
X161861034Y-71228599D01*
X162119014Y-71090706D01*
X162345134Y-70905134D01*
X162530706Y-70679014D01*
X162668599Y-70421034D01*
X162753513Y-70141111D01*
X162782185Y-69850000D01*
X162753513Y-69558889D01*
X162737800Y-69507090D01*
X162737800Y-68719033D01*
X162744804Y-68647919D01*
X162737800Y-68576804D01*
X162737800Y-68576797D01*
X162716851Y-68364101D01*
X162634065Y-68091189D01*
X162499626Y-67839673D01*
X162487828Y-67825297D01*
X162364040Y-67674460D01*
X162364030Y-67674450D01*
X162318701Y-67619217D01*
X162263470Y-67573890D01*
X157263730Y-62574151D01*
X157218394Y-62518909D01*
X157147189Y-62460472D01*
X157090610Y-62414039D01*
X156997938Y-62337985D01*
X156746422Y-62203546D01*
X156591000Y-62156400D01*
X156591000Y-59215872D01*
X157785000Y-59215872D01*
X157785000Y-59656128D01*
X157870890Y-60087925D01*
X158039369Y-60494669D01*
X158283962Y-60860729D01*
X158595271Y-61172038D01*
X158961331Y-61416631D01*
X159368075Y-61585110D01*
X159799872Y-61671000D01*
X160240128Y-61671000D01*
X160671925Y-61585110D01*
X161078669Y-61416631D01*
X161444729Y-61172038D01*
X161756038Y-60860729D01*
X162000631Y-60494669D01*
X162169110Y-60087925D01*
X162255000Y-59656128D01*
X162255000Y-59215872D01*
X162169110Y-58784075D01*
X162000631Y-58377331D01*
X161756038Y-58011271D01*
X161444729Y-57699962D01*
X161078669Y-57455369D01*
X160671925Y-57286890D01*
X160240128Y-57201000D01*
X159799872Y-57201000D01*
X159368075Y-57286890D01*
X158961331Y-57455369D01*
X158595271Y-57699962D01*
X158283962Y-58011271D01*
X158039369Y-58377331D01*
X157870890Y-58784075D01*
X157785000Y-59215872D01*
X156591000Y-59215872D01*
X156591000Y-57150000D01*
X156588560Y-57125224D01*
X156581333Y-57101399D01*
X156569597Y-57079443D01*
X156553803Y-57060197D01*
X156534557Y-57044403D01*
X156512601Y-57032667D01*
X156488776Y-57025440D01*
X156464000Y-57023000D01*
X151130000Y-57023000D01*
X151105224Y-57025440D01*
X151081399Y-57032667D01*
X151059443Y-57044403D01*
X151040197Y-57060197D01*
X151024403Y-57079443D01*
X151012667Y-57101399D01*
X151005440Y-57125224D01*
X151003000Y-57150000D01*
X151003000Y-59892200D01*
X150925298Y-59892200D01*
X149749638Y-58716540D01*
X149704302Y-58661298D01*
X149483846Y-58480374D01*
X149232330Y-58345935D01*
X148959418Y-58263149D01*
X148746722Y-58242200D01*
X148746712Y-58242200D01*
X148675600Y-58235196D01*
X148604488Y-58242200D01*
X147671196Y-58242200D01*
X147675812Y-58226982D01*
X147688072Y-58102500D01*
X147688072Y-56197500D01*
X147675812Y-56073018D01*
X147639502Y-55953320D01*
X147580537Y-55843006D01*
X147501185Y-55746315D01*
X147404494Y-55666963D01*
X147294180Y-55607998D01*
X147174482Y-55571688D01*
X147050000Y-55559428D01*
X145050000Y-55559428D01*
X144925518Y-55571688D01*
X144805820Y-55607998D01*
X144695506Y-55666963D01*
X144598815Y-55746315D01*
X144519463Y-55843006D01*
X144460498Y-55953320D01*
X144424188Y-56073018D01*
X144411928Y-56197500D01*
X144411928Y-57110300D01*
X143490844Y-57110300D01*
X143358386Y-57001595D01*
X143204850Y-56919528D01*
X143038254Y-56868992D01*
X142865000Y-56851928D01*
X141615000Y-56851928D01*
X141441746Y-56868992D01*
X141275150Y-56919528D01*
X141121614Y-57001595D01*
X140987038Y-57112038D01*
X140876595Y-57246614D01*
X140794528Y-57400150D01*
X140786764Y-57425743D01*
X140779468Y-57426462D01*
X140779143Y-57426494D01*
X140630717Y-57471518D01*
X140493927Y-57544634D01*
X140435273Y-57592771D01*
X140374031Y-57643031D01*
X140349376Y-57673073D01*
X140261980Y-57760469D01*
X140189271Y-57774932D01*
X140019111Y-57845414D01*
X139865972Y-57947738D01*
X139735738Y-58077972D01*
X139633414Y-58231111D01*
X139562932Y-58401271D01*
X139527000Y-58581911D01*
X139527000Y-58766089D01*
X139562932Y-58946729D01*
X139633414Y-59116889D01*
X139735738Y-59270028D01*
X139865972Y-59400262D01*
X140019111Y-59502586D01*
X140189271Y-59573068D01*
X140369911Y-59609000D01*
X140554089Y-59609000D01*
X140734729Y-59573068D01*
X140904889Y-59502586D01*
X141058028Y-59400262D01*
X141084963Y-59373327D01*
X141121614Y-59403405D01*
X141275150Y-59485472D01*
X141441746Y-59536008D01*
X141615000Y-59553072D01*
X142865000Y-59553072D01*
X143038254Y-59536008D01*
X143204850Y-59485472D01*
X143358386Y-59403405D01*
X143490844Y-59294700D01*
X144463480Y-59294700D01*
X144437970Y-59378796D01*
X144407319Y-59690000D01*
X144437970Y-60001204D01*
X144528745Y-60300449D01*
X144676155Y-60576235D01*
X144845187Y-60782200D01*
X143892199Y-60782200D01*
X143745214Y-60635215D01*
X143736008Y-60541746D01*
X143685472Y-60375150D01*
X143603405Y-60221614D01*
X143492962Y-60087038D01*
X143358386Y-59976595D01*
X143204850Y-59894528D01*
X143038254Y-59843992D01*
X142865000Y-59826928D01*
X142775278Y-59826928D01*
X142523818Y-59750650D01*
X142240000Y-59722696D01*
X141956182Y-59750650D01*
X141704722Y-59826928D01*
X141615000Y-59826928D01*
X141441746Y-59843992D01*
X141275150Y-59894528D01*
X141121614Y-59976595D01*
X140987038Y-60087038D01*
X140876595Y-60221614D01*
X140794528Y-60375150D01*
X140743992Y-60541746D01*
X140726928Y-60715000D01*
X140726928Y-61145969D01*
X140481097Y-61391800D01*
X140408351Y-61391800D01*
X140247891Y-61407604D01*
X140042011Y-61470057D01*
X139852271Y-61571475D01*
X139685962Y-61707962D01*
X139549475Y-61874271D01*
X139448057Y-62064011D01*
X139385604Y-62269891D01*
X139364516Y-62484000D01*
X139385604Y-62698109D01*
X139448057Y-62903989D01*
X139549475Y-63093729D01*
X139685962Y-63260038D01*
X139852271Y-63396525D01*
X140042011Y-63497943D01*
X140247891Y-63560396D01*
X140408351Y-63576200D01*
X140879859Y-63576200D01*
X140933500Y-63581483D01*
X140987141Y-63576200D01*
X140987149Y-63576200D01*
X141147609Y-63560396D01*
X141353489Y-63497943D01*
X141543229Y-63396525D01*
X141709538Y-63260038D01*
X141743740Y-63218363D01*
X141988552Y-62973551D01*
X142218466Y-63203465D01*
X142263798Y-63258702D01*
X142319035Y-63304034D01*
X142319041Y-63304040D01*
X142415338Y-63383068D01*
X142484254Y-63439626D01*
X142710197Y-63560396D01*
X142735770Y-63574065D01*
X143008681Y-63656851D01*
X143034205Y-63659365D01*
X143221378Y-63677800D01*
X143221385Y-63677800D01*
X143292500Y-63684804D01*
X143363614Y-63677800D01*
X145343492Y-63677800D01*
X145392051Y-63703755D01*
X145691296Y-63794530D01*
X145924514Y-63817500D01*
X146175486Y-63817500D01*
X146408704Y-63794530D01*
X146707949Y-63703755D01*
X146983735Y-63556345D01*
X147225463Y-63357963D01*
X147423845Y-63116235D01*
X147571255Y-62840449D01*
X147662030Y-62541204D01*
X147692681Y-62230000D01*
X147662030Y-61918796D01*
X147571255Y-61619551D01*
X147423845Y-61343765D01*
X147254813Y-61137800D01*
X148075902Y-61137800D01*
X149251562Y-62313460D01*
X149296898Y-62368702D01*
X149352140Y-62414038D01*
X149352141Y-62414039D01*
X149369240Y-62428072D01*
X149517354Y-62549626D01*
X149768870Y-62684065D01*
X150041782Y-62766851D01*
X150254478Y-62787800D01*
X150254487Y-62787800D01*
X150325599Y-62794804D01*
X150396711Y-62787800D01*
X150952201Y-62787800D01*
X150952201Y-63344479D01*
X150945196Y-63415600D01*
X150973150Y-63699418D01*
X151003000Y-63797822D01*
X151003000Y-72592200D01*
X150925298Y-72592200D01*
X149749638Y-71416540D01*
X149704302Y-71361298D01*
X149483846Y-71180374D01*
X149232330Y-71045935D01*
X148959418Y-70963149D01*
X148746722Y-70942200D01*
X148746712Y-70942200D01*
X148675600Y-70935196D01*
X148604488Y-70942200D01*
X147671196Y-70942200D01*
X147675812Y-70926982D01*
X147688072Y-70802500D01*
X147688072Y-68897500D01*
X147675812Y-68773018D01*
X147639502Y-68653320D01*
X147580537Y-68543006D01*
X147501185Y-68446315D01*
X147404494Y-68366963D01*
X147294180Y-68307998D01*
X147174482Y-68271688D01*
X147050000Y-68259428D01*
X145050000Y-68259428D01*
X144925518Y-68271688D01*
X144805820Y-68307998D01*
X144695506Y-68366963D01*
X144598815Y-68446315D01*
X144519463Y-68543006D01*
X144460498Y-68653320D01*
X144424188Y-68773018D01*
X144411928Y-68897500D01*
X144411928Y-69810300D01*
X143490844Y-69810300D01*
X143358386Y-69701595D01*
X143204850Y-69619528D01*
X143038254Y-69568992D01*
X142865000Y-69551928D01*
X141615000Y-69551928D01*
X141441746Y-69568992D01*
X141275150Y-69619528D01*
X141121614Y-69701595D01*
X140987038Y-69812038D01*
X140876595Y-69946614D01*
X140794528Y-70100150D01*
X140789993Y-70115100D01*
X140005155Y-70115100D01*
X139888889Y-70037414D01*
X139718729Y-69966932D01*
X139538089Y-69931000D01*
X139353911Y-69931000D01*
X139173271Y-69966932D01*
X139003111Y-70037414D01*
X138849972Y-70139738D01*
X138719738Y-70269972D01*
X138617414Y-70423111D01*
X138546932Y-70593271D01*
X138511000Y-70773911D01*
X138511000Y-70958089D01*
X138546932Y-71138729D01*
X138617414Y-71308889D01*
X138719738Y-71462028D01*
X138849972Y-71592262D01*
X139003111Y-71694586D01*
X139173271Y-71765068D01*
X139353911Y-71801000D01*
X139538089Y-71801000D01*
X139718729Y-71765068D01*
X139888889Y-71694586D01*
X139895902Y-71689900D01*
X140789993Y-71689900D01*
X140794528Y-71704850D01*
X140876595Y-71858386D01*
X140987038Y-71992962D01*
X141121614Y-72103405D01*
X141275150Y-72185472D01*
X141441746Y-72236008D01*
X141615000Y-72253072D01*
X142865000Y-72253072D01*
X143038254Y-72236008D01*
X143204850Y-72185472D01*
X143358386Y-72103405D01*
X143490844Y-71994700D01*
X144463480Y-71994700D01*
X144437970Y-72078796D01*
X144407319Y-72390000D01*
X144437970Y-72701204D01*
X144528745Y-73000449D01*
X144676155Y-73276235D01*
X144845187Y-73482200D01*
X143892199Y-73482200D01*
X143745214Y-73335215D01*
X143736008Y-73241746D01*
X143685472Y-73075150D01*
X143603405Y-72921614D01*
X143492962Y-72787038D01*
X143358386Y-72676595D01*
X143204850Y-72594528D01*
X143038254Y-72543992D01*
X142865000Y-72526928D01*
X142775278Y-72526928D01*
X142523818Y-72450650D01*
X142240000Y-72422696D01*
X141956182Y-72450650D01*
X141704722Y-72526928D01*
X141615000Y-72526928D01*
X141441746Y-72543992D01*
X141275150Y-72594528D01*
X141121614Y-72676595D01*
X140987038Y-72787038D01*
X140876595Y-72921614D01*
X140794528Y-73075150D01*
X140743992Y-73241746D01*
X140731356Y-73370040D01*
X139651763Y-74449634D01*
X139549476Y-74574272D01*
X139448057Y-74764012D01*
X139385604Y-74969891D01*
X139364517Y-75184000D01*
X139385604Y-75398109D01*
X139448057Y-75603988D01*
X139549476Y-75793728D01*
X139685962Y-75960038D01*
X139852272Y-76096524D01*
X140042012Y-76197943D01*
X140247891Y-76260396D01*
X140462000Y-76281483D01*
X140676109Y-76260396D01*
X140881988Y-76197943D01*
X141071728Y-76096524D01*
X141196366Y-75994237D01*
X141752802Y-75437801D01*
X142218466Y-75903465D01*
X142263798Y-75958702D01*
X142319035Y-76004034D01*
X142319041Y-76004040D01*
X142431734Y-76096524D01*
X142484254Y-76139626D01*
X142710156Y-76260374D01*
X142735770Y-76274065D01*
X143008681Y-76356851D01*
X143034205Y-76359365D01*
X143221378Y-76377800D01*
X143221385Y-76377800D01*
X143292500Y-76384804D01*
X143363614Y-76377800D01*
X145343492Y-76377800D01*
X145392051Y-76403755D01*
X145691296Y-76494530D01*
X145924514Y-76517500D01*
X146175486Y-76517500D01*
X146408704Y-76494530D01*
X146707949Y-76403755D01*
X146983735Y-76256345D01*
X147225463Y-76057963D01*
X147423845Y-75816235D01*
X147571255Y-75540449D01*
X147662030Y-75241204D01*
X147692681Y-74930000D01*
X147662030Y-74618796D01*
X147571255Y-74319551D01*
X147423845Y-74043765D01*
X147254813Y-73837800D01*
X148075902Y-73837800D01*
X149251562Y-75013460D01*
X149296898Y-75068702D01*
X149352140Y-75114038D01*
X149352141Y-75114039D01*
X149369240Y-75128072D01*
X149517354Y-75249626D01*
X149768870Y-75384065D01*
X150041782Y-75466851D01*
X150254478Y-75487800D01*
X150254487Y-75487800D01*
X150325599Y-75494804D01*
X150396711Y-75487800D01*
X150952201Y-75487800D01*
X150952201Y-76044479D01*
X150945196Y-76115600D01*
X150973150Y-76399418D01*
X151003000Y-76497822D01*
X151003000Y-84609305D01*
X150510235Y-84116540D01*
X150464899Y-84061298D01*
X150244443Y-83880374D01*
X149992927Y-83745935D01*
X149720015Y-83663149D01*
X149507319Y-83642200D01*
X149507309Y-83642200D01*
X149436197Y-83635196D01*
X149365085Y-83642200D01*
X147671196Y-83642200D01*
X147675812Y-83626982D01*
X147688072Y-83502500D01*
X147688072Y-81597500D01*
X147675812Y-81473018D01*
X147639502Y-81353320D01*
X147580537Y-81243006D01*
X147501185Y-81146315D01*
X147404494Y-81066963D01*
X147294180Y-81007998D01*
X147174482Y-80971688D01*
X147050000Y-80959428D01*
X145050000Y-80959428D01*
X144925518Y-80971688D01*
X144805820Y-81007998D01*
X144695506Y-81066963D01*
X144598815Y-81146315D01*
X144519463Y-81243006D01*
X144460498Y-81353320D01*
X144424188Y-81473018D01*
X144411928Y-81597500D01*
X144411928Y-82643469D01*
X144327597Y-82727800D01*
X143490844Y-82727800D01*
X143358386Y-82619095D01*
X143204850Y-82537028D01*
X143038254Y-82486492D01*
X142865000Y-82469428D01*
X141615000Y-82469428D01*
X141441746Y-82486492D01*
X141275150Y-82537028D01*
X141121614Y-82619095D01*
X140987038Y-82729538D01*
X140876595Y-82864114D01*
X140794528Y-83017650D01*
X140789993Y-83032600D01*
X139950528Y-83032600D01*
X139888889Y-82991414D01*
X139718729Y-82920932D01*
X139538089Y-82885000D01*
X139353911Y-82885000D01*
X139173271Y-82920932D01*
X139003111Y-82991414D01*
X138849972Y-83093738D01*
X138719738Y-83223972D01*
X138617414Y-83377111D01*
X138546932Y-83547271D01*
X138511000Y-83727911D01*
X138511000Y-83912089D01*
X138546932Y-84092729D01*
X138617414Y-84262889D01*
X138719738Y-84416028D01*
X138849972Y-84546262D01*
X139003111Y-84648586D01*
X139173271Y-84719068D01*
X139353911Y-84755000D01*
X139538089Y-84755000D01*
X139718729Y-84719068D01*
X139888889Y-84648586D01*
X139950528Y-84607400D01*
X140789993Y-84607400D01*
X140794528Y-84622350D01*
X140876595Y-84775886D01*
X140987038Y-84910462D01*
X141121614Y-85020905D01*
X141275150Y-85102972D01*
X141441746Y-85153508D01*
X141615000Y-85170572D01*
X142865000Y-85170572D01*
X143038254Y-85153508D01*
X143204850Y-85102972D01*
X143358386Y-85020905D01*
X143490844Y-84912200D01*
X144424831Y-84912200D01*
X144407319Y-85090000D01*
X144437970Y-85401204D01*
X144528745Y-85700449D01*
X144676155Y-85976235D01*
X144845187Y-86182200D01*
X143738269Y-86182200D01*
X143736008Y-86159246D01*
X143685472Y-85992650D01*
X143603405Y-85839114D01*
X143492962Y-85704538D01*
X143358386Y-85594095D01*
X143204850Y-85512028D01*
X143038254Y-85461492D01*
X142865000Y-85444428D01*
X142775278Y-85444428D01*
X142523818Y-85368150D01*
X142240000Y-85340196D01*
X141956182Y-85368150D01*
X141704722Y-85444428D01*
X141615000Y-85444428D01*
X141441746Y-85461492D01*
X141275150Y-85512028D01*
X141121614Y-85594095D01*
X140987038Y-85704538D01*
X140876595Y-85839114D01*
X140794528Y-85992650D01*
X140790386Y-86006304D01*
X140774962Y-86018962D01*
X140740764Y-86060632D01*
X139651763Y-87149634D01*
X139549476Y-87274272D01*
X139448057Y-87464012D01*
X139385604Y-87669891D01*
X139364517Y-87884000D01*
X139385604Y-88098109D01*
X139448057Y-88303988D01*
X139549476Y-88493728D01*
X139685962Y-88660038D01*
X139852272Y-88796524D01*
X140042012Y-88897943D01*
X140247891Y-88960396D01*
X140462000Y-88981483D01*
X140676109Y-88960396D01*
X140881988Y-88897943D01*
X141071728Y-88796524D01*
X141196366Y-88694237D01*
X141644053Y-88246550D01*
X142000958Y-88603455D01*
X142046298Y-88658702D01*
X142266754Y-88839626D01*
X142518270Y-88974065D01*
X142791182Y-89056851D01*
X143003878Y-89077800D01*
X143003887Y-89077800D01*
X143074999Y-89084804D01*
X143146111Y-89077800D01*
X145343492Y-89077800D01*
X145392051Y-89103755D01*
X145691296Y-89194530D01*
X145924514Y-89217500D01*
X146175486Y-89217500D01*
X146408704Y-89194530D01*
X146707949Y-89103755D01*
X146983735Y-88956345D01*
X147225463Y-88757963D01*
X147423845Y-88516235D01*
X147571255Y-88240449D01*
X147662030Y-87941204D01*
X147692681Y-87630000D01*
X147662030Y-87318796D01*
X147571255Y-87019551D01*
X147423845Y-86743765D01*
X147254813Y-86537800D01*
X148836499Y-86537800D01*
X150012157Y-87713458D01*
X150057495Y-87768702D01*
X150112737Y-87814038D01*
X150112738Y-87814039D01*
X150124282Y-87823513D01*
X150277951Y-87949626D01*
X150529467Y-88084065D01*
X150802379Y-88166851D01*
X151003000Y-88186611D01*
X151003000Y-97992200D01*
X150925298Y-97992200D01*
X149749638Y-96816540D01*
X149704302Y-96761298D01*
X149483846Y-96580374D01*
X149232330Y-96445935D01*
X148959418Y-96363149D01*
X148746722Y-96342200D01*
X148746712Y-96342200D01*
X148675600Y-96335196D01*
X148604488Y-96342200D01*
X147671196Y-96342200D01*
X147675812Y-96326982D01*
X147688072Y-96202500D01*
X147688072Y-94297500D01*
X147675812Y-94173018D01*
X147639502Y-94053320D01*
X147580537Y-93943006D01*
X147501185Y-93846315D01*
X147404494Y-93766963D01*
X147294180Y-93707998D01*
X147174482Y-93671688D01*
X147050000Y-93659428D01*
X145050000Y-93659428D01*
X144925518Y-93671688D01*
X144805820Y-93707998D01*
X144695506Y-93766963D01*
X144598815Y-93846315D01*
X144519463Y-93943006D01*
X144460498Y-94053320D01*
X144424188Y-94173018D01*
X144411928Y-94297500D01*
X144411928Y-95210300D01*
X143490844Y-95210300D01*
X143358386Y-95101595D01*
X143204850Y-95019528D01*
X143038254Y-94968992D01*
X142865000Y-94951928D01*
X142547479Y-94951928D01*
X142391531Y-94795980D01*
X142377068Y-94723271D01*
X142306586Y-94553111D01*
X142204262Y-94399972D01*
X142074028Y-94269738D01*
X141920889Y-94167414D01*
X141750729Y-94096932D01*
X141570089Y-94061000D01*
X141385911Y-94061000D01*
X141205271Y-94096932D01*
X141035111Y-94167414D01*
X140881972Y-94269738D01*
X140751738Y-94399972D01*
X140649414Y-94553111D01*
X140578932Y-94723271D01*
X140543000Y-94903911D01*
X140543000Y-95088089D01*
X140578932Y-95268729D01*
X140649414Y-95438889D01*
X140751738Y-95592028D01*
X140763185Y-95603475D01*
X140743992Y-95666746D01*
X140726928Y-95840000D01*
X140726928Y-96765000D01*
X140743992Y-96938254D01*
X140794528Y-97104850D01*
X140876595Y-97258386D01*
X140987038Y-97392962D01*
X141121614Y-97503405D01*
X141275150Y-97585472D01*
X141441746Y-97636008D01*
X141615000Y-97653072D01*
X142865000Y-97653072D01*
X143038254Y-97636008D01*
X143204850Y-97585472D01*
X143358386Y-97503405D01*
X143490844Y-97394700D01*
X144463480Y-97394700D01*
X144437970Y-97478796D01*
X144407319Y-97790000D01*
X144437970Y-98101204D01*
X144528745Y-98400449D01*
X144676155Y-98676235D01*
X144845187Y-98882200D01*
X143892199Y-98882200D01*
X143745214Y-98735215D01*
X143736008Y-98641746D01*
X143685472Y-98475150D01*
X143603405Y-98321614D01*
X143492962Y-98187038D01*
X143358386Y-98076595D01*
X143204850Y-97994528D01*
X143038254Y-97943992D01*
X142865000Y-97926928D01*
X142775278Y-97926928D01*
X142523818Y-97850650D01*
X142240000Y-97822696D01*
X141956182Y-97850650D01*
X141704722Y-97926928D01*
X141615000Y-97926928D01*
X141441746Y-97943992D01*
X141275150Y-97994528D01*
X141121614Y-98076595D01*
X140987038Y-98187038D01*
X140958510Y-98221800D01*
X140408351Y-98221800D01*
X140247891Y-98237604D01*
X140042011Y-98300057D01*
X139852271Y-98401475D01*
X139685962Y-98537962D01*
X139549475Y-98704271D01*
X139448057Y-98894011D01*
X139385604Y-99099891D01*
X139364516Y-99314000D01*
X139385604Y-99528109D01*
X139448057Y-99733989D01*
X139549475Y-99923729D01*
X139685962Y-100090038D01*
X139852271Y-100226525D01*
X140042011Y-100327943D01*
X140247891Y-100390396D01*
X140408351Y-100406200D01*
X141033631Y-100406200D01*
X141121614Y-100478405D01*
X141275150Y-100560472D01*
X141441746Y-100611008D01*
X141535216Y-100620214D01*
X142218466Y-101303465D01*
X142263798Y-101358702D01*
X142319035Y-101404034D01*
X142319041Y-101404040D01*
X142461664Y-101521087D01*
X142484254Y-101539626D01*
X142735770Y-101674065D01*
X143008681Y-101756851D01*
X143034205Y-101759365D01*
X143221378Y-101777800D01*
X143221385Y-101777800D01*
X143292500Y-101784804D01*
X143363614Y-101777800D01*
X145343492Y-101777800D01*
X145392051Y-101803755D01*
X145691296Y-101894530D01*
X145924514Y-101917500D01*
X146175486Y-101917500D01*
X146408704Y-101894530D01*
X146707949Y-101803755D01*
X146983735Y-101656345D01*
X147225463Y-101457963D01*
X147423845Y-101216235D01*
X147571255Y-100940449D01*
X147662030Y-100641204D01*
X147692681Y-100330000D01*
X147662030Y-100018796D01*
X147571255Y-99719551D01*
X147423845Y-99443765D01*
X147254813Y-99237800D01*
X148075902Y-99237800D01*
X149251562Y-100413460D01*
X149296898Y-100468702D01*
X149352140Y-100514038D01*
X149352141Y-100514039D01*
X149369240Y-100528072D01*
X149517354Y-100649626D01*
X149768870Y-100784065D01*
X150041782Y-100866851D01*
X150254478Y-100887800D01*
X150254487Y-100887800D01*
X150325599Y-100894804D01*
X150396711Y-100887800D01*
X151003000Y-100887800D01*
X151003000Y-110692200D01*
X150925298Y-110692200D01*
X149749638Y-109516540D01*
X149704302Y-109461298D01*
X149483846Y-109280374D01*
X149232330Y-109145935D01*
X148959418Y-109063149D01*
X148746722Y-109042200D01*
X148746712Y-109042200D01*
X148675600Y-109035196D01*
X148604488Y-109042200D01*
X147671196Y-109042200D01*
X147675812Y-109026982D01*
X147688072Y-108902500D01*
X147688072Y-106997500D01*
X147675812Y-106873018D01*
X147639502Y-106753320D01*
X147580537Y-106643006D01*
X147501185Y-106546315D01*
X147404494Y-106466963D01*
X147294180Y-106407998D01*
X147174482Y-106371688D01*
X147050000Y-106359428D01*
X145050000Y-106359428D01*
X144925518Y-106371688D01*
X144805820Y-106407998D01*
X144695506Y-106466963D01*
X144598815Y-106546315D01*
X144519463Y-106643006D01*
X144460498Y-106753320D01*
X144424188Y-106873018D01*
X144411928Y-106997500D01*
X144411928Y-107910300D01*
X143490844Y-107910300D01*
X143358386Y-107801595D01*
X143204850Y-107719528D01*
X143175000Y-107710473D01*
X143175000Y-107603911D01*
X143139068Y-107423271D01*
X143068586Y-107253111D01*
X142966262Y-107099972D01*
X142836028Y-106969738D01*
X142682889Y-106867414D01*
X142512729Y-106796932D01*
X142332089Y-106761000D01*
X142147911Y-106761000D01*
X141967271Y-106796932D01*
X141797111Y-106867414D01*
X141643972Y-106969738D01*
X141513738Y-107099972D01*
X141411414Y-107253111D01*
X141340932Y-107423271D01*
X141305000Y-107603911D01*
X141305000Y-107710473D01*
X141275150Y-107719528D01*
X141121614Y-107801595D01*
X140987038Y-107912038D01*
X140876595Y-108046614D01*
X140794528Y-108200150D01*
X140743992Y-108366746D01*
X140726928Y-108540000D01*
X140726928Y-109465000D01*
X140743992Y-109638254D01*
X140794528Y-109804850D01*
X140876595Y-109958386D01*
X140987038Y-110092962D01*
X141121614Y-110203405D01*
X141275150Y-110285472D01*
X141441746Y-110336008D01*
X141615000Y-110353072D01*
X142865000Y-110353072D01*
X143038254Y-110336008D01*
X143204850Y-110285472D01*
X143358386Y-110203405D01*
X143490844Y-110094700D01*
X144463480Y-110094700D01*
X144437970Y-110178796D01*
X144407319Y-110490000D01*
X144437970Y-110801204D01*
X144528745Y-111100449D01*
X144676155Y-111376235D01*
X144845187Y-111582200D01*
X143892199Y-111582200D01*
X143745214Y-111435215D01*
X143736008Y-111341746D01*
X143685472Y-111175150D01*
X143603405Y-111021614D01*
X143492962Y-110887038D01*
X143358386Y-110776595D01*
X143204850Y-110694528D01*
X143038254Y-110643992D01*
X142865000Y-110626928D01*
X142775278Y-110626928D01*
X142523818Y-110550650D01*
X142240000Y-110522696D01*
X141956182Y-110550650D01*
X141704722Y-110626928D01*
X141615000Y-110626928D01*
X141441746Y-110643992D01*
X141275150Y-110694528D01*
X141121614Y-110776595D01*
X140994106Y-110881238D01*
X140952860Y-110885300D01*
X140952851Y-110885300D01*
X140792391Y-110901104D01*
X140586511Y-110963557D01*
X140396771Y-111064975D01*
X140230462Y-111201462D01*
X140196260Y-111243137D01*
X139651763Y-111787634D01*
X139549476Y-111912272D01*
X139448057Y-112102012D01*
X139385604Y-112307891D01*
X139364517Y-112522000D01*
X139385604Y-112736109D01*
X139448057Y-112941988D01*
X139549476Y-113131728D01*
X139685962Y-113298038D01*
X139852272Y-113434524D01*
X140042012Y-113535943D01*
X140247891Y-113598396D01*
X140462000Y-113619483D01*
X140676109Y-113598396D01*
X140881988Y-113535943D01*
X141071728Y-113434524D01*
X141196366Y-113332237D01*
X141270576Y-113258027D01*
X141275150Y-113260472D01*
X141441746Y-113311008D01*
X141535216Y-113320214D01*
X142218466Y-114003465D01*
X142263798Y-114058702D01*
X142319035Y-114104034D01*
X142319041Y-114104040D01*
X142417574Y-114184903D01*
X142484254Y-114239626D01*
X142720360Y-114365828D01*
X142735770Y-114374065D01*
X143008681Y-114456851D01*
X143034205Y-114459365D01*
X143221378Y-114477800D01*
X143221385Y-114477800D01*
X143292500Y-114484804D01*
X143363614Y-114477800D01*
X145343492Y-114477800D01*
X145392051Y-114503755D01*
X145691296Y-114594530D01*
X145924514Y-114617500D01*
X146175486Y-114617500D01*
X146408704Y-114594530D01*
X146707949Y-114503755D01*
X146983735Y-114356345D01*
X147225463Y-114157963D01*
X147423845Y-113916235D01*
X147571255Y-113640449D01*
X147662030Y-113341204D01*
X147692681Y-113030000D01*
X147662030Y-112718796D01*
X147571255Y-112419551D01*
X147423845Y-112143765D01*
X147254813Y-111937800D01*
X148075902Y-111937800D01*
X149251562Y-113113460D01*
X149296898Y-113168702D01*
X149352140Y-113214038D01*
X149352141Y-113214039D01*
X149368328Y-113227323D01*
X149517354Y-113349626D01*
X149768870Y-113484065D01*
X150041782Y-113566851D01*
X150254478Y-113587800D01*
X150254487Y-113587800D01*
X150325599Y-113594804D01*
X150396711Y-113587800D01*
X151003000Y-113587800D01*
X151003000Y-123392200D01*
X150925298Y-123392200D01*
X149749638Y-122216540D01*
X149704302Y-122161298D01*
X149483846Y-121980374D01*
X149232330Y-121845935D01*
X148959418Y-121763149D01*
X148746722Y-121742200D01*
X148746712Y-121742200D01*
X148675600Y-121735196D01*
X148604488Y-121742200D01*
X147671196Y-121742200D01*
X147675812Y-121726982D01*
X147688072Y-121602500D01*
X147688072Y-119697500D01*
X147675812Y-119573018D01*
X147639502Y-119453320D01*
X147580537Y-119343006D01*
X147501185Y-119246315D01*
X147404494Y-119166963D01*
X147294180Y-119107998D01*
X147174482Y-119071688D01*
X147050000Y-119059428D01*
X145050000Y-119059428D01*
X144925518Y-119071688D01*
X144805820Y-119107998D01*
X144695506Y-119166963D01*
X144598815Y-119246315D01*
X144519463Y-119343006D01*
X144460498Y-119453320D01*
X144424188Y-119573018D01*
X144411928Y-119697500D01*
X144411928Y-120610300D01*
X143490844Y-120610300D01*
X143358386Y-120501595D01*
X143204850Y-120419528D01*
X143038254Y-120368992D01*
X142865000Y-120351928D01*
X142002980Y-120351928D01*
X135915400Y-114264350D01*
X135915400Y-95796665D01*
X135919208Y-95758000D01*
X135915400Y-95719335D01*
X135915400Y-95719327D01*
X135904006Y-95603643D01*
X135858982Y-95455217D01*
X135785867Y-95318429D01*
X135785866Y-95318427D01*
X135712122Y-95228570D01*
X135712119Y-95228567D01*
X135687469Y-95198531D01*
X135657434Y-95173882D01*
X134799816Y-94316265D01*
X134813513Y-94271111D01*
X134836291Y-94039843D01*
X135360569Y-94564121D01*
X135360580Y-94564130D01*
X137388601Y-96592153D01*
X137388600Y-98047471D01*
X137347414Y-98109111D01*
X137276932Y-98279271D01*
X137241000Y-98459911D01*
X137241000Y-98644089D01*
X137276932Y-98824729D01*
X137347414Y-98994889D01*
X137449738Y-99148028D01*
X137579972Y-99278262D01*
X137733111Y-99380586D01*
X137903271Y-99451068D01*
X138083911Y-99487000D01*
X138268089Y-99487000D01*
X138448729Y-99451068D01*
X138618889Y-99380586D01*
X138772028Y-99278262D01*
X138902262Y-99148028D01*
X139004586Y-98994889D01*
X139075068Y-98824729D01*
X139111000Y-98644089D01*
X139111000Y-98459911D01*
X139075068Y-98279271D01*
X139004586Y-98109111D01*
X138963400Y-98047472D01*
X138963400Y-96304662D01*
X138967208Y-96265999D01*
X138963400Y-96227336D01*
X138963400Y-96227327D01*
X138952006Y-96111643D01*
X138906982Y-95963217D01*
X138833866Y-95826428D01*
X138735469Y-95706531D01*
X138705433Y-95681881D01*
X136474130Y-93450580D01*
X136474121Y-93450569D01*
X134799816Y-91776265D01*
X134813513Y-91731111D01*
X134842185Y-91440000D01*
X134813513Y-91148889D01*
X134728599Y-90868966D01*
X134590706Y-90610986D01*
X134405134Y-90384866D01*
X134179014Y-90199294D01*
X134124209Y-90170000D01*
X134179014Y-90140706D01*
X134405134Y-89955134D01*
X134590706Y-89729014D01*
X134728599Y-89471034D01*
X134813513Y-89191111D01*
X134842185Y-88900000D01*
X134813513Y-88608889D01*
X134728599Y-88328966D01*
X134590706Y-88070986D01*
X134405134Y-87844866D01*
X134179014Y-87659294D01*
X134124209Y-87630000D01*
X134179014Y-87600706D01*
X134405134Y-87415134D01*
X134590706Y-87189014D01*
X134728599Y-86931034D01*
X134813513Y-86651111D01*
X134842185Y-86360000D01*
X134813513Y-86068889D01*
X134728599Y-85788966D01*
X134590706Y-85530986D01*
X134405134Y-85304866D01*
X134179014Y-85119294D01*
X134124209Y-85090000D01*
X134179014Y-85060706D01*
X134405134Y-84875134D01*
X134590706Y-84649014D01*
X134728599Y-84391034D01*
X134813513Y-84111111D01*
X134842185Y-83820000D01*
X134813513Y-83528889D01*
X134728599Y-83248966D01*
X134590706Y-82990986D01*
X134405134Y-82764866D01*
X134375313Y-82740393D01*
X134444180Y-82719502D01*
X134554494Y-82660537D01*
X134651185Y-82581185D01*
X134730537Y-82484494D01*
X134789502Y-82374180D01*
X134825812Y-82254482D01*
X134838072Y-82130000D01*
X134838072Y-80430000D01*
X134825812Y-80305518D01*
X134789502Y-80185820D01*
X134730537Y-80075506D01*
X134651185Y-79978815D01*
X134554494Y-79899463D01*
X134444180Y-79840498D01*
X134324482Y-79804188D01*
X134200000Y-79791928D01*
X132500000Y-79791928D01*
X132375518Y-79804188D01*
X132255820Y-79840498D01*
X132145506Y-79899463D01*
X132048815Y-79978815D01*
X131969463Y-80075506D01*
X131910498Y-80185820D01*
X131874188Y-80305518D01*
X131861928Y-80430000D01*
X131861928Y-82130000D01*
X131874188Y-82254482D01*
X131910498Y-82374180D01*
X131969463Y-82484494D01*
X132048815Y-82581185D01*
X132145506Y-82660537D01*
X132255820Y-82719502D01*
X132324687Y-82740393D01*
X132294866Y-82764866D01*
X132109294Y-82990986D01*
X131971401Y-83248966D01*
X131886487Y-83528889D01*
X131857815Y-83820000D01*
X131495000Y-83820000D01*
X131495000Y-59215872D01*
X132385000Y-59215872D01*
X132385000Y-59656128D01*
X132470890Y-60087925D01*
X132639369Y-60494669D01*
X132883962Y-60860729D01*
X133195271Y-61172038D01*
X133561331Y-61416631D01*
X133968075Y-61585110D01*
X134399872Y-61671000D01*
X134840128Y-61671000D01*
X135271925Y-61585110D01*
X135678669Y-61416631D01*
X136044729Y-61172038D01*
X136356038Y-60860729D01*
X136600631Y-60494669D01*
X136769110Y-60087925D01*
X136855000Y-59656128D01*
X136855000Y-59215872D01*
X136769110Y-58784075D01*
X136600631Y-58377331D01*
X136356038Y-58011271D01*
X136044729Y-57699962D01*
X135678669Y-57455369D01*
X135271925Y-57286890D01*
X134840128Y-57201000D01*
X134399872Y-57201000D01*
X133968075Y-57286890D01*
X133561331Y-57455369D01*
X133195271Y-57699962D01*
X132883962Y-58011271D01*
X132639369Y-58377331D01*
X132470890Y-58784075D01*
X132385000Y-59215872D01*
X131495000Y-59215872D01*
X131495000Y-52070000D01*
X157257815Y-52070000D01*
X157286487Y-52361111D01*
X157371401Y-52641034D01*
X157509294Y-52899014D01*
X157694866Y-53125134D01*
X157920986Y-53310706D01*
X158178966Y-53448599D01*
X158458889Y-53533513D01*
X158677050Y-53555000D01*
X158822950Y-53555000D01*
X159041111Y-53533513D01*
X159321034Y-53448599D01*
X159579014Y-53310706D01*
X159805134Y-53125134D01*
X159990706Y-52899014D01*
X160128599Y-52641034D01*
X160213513Y-52361111D01*
X160242185Y-52070000D01*
X160213513Y-51778889D01*
X160128599Y-51498966D01*
X159990706Y-51240986D01*
X159805134Y-51014866D01*
X159579014Y-50829294D01*
X159321034Y-50691401D01*
X159041111Y-50606487D01*
X158822950Y-50585000D01*
X158677050Y-50585000D01*
X158458889Y-50606487D01*
X158178966Y-50691401D01*
X157920986Y-50829294D01*
X157694866Y-51014866D01*
X157509294Y-51240986D01*
X157371401Y-51498966D01*
X157286487Y-51778889D01*
X157257815Y-52070000D01*
X131495000Y-52070000D01*
X131495000Y-48945000D01*
X163145001Y-48945000D01*
X163145000Y-130125000D01*
M02*
