M48
; DRILL file {KiCad (5.1.4)-1} date 11/22/2020 4:06:48 PM
; FORMAT={-:-/ absolute / inch / decimal}
; #@! TF.CreationDate,2020-11-22T16:06:48-08:00
; #@! TF.GenerationSoftware,Kicad,Pcbnew,(5.1.4)-1
FMAT,2
INCH
T1C0.0079
T2C0.0197
T3C0.0197
T4C0.1575
%
G90
G05
T1
X1.968Y-3.3373
X1.9699Y-3.2414
X2.0389Y-3.4249
X2.0457Y-3.2067
X2.0536Y-3.2562
X2.0802Y-3.4662
X2.0832Y-3.3373
X2.095Y-3.4081
X2.1236Y-3.2182
X2.1373Y-3.3009
X2.1428Y-3.4228
X2.1593Y-3.1627
X2.178Y-3.4095
X2.1828Y-3.3111
X2.1852Y-3.3565
X2.2383Y-3.3489
X2.342Y-3.2054
X2.6373Y-3.3373
X2.6392Y-3.2414
X2.7082Y-3.4249
X2.715Y-3.2067
X2.7229Y-3.2562
X2.7495Y-3.4662
X2.7525Y-3.3373
X2.7643Y-3.4081
X2.7929Y-3.2182
X2.8066Y-3.3009
X2.812Y-3.4228
X2.8286Y-3.1627
X2.8472Y-3.4095
X2.8521Y-3.3111
X2.8544Y-3.3565
X2.9076Y-3.3489
X3.0113Y-3.2054
X3.2483Y-3.4172
X3.2778Y-3.3266
X3.283Y-3.2239
X3.2898Y-3.467
X3.3058Y-3.2389
X3.3214Y-3.3924
X3.3266Y-3.1766
X3.3714Y-3.2483
X3.381Y-3.4892
X3.4018Y-3.3289
X3.4105Y-3.1987
X3.4353Y-3.3625
X3.4353Y-3.4294
X3.4358Y-3.2394
X3.447Y-3.2625
X3.4486Y-3.4835
X3.4763Y-3.3672
X3.4767Y-3.1246
X3.5011Y-3.4924
X3.538Y-3.2111
X3.5416Y-3.1463
X3.5424Y-3.4723
X3.5586Y-3.2523
X3.5818Y-3.1298
X3.5885Y-3.2204
X3.5912Y-3.3436
X3.6055Y-3.4776
X3.6231Y-3.2837
X3.6297Y-3.1578
X3.6708Y-3.4172
X3.6834Y-3.2495
X3.6971Y-3.1748
X3.7009Y-3.4442
X3.7109Y-3.5089
X3.7195Y-3.4695
X3.725Y-3.3222
X3.7264Y-3.3477
X3.7266Y-3.1473
X3.7515Y-3.5322
X3.7562Y-3.1794
X3.809Y-3.3853
X3.8385Y-3.4629
X3.8401Y-3.2223
X3.8962Y-3.4559
X3.9357Y-3.2735
X3.942Y-3.3089
X3.9975Y-3.2081
X4.0042Y-3.4585
X4.0223Y-3.3967
X4.0239Y-3.2893
X4.045Y-3.2646
X4.0471Y-3.4349
X4.0707Y-3.3184
X4.1709Y-3.2081
X4.1719Y-3.4585
X4.1968Y-3.2924
X4.1971Y-3.3967
X4.2105Y-3.4349
X4.2865Y-3.1791
X4.307Y-3.2881
X4.3401Y-3.4585
X4.3424Y-3.3341
X4.3452Y-3.2081
X4.3641Y-3.3967
X4.3672Y-3.1696
X4.3893Y-3.4349
X4.4129Y-3.1845
X4.444Y-3.2696
X4.4818Y-3.2905
X4.516Y-3.4578
X4.5162Y-3.3184
X4.52Y-3.2078
X4.5319Y-3.3491
X4.5724Y-3.2234
X4.6172Y-3.2715
X4.6216Y-3.4009
X4.6344Y-3.5121
X4.6838Y-3.3322
X4.6889Y-3.4601
X4.7038Y-3.4349
X4.7082Y-3.3109
X4.7282Y-3.2715
X4.733Y-3.3978
X4.7941Y-3.2986
X4.8029Y-3.248
X4.8566Y-3.3326
X4.8664Y-3.4589
X4.8779Y-3.1203
X4.8802Y-3.1629
X4.8818Y-3.3109
X4.8885Y-3.2452
X4.8893Y-3.4349
X4.9038Y-3.2715
X4.9055Y-3.3978
X4.9294Y-3.1738
X5.0334Y-3.3326
X5.0369Y-3.4589
X5.0397Y-3.1341
X5.0574Y-3.3109
X5.0601Y-3.4349
X5.0774Y-3.3978
X5.0775Y-3.2715
X5.2046Y-3.3326
X5.2149Y-3.4589
X5.2306Y-3.3109
X5.2314Y-3.4349
X5.242Y-3.2393
X5.2507Y-3.3326
X5.3066Y-3.403
X5.3109Y-3.2727
X5.3735Y-3.4589
X5.3759Y-3.3326
X5.4003Y-3.3034
X5.4015Y-3.4306
T2
X3.0566Y-3.2349
X3.0566Y-3.2743
X3.0566Y-3.3137
X3.0566Y-3.353
X3.0566Y-3.3924
X5.0901Y-2.2851
X5.1294Y-2.2851
X5.1688Y-2.2851
X5.2082Y-2.2851
X5.2475Y-2.2851
X2.0369Y-1.8914
X2.0763Y-1.8914
X2.1156Y-1.8914
X2.155Y-1.8914
X2.1944Y-1.8914
X4.0802Y-3.0774
X4.1196Y-3.0774
X4.159Y-3.0774
X4.1983Y-3.0774
X4.2377Y-3.0774
X4.2771Y-3.0774
X4.3164Y-3.0774
X2.0763Y-2.878
X2.1156Y-2.878
X2.155Y-2.878
X2.1944Y-2.878
X2.2338Y-2.878
X3.2771Y-2.878
X3.3164Y-2.878
X3.3558Y-2.878
X3.3952Y-2.878
X3.4345Y-2.878
X3.4503Y-3.5893
X3.4897Y-3.5893
X3.529Y-3.5893
X3.5684Y-3.5893
X3.8893Y-2.878
X3.9286Y-2.878
X3.968Y-2.878
X4.0074Y-2.878
X4.0468Y-2.878
X3.4503Y-3.0774
X3.4897Y-3.0774
X3.529Y-3.0774
X3.5684Y-3.0774
X3.6078Y-3.0774
X3.6471Y-3.0774
X3.6865Y-3.0774
X3.7259Y-3.0774
X2.5842Y-3.2349
X2.5842Y-3.2743
X2.5842Y-3.3137
X2.5842Y-3.353
X2.5842Y-3.3924
X2.3873Y-3.2349
X2.3873Y-3.2743
X2.3873Y-3.3137
X2.3873Y-3.353
X2.3873Y-3.3924
X4.8676Y-3.5893
X4.907Y-3.5893
X4.9464Y-3.5893
X4.9857Y-3.5893
X5.0251Y-3.5893
X4.0802Y-3.5893
X4.1196Y-3.5893
X4.159Y-3.5893
X4.1983Y-3.5893
X3.2771Y-2.2851
X3.3164Y-2.2851
X3.3558Y-2.2851
X3.3952Y-2.2851
X3.4345Y-2.2851
X3.8499Y-1.8914
X3.8893Y-1.8914
X3.9286Y-1.8914
X3.968Y-1.8914
X4.0074Y-1.8914
X3.8893Y-2.2851
X3.9286Y-2.2851
X3.968Y-2.2851
X4.0074Y-2.2851
X4.0468Y-2.2851
X3.8499Y-2.4843
X3.8893Y-2.4843
X3.9286Y-2.4843
X3.968Y-2.4843
X4.0074Y-2.4843
X2.0369Y-2.4843
X2.0763Y-2.4843
X2.1156Y-2.4843
X2.155Y-2.4843
X2.1944Y-2.4843
X3.2771Y-2.4843
X3.3164Y-2.4843
X3.3558Y-2.4843
X3.3952Y-2.4843
X3.4345Y-2.4843
X1.9149Y-3.2349
X1.9149Y-3.2743
X1.9149Y-3.3137
X1.9149Y-3.353
X1.9149Y-3.3924
X3.2771Y-1.8914
X3.3164Y-1.8914
X3.3558Y-1.8914
X3.3952Y-1.8914
X3.4345Y-1.8914
X5.0901Y-2.878
X5.1294Y-2.878
X5.1688Y-2.878
X5.2082Y-2.878
X5.2475Y-2.878
X4.8676Y-3.0774
X4.907Y-3.0774
X4.9464Y-3.0774
X4.9857Y-3.0774
X5.0251Y-3.0774
X5.0645Y-3.0774
X5.1038Y-3.0774
X5.0901Y-2.4843
X5.1294Y-2.4843
X5.1688Y-2.4843
X5.2082Y-2.4843
X5.2475Y-2.4843
X5.0901Y-1.8914
X5.1294Y-1.8914
X5.1688Y-1.8914
X5.2082Y-1.8914
X5.2475Y-1.8914
X2.0763Y-2.2851
X2.1156Y-2.2851
X2.155Y-2.2851
X2.1944Y-2.2851
X2.2338Y-2.2851
T3
X5.3834Y-3.6365
X5.4129Y-3.6365
X5.4424Y-3.6365
X5.466Y-3.5538
X5.466Y-3.5833
X5.466Y-3.6129
X5.466Y-3.666
X5.466Y-3.6956
X5.466Y-3.7251
X5.4956Y-3.6365
X5.5251Y-3.6365
X5.5546Y-3.6365
X1.7082Y-3.6001
X3.0172Y-3.5991
X3.1058Y-3.5499
X1.6767Y-1.8442
X5.3087Y-2.3349
X5.3087Y-2.4373
X5.3382Y-2.3349
X5.3382Y-2.4373
X5.3677Y-2.3349
X5.3677Y-2.4373
X5.3914Y-2.2522
X5.3914Y-2.2818
X5.3914Y-2.3113
X5.3914Y-2.3861
X5.3914Y-2.4609
X5.3914Y-2.4904
X5.3914Y-2.52
X3.0763Y-3.5991
X2.3519Y-3.0302
X2.3814Y-3.0302
X2.4109Y-3.0302
X2.4345Y-3.0538
X2.4345Y-3.0833
X2.4345Y-3.1129
X2.4857Y-3.0302
X2.5369Y-3.0538
X2.5369Y-3.0833
X2.5369Y-3.1129
X2.5605Y-3.0302
X2.5901Y-3.0302
X2.6196Y-3.0302
X1.5822Y-3.6001
X5.6452Y-1.8442
X1.8676Y-2.8452
X1.8676Y-2.8747
X1.8676Y-2.9042
X1.8676Y-2.979
X1.8676Y-3.0538
X1.8676Y-3.0833
X1.8676Y-3.1129
X1.8912Y-2.9278
X1.8912Y-3.0302
X1.9208Y-2.9278
X1.9208Y-3.0302
X1.9503Y-2.9278
X1.9503Y-3.0302
X5.5507Y-1.8442
X1.7397Y-1.8442
X1.6452Y-1.8442
X1.6767Y-3.6001
X1.6137Y-3.6001
X5.3696Y-2.9298
X5.5979Y-3.6355
X5.3834Y-3.0302
X5.4129Y-3.0302
X5.4424Y-3.0302
X5.466Y-2.9416
X5.466Y-2.9711
X5.466Y-3.0007
X5.466Y-3.0538
X5.466Y-3.0833
X5.466Y-3.1129
X5.4956Y-3.0302
X5.5251Y-3.0302
X5.5546Y-3.0302
X5.6137Y-1.8442
X3.5779Y-2.2482
X3.5779Y-2.2797
X3.5779Y-2.3112
X3.5779Y-2.3427
X3.5779Y-2.4293
X3.5779Y-2.4608
X3.5779Y-2.4923
X3.5779Y-2.5238
X3.6802Y-2.2482
X3.6802Y-2.2797
X3.6802Y-2.3112
X3.6802Y-2.3427
X3.6802Y-2.4293
X3.6802Y-2.4608
X3.6802Y-2.4923
X3.6802Y-2.5238
X5.3991Y-2.8707
X3.1176Y-3.6365
X3.1471Y-3.6365
X3.1767Y-3.6365
X3.2062Y-3.5538
X3.2062Y-3.5833
X3.2062Y-3.6129
X3.2062Y-3.666
X3.2062Y-3.6956
X3.2062Y-3.7251
X3.2298Y-3.6365
X3.2594Y-3.6365
X3.2889Y-3.6365
X5.5822Y-1.8442
X1.7397Y-3.6001
X1.5822Y-1.8442
X1.779Y-3.5971
X1.8086Y-3.5971
X1.8381Y-3.5971
X1.8676Y-3.5144
X1.8676Y-3.544
X1.8676Y-3.5735
X1.8676Y-3.6267
X1.8676Y-3.6562
X1.8676Y-3.6857
X1.8912Y-3.5971
X1.9208Y-3.5971
X1.9503Y-3.5971
X5.6609Y-3.6355
X5.4286Y-2.9298
X5.6767Y-1.8442
X1.779Y-1.8442
X1.8086Y-1.8442
X1.8381Y-1.8442
X1.8676Y-1.7556
X1.8676Y-1.7851
X1.8676Y-1.8146
X1.8676Y-1.8678
X1.8676Y-1.8973
X1.8676Y-1.9269
X1.8912Y-1.8442
X1.9208Y-1.8442
X1.9503Y-1.8442
X1.6452Y-3.6001
X5.3991Y-2.9003
X3.0468Y-3.5991
X5.6294Y-3.6355
X3.1058Y-3.5794
X3.4956Y-2.9278
X3.5251Y-2.9278
X3.5546Y-2.9278
X3.5782Y-2.8452
X3.5782Y-2.8747
X3.5782Y-2.9042
X3.6294Y-2.9278
X3.6806Y-2.8452
X3.6806Y-2.8747
X3.6806Y-2.9042
X3.7042Y-2.9278
X3.7338Y-2.9278
X3.7633Y-2.9278
X2.3519Y-3.5971
X2.3814Y-3.5971
X2.4109Y-3.5971
X2.4345Y-3.5144
X2.4345Y-3.544
X2.4345Y-3.5735
X2.4857Y-3.5971
X2.5369Y-3.5144
X2.5369Y-3.544
X2.5369Y-3.5735
X2.5605Y-3.5971
X2.5901Y-3.5971
X2.6196Y-3.5971
X3.1058Y-3.6089
X1.7082Y-1.8442
X5.3087Y-1.8442
X5.3382Y-1.8442
X5.3677Y-1.8442
X5.3914Y-1.7556
X5.3914Y-1.7851
X5.3914Y-1.8146
X5.3914Y-1.8678
X5.3914Y-1.8973
X5.3914Y-1.9269
X5.4209Y-1.8442
X5.4504Y-1.8442
X5.4799Y-1.8442
X3.0212Y-3.0302
X3.0507Y-3.0302
X3.0802Y-3.0302
X3.1038Y-3.0538
X3.1038Y-3.0833
X3.1038Y-3.1129
X3.155Y-3.0302
X3.2062Y-3.0538
X3.2062Y-3.0833
X3.2062Y-3.1129
X3.2298Y-3.0302
X3.2594Y-3.0302
X3.2889Y-3.0302
X1.6137Y-1.8442
X3.4956Y-1.8442
X3.5251Y-1.8442
X3.5546Y-1.8442
X3.5782Y-1.8678
X3.5782Y-1.8973
X3.5782Y-1.9269
X3.6294Y-1.8442
X3.6806Y-1.8678
X3.6806Y-1.8973
X3.6806Y-1.9269
X3.7042Y-1.8442
X3.7338Y-1.8442
X3.7633Y-1.8442
X5.5192Y-1.8442
X1.8676Y-2.2522
X1.8676Y-2.2818
X1.8676Y-2.3113
X1.8676Y-2.3861
X1.8676Y-2.4609
X1.8676Y-2.4904
X1.8676Y-2.52
X1.8912Y-2.3349
X1.8912Y-2.4373
X1.9208Y-2.3349
X1.9208Y-2.4373
X1.9503Y-2.3349
X1.9503Y-2.4373
X5.3991Y-2.9298
T4
X5.3047Y-1.5371
X1.9542Y-1.5371
T0
M30
