G04 #@! TF.GenerationSoftware,KiCad,Pcbnew,(5.1.4)-1*
G04 #@! TF.CreationDate,2020-11-25T12:07:16-08:00*
G04 #@! TF.ProjectId,ufc_v4_displays_panel,7566635f-7634-45f6-9469-73706c617973,rev?*
G04 #@! TF.SameCoordinates,Original*
G04 #@! TF.FileFunction,Copper,L2,Bot*
G04 #@! TF.FilePolarity,Positive*
%FSLAX46Y46*%
G04 Gerber Fmt 4.6, Leading zero omitted, Abs format (unit mm)*
G04 Created by KiCad (PCBNEW (5.1.4)-1) date 2020-11-25 12:07:16*
%MOMM*%
%LPD*%
G04 APERTURE LIST*
%ADD10O,0.850000X0.850000*%
%ADD11R,0.850000X0.850000*%
%ADD12C,0.450000*%
%ADD13C,0.305000*%
%ADD14C,0.152400*%
%ADD15C,0.304800*%
G04 APERTURE END LIST*
D10*
X146637500Y-62042000D03*
X146637500Y-61042000D03*
X146637500Y-60042000D03*
X146637500Y-59042000D03*
D11*
X146637500Y-58042000D03*
X134637500Y-58042000D03*
D10*
X134637500Y-59042000D03*
X134637500Y-60042000D03*
X134637500Y-61042000D03*
X134637500Y-62042000D03*
X146637500Y-45042000D03*
X146637500Y-44042000D03*
X146637500Y-43042000D03*
X146637500Y-42042000D03*
D11*
X146637500Y-41042000D03*
X134637500Y-41042000D03*
D10*
X134637500Y-42042000D03*
X134637500Y-43042000D03*
X134637500Y-44042000D03*
X134637500Y-45042000D03*
D11*
X80637500Y-96042000D03*
D10*
X81637500Y-96042000D03*
X82637500Y-96042000D03*
X83637500Y-96042000D03*
X71637500Y-83042000D03*
X70637500Y-83042000D03*
X69637500Y-83042000D03*
X68637500Y-83042000D03*
X67637500Y-83042000D03*
X66637500Y-83042000D03*
X65637500Y-83042000D03*
D11*
X64637500Y-83042000D03*
X100637500Y-83042000D03*
D10*
X101637500Y-83042000D03*
X102637500Y-83042000D03*
X103637500Y-83042000D03*
X104637500Y-83042000D03*
X105637500Y-83042000D03*
X106637500Y-83042000D03*
X104637500Y-96042000D03*
X103637500Y-96042000D03*
X102637500Y-96042000D03*
X101637500Y-96042000D03*
D11*
X100637500Y-96042000D03*
D10*
X86637500Y-83042000D03*
X85637500Y-83042000D03*
X84637500Y-83042000D03*
X83637500Y-83042000D03*
X82637500Y-83042000D03*
X81637500Y-83042000D03*
D11*
X80637500Y-83042000D03*
D10*
X67637500Y-96042000D03*
X66637500Y-96042000D03*
X65637500Y-96042000D03*
D11*
X64637500Y-96042000D03*
X119637500Y-74941500D03*
D10*
X119637500Y-73941500D03*
X119637500Y-72941500D03*
X119637500Y-71941500D03*
X119637500Y-70941500D03*
D11*
X129637501Y-43441500D03*
D10*
X129637501Y-42441500D03*
X129637501Y-41441500D03*
X129637501Y-40441500D03*
X129637501Y-39441500D03*
D11*
X119637500Y-43441500D03*
D10*
X119637500Y-42441500D03*
X119637500Y-41441500D03*
X119637500Y-40441500D03*
X119637500Y-39441500D03*
D11*
X129637500Y-73941499D03*
D10*
X129637500Y-72941499D03*
X129637500Y-71941499D03*
X129637500Y-70941499D03*
X129637500Y-69941499D03*
D11*
X104637500Y-74941500D03*
D10*
X104637500Y-73941500D03*
X104637500Y-72941500D03*
X104637500Y-71941500D03*
X104637500Y-70941500D03*
D11*
X114637501Y-43441500D03*
D10*
X114637501Y-42441500D03*
X114637501Y-41441500D03*
X114637501Y-40441500D03*
X114637501Y-39441500D03*
D11*
X104637500Y-43441500D03*
D10*
X104637500Y-42441500D03*
X104637500Y-41441500D03*
X104637500Y-40441500D03*
X104637500Y-39441500D03*
D11*
X114637500Y-73941499D03*
D10*
X114637500Y-72941499D03*
X114637500Y-71941499D03*
X114637500Y-70941499D03*
X114637500Y-69941499D03*
D11*
X89637500Y-74941500D03*
D10*
X89637500Y-73941500D03*
X89637500Y-72941500D03*
X89637500Y-71941500D03*
X89637500Y-70941500D03*
D11*
X99637501Y-43441500D03*
D10*
X99637501Y-42441500D03*
X99637501Y-41441500D03*
X99637501Y-40441500D03*
X99637501Y-39441500D03*
D11*
X89637500Y-43441500D03*
D10*
X89637500Y-42441500D03*
X89637500Y-41441500D03*
X89637500Y-40441500D03*
X89637500Y-39441500D03*
D11*
X99637500Y-73941499D03*
D10*
X99637500Y-72941499D03*
X99637500Y-71941499D03*
X99637500Y-70941499D03*
X99637500Y-69941499D03*
D11*
X74637500Y-74941500D03*
D10*
X74637500Y-73941500D03*
X74637500Y-72941500D03*
X74637500Y-71941500D03*
X74637500Y-70941500D03*
D11*
X84637501Y-43441500D03*
D10*
X84637501Y-42441500D03*
X84637501Y-41441500D03*
X84637501Y-40441500D03*
X84637501Y-39441500D03*
D11*
X74637500Y-43441500D03*
D10*
X74637500Y-42441500D03*
X74637500Y-41441500D03*
X74637500Y-40441500D03*
X74637500Y-39441500D03*
D11*
X84637500Y-73941499D03*
D10*
X84637500Y-72941499D03*
X84637500Y-71941499D03*
X84637500Y-70941499D03*
X84637500Y-69941499D03*
D11*
X59637500Y-74941500D03*
D10*
X59637500Y-73941500D03*
X59637500Y-72941500D03*
X59637500Y-71941500D03*
X59637500Y-70941500D03*
D11*
X69637501Y-43441500D03*
D10*
X69637501Y-42441500D03*
X69637501Y-41441500D03*
X69637501Y-40441500D03*
X69637501Y-39441500D03*
D11*
X59637500Y-43441500D03*
D10*
X59637500Y-42441500D03*
X59637500Y-41441500D03*
X59637500Y-40441500D03*
X59637500Y-39441500D03*
D11*
X69637500Y-73941499D03*
D10*
X69637500Y-72941499D03*
X69637500Y-71941499D03*
X69637500Y-70941499D03*
X69637500Y-69941499D03*
D12*
X61372400Y-47809200D03*
X64229300Y-57892400D03*
X61435200Y-51806400D03*
X64189300Y-67985700D03*
X61866400Y-72093800D03*
X67496200Y-38500400D03*
X61835400Y-62128100D03*
X63849300Y-56042000D03*
X61059501Y-41796600D03*
X62629200Y-65738800D03*
X68057000Y-72075100D03*
X69217901Y-61787500D03*
X63087200Y-55509599D03*
X63290000Y-75877100D03*
X67929900Y-41762500D03*
X62676000Y-45396300D03*
X68628100Y-51662400D03*
X66675100Y-55560800D03*
X67334300Y-75690900D03*
X60415700Y-69788300D03*
X65292700Y-45503200D03*
X66739501Y-66000600D03*
X61639200Y-41101300D03*
X62558001Y-50502300D03*
X61814100Y-54467601D03*
X61769000Y-44422901D03*
X62814600Y-40718900D03*
X64667000Y-71582500D03*
X64412600Y-41152600D03*
X63717400Y-53801600D03*
X63277600Y-46514100D03*
X63813200Y-66182999D03*
X63541700Y-74021700D03*
X63906900Y-49800400D03*
X64667000Y-61420900D03*
X63501700Y-43704600D03*
X65039900Y-74768500D03*
X65419900Y-65710200D03*
X65428800Y-49760500D03*
X63917299Y-45862000D03*
X64601400Y-41809800D03*
X65419901Y-59961700D03*
X65419900Y-69951900D03*
X64704600Y-54431900D03*
X64667000Y-44278500D03*
X64866000Y-38534600D03*
X68566000Y-66325600D03*
X67482000Y-74744501D03*
X68624500Y-60685500D03*
X67465400Y-54426400D03*
X67464800Y-51297100D03*
X61873100Y-38620100D03*
X68148400Y-64658800D03*
X66683500Y-75920600D03*
X66043200Y-67440000D03*
X68158100Y-45408700D03*
X66567000Y-57116000D03*
X68601900Y-52913400D03*
X61866100Y-78062100D03*
X66739500Y-77469600D03*
X67392500Y-46471800D03*
X76372400Y-47809200D03*
X79229300Y-57892400D03*
X76435200Y-51806400D03*
X79189300Y-67985700D03*
X76866400Y-72093800D03*
X82496200Y-38500400D03*
X76835400Y-62128100D03*
X78849300Y-56042000D03*
X76059501Y-41796600D03*
X77629200Y-65738800D03*
X83057000Y-72075100D03*
X84217901Y-61787500D03*
X78087200Y-55509599D03*
X78290000Y-75877100D03*
X82929900Y-41762500D03*
X77676000Y-45396300D03*
X83628100Y-51662400D03*
X81675100Y-55560800D03*
X82334300Y-75690900D03*
X75415700Y-69788300D03*
X80292700Y-45503200D03*
X81739501Y-66000600D03*
X76639200Y-41101300D03*
X77558001Y-50502300D03*
X76814100Y-54467601D03*
X76769000Y-44422901D03*
X77814600Y-40718900D03*
X79667000Y-71582500D03*
X79412600Y-41152600D03*
X78717400Y-53801600D03*
X78277600Y-46514100D03*
X78813200Y-66182999D03*
X78541700Y-74021700D03*
X78906900Y-49800400D03*
X79667000Y-61420900D03*
X78501700Y-43704600D03*
X80039900Y-74768500D03*
X80419900Y-65710200D03*
X80428800Y-49760500D03*
X78917299Y-45862000D03*
X79601400Y-41809800D03*
X80419901Y-59961700D03*
X80419900Y-69951900D03*
X79704600Y-54431900D03*
X79667000Y-44278500D03*
X79866000Y-38534600D03*
X83566000Y-66325600D03*
X82482000Y-74744501D03*
X83624500Y-60685500D03*
X82465400Y-54426400D03*
X82464800Y-51297100D03*
X76873100Y-38620100D03*
X83148400Y-64658800D03*
X81683500Y-75920600D03*
X81043200Y-67440000D03*
X83158100Y-45408700D03*
X81567000Y-57116000D03*
X83601900Y-52913400D03*
X76866100Y-78062100D03*
X81739500Y-77469600D03*
X82392500Y-46471800D03*
X91372400Y-47809200D03*
X94229300Y-57892400D03*
X91435200Y-51806400D03*
X94189300Y-67985700D03*
X91866400Y-72093800D03*
X97496200Y-38500400D03*
X91835400Y-62128100D03*
X93849300Y-56042000D03*
X91059501Y-41796600D03*
X92629200Y-65738800D03*
X98057000Y-72075100D03*
X99217901Y-61787500D03*
X93087200Y-55509599D03*
X93290000Y-75877100D03*
X97929900Y-41762500D03*
X92676000Y-45396300D03*
X98628100Y-51662400D03*
X96675100Y-55560800D03*
X97334300Y-75690900D03*
X90415700Y-69788300D03*
X95292700Y-45503200D03*
X96739501Y-66000600D03*
X91639200Y-41101300D03*
X92558001Y-50502300D03*
X91814100Y-54467601D03*
X91769000Y-44422901D03*
X92814600Y-40718900D03*
X94667000Y-71582500D03*
X94412600Y-41152600D03*
X93717400Y-53801600D03*
X93277600Y-46514100D03*
X93813200Y-66182999D03*
X93541700Y-74021700D03*
X93906900Y-49800400D03*
X94667000Y-61420900D03*
X93501700Y-43704600D03*
X95039900Y-74768500D03*
X95419900Y-65710200D03*
X95428800Y-49760500D03*
X93917299Y-45862000D03*
X94601400Y-41809800D03*
X95419901Y-59961700D03*
X95419900Y-69951900D03*
X94704600Y-54431900D03*
X94667000Y-44278500D03*
X94866000Y-38534600D03*
X98566000Y-66325600D03*
X97482000Y-74744501D03*
X98624500Y-60685500D03*
X97465400Y-54426400D03*
X97464800Y-51297100D03*
X91873100Y-38620100D03*
X98148400Y-64658800D03*
X96683500Y-75920600D03*
X96043200Y-67440000D03*
X98158100Y-45408700D03*
X96567000Y-57116000D03*
X98601900Y-52913400D03*
X91866100Y-78062100D03*
X96739500Y-77469600D03*
X97392500Y-46471800D03*
X106372400Y-47809200D03*
X109229300Y-57892400D03*
X106435200Y-51806400D03*
X109189300Y-67985700D03*
X106866400Y-72093800D03*
X112496200Y-38500400D03*
X106835400Y-62128100D03*
X108849300Y-56042000D03*
X106059501Y-41796600D03*
X107629200Y-65738800D03*
X113057000Y-72075100D03*
X114217901Y-61787500D03*
X108087200Y-55509599D03*
X108290000Y-75877100D03*
X112929900Y-41762500D03*
X107676000Y-45396300D03*
X113628100Y-51662400D03*
X111675100Y-55560800D03*
X112334300Y-75690900D03*
X105415700Y-69788300D03*
X110292700Y-45503200D03*
X111739501Y-66000600D03*
X106639200Y-41101300D03*
X107558001Y-50502300D03*
X106814100Y-54467601D03*
X106769000Y-44422901D03*
X107814600Y-40718900D03*
X109667000Y-71582500D03*
X109412600Y-41152600D03*
X108717400Y-53801600D03*
X108277600Y-46514100D03*
X108813200Y-66182999D03*
X108541700Y-74021700D03*
X108906900Y-49800400D03*
X109667000Y-61420900D03*
X108501700Y-43704600D03*
X110039900Y-74768500D03*
X110419900Y-65710200D03*
X110428800Y-49760500D03*
X108917299Y-45862000D03*
X109601400Y-41809800D03*
X110419901Y-59961700D03*
X110419900Y-69951900D03*
X109704600Y-54431900D03*
X109667000Y-44278500D03*
X109866000Y-38534600D03*
X113566000Y-66325600D03*
X112482000Y-74744501D03*
X113624500Y-60685500D03*
X112465400Y-54426400D03*
X112464800Y-51297100D03*
X106873100Y-38620100D03*
X113148400Y-64658800D03*
X111683500Y-75920600D03*
X111043200Y-67440000D03*
X113158100Y-45408700D03*
X111567000Y-57116000D03*
X113601900Y-52913400D03*
X106866100Y-78062100D03*
X111739500Y-77469600D03*
X112392500Y-46471800D03*
X121372400Y-47809200D03*
X124229300Y-57892400D03*
X121435200Y-51806400D03*
X124189300Y-67985700D03*
X121866400Y-72093800D03*
X127496200Y-38500400D03*
X121835400Y-62128100D03*
X123849300Y-56042000D03*
X121059501Y-41796600D03*
X122629200Y-65738800D03*
X128057000Y-72075100D03*
X129217901Y-61787500D03*
X123087200Y-55509599D03*
X123290000Y-75877100D03*
X127929900Y-41762500D03*
X122676000Y-45396300D03*
X128628100Y-51662400D03*
X126675100Y-55560800D03*
X127334300Y-75690900D03*
X120415700Y-69788300D03*
X125292700Y-45503200D03*
X126739501Y-66000600D03*
X121639200Y-41101300D03*
X122558001Y-50502300D03*
X121814100Y-54467601D03*
X121769000Y-44422901D03*
X122814600Y-40718900D03*
X124667000Y-71582500D03*
X124412600Y-41152600D03*
X123717400Y-53801600D03*
X123277600Y-46514100D03*
X123813200Y-66182999D03*
X123541700Y-74021700D03*
X123906900Y-49800400D03*
X124667000Y-61420900D03*
X123501700Y-43704600D03*
X125039900Y-74768500D03*
X125419900Y-65710200D03*
X125428800Y-49760500D03*
X123917299Y-45862000D03*
X124601400Y-41809800D03*
X125419901Y-59961700D03*
X125419900Y-69951900D03*
X124704600Y-54431900D03*
X124667000Y-44278500D03*
X124866000Y-38534600D03*
X128566000Y-66325600D03*
X127482000Y-74744501D03*
X128624500Y-60685500D03*
X127465400Y-54426400D03*
X127464800Y-51297100D03*
X121873100Y-38620100D03*
X128148400Y-64658800D03*
X126683500Y-75920600D03*
X126043200Y-67440000D03*
X128158100Y-45408700D03*
X126567000Y-57116000D03*
X128601900Y-52913400D03*
X121866100Y-78062100D03*
X126739500Y-77469600D03*
X127392500Y-46471800D03*
X70905457Y-85515384D03*
X70558195Y-87411123D03*
X73747500Y-90862000D03*
X67388377Y-87483210D03*
X71656290Y-84815621D03*
X64269437Y-87156599D03*
X71002037Y-92358060D03*
X64257500Y-91982000D03*
X60388710Y-86762000D03*
X68147500Y-86672000D03*
X72407500Y-85632000D03*
X66976546Y-93070790D03*
X59507500Y-91672000D03*
X65309148Y-84240790D03*
X63627500Y-86122000D03*
X64552594Y-87741695D03*
X62633415Y-87381337D03*
X61496909Y-85561409D03*
X69195000Y-85082340D03*
X60967500Y-87142000D03*
X63406394Y-89428380D03*
X69027500Y-88282000D03*
X71613935Y-89258063D03*
X60255394Y-89371150D03*
X68217500Y-89802000D03*
X65297500Y-90402000D03*
X71650127Y-89907066D03*
X64257500Y-90282000D03*
X66957500Y-84792000D03*
X67977500Y-84372000D03*
X71474599Y-92999588D03*
X61362388Y-91042321D03*
X70237500Y-91672000D03*
X72287500Y-94592000D03*
X64593954Y-93355546D03*
X62877500Y-93500790D03*
X65927500Y-93582000D03*
X71257500Y-94002000D03*
X66864313Y-86436823D03*
X74537500Y-86722000D03*
X68580390Y-93206312D03*
X60560510Y-92937808D03*
X74497500Y-92832000D03*
X87367500Y-86362000D03*
X82941875Y-86362000D03*
X91807500Y-86352000D03*
X78537500Y-86362000D03*
X79207500Y-88422000D03*
X90836639Y-88453501D03*
X83597500Y-88502000D03*
X86397500Y-88392000D03*
X83607500Y-91152000D03*
X92111090Y-89941058D03*
X79167500Y-91152000D03*
X87847500Y-91152000D03*
X78707500Y-92722000D03*
X87927500Y-85382000D03*
X91707500Y-92702000D03*
X87237500Y-92722000D03*
X82967500Y-92722000D03*
X79797500Y-92122000D03*
X88487500Y-92122000D03*
X83947500Y-92122000D03*
X89087500Y-85762000D03*
X75962330Y-92654295D03*
X79742501Y-87797001D03*
X76967500Y-88022000D03*
X89877500Y-87922000D03*
X85877023Y-85625107D03*
X80397024Y-89162476D03*
X87297500Y-89562000D03*
X77127500Y-88922000D03*
X91712480Y-89162476D03*
X98994712Y-87374791D03*
X114167500Y-88782000D03*
X105457500Y-88972000D03*
X109857500Y-88972000D03*
X100957500Y-85212000D03*
X96587500Y-88972000D03*
X98769713Y-88659787D03*
X100997500Y-88972000D03*
X101187500Y-92122000D03*
X96477500Y-92122000D03*
X105527500Y-92122000D03*
X109877500Y-92122000D03*
X114197500Y-92012000D03*
X105007500Y-84482000D03*
X104937500Y-92732000D03*
X100898853Y-84131192D03*
X100607500Y-92732000D03*
X96097500Y-92762000D03*
X113487500Y-92732000D03*
X109457500Y-92732000D03*
X93139279Y-86750057D03*
X94713907Y-94082000D03*
X94389228Y-91257103D03*
X111787500Y-91312000D03*
X105965597Y-91180097D03*
X97219403Y-91180097D03*
X101599403Y-91180097D03*
X101167500Y-87302000D03*
X102206148Y-85490554D03*
X105967500Y-87972000D03*
X101557500Y-87972000D03*
X94277500Y-87972000D03*
X97097500Y-87972000D03*
X111897500Y-88002000D03*
X95967500Y-89512000D03*
X109197500Y-89522000D03*
X110367500Y-89522000D03*
X113547500Y-89522000D03*
X100357500Y-89522000D03*
X110146460Y-87152000D03*
X104847500Y-89522000D03*
X139939194Y-40616178D03*
X136035090Y-41205914D03*
X140425925Y-45814590D03*
X140845877Y-39208623D03*
X135987500Y-43642000D03*
X137787500Y-45867000D03*
X137961847Y-40325886D03*
X142852672Y-43937921D03*
X141442311Y-42975893D03*
X138160894Y-41582160D03*
X145487500Y-40292000D03*
X140287500Y-42717000D03*
X138912500Y-43642000D03*
X141502863Y-44131298D03*
X141319992Y-45475122D03*
X139212500Y-45442000D03*
X138837500Y-46917000D03*
X139939194Y-57616178D03*
X136035090Y-58205914D03*
X140425925Y-62814590D03*
X140845877Y-56208623D03*
X135987500Y-60642000D03*
X137787500Y-62867000D03*
X137961847Y-57325886D03*
X142852672Y-60937921D03*
X141442311Y-59975893D03*
X138160894Y-58582160D03*
X145487500Y-57292000D03*
X140287500Y-59717000D03*
X138912500Y-60642000D03*
X141502863Y-61131298D03*
X141319992Y-62475122D03*
X139212500Y-62442000D03*
X138837500Y-63917000D03*
D13*
X61835400Y-62128100D02*
X63941700Y-60021800D01*
X59637500Y-39441500D02*
X60415700Y-39441500D01*
X63941700Y-57892400D02*
X64229300Y-57892400D01*
X63250600Y-68924400D02*
X64189300Y-67985700D01*
X61866400Y-72093800D02*
X63250600Y-70709600D01*
X67496200Y-38500400D02*
X66402000Y-37406200D01*
X63941700Y-57892400D02*
X63849300Y-57800000D01*
X63941700Y-60021800D02*
X63941700Y-57892400D01*
X60415700Y-39199600D02*
X60415700Y-39441500D01*
X61372400Y-47809200D02*
X61372400Y-51743600D01*
X62209100Y-37406200D02*
X60415700Y-39199600D01*
X63849300Y-57800000D02*
X63849300Y-56042000D01*
X66402000Y-37406200D02*
X62209100Y-37406200D01*
X61059500Y-47496300D02*
X61372400Y-47809200D01*
X63250600Y-70709600D02*
X63250600Y-68924400D01*
X61059501Y-41796600D02*
X61059500Y-47496300D01*
X63235000Y-63527700D02*
X61835400Y-62128100D01*
X64189300Y-67985700D02*
X63235000Y-67031400D01*
X63235000Y-67031400D02*
X63235000Y-63527700D01*
X61372400Y-51743600D02*
X61435200Y-51806400D01*
X63087200Y-55509599D02*
X61237300Y-57359500D01*
X61237300Y-57359500D02*
X61237300Y-64346900D01*
X61237300Y-64346900D02*
X62629200Y-65738800D01*
X63087200Y-55509599D02*
X63136200Y-55460600D01*
X63136200Y-55460600D02*
X63136200Y-50262900D01*
X63136200Y-50262900D02*
X62676000Y-49802700D01*
X62676000Y-49802700D02*
X62676000Y-45396300D01*
X60616700Y-73203800D02*
X60616700Y-72941500D01*
X61141600Y-72416600D02*
X60616700Y-72941500D01*
X68065700Y-68411900D02*
X69738000Y-66739600D01*
X69738000Y-66739600D02*
X69738000Y-62307600D01*
X68768999Y-42601600D02*
X67929900Y-41762500D01*
X60616700Y-72941500D02*
X60415700Y-72941500D01*
X59637500Y-72941500D02*
X60415700Y-72941500D01*
X68769000Y-51662400D02*
X68768999Y-42601600D01*
X61141600Y-67226400D02*
X61141600Y-72416600D01*
X68065700Y-75784200D02*
X67333300Y-76516600D01*
X67333300Y-76516600D02*
X63929501Y-76516600D01*
X68065700Y-72075100D02*
X68057000Y-72075100D01*
X68769000Y-51662400D02*
X68628100Y-51662400D01*
X68065700Y-72075100D02*
X68065700Y-68411900D01*
X63290000Y-75877100D02*
X60616700Y-73203800D01*
X69217901Y-61787500D02*
X69217900Y-52111300D01*
X63929501Y-76516600D02*
X63290000Y-75877100D01*
X69738000Y-62307600D02*
X69217901Y-61787500D01*
X69217900Y-52111300D02*
X68769000Y-51662400D01*
X62629200Y-65738800D02*
X61141600Y-67226400D01*
X68065700Y-72075100D02*
X68065700Y-75784200D01*
X65292700Y-45503200D02*
X65292700Y-41215000D01*
X65292700Y-41215000D02*
X64203200Y-40125500D01*
X64203200Y-40125500D02*
X62518600Y-40125500D01*
X61639300Y-41004800D02*
X61639300Y-41101300D01*
X61639300Y-41101300D02*
X61639200Y-41101300D01*
X65292700Y-48240600D02*
X65292700Y-45503200D01*
X62518600Y-40125500D02*
X61639300Y-41004800D01*
X66675100Y-55560800D02*
X66675100Y-49623000D01*
X66675100Y-49623000D02*
X65292700Y-48240600D01*
X67225200Y-66486299D02*
X66739501Y-66000600D01*
X67155100Y-56040800D02*
X67155100Y-62847800D01*
X67155100Y-62847800D02*
X68726600Y-64419300D01*
X66900800Y-75257400D02*
X67334300Y-75690900D01*
X66900800Y-66810700D02*
X66900800Y-75257400D01*
X59637500Y-71941500D02*
X60415700Y-71941500D01*
X67225200Y-66486299D02*
X66900800Y-66810700D01*
X60415700Y-71941500D02*
X60415700Y-69788300D01*
X68726600Y-64984900D02*
X67225200Y-66486299D01*
X68726600Y-64419300D02*
X68726600Y-64984900D01*
X66675100Y-55560800D02*
X67155100Y-56040800D01*
X62814600Y-43377300D02*
X62814600Y-40718900D01*
X62327800Y-53953900D02*
X61814100Y-54467601D01*
X61814100Y-54467601D02*
X59637500Y-56644200D01*
X61769000Y-44422901D02*
X62097700Y-44751601D01*
X61769000Y-44422901D02*
X62814600Y-43377300D01*
X59637500Y-56644200D02*
X59637500Y-70941500D01*
X62327800Y-50502300D02*
X62327800Y-53953900D01*
X62558001Y-50502300D02*
X62327800Y-50502300D01*
X62097700Y-50272200D02*
X62327800Y-50502300D01*
X62097700Y-44751601D02*
X62097700Y-50272200D01*
X64667000Y-61420900D02*
X64667000Y-58371300D01*
X64667000Y-58371300D02*
X64852300Y-58186000D01*
X64852300Y-58186000D02*
X64852300Y-55931500D01*
X64852300Y-55931500D02*
X63906899Y-54986100D01*
X63906900Y-49800400D02*
X63906899Y-53801600D01*
X64412600Y-41152600D02*
X63501700Y-42063500D01*
X63501700Y-43704600D02*
X63323300Y-43883000D01*
X63323300Y-49216800D02*
X63323300Y-46514100D01*
X63906900Y-49800400D02*
X63323300Y-49216800D01*
X64667000Y-66183000D02*
X64667000Y-61420900D01*
X63323300Y-46514100D02*
X63277600Y-46514100D01*
X64667000Y-66183000D02*
X63813200Y-66182999D01*
X63906899Y-54986100D02*
X63906899Y-53801600D01*
X63501700Y-42063500D02*
X63501700Y-43704600D01*
X63323300Y-43883000D02*
X63323300Y-46514100D01*
X64667000Y-71582500D02*
X64767500Y-71482000D01*
X63906899Y-53801600D02*
X63717400Y-53801600D01*
X64767500Y-71482000D02*
X64767500Y-66283501D01*
X64767500Y-66283501D02*
X64667000Y-66183000D01*
X64667000Y-71582500D02*
X63541700Y-72707800D01*
X63541700Y-72707800D02*
X63541700Y-74021700D01*
X64667000Y-44278500D02*
X64667000Y-41875400D01*
X65419900Y-54431899D02*
X64704600Y-54431900D01*
X64278900Y-45862000D02*
X63917299Y-45862000D01*
X64667000Y-44278500D02*
X64278900Y-44666600D01*
X65419900Y-54431899D02*
X65419901Y-59961700D01*
X65419900Y-74388501D02*
X65039900Y-74768500D01*
X64278900Y-45862000D02*
X64278900Y-48619500D01*
X64667000Y-41875400D02*
X64601400Y-41809800D01*
X65419900Y-65710200D02*
X65419901Y-59961700D01*
X64278900Y-44666600D02*
X64278900Y-45862000D01*
X65419900Y-49760500D02*
X65428800Y-49760500D01*
X65419900Y-69951900D02*
X65419900Y-74388501D01*
X64278900Y-48619500D02*
X65419900Y-49760500D01*
X65419900Y-65710200D02*
X65419900Y-69951900D01*
X65419900Y-49760500D02*
X65419900Y-54431899D01*
X69232300Y-64209800D02*
X68624500Y-63602000D01*
X65871000Y-46601300D02*
X67464800Y-48195100D01*
X62639000Y-39218200D02*
X60415700Y-41441500D01*
X64866000Y-38534600D02*
X64182399Y-39218200D01*
X69232300Y-65659300D02*
X69232300Y-64209800D01*
X68624500Y-63602000D02*
X68624500Y-60685500D01*
X64182399Y-39218200D02*
X65870999Y-40906800D01*
X67464800Y-51297100D02*
X67465400Y-51297700D01*
X67465400Y-51297700D02*
X67465400Y-54426400D01*
X65870999Y-40906800D02*
X65871000Y-46601300D01*
X64182399Y-39218200D02*
X62639000Y-39218200D01*
X68566000Y-66325600D02*
X69232300Y-65659300D01*
X67464800Y-48195100D02*
X67464800Y-51297100D01*
X67465400Y-54426400D02*
X67466200Y-54426400D01*
X68624500Y-55584701D02*
X68624500Y-60685500D01*
X67478800Y-74741300D02*
X67482000Y-74744501D01*
X68566000Y-66325600D02*
X67478800Y-67412800D01*
X59637500Y-41441500D02*
X60415700Y-41441500D01*
X67478800Y-67412800D02*
X67478800Y-74741300D01*
X67466200Y-54426400D02*
X68624500Y-55584701D01*
X66116200Y-65109600D02*
X66567000Y-64658800D01*
X62581200Y-37912000D02*
X61873100Y-38620100D01*
X68044500Y-45522300D02*
X68044500Y-47077100D01*
X66629500Y-46560600D02*
X66629499Y-39406200D01*
X66629499Y-39406200D02*
X65135300Y-37912001D01*
X66116200Y-67440001D02*
X66116200Y-65109600D01*
X68044500Y-47077100D02*
X68044500Y-52356000D01*
X68158100Y-45408700D02*
X68044500Y-45522300D01*
X65135300Y-37912001D02*
X62581200Y-37912000D01*
X66683500Y-75920600D02*
X66116200Y-75353300D01*
X68044500Y-52356000D02*
X68601900Y-52913400D01*
X66116200Y-75353300D02*
X66116200Y-67440001D01*
X68148400Y-64658800D02*
X66567000Y-64658800D01*
X66567000Y-64658800D02*
X66567000Y-57116000D01*
X68044500Y-47077100D02*
X67146000Y-47077099D01*
X67146000Y-47077099D02*
X66629500Y-46560600D01*
X66116200Y-67440001D02*
X66043200Y-67440000D01*
X59637500Y-40441500D02*
X60415700Y-40441500D01*
X60415700Y-40441500D02*
X61873100Y-38984100D01*
X61873100Y-38984100D02*
X61873100Y-38620100D01*
X69637500Y-73941499D02*
X69637500Y-74719700D01*
X61866100Y-78062100D02*
X66973399Y-78062100D01*
X66973399Y-78062100D02*
X69637500Y-75397999D01*
X69637500Y-75397999D02*
X69637500Y-74719700D01*
X63943800Y-77469600D02*
X66739500Y-77469600D01*
X59637500Y-73941500D02*
X60415700Y-73941500D01*
X60415700Y-73941500D02*
X63943800Y-77469600D01*
X67392500Y-46471800D02*
X67327500Y-46406800D01*
X67706400Y-41165100D02*
X68525800Y-41165100D01*
X68802200Y-41441500D02*
X69637500Y-41441500D01*
X67327500Y-46406800D02*
X67327500Y-41544000D01*
X68525800Y-41165100D02*
X68802200Y-41441500D01*
X67327500Y-41544000D02*
X67706400Y-41165100D01*
X76835400Y-62128100D02*
X78941700Y-60021800D01*
X74637500Y-39441500D02*
X75415700Y-39441500D01*
X78941700Y-57892400D02*
X79229300Y-57892400D01*
X78250600Y-68924400D02*
X79189300Y-67985700D01*
X76866400Y-72093800D02*
X78250600Y-70709600D01*
X82496200Y-38500400D02*
X81402000Y-37406200D01*
X78941700Y-57892400D02*
X78849300Y-57800000D01*
X78941700Y-60021800D02*
X78941700Y-57892400D01*
X75415700Y-39199600D02*
X75415700Y-39441500D01*
X76372400Y-47809200D02*
X76372400Y-51743600D01*
X77209100Y-37406200D02*
X75415700Y-39199600D01*
X78849300Y-57800000D02*
X78849300Y-56042000D01*
X81402000Y-37406200D02*
X77209100Y-37406200D01*
X76059500Y-47496300D02*
X76372400Y-47809200D01*
X78250600Y-70709600D02*
X78250600Y-68924400D01*
X76059501Y-41796600D02*
X76059500Y-47496300D01*
X78235000Y-63527700D02*
X76835400Y-62128100D01*
X79189300Y-67985700D02*
X78235000Y-67031400D01*
X78235000Y-67031400D02*
X78235000Y-63527700D01*
X76372400Y-51743600D02*
X76435200Y-51806400D01*
X78087200Y-55509599D02*
X76237300Y-57359500D01*
X76237300Y-57359500D02*
X76237300Y-64346900D01*
X76237300Y-64346900D02*
X77629200Y-65738800D01*
X78087200Y-55509599D02*
X78136200Y-55460600D01*
X78136200Y-55460600D02*
X78136200Y-50262900D01*
X78136200Y-50262900D02*
X77676000Y-49802700D01*
X77676000Y-49802700D02*
X77676000Y-45396300D01*
X75616700Y-73203800D02*
X75616700Y-72941500D01*
X76141600Y-72416600D02*
X75616700Y-72941500D01*
X83065700Y-68411900D02*
X84738000Y-66739600D01*
X84738000Y-66739600D02*
X84738000Y-62307600D01*
X83768999Y-42601600D02*
X82929900Y-41762500D01*
X75616700Y-72941500D02*
X75415700Y-72941500D01*
X74637500Y-72941500D02*
X75415700Y-72941500D01*
X83769000Y-51662400D02*
X83768999Y-42601600D01*
X76141600Y-67226400D02*
X76141600Y-72416600D01*
X83065700Y-75784200D02*
X82333300Y-76516600D01*
X82333300Y-76516600D02*
X78929501Y-76516600D01*
X83065700Y-72075100D02*
X83057000Y-72075100D01*
X83769000Y-51662400D02*
X83628100Y-51662400D01*
X83065700Y-72075100D02*
X83065700Y-68411900D01*
X78290000Y-75877100D02*
X75616700Y-73203800D01*
X84217901Y-61787500D02*
X84217900Y-52111300D01*
X78929501Y-76516600D02*
X78290000Y-75877100D01*
X84738000Y-62307600D02*
X84217901Y-61787500D01*
X84217900Y-52111300D02*
X83769000Y-51662400D01*
X77629200Y-65738800D02*
X76141600Y-67226400D01*
X83065700Y-72075100D02*
X83065700Y-75784200D01*
X80292700Y-45503200D02*
X80292700Y-41215000D01*
X80292700Y-41215000D02*
X79203200Y-40125500D01*
X79203200Y-40125500D02*
X77518600Y-40125500D01*
X76639300Y-41004800D02*
X76639300Y-41101300D01*
X76639300Y-41101300D02*
X76639200Y-41101300D01*
X80292700Y-48240600D02*
X80292700Y-45503200D01*
X77518600Y-40125500D02*
X76639300Y-41004800D01*
X81675100Y-55560800D02*
X81675100Y-49623000D01*
X81675100Y-49623000D02*
X80292700Y-48240600D01*
X82225200Y-66486299D02*
X81739501Y-66000600D01*
X82155100Y-56040800D02*
X82155100Y-62847800D01*
X82155100Y-62847800D02*
X83726600Y-64419300D01*
X81900800Y-75257400D02*
X82334300Y-75690900D01*
X81900800Y-66810700D02*
X81900800Y-75257400D01*
X74637500Y-71941500D02*
X75415700Y-71941500D01*
X82225200Y-66486299D02*
X81900800Y-66810700D01*
X75415700Y-71941500D02*
X75415700Y-69788300D01*
X83726600Y-64984900D02*
X82225200Y-66486299D01*
X83726600Y-64419300D02*
X83726600Y-64984900D01*
X81675100Y-55560800D02*
X82155100Y-56040800D01*
X77814600Y-43377300D02*
X77814600Y-40718900D01*
X77327800Y-53953900D02*
X76814100Y-54467601D01*
X76814100Y-54467601D02*
X74637500Y-56644200D01*
X76769000Y-44422901D02*
X77097700Y-44751601D01*
X76769000Y-44422901D02*
X77814600Y-43377300D01*
X74637500Y-56644200D02*
X74637500Y-70941500D01*
X77327800Y-50502300D02*
X77327800Y-53953900D01*
X77558001Y-50502300D02*
X77327800Y-50502300D01*
X77097700Y-50272200D02*
X77327800Y-50502300D01*
X77097700Y-44751601D02*
X77097700Y-50272200D01*
X79667000Y-61420900D02*
X79667000Y-58371300D01*
X79667000Y-58371300D02*
X79852300Y-58186000D01*
X79852300Y-58186000D02*
X79852300Y-55931500D01*
X79852300Y-55931500D02*
X78906899Y-54986100D01*
X78906900Y-49800400D02*
X78906899Y-53801600D01*
X79412600Y-41152600D02*
X78501700Y-42063500D01*
X78501700Y-43704600D02*
X78323300Y-43883000D01*
X78323300Y-49216800D02*
X78323300Y-46514100D01*
X78906900Y-49800400D02*
X78323300Y-49216800D01*
X79667000Y-66183000D02*
X79667000Y-61420900D01*
X78323300Y-46514100D02*
X78277600Y-46514100D01*
X79667000Y-66183000D02*
X78813200Y-66182999D01*
X78906899Y-54986100D02*
X78906899Y-53801600D01*
X78501700Y-42063500D02*
X78501700Y-43704600D01*
X78323300Y-43883000D02*
X78323300Y-46514100D01*
X79667000Y-71582500D02*
X79767500Y-71482000D01*
X78906899Y-53801600D02*
X78717400Y-53801600D01*
X79767500Y-71482000D02*
X79767500Y-66283501D01*
X79767500Y-66283501D02*
X79667000Y-66183000D01*
X79667000Y-71582500D02*
X78541700Y-72707800D01*
X78541700Y-72707800D02*
X78541700Y-74021700D01*
X79667000Y-44278500D02*
X79667000Y-41875400D01*
X80419900Y-54431899D02*
X79704600Y-54431900D01*
X79278900Y-45862000D02*
X78917299Y-45862000D01*
X79667000Y-44278500D02*
X79278900Y-44666600D01*
X80419900Y-54431899D02*
X80419901Y-59961700D01*
X80419900Y-74388501D02*
X80039900Y-74768500D01*
X79278900Y-45862000D02*
X79278900Y-48619500D01*
X79667000Y-41875400D02*
X79601400Y-41809800D01*
X80419900Y-65710200D02*
X80419901Y-59961700D01*
X79278900Y-44666600D02*
X79278900Y-45862000D01*
X80419900Y-49760500D02*
X80428800Y-49760500D01*
X80419900Y-69951900D02*
X80419900Y-74388501D01*
X79278900Y-48619500D02*
X80419900Y-49760500D01*
X80419900Y-65710200D02*
X80419900Y-69951900D01*
X80419900Y-49760500D02*
X80419900Y-54431899D01*
X84232300Y-64209800D02*
X83624500Y-63602000D01*
X80871000Y-46601300D02*
X82464800Y-48195100D01*
X77639000Y-39218200D02*
X75415700Y-41441500D01*
X79866000Y-38534600D02*
X79182399Y-39218200D01*
X84232300Y-65659300D02*
X84232300Y-64209800D01*
X83624500Y-63602000D02*
X83624500Y-60685500D01*
X79182399Y-39218200D02*
X80870999Y-40906800D01*
X82464800Y-51297100D02*
X82465400Y-51297700D01*
X82465400Y-51297700D02*
X82465400Y-54426400D01*
X80870999Y-40906800D02*
X80871000Y-46601300D01*
X79182399Y-39218200D02*
X77639000Y-39218200D01*
X83566000Y-66325600D02*
X84232300Y-65659300D01*
X82464800Y-48195100D02*
X82464800Y-51297100D01*
X82465400Y-54426400D02*
X82466200Y-54426400D01*
X83624500Y-55584701D02*
X83624500Y-60685500D01*
X82478800Y-74741300D02*
X82482000Y-74744501D01*
X83566000Y-66325600D02*
X82478800Y-67412800D01*
X74637500Y-41441500D02*
X75415700Y-41441500D01*
X82478800Y-67412800D02*
X82478800Y-74741300D01*
X82466200Y-54426400D02*
X83624500Y-55584701D01*
X81116200Y-65109600D02*
X81567000Y-64658800D01*
X77581200Y-37912000D02*
X76873100Y-38620100D01*
X83044500Y-45522300D02*
X83044500Y-47077100D01*
X81629500Y-46560600D02*
X81629499Y-39406200D01*
X81629499Y-39406200D02*
X80135300Y-37912001D01*
X81116200Y-67440001D02*
X81116200Y-65109600D01*
X83044500Y-47077100D02*
X83044500Y-52356000D01*
X83158100Y-45408700D02*
X83044500Y-45522300D01*
X80135300Y-37912001D02*
X77581200Y-37912000D01*
X81683500Y-75920600D02*
X81116200Y-75353300D01*
X83044500Y-52356000D02*
X83601900Y-52913400D01*
X81116200Y-75353300D02*
X81116200Y-67440001D01*
X83148400Y-64658800D02*
X81567000Y-64658800D01*
X81567000Y-64658800D02*
X81567000Y-57116000D01*
X83044500Y-47077100D02*
X82146000Y-47077099D01*
X82146000Y-47077099D02*
X81629500Y-46560600D01*
X81116200Y-67440001D02*
X81043200Y-67440000D01*
X74637500Y-40441500D02*
X75415700Y-40441500D01*
X75415700Y-40441500D02*
X76873100Y-38984100D01*
X76873100Y-38984100D02*
X76873100Y-38620100D01*
X84637500Y-73941499D02*
X84637500Y-74719700D01*
X76866100Y-78062100D02*
X81973399Y-78062100D01*
X81973399Y-78062100D02*
X84637500Y-75397999D01*
X84637500Y-75397999D02*
X84637500Y-74719700D01*
X78943800Y-77469600D02*
X81739500Y-77469600D01*
X74637500Y-73941500D02*
X75415700Y-73941500D01*
X75415700Y-73941500D02*
X78943800Y-77469600D01*
X82392500Y-46471800D02*
X82327500Y-46406800D01*
X82706400Y-41165100D02*
X83525800Y-41165100D01*
X83802200Y-41441500D02*
X84637500Y-41441500D01*
X82327500Y-46406800D02*
X82327500Y-41544000D01*
X83525800Y-41165100D02*
X83802200Y-41441500D01*
X82327500Y-41544000D02*
X82706400Y-41165100D01*
X91835400Y-62128100D02*
X93941700Y-60021800D01*
X89637500Y-39441500D02*
X90415700Y-39441500D01*
X93941700Y-57892400D02*
X94229300Y-57892400D01*
X93250600Y-68924400D02*
X94189300Y-67985700D01*
X91866400Y-72093800D02*
X93250600Y-70709600D01*
X97496200Y-38500400D02*
X96402000Y-37406200D01*
X93941700Y-57892400D02*
X93849300Y-57800000D01*
X93941700Y-60021800D02*
X93941700Y-57892400D01*
X90415700Y-39199600D02*
X90415700Y-39441500D01*
X91372400Y-47809200D02*
X91372400Y-51743600D01*
X92209100Y-37406200D02*
X90415700Y-39199600D01*
X93849300Y-57800000D02*
X93849300Y-56042000D01*
X96402000Y-37406200D02*
X92209100Y-37406200D01*
X91059500Y-47496300D02*
X91372400Y-47809200D01*
X93250600Y-70709600D02*
X93250600Y-68924400D01*
X91059501Y-41796600D02*
X91059500Y-47496300D01*
X93235000Y-63527700D02*
X91835400Y-62128100D01*
X94189300Y-67985700D02*
X93235000Y-67031400D01*
X93235000Y-67031400D02*
X93235000Y-63527700D01*
X91372400Y-51743600D02*
X91435200Y-51806400D01*
X93087200Y-55509599D02*
X91237300Y-57359500D01*
X91237300Y-57359500D02*
X91237300Y-64346900D01*
X91237300Y-64346900D02*
X92629200Y-65738800D01*
X93087200Y-55509599D02*
X93136200Y-55460600D01*
X93136200Y-55460600D02*
X93136200Y-50262900D01*
X93136200Y-50262900D02*
X92676000Y-49802700D01*
X92676000Y-49802700D02*
X92676000Y-45396300D01*
X90616700Y-73203800D02*
X90616700Y-72941500D01*
X91141600Y-72416600D02*
X90616700Y-72941500D01*
X98065700Y-68411900D02*
X99738000Y-66739600D01*
X99738000Y-66739600D02*
X99738000Y-62307600D01*
X98768999Y-42601600D02*
X97929900Y-41762500D01*
X90616700Y-72941500D02*
X90415700Y-72941500D01*
X89637500Y-72941500D02*
X90415700Y-72941500D01*
X98769000Y-51662400D02*
X98768999Y-42601600D01*
X91141600Y-67226400D02*
X91141600Y-72416600D01*
X98065700Y-75784200D02*
X97333300Y-76516600D01*
X97333300Y-76516600D02*
X93929501Y-76516600D01*
X98065700Y-72075100D02*
X98057000Y-72075100D01*
X98769000Y-51662400D02*
X98628100Y-51662400D01*
X98065700Y-72075100D02*
X98065700Y-68411900D01*
X93290000Y-75877100D02*
X90616700Y-73203800D01*
X99217901Y-61787500D02*
X99217900Y-52111300D01*
X93929501Y-76516600D02*
X93290000Y-75877100D01*
X99738000Y-62307600D02*
X99217901Y-61787500D01*
X99217900Y-52111300D02*
X98769000Y-51662400D01*
X92629200Y-65738800D02*
X91141600Y-67226400D01*
X98065700Y-72075100D02*
X98065700Y-75784200D01*
X95292700Y-45503200D02*
X95292700Y-41215000D01*
X95292700Y-41215000D02*
X94203200Y-40125500D01*
X94203200Y-40125500D02*
X92518600Y-40125500D01*
X91639300Y-41004800D02*
X91639300Y-41101300D01*
X91639300Y-41101300D02*
X91639200Y-41101300D01*
X95292700Y-48240600D02*
X95292700Y-45503200D01*
X92518600Y-40125500D02*
X91639300Y-41004800D01*
X96675100Y-55560800D02*
X96675100Y-49623000D01*
X96675100Y-49623000D02*
X95292700Y-48240600D01*
X97225200Y-66486299D02*
X96739501Y-66000600D01*
X97155100Y-56040800D02*
X97155100Y-62847800D01*
X97155100Y-62847800D02*
X98726600Y-64419300D01*
X96900800Y-75257400D02*
X97334300Y-75690900D01*
X96900800Y-66810700D02*
X96900800Y-75257400D01*
X89637500Y-71941500D02*
X90415700Y-71941500D01*
X97225200Y-66486299D02*
X96900800Y-66810700D01*
X90415700Y-71941500D02*
X90415700Y-69788300D01*
X98726600Y-64984900D02*
X97225200Y-66486299D01*
X98726600Y-64419300D02*
X98726600Y-64984900D01*
X96675100Y-55560800D02*
X97155100Y-56040800D01*
X92814600Y-43377300D02*
X92814600Y-40718900D01*
X92327800Y-53953900D02*
X91814100Y-54467601D01*
X91814100Y-54467601D02*
X89637500Y-56644200D01*
X91769000Y-44422901D02*
X92097700Y-44751601D01*
X91769000Y-44422901D02*
X92814600Y-43377300D01*
X89637500Y-56644200D02*
X89637500Y-70941500D01*
X92327800Y-50502300D02*
X92327800Y-53953900D01*
X92558001Y-50502300D02*
X92327800Y-50502300D01*
X92097700Y-50272200D02*
X92327800Y-50502300D01*
X92097700Y-44751601D02*
X92097700Y-50272200D01*
X94667000Y-61420900D02*
X94667000Y-58371300D01*
X94667000Y-58371300D02*
X94852300Y-58186000D01*
X94852300Y-58186000D02*
X94852300Y-55931500D01*
X94852300Y-55931500D02*
X93906899Y-54986100D01*
X93906900Y-49800400D02*
X93906899Y-53801600D01*
X94412600Y-41152600D02*
X93501700Y-42063500D01*
X93501700Y-43704600D02*
X93323300Y-43883000D01*
X93323300Y-49216800D02*
X93323300Y-46514100D01*
X93906900Y-49800400D02*
X93323300Y-49216800D01*
X94667000Y-66183000D02*
X94667000Y-61420900D01*
X93323300Y-46514100D02*
X93277600Y-46514100D01*
X94667000Y-66183000D02*
X93813200Y-66182999D01*
X93906899Y-54986100D02*
X93906899Y-53801600D01*
X93501700Y-42063500D02*
X93501700Y-43704600D01*
X93323300Y-43883000D02*
X93323300Y-46514100D01*
X94667000Y-71582500D02*
X94767500Y-71482000D01*
X93906899Y-53801600D02*
X93717400Y-53801600D01*
X94767500Y-71482000D02*
X94767500Y-66283501D01*
X94767500Y-66283501D02*
X94667000Y-66183000D01*
X94667000Y-71582500D02*
X93541700Y-72707800D01*
X93541700Y-72707800D02*
X93541700Y-74021700D01*
X94667000Y-44278500D02*
X94667000Y-41875400D01*
X95419900Y-54431899D02*
X94704600Y-54431900D01*
X94278900Y-45862000D02*
X93917299Y-45862000D01*
X94667000Y-44278500D02*
X94278900Y-44666600D01*
X95419900Y-54431899D02*
X95419901Y-59961700D01*
X95419900Y-74388501D02*
X95039900Y-74768500D01*
X94278900Y-45862000D02*
X94278900Y-48619500D01*
X94667000Y-41875400D02*
X94601400Y-41809800D01*
X95419900Y-65710200D02*
X95419901Y-59961700D01*
X94278900Y-44666600D02*
X94278900Y-45862000D01*
X95419900Y-49760500D02*
X95428800Y-49760500D01*
X95419900Y-69951900D02*
X95419900Y-74388501D01*
X94278900Y-48619500D02*
X95419900Y-49760500D01*
X95419900Y-65710200D02*
X95419900Y-69951900D01*
X95419900Y-49760500D02*
X95419900Y-54431899D01*
X99232300Y-64209800D02*
X98624500Y-63602000D01*
X95871000Y-46601300D02*
X97464800Y-48195100D01*
X92639000Y-39218200D02*
X90415700Y-41441500D01*
X94866000Y-38534600D02*
X94182399Y-39218200D01*
X99232300Y-65659300D02*
X99232300Y-64209800D01*
X98624500Y-63602000D02*
X98624500Y-60685500D01*
X94182399Y-39218200D02*
X95870999Y-40906800D01*
X97464800Y-51297100D02*
X97465400Y-51297700D01*
X97465400Y-51297700D02*
X97465400Y-54426400D01*
X95870999Y-40906800D02*
X95871000Y-46601300D01*
X94182399Y-39218200D02*
X92639000Y-39218200D01*
X98566000Y-66325600D02*
X99232300Y-65659300D01*
X97464800Y-48195100D02*
X97464800Y-51297100D01*
X97465400Y-54426400D02*
X97466200Y-54426400D01*
X98624500Y-55584701D02*
X98624500Y-60685500D01*
X97478800Y-74741300D02*
X97482000Y-74744501D01*
X98566000Y-66325600D02*
X97478800Y-67412800D01*
X89637500Y-41441500D02*
X90415700Y-41441500D01*
X97478800Y-67412800D02*
X97478800Y-74741300D01*
X97466200Y-54426400D02*
X98624500Y-55584701D01*
X96116200Y-65109600D02*
X96567000Y-64658800D01*
X92581200Y-37912000D02*
X91873100Y-38620100D01*
X98044500Y-45522300D02*
X98044500Y-47077100D01*
X96629500Y-46560600D02*
X96629499Y-39406200D01*
X96629499Y-39406200D02*
X95135300Y-37912001D01*
X96116200Y-67440001D02*
X96116200Y-65109600D01*
X98044500Y-47077100D02*
X98044500Y-52356000D01*
X98158100Y-45408700D02*
X98044500Y-45522300D01*
X95135300Y-37912001D02*
X92581200Y-37912000D01*
X96683500Y-75920600D02*
X96116200Y-75353300D01*
X98044500Y-52356000D02*
X98601900Y-52913400D01*
X96116200Y-75353300D02*
X96116200Y-67440001D01*
X98148400Y-64658800D02*
X96567000Y-64658800D01*
X96567000Y-64658800D02*
X96567000Y-57116000D01*
X98044500Y-47077100D02*
X97146000Y-47077099D01*
X97146000Y-47077099D02*
X96629500Y-46560600D01*
X96116200Y-67440001D02*
X96043200Y-67440000D01*
X89637500Y-40441500D02*
X90415700Y-40441500D01*
X90415700Y-40441500D02*
X91873100Y-38984100D01*
X91873100Y-38984100D02*
X91873100Y-38620100D01*
X99637500Y-73941499D02*
X99637500Y-74719700D01*
X91866100Y-78062100D02*
X96973399Y-78062100D01*
X96973399Y-78062100D02*
X99637500Y-75397999D01*
X99637500Y-75397999D02*
X99637500Y-74719700D01*
X93943800Y-77469600D02*
X96739500Y-77469600D01*
X89637500Y-73941500D02*
X90415700Y-73941500D01*
X90415700Y-73941500D02*
X93943800Y-77469600D01*
X97392500Y-46471800D02*
X97327500Y-46406800D01*
X97706400Y-41165100D02*
X98525800Y-41165100D01*
X98802200Y-41441500D02*
X99637500Y-41441500D01*
X97327500Y-46406800D02*
X97327500Y-41544000D01*
X98525800Y-41165100D02*
X98802200Y-41441500D01*
X97327500Y-41544000D02*
X97706400Y-41165100D01*
X106835400Y-62128100D02*
X108941700Y-60021800D01*
X104637500Y-39441500D02*
X105415700Y-39441500D01*
X108941700Y-57892400D02*
X109229300Y-57892400D01*
X108250600Y-68924400D02*
X109189300Y-67985700D01*
X106866400Y-72093800D02*
X108250600Y-70709600D01*
X112496200Y-38500400D02*
X111402000Y-37406200D01*
X108941700Y-57892400D02*
X108849300Y-57800000D01*
X108941700Y-60021800D02*
X108941700Y-57892400D01*
X105415700Y-39199600D02*
X105415700Y-39441500D01*
X106372400Y-47809200D02*
X106372400Y-51743600D01*
X107209100Y-37406200D02*
X105415700Y-39199600D01*
X108849300Y-57800000D02*
X108849300Y-56042000D01*
X111402000Y-37406200D02*
X107209100Y-37406200D01*
X106059500Y-47496300D02*
X106372400Y-47809200D01*
X108250600Y-70709600D02*
X108250600Y-68924400D01*
X106059501Y-41796600D02*
X106059500Y-47496300D01*
X108235000Y-63527700D02*
X106835400Y-62128100D01*
X109189300Y-67985700D02*
X108235000Y-67031400D01*
X108235000Y-67031400D02*
X108235000Y-63527700D01*
X106372400Y-51743600D02*
X106435200Y-51806400D01*
X108087200Y-55509599D02*
X106237300Y-57359500D01*
X106237300Y-57359500D02*
X106237300Y-64346900D01*
X106237300Y-64346900D02*
X107629200Y-65738800D01*
X108087200Y-55509599D02*
X108136200Y-55460600D01*
X108136200Y-55460600D02*
X108136200Y-50262900D01*
X108136200Y-50262900D02*
X107676000Y-49802700D01*
X107676000Y-49802700D02*
X107676000Y-45396300D01*
X105616700Y-73203800D02*
X105616700Y-72941500D01*
X106141600Y-72416600D02*
X105616700Y-72941500D01*
X113065700Y-68411900D02*
X114738000Y-66739600D01*
X114738000Y-66739600D02*
X114738000Y-62307600D01*
X113768999Y-42601600D02*
X112929900Y-41762500D01*
X105616700Y-72941500D02*
X105415700Y-72941500D01*
X104637500Y-72941500D02*
X105415700Y-72941500D01*
X113769000Y-51662400D02*
X113768999Y-42601600D01*
X106141600Y-67226400D02*
X106141600Y-72416600D01*
X113065700Y-75784200D02*
X112333300Y-76516600D01*
X112333300Y-76516600D02*
X108929501Y-76516600D01*
X113065700Y-72075100D02*
X113057000Y-72075100D01*
X113769000Y-51662400D02*
X113628100Y-51662400D01*
X113065700Y-72075100D02*
X113065700Y-68411900D01*
X108290000Y-75877100D02*
X105616700Y-73203800D01*
X114217901Y-61787500D02*
X114217900Y-52111300D01*
X108929501Y-76516600D02*
X108290000Y-75877100D01*
X114738000Y-62307600D02*
X114217901Y-61787500D01*
X114217900Y-52111300D02*
X113769000Y-51662400D01*
X107629200Y-65738800D02*
X106141600Y-67226400D01*
X113065700Y-72075100D02*
X113065700Y-75784200D01*
X110292700Y-45503200D02*
X110292700Y-41215000D01*
X110292700Y-41215000D02*
X109203200Y-40125500D01*
X109203200Y-40125500D02*
X107518600Y-40125500D01*
X106639300Y-41004800D02*
X106639300Y-41101300D01*
X106639300Y-41101300D02*
X106639200Y-41101300D01*
X110292700Y-48240600D02*
X110292700Y-45503200D01*
X107518600Y-40125500D02*
X106639300Y-41004800D01*
X111675100Y-55560800D02*
X111675100Y-49623000D01*
X111675100Y-49623000D02*
X110292700Y-48240600D01*
X112225200Y-66486299D02*
X111739501Y-66000600D01*
X112155100Y-56040800D02*
X112155100Y-62847800D01*
X112155100Y-62847800D02*
X113726600Y-64419300D01*
X111900800Y-75257400D02*
X112334300Y-75690900D01*
X111900800Y-66810700D02*
X111900800Y-75257400D01*
X104637500Y-71941500D02*
X105415700Y-71941500D01*
X112225200Y-66486299D02*
X111900800Y-66810700D01*
X105415700Y-71941500D02*
X105415700Y-69788300D01*
X113726600Y-64984900D02*
X112225200Y-66486299D01*
X113726600Y-64419300D02*
X113726600Y-64984900D01*
X111675100Y-55560800D02*
X112155100Y-56040800D01*
X107814600Y-43377300D02*
X107814600Y-40718900D01*
X107327800Y-53953900D02*
X106814100Y-54467601D01*
X106814100Y-54467601D02*
X104637500Y-56644200D01*
X106769000Y-44422901D02*
X107097700Y-44751601D01*
X106769000Y-44422901D02*
X107814600Y-43377300D01*
X104637500Y-56644200D02*
X104637500Y-70941500D01*
X107327800Y-50502300D02*
X107327800Y-53953900D01*
X107558001Y-50502300D02*
X107327800Y-50502300D01*
X107097700Y-50272200D02*
X107327800Y-50502300D01*
X107097700Y-44751601D02*
X107097700Y-50272200D01*
X109667000Y-61420900D02*
X109667000Y-58371300D01*
X109667000Y-58371300D02*
X109852300Y-58186000D01*
X109852300Y-58186000D02*
X109852300Y-55931500D01*
X109852300Y-55931500D02*
X108906899Y-54986100D01*
X108906900Y-49800400D02*
X108906899Y-53801600D01*
X109412600Y-41152600D02*
X108501700Y-42063500D01*
X108501700Y-43704600D02*
X108323300Y-43883000D01*
X108323300Y-49216800D02*
X108323300Y-46514100D01*
X108906900Y-49800400D02*
X108323300Y-49216800D01*
X109667000Y-66183000D02*
X109667000Y-61420900D01*
X108323300Y-46514100D02*
X108277600Y-46514100D01*
X109667000Y-66183000D02*
X108813200Y-66182999D01*
X108906899Y-54986100D02*
X108906899Y-53801600D01*
X108501700Y-42063500D02*
X108501700Y-43704600D01*
X108323300Y-43883000D02*
X108323300Y-46514100D01*
X109667000Y-71582500D02*
X109767500Y-71482000D01*
X108906899Y-53801600D02*
X108717400Y-53801600D01*
X109767500Y-71482000D02*
X109767500Y-66283501D01*
X109767500Y-66283501D02*
X109667000Y-66183000D01*
X109667000Y-71582500D02*
X108541700Y-72707800D01*
X108541700Y-72707800D02*
X108541700Y-74021700D01*
X109667000Y-44278500D02*
X109667000Y-41875400D01*
X110419900Y-54431899D02*
X109704600Y-54431900D01*
X109278900Y-45862000D02*
X108917299Y-45862000D01*
X109667000Y-44278500D02*
X109278900Y-44666600D01*
X110419900Y-54431899D02*
X110419901Y-59961700D01*
X110419900Y-74388501D02*
X110039900Y-74768500D01*
X109278900Y-45862000D02*
X109278900Y-48619500D01*
X109667000Y-41875400D02*
X109601400Y-41809800D01*
X110419900Y-65710200D02*
X110419901Y-59961700D01*
X109278900Y-44666600D02*
X109278900Y-45862000D01*
X110419900Y-49760500D02*
X110428800Y-49760500D01*
X110419900Y-69951900D02*
X110419900Y-74388501D01*
X109278900Y-48619500D02*
X110419900Y-49760500D01*
X110419900Y-65710200D02*
X110419900Y-69951900D01*
X110419900Y-49760500D02*
X110419900Y-54431899D01*
X114232300Y-64209800D02*
X113624500Y-63602000D01*
X110871000Y-46601300D02*
X112464800Y-48195100D01*
X107639000Y-39218200D02*
X105415700Y-41441500D01*
X109866000Y-38534600D02*
X109182399Y-39218200D01*
X114232300Y-65659300D02*
X114232300Y-64209800D01*
X113624500Y-63602000D02*
X113624500Y-60685500D01*
X109182399Y-39218200D02*
X110870999Y-40906800D01*
X112464800Y-51297100D02*
X112465400Y-51297700D01*
X112465400Y-51297700D02*
X112465400Y-54426400D01*
X110870999Y-40906800D02*
X110871000Y-46601300D01*
X109182399Y-39218200D02*
X107639000Y-39218200D01*
X113566000Y-66325600D02*
X114232300Y-65659300D01*
X112464800Y-48195100D02*
X112464800Y-51297100D01*
X112465400Y-54426400D02*
X112466200Y-54426400D01*
X113624500Y-55584701D02*
X113624500Y-60685500D01*
X112478800Y-74741300D02*
X112482000Y-74744501D01*
X113566000Y-66325600D02*
X112478800Y-67412800D01*
X104637500Y-41441500D02*
X105415700Y-41441500D01*
X112478800Y-67412800D02*
X112478800Y-74741300D01*
X112466200Y-54426400D02*
X113624500Y-55584701D01*
X111116200Y-65109600D02*
X111567000Y-64658800D01*
X107581200Y-37912000D02*
X106873100Y-38620100D01*
X113044500Y-45522300D02*
X113044500Y-47077100D01*
X111629500Y-46560600D02*
X111629499Y-39406200D01*
X111629499Y-39406200D02*
X110135300Y-37912001D01*
X111116200Y-67440001D02*
X111116200Y-65109600D01*
X113044500Y-47077100D02*
X113044500Y-52356000D01*
X113158100Y-45408700D02*
X113044500Y-45522300D01*
X110135300Y-37912001D02*
X107581200Y-37912000D01*
X111683500Y-75920600D02*
X111116200Y-75353300D01*
X113044500Y-52356000D02*
X113601900Y-52913400D01*
X111116200Y-75353300D02*
X111116200Y-67440001D01*
X113148400Y-64658800D02*
X111567000Y-64658800D01*
X111567000Y-64658800D02*
X111567000Y-57116000D01*
X113044500Y-47077100D02*
X112146000Y-47077099D01*
X112146000Y-47077099D02*
X111629500Y-46560600D01*
X111116200Y-67440001D02*
X111043200Y-67440000D01*
X104637500Y-40441500D02*
X105415700Y-40441500D01*
X105415700Y-40441500D02*
X106873100Y-38984100D01*
X106873100Y-38984100D02*
X106873100Y-38620100D01*
X114637500Y-73941499D02*
X114637500Y-74719700D01*
X106866100Y-78062100D02*
X111973399Y-78062100D01*
X111973399Y-78062100D02*
X114637500Y-75397999D01*
X114637500Y-75397999D02*
X114637500Y-74719700D01*
X108943800Y-77469600D02*
X111739500Y-77469600D01*
X104637500Y-73941500D02*
X105415700Y-73941500D01*
X105415700Y-73941500D02*
X108943800Y-77469600D01*
X112392500Y-46471800D02*
X112327500Y-46406800D01*
X112706400Y-41165100D02*
X113525800Y-41165100D01*
X113802200Y-41441500D02*
X114637500Y-41441500D01*
X112327500Y-46406800D02*
X112327500Y-41544000D01*
X113525800Y-41165100D02*
X113802200Y-41441500D01*
X112327500Y-41544000D02*
X112706400Y-41165100D01*
X121835400Y-62128100D02*
X123941700Y-60021800D01*
X119637500Y-39441500D02*
X120415700Y-39441500D01*
X123941700Y-57892400D02*
X124229300Y-57892400D01*
X123250600Y-68924400D02*
X124189300Y-67985700D01*
X121866400Y-72093800D02*
X123250600Y-70709600D01*
X127496200Y-38500400D02*
X126402000Y-37406200D01*
X123941700Y-57892400D02*
X123849300Y-57800000D01*
X123941700Y-60021800D02*
X123941700Y-57892400D01*
X120415700Y-39199600D02*
X120415700Y-39441500D01*
X121372400Y-47809200D02*
X121372400Y-51743600D01*
X122209100Y-37406200D02*
X120415700Y-39199600D01*
X123849300Y-57800000D02*
X123849300Y-56042000D01*
X126402000Y-37406200D02*
X122209100Y-37406200D01*
X121059500Y-47496300D02*
X121372400Y-47809200D01*
X123250600Y-70709600D02*
X123250600Y-68924400D01*
X121059501Y-41796600D02*
X121059500Y-47496300D01*
X123235000Y-63527700D02*
X121835400Y-62128100D01*
X124189300Y-67985700D02*
X123235000Y-67031400D01*
X123235000Y-67031400D02*
X123235000Y-63527700D01*
X121372400Y-51743600D02*
X121435200Y-51806400D01*
X123087200Y-55509599D02*
X121237300Y-57359500D01*
X121237300Y-57359500D02*
X121237300Y-64346900D01*
X121237300Y-64346900D02*
X122629200Y-65738800D01*
X123087200Y-55509599D02*
X123136200Y-55460600D01*
X123136200Y-55460600D02*
X123136200Y-50262900D01*
X123136200Y-50262900D02*
X122676000Y-49802700D01*
X122676000Y-49802700D02*
X122676000Y-45396300D01*
X120616700Y-73203800D02*
X120616700Y-72941500D01*
X121141600Y-72416600D02*
X120616700Y-72941500D01*
X128065700Y-68411900D02*
X129738000Y-66739600D01*
X129738000Y-66739600D02*
X129738000Y-62307600D01*
X128768999Y-42601600D02*
X127929900Y-41762500D01*
X120616700Y-72941500D02*
X120415700Y-72941500D01*
X119637500Y-72941500D02*
X120415700Y-72941500D01*
X128769000Y-51662400D02*
X128768999Y-42601600D01*
X121141600Y-67226400D02*
X121141600Y-72416600D01*
X128065700Y-75784200D02*
X127333300Y-76516600D01*
X127333300Y-76516600D02*
X123929501Y-76516600D01*
X128065700Y-72075100D02*
X128057000Y-72075100D01*
X128769000Y-51662400D02*
X128628100Y-51662400D01*
X128065700Y-72075100D02*
X128065700Y-68411900D01*
X123290000Y-75877100D02*
X120616700Y-73203800D01*
X129217901Y-61787500D02*
X129217900Y-52111300D01*
X123929501Y-76516600D02*
X123290000Y-75877100D01*
X129738000Y-62307600D02*
X129217901Y-61787500D01*
X129217900Y-52111300D02*
X128769000Y-51662400D01*
X122629200Y-65738800D02*
X121141600Y-67226400D01*
X128065700Y-72075100D02*
X128065700Y-75784200D01*
X125292700Y-45503200D02*
X125292700Y-41215000D01*
X125292700Y-41215000D02*
X124203200Y-40125500D01*
X124203200Y-40125500D02*
X122518600Y-40125500D01*
X121639300Y-41004800D02*
X121639300Y-41101300D01*
X121639300Y-41101300D02*
X121639200Y-41101300D01*
X125292700Y-48240600D02*
X125292700Y-45503200D01*
X122518600Y-40125500D02*
X121639300Y-41004800D01*
X126675100Y-55560800D02*
X126675100Y-49623000D01*
X126675100Y-49623000D02*
X125292700Y-48240600D01*
X127225200Y-66486299D02*
X126739501Y-66000600D01*
X127155100Y-56040800D02*
X127155100Y-62847800D01*
X127155100Y-62847800D02*
X128726600Y-64419300D01*
X126900800Y-75257400D02*
X127334300Y-75690900D01*
X126900800Y-66810700D02*
X126900800Y-75257400D01*
X119637500Y-71941500D02*
X120415700Y-71941500D01*
X127225200Y-66486299D02*
X126900800Y-66810700D01*
X120415700Y-71941500D02*
X120415700Y-69788300D01*
X128726600Y-64984900D02*
X127225200Y-66486299D01*
X128726600Y-64419300D02*
X128726600Y-64984900D01*
X126675100Y-55560800D02*
X127155100Y-56040800D01*
X122814600Y-43377300D02*
X122814600Y-40718900D01*
X122327800Y-53953900D02*
X121814100Y-54467601D01*
X121814100Y-54467601D02*
X119637500Y-56644200D01*
X121769000Y-44422901D02*
X122097700Y-44751601D01*
X121769000Y-44422901D02*
X122814600Y-43377300D01*
X119637500Y-56644200D02*
X119637500Y-70941500D01*
X122327800Y-50502300D02*
X122327800Y-53953900D01*
X122558001Y-50502300D02*
X122327800Y-50502300D01*
X122097700Y-50272200D02*
X122327800Y-50502300D01*
X122097700Y-44751601D02*
X122097700Y-50272200D01*
X124667000Y-61420900D02*
X124667000Y-58371300D01*
X124667000Y-58371300D02*
X124852300Y-58186000D01*
X124852300Y-58186000D02*
X124852300Y-55931500D01*
X124852300Y-55931500D02*
X123906899Y-54986100D01*
X123906900Y-49800400D02*
X123906899Y-53801600D01*
X124412600Y-41152600D02*
X123501700Y-42063500D01*
X123501700Y-43704600D02*
X123323300Y-43883000D01*
X123323300Y-49216800D02*
X123323300Y-46514100D01*
X123906900Y-49800400D02*
X123323300Y-49216800D01*
X124667000Y-66183000D02*
X124667000Y-61420900D01*
X123323300Y-46514100D02*
X123277600Y-46514100D01*
X124667000Y-66183000D02*
X123813200Y-66182999D01*
X123906899Y-54986100D02*
X123906899Y-53801600D01*
X123501700Y-42063500D02*
X123501700Y-43704600D01*
X123323300Y-43883000D02*
X123323300Y-46514100D01*
X124667000Y-71582500D02*
X124767500Y-71482000D01*
X123906899Y-53801600D02*
X123717400Y-53801600D01*
X124767500Y-71482000D02*
X124767500Y-66283501D01*
X124767500Y-66283501D02*
X124667000Y-66183000D01*
X124667000Y-71582500D02*
X123541700Y-72707800D01*
X123541700Y-72707800D02*
X123541700Y-74021700D01*
X124667000Y-44278500D02*
X124667000Y-41875400D01*
X125419900Y-54431899D02*
X124704600Y-54431900D01*
X124278900Y-45862000D02*
X123917299Y-45862000D01*
X124667000Y-44278500D02*
X124278900Y-44666600D01*
X125419900Y-54431899D02*
X125419901Y-59961700D01*
X125419900Y-74388501D02*
X125039900Y-74768500D01*
X124278900Y-45862000D02*
X124278900Y-48619500D01*
X124667000Y-41875400D02*
X124601400Y-41809800D01*
X125419900Y-65710200D02*
X125419901Y-59961700D01*
X124278900Y-44666600D02*
X124278900Y-45862000D01*
X125419900Y-49760500D02*
X125428800Y-49760500D01*
X125419900Y-69951900D02*
X125419900Y-74388501D01*
X124278900Y-48619500D02*
X125419900Y-49760500D01*
X125419900Y-65710200D02*
X125419900Y-69951900D01*
X125419900Y-49760500D02*
X125419900Y-54431899D01*
X129232300Y-64209800D02*
X128624500Y-63602000D01*
X125871000Y-46601300D02*
X127464800Y-48195100D01*
X122639000Y-39218200D02*
X120415700Y-41441500D01*
X124866000Y-38534600D02*
X124182399Y-39218200D01*
X129232300Y-65659300D02*
X129232300Y-64209800D01*
X128624500Y-63602000D02*
X128624500Y-60685500D01*
X124182399Y-39218200D02*
X125870999Y-40906800D01*
X127464800Y-51297100D02*
X127465400Y-51297700D01*
X127465400Y-51297700D02*
X127465400Y-54426400D01*
X125870999Y-40906800D02*
X125871000Y-46601300D01*
X124182399Y-39218200D02*
X122639000Y-39218200D01*
X128566000Y-66325600D02*
X129232300Y-65659300D01*
X127464800Y-48195100D02*
X127464800Y-51297100D01*
X127465400Y-54426400D02*
X127466200Y-54426400D01*
X128624500Y-55584701D02*
X128624500Y-60685500D01*
X127478800Y-74741300D02*
X127482000Y-74744501D01*
X128566000Y-66325600D02*
X127478800Y-67412800D01*
X119637500Y-41441500D02*
X120415700Y-41441500D01*
X127478800Y-67412800D02*
X127478800Y-74741300D01*
X127466200Y-54426400D02*
X128624500Y-55584701D01*
X126116200Y-65109600D02*
X126567000Y-64658800D01*
X122581200Y-37912000D02*
X121873100Y-38620100D01*
X128044500Y-45522300D02*
X128044500Y-47077100D01*
X126629500Y-46560600D02*
X126629499Y-39406200D01*
X126629499Y-39406200D02*
X125135300Y-37912001D01*
X126116200Y-67440001D02*
X126116200Y-65109600D01*
X128044500Y-47077100D02*
X128044500Y-52356000D01*
X128158100Y-45408700D02*
X128044500Y-45522300D01*
X125135300Y-37912001D02*
X122581200Y-37912000D01*
X126683500Y-75920600D02*
X126116200Y-75353300D01*
X128044500Y-52356000D02*
X128601900Y-52913400D01*
X126116200Y-75353300D02*
X126116200Y-67440001D01*
X128148400Y-64658800D02*
X126567000Y-64658800D01*
X126567000Y-64658800D02*
X126567000Y-57116000D01*
X128044500Y-47077100D02*
X127146000Y-47077099D01*
X127146000Y-47077099D02*
X126629500Y-46560600D01*
X126116200Y-67440001D02*
X126043200Y-67440000D01*
X119637500Y-40441500D02*
X120415700Y-40441500D01*
X120415700Y-40441500D02*
X121873100Y-38984100D01*
X121873100Y-38984100D02*
X121873100Y-38620100D01*
X129637500Y-73941499D02*
X129637500Y-74719700D01*
X121866100Y-78062100D02*
X126973399Y-78062100D01*
X126973399Y-78062100D02*
X129637500Y-75397999D01*
X129637500Y-75397999D02*
X129637500Y-74719700D01*
X123943800Y-77469600D02*
X126739500Y-77469600D01*
X119637500Y-73941500D02*
X120415700Y-73941500D01*
X120415700Y-73941500D02*
X123943800Y-77469600D01*
X127392500Y-46471800D02*
X127327500Y-46406800D01*
X127706400Y-41165100D02*
X128525800Y-41165100D01*
X128802200Y-41441500D02*
X129637500Y-41441500D01*
X127327500Y-46406800D02*
X127327500Y-41544000D01*
X128525800Y-41165100D02*
X128802200Y-41441500D01*
X127327500Y-41544000D02*
X127706400Y-41165100D01*
D14*
X70558195Y-87411123D02*
X70239997Y-87411123D01*
X66343927Y-87156599D02*
X64587635Y-87156599D01*
X70558195Y-87411123D02*
X73747500Y-90600428D01*
X71637500Y-84796831D02*
X71656290Y-84815621D01*
X73747500Y-90600428D02*
X73747500Y-90862000D01*
X66670538Y-87483210D02*
X66343927Y-87156599D01*
X67388377Y-87483210D02*
X66670538Y-87483210D01*
X64587635Y-87156599D02*
X64269437Y-87156599D01*
X71637500Y-83042000D02*
X71637500Y-84796831D01*
X70167910Y-87483210D02*
X67388377Y-87483210D01*
X70239997Y-87411123D02*
X70167910Y-87483210D01*
X60388710Y-88330097D02*
X60388710Y-87080198D01*
X69658283Y-92358060D02*
X70683839Y-92358060D01*
X64016923Y-89780799D02*
X63868132Y-89929590D01*
X63868132Y-89929590D02*
X61988203Y-89929590D01*
X70683839Y-92358060D02*
X71002037Y-92358060D01*
X64719936Y-91519564D02*
X68819787Y-91519564D01*
X68819787Y-91519564D02*
X69658283Y-92358060D01*
X64257500Y-91982000D02*
X64719936Y-91519564D01*
X64758701Y-90041423D02*
X64498077Y-89780799D01*
X64498077Y-89780799D02*
X64016923Y-89780799D01*
X60613709Y-86537001D02*
X60388710Y-86762000D01*
X68147500Y-86672000D02*
X67881476Y-86938024D01*
X61094281Y-86537001D02*
X60613709Y-86537001D01*
X66362589Y-86655398D02*
X61212678Y-86655398D01*
X66645215Y-86938024D02*
X66362589Y-86655398D01*
X67881476Y-86938024D02*
X66645215Y-86938024D01*
X61212678Y-86655398D02*
X61094281Y-86537001D01*
X64758701Y-91480799D02*
X64758701Y-90041423D01*
X61988203Y-89929590D02*
X60388710Y-88330097D01*
X60388710Y-87080198D02*
X60388710Y-86762000D01*
X64257500Y-91982000D02*
X64758701Y-91480799D01*
X65534147Y-84015791D02*
X65309148Y-84240790D01*
X63993539Y-85755961D02*
X70404256Y-85755961D01*
X72182501Y-85856999D02*
X72407500Y-85632000D01*
X65637500Y-83042000D02*
X65637500Y-83912438D01*
X70404256Y-85755961D02*
X70664880Y-86016585D01*
X63627500Y-86122000D02*
X63993539Y-85755961D01*
X70664880Y-86016585D02*
X72022915Y-86016585D01*
X60498702Y-94083202D02*
X66282332Y-94083202D01*
X72022915Y-86016585D02*
X72182501Y-85856999D01*
X59507500Y-91672000D02*
X59507500Y-93092000D01*
X66282332Y-94083202D02*
X66976546Y-93388988D01*
X66976546Y-93388988D02*
X66976546Y-93070790D01*
X65637500Y-83912438D02*
X65534147Y-84015791D01*
X59507500Y-93092000D02*
X60498702Y-94083202D01*
X67476299Y-83880799D02*
X67476299Y-84612577D01*
X61765116Y-85293202D02*
X61721908Y-85336410D01*
X62633415Y-87381337D02*
X62993773Y-87741695D01*
X64234396Y-87741695D02*
X64552594Y-87741695D01*
X67476299Y-84612577D02*
X67994512Y-85130790D01*
X68606890Y-85293202D02*
X61765116Y-85293202D01*
X67994512Y-85130790D02*
X68769302Y-85130790D01*
X68769302Y-85130790D02*
X68817752Y-85082340D01*
X68876802Y-85082340D02*
X69195000Y-85082340D01*
X68817752Y-85082340D02*
X68876802Y-85082340D01*
X61721908Y-85336410D02*
X61496909Y-85561409D01*
X68769302Y-85130790D02*
X68606890Y-85293202D01*
X62993773Y-87741695D02*
X64234396Y-87741695D01*
X66637500Y-83042000D02*
X67476299Y-83880799D01*
X70637872Y-88282000D02*
X71388936Y-89033064D01*
X71388936Y-89033064D02*
X71613935Y-89258063D01*
X69027500Y-88282000D02*
X70637872Y-88282000D01*
X63576711Y-89258063D02*
X63406394Y-89428380D01*
X63253880Y-89428380D02*
X63406394Y-89428380D01*
X60967500Y-87142000D02*
X63253880Y-89428380D01*
X71613935Y-89258063D02*
X63576711Y-89258063D01*
X65897500Y-89802000D02*
X65297500Y-90402000D01*
X68217500Y-89802000D02*
X65897500Y-89802000D01*
X71650127Y-89907066D02*
X68322566Y-89907066D01*
X68322566Y-89907066D02*
X68217500Y-89802000D01*
X59708710Y-88824466D02*
X60030395Y-89146151D01*
X67977500Y-84372000D02*
X68637500Y-83712000D01*
X61262231Y-89702000D02*
X60564132Y-89702000D01*
X60564132Y-89702000D02*
X60193869Y-89331737D01*
X61557500Y-84792000D02*
X59708710Y-86640790D01*
X60030395Y-89146151D02*
X60255394Y-89371150D01*
X61842231Y-90282000D02*
X61262231Y-89702000D01*
X59708710Y-86640790D02*
X59708710Y-88824466D01*
X68637500Y-83712000D02*
X68637500Y-83042000D01*
X66957500Y-84792000D02*
X61557500Y-84792000D01*
X64257500Y-90282000D02*
X61842231Y-90282000D01*
X72287500Y-94592000D02*
X71847500Y-94592000D01*
X71699598Y-92774589D02*
X71474599Y-92999588D01*
X71055375Y-91672000D02*
X71699598Y-92316223D01*
X71847500Y-94592000D02*
X71257500Y-94002000D01*
X70237500Y-91672000D02*
X71055375Y-91672000D01*
X59887500Y-92517209D02*
X61137389Y-91267320D01*
X62877500Y-93500790D02*
X60414674Y-93500790D01*
X71699598Y-92316223D02*
X71699598Y-92774589D01*
X64593954Y-93355546D02*
X65701047Y-93355547D01*
X59887500Y-92973616D02*
X59887500Y-92517209D01*
X60414674Y-93500790D02*
X59887500Y-92973616D01*
X61137389Y-91267320D02*
X61362388Y-91042321D01*
X65702501Y-93357001D02*
X65927500Y-93582000D01*
X65701047Y-93355547D02*
X65702501Y-93357001D01*
X65579141Y-91871975D02*
X64738307Y-92712809D01*
X70637500Y-84538609D02*
X71415713Y-85316822D01*
X72092759Y-85123201D02*
X72938701Y-85123201D01*
X60785509Y-92712809D02*
X60560510Y-92937808D01*
X71415713Y-85316822D02*
X71899138Y-85316822D01*
X67141058Y-86160078D02*
X67089312Y-86211824D01*
X71899138Y-85316822D02*
X72092759Y-85123201D01*
X68673814Y-91871975D02*
X65579141Y-91871975D01*
X70637500Y-83042000D02*
X70637500Y-84538609D01*
X70309989Y-86160078D02*
X67141058Y-86160078D01*
X68934438Y-92852264D02*
X68934438Y-92132599D01*
X68805389Y-93431311D02*
X68580390Y-93206312D01*
X68874876Y-93500798D02*
X68805389Y-93431311D01*
X67089312Y-86211824D02*
X66864313Y-86436823D01*
X68934438Y-92132599D02*
X68673814Y-91871975D01*
X64738307Y-92712809D02*
X60785509Y-92712809D01*
X70871911Y-86722000D02*
X70309989Y-86160078D01*
X74312501Y-86497001D02*
X74537500Y-86722000D01*
X72938701Y-85123201D02*
X74312501Y-86497001D01*
X73828702Y-93500798D02*
X68874876Y-93500798D01*
X68580390Y-93206312D02*
X68934438Y-92852264D01*
X74497500Y-92832000D02*
X73828702Y-93500798D01*
X74537500Y-86722000D02*
X70871911Y-86722000D01*
X87367500Y-86362000D02*
X91797500Y-86362000D01*
X91797500Y-86362000D02*
X91807500Y-86352000D01*
X87367500Y-86362000D02*
X86129405Y-85123905D01*
X84179970Y-85123905D02*
X83166874Y-86137001D01*
X86129405Y-85123905D02*
X84179970Y-85123905D01*
X78537500Y-86362000D02*
X82941875Y-86362000D01*
X83166874Y-86137001D02*
X82941875Y-86362000D01*
X90518441Y-88453501D02*
X90836639Y-88453501D01*
X79207500Y-88422000D02*
X83517500Y-88422000D01*
X83707500Y-88392000D02*
X83597500Y-88502000D01*
X83517500Y-88422000D02*
X83597500Y-88502000D01*
X86397500Y-88392000D02*
X83707500Y-88392000D01*
X86777199Y-88453501D02*
X90518441Y-88453501D01*
X86715698Y-88392000D02*
X86777199Y-88453501D01*
X86397500Y-88392000D02*
X86715698Y-88392000D01*
X91886091Y-90166057D02*
X92111090Y-89941058D01*
X79167500Y-91152000D02*
X83607500Y-91152000D01*
X83607500Y-91152000D02*
X87847500Y-91152000D01*
X87847500Y-91152000D02*
X90900148Y-91152000D01*
X90900148Y-91152000D02*
X91886091Y-90166057D01*
X87237500Y-92722000D02*
X91687500Y-92722000D01*
X82967500Y-92722000D02*
X87237500Y-92722000D01*
X84062499Y-83466999D02*
X83637500Y-83042000D01*
X87927500Y-85382000D02*
X86641112Y-84095612D01*
X84691112Y-84095612D02*
X84062499Y-83466999D01*
X78707500Y-92722000D02*
X82967500Y-92722000D01*
X86641112Y-84095612D02*
X84691112Y-84095612D01*
X91687500Y-92722000D02*
X91707500Y-92702000D01*
X79797500Y-92122000D02*
X83947500Y-92122000D01*
X85338701Y-83743201D02*
X87068701Y-83743201D01*
X76494625Y-92122000D02*
X76187329Y-92429296D01*
X83947500Y-92122000D02*
X88487500Y-92122000D01*
X84637500Y-83042000D02*
X85338701Y-83743201D01*
X87068701Y-83743201D02*
X89087500Y-85762000D01*
X76187329Y-92429296D02*
X75962330Y-92654295D01*
X79797500Y-92122000D02*
X76494625Y-92122000D01*
X76967500Y-88022000D02*
X77192499Y-87797001D01*
X85652024Y-85850106D02*
X85877023Y-85625107D01*
X77192499Y-87797001D02*
X79742501Y-87797001D01*
X79742501Y-87797001D02*
X83705129Y-87797001D01*
X83705129Y-87797001D02*
X85652024Y-85850106D01*
X89559302Y-87922000D02*
X89877500Y-87922000D01*
X85877023Y-85625107D02*
X88173916Y-87922000D01*
X88173916Y-87922000D02*
X89559302Y-87922000D01*
X77367976Y-89162476D02*
X80397024Y-89162476D01*
X87697024Y-89162476D02*
X87522499Y-89337001D01*
X91712480Y-89162476D02*
X87697024Y-89162476D01*
X77127500Y-88922000D02*
X77367976Y-89162476D01*
X86979302Y-89562000D02*
X87297500Y-89562000D01*
X87522499Y-89337001D02*
X87297500Y-89562000D01*
X80397024Y-89162476D02*
X80796548Y-89562000D01*
X80796548Y-89562000D02*
X86979302Y-89562000D01*
X113977500Y-88972000D02*
X114167500Y-88782000D01*
X109857500Y-88972000D02*
X113977500Y-88972000D01*
X96587500Y-88972000D02*
X100997500Y-88972000D01*
X98457500Y-88972000D02*
X96587500Y-88972000D01*
X98769713Y-88659787D02*
X98457500Y-88972000D01*
X98994712Y-87174788D02*
X98994712Y-87374791D01*
X105457500Y-88972000D02*
X109857500Y-88972000D01*
X100997500Y-88972000D02*
X105457500Y-88972000D01*
X100957500Y-85212000D02*
X98994712Y-87174788D01*
X102637500Y-83042000D02*
X102637500Y-83643040D01*
X109877500Y-92122000D02*
X114087500Y-92122000D01*
X114087500Y-92122000D02*
X114197500Y-92012000D01*
X96477500Y-92122000D02*
X101187500Y-92122000D01*
X102637500Y-83643040D02*
X103476460Y-84482000D01*
X105527500Y-92122000D02*
X109877500Y-92122000D01*
X103476460Y-84482000D02*
X105007500Y-84482000D01*
X101187500Y-92122000D02*
X105527500Y-92122000D01*
X96033907Y-92762000D02*
X96097500Y-92762000D01*
X94713907Y-94082000D02*
X96033907Y-92762000D01*
X109457500Y-92732000D02*
X104937500Y-92732000D01*
X93139279Y-86750057D02*
X98279988Y-86750057D01*
X96127500Y-92732000D02*
X96097500Y-92762000D01*
X100607500Y-92732000D02*
X96127500Y-92732000D01*
X104937500Y-92732000D02*
X100607500Y-92732000D01*
X113487500Y-92732000D02*
X109457500Y-92732000D01*
X100673854Y-84356191D02*
X100898853Y-84131192D01*
X98279988Y-86750057D02*
X100673854Y-84356191D01*
X111655597Y-91180097D02*
X111787500Y-91312000D01*
X101167500Y-86529202D02*
X101981149Y-85715553D01*
X105965597Y-91180097D02*
X111655597Y-91180097D01*
X97219403Y-91180097D02*
X101599403Y-91180097D01*
X94466234Y-91180097D02*
X94389228Y-91257103D01*
X101981149Y-85715553D02*
X102206148Y-85490554D01*
X97219403Y-91180097D02*
X94466234Y-91180097D01*
X101599403Y-91180097D02*
X105965597Y-91180097D01*
X101167500Y-87302000D02*
X101167500Y-86529202D01*
X101557500Y-87972000D02*
X105967500Y-87972000D01*
X111867500Y-87972000D02*
X111897500Y-88002000D01*
X101239302Y-87972000D02*
X101557500Y-87972000D01*
X105967500Y-87972000D02*
X111867500Y-87972000D01*
X94277500Y-87972000D02*
X97097500Y-87972000D01*
X105637500Y-87642000D02*
X105967500Y-87972000D01*
X105637500Y-83042000D02*
X105637500Y-87642000D01*
X97097500Y-87972000D02*
X101239302Y-87972000D01*
X106637500Y-83643040D02*
X110146460Y-87152000D01*
X113547500Y-89522000D02*
X110367500Y-89522000D01*
X106637500Y-83042000D02*
X106637500Y-83643040D01*
X109197500Y-89522000D02*
X104847500Y-89522000D01*
X110367500Y-89522000D02*
X109197500Y-89522000D01*
X95977500Y-89522000D02*
X95967500Y-89512000D01*
X100357500Y-89522000D02*
X95977500Y-89522000D01*
X104847500Y-89522000D02*
X100357500Y-89522000D01*
D15*
X138738295Y-42459669D02*
X136487500Y-44710462D01*
X138387500Y-47517000D02*
X144162500Y-47517000D01*
X136487500Y-45617000D02*
X138387500Y-47517000D01*
X138738295Y-41817077D02*
X138738295Y-42459669D01*
X139939194Y-40616178D02*
X138738295Y-41817077D01*
X136487500Y-44710462D02*
X136487500Y-45617000D01*
X144162500Y-47517000D02*
X146637500Y-45042000D01*
X141440377Y-38126411D02*
X142394713Y-39080747D01*
X139114593Y-38126411D02*
X141440377Y-38126411D01*
X136035090Y-42245450D02*
X136035090Y-41524112D01*
X140425925Y-45496392D02*
X140425925Y-45814590D01*
X134637500Y-43042000D02*
X135238540Y-43042000D01*
X142394713Y-39080747D02*
X142394713Y-42865387D01*
X136035090Y-41205914D02*
X139114593Y-38126411D01*
X136035090Y-41524112D02*
X136035090Y-41205914D01*
X135238540Y-43042000D02*
X136035090Y-42245450D01*
X141225709Y-43553896D02*
X140425925Y-44353680D01*
X141706204Y-43553896D02*
X141225709Y-43553896D01*
X142394713Y-42865387D02*
X141706204Y-43553896D01*
X140425925Y-44353680D02*
X140425925Y-45496392D01*
X140285099Y-43369401D02*
X140489653Y-43369401D01*
X140864901Y-39545845D02*
X140845877Y-39526821D01*
X137787500Y-45867000D02*
X140285099Y-43369401D01*
X140845877Y-39526821D02*
X140845877Y-39208623D01*
X135587500Y-44042000D02*
X134637500Y-44042000D01*
X140489653Y-43369401D02*
X140864901Y-42994153D01*
X135987500Y-43642000D02*
X135587500Y-44042000D01*
X140864901Y-42994153D02*
X140864901Y-39545845D01*
X137736848Y-40550885D02*
X137961847Y-40325886D01*
X134637500Y-45042000D02*
X135442054Y-45042000D01*
X135442054Y-45042000D02*
X137583492Y-42900562D01*
X137583492Y-42900562D02*
X137583492Y-40704241D01*
X137583492Y-40704241D02*
X137736848Y-40550885D01*
X145748593Y-41042000D02*
X143077671Y-43712922D01*
X138160894Y-41582160D02*
X138160894Y-41039052D01*
X138160894Y-41039052D02*
X140568724Y-38631222D01*
X140568724Y-38631222D02*
X141123030Y-38631222D01*
X143077671Y-43712922D02*
X142852672Y-43937921D01*
X146637500Y-41042000D02*
X145748593Y-41042000D01*
X141442311Y-42657695D02*
X141442311Y-42975893D01*
X141442311Y-38950503D02*
X141442311Y-42657695D01*
X141123030Y-38631222D02*
X141442311Y-38950503D01*
X145262501Y-40711509D02*
X141842712Y-44131298D01*
X141842712Y-44131298D02*
X141821061Y-44131298D01*
X145262501Y-40516999D02*
X145262501Y-40711509D01*
X141821061Y-44131298D02*
X141502863Y-44131298D01*
X145487500Y-40292000D02*
X145262501Y-40516999D01*
X140287500Y-42717000D02*
X139837500Y-42717000D01*
X139837500Y-42717000D02*
X138912500Y-43642000D01*
X141319992Y-45475122D02*
X141319992Y-45793320D01*
X140837500Y-46417000D02*
X140187500Y-46417000D01*
X140187500Y-46417000D02*
X139212500Y-45442000D01*
X141262500Y-45492000D02*
X143586460Y-45492000D01*
X146036460Y-43042000D02*
X146637500Y-43042000D01*
X141319992Y-45793320D02*
X141037500Y-46075812D01*
X141037500Y-46075812D02*
X141037500Y-46217000D01*
X143586460Y-45492000D02*
X146036460Y-43042000D01*
X141037500Y-46217000D02*
X140837500Y-46417000D01*
X143156649Y-46921811D02*
X146036460Y-44042000D01*
X146036460Y-44042000D02*
X146637500Y-44042000D01*
X138837500Y-46917000D02*
X139155698Y-46917000D01*
X139155698Y-46917000D02*
X139160509Y-46921811D01*
X139160509Y-46921811D02*
X143156649Y-46921811D01*
X138738295Y-59459669D02*
X136487500Y-61710462D01*
X138387500Y-64517000D02*
X144162500Y-64517000D01*
X136487500Y-62617000D02*
X138387500Y-64517000D01*
X138738295Y-58817077D02*
X138738295Y-59459669D01*
X139939194Y-57616178D02*
X138738295Y-58817077D01*
X136487500Y-61710462D02*
X136487500Y-62617000D01*
X144162500Y-64517000D02*
X146637500Y-62042000D01*
X141440377Y-55126411D02*
X142394713Y-56080747D01*
X139114593Y-55126411D02*
X141440377Y-55126411D01*
X136035090Y-59245450D02*
X136035090Y-58524112D01*
X140425925Y-62496392D02*
X140425925Y-62814590D01*
X134637500Y-60042000D02*
X135238540Y-60042000D01*
X142394713Y-56080747D02*
X142394713Y-59865387D01*
X136035090Y-58205914D02*
X139114593Y-55126411D01*
X136035090Y-58524112D02*
X136035090Y-58205914D01*
X135238540Y-60042000D02*
X136035090Y-59245450D01*
X141225709Y-60553896D02*
X140425925Y-61353680D01*
X141706204Y-60553896D02*
X141225709Y-60553896D01*
X142394713Y-59865387D02*
X141706204Y-60553896D01*
X140425925Y-61353680D02*
X140425925Y-62496392D01*
X140285099Y-60369401D02*
X140489653Y-60369401D01*
X140864901Y-56545845D02*
X140845877Y-56526821D01*
X137787500Y-62867000D02*
X140285099Y-60369401D01*
X140845877Y-56526821D02*
X140845877Y-56208623D01*
X135587500Y-61042000D02*
X134637500Y-61042000D01*
X140489653Y-60369401D02*
X140864901Y-59994153D01*
X135987500Y-60642000D02*
X135587500Y-61042000D01*
X140864901Y-59994153D02*
X140864901Y-56545845D01*
X137736848Y-57550885D02*
X137961847Y-57325886D01*
X134637500Y-62042000D02*
X135442054Y-62042000D01*
X135442054Y-62042000D02*
X137583492Y-59900562D01*
X137583492Y-59900562D02*
X137583492Y-57704241D01*
X137583492Y-57704241D02*
X137736848Y-57550885D01*
X145748593Y-58042000D02*
X143077671Y-60712922D01*
X138160894Y-58582160D02*
X138160894Y-58039052D01*
X138160894Y-58039052D02*
X140568724Y-55631222D01*
X140568724Y-55631222D02*
X141123030Y-55631222D01*
X143077671Y-60712922D02*
X142852672Y-60937921D01*
X146637500Y-58042000D02*
X145748593Y-58042000D01*
X141442311Y-59657695D02*
X141442311Y-59975893D01*
X141442311Y-55950503D02*
X141442311Y-59657695D01*
X141123030Y-55631222D02*
X141442311Y-55950503D01*
X145262501Y-57711509D02*
X141842712Y-61131298D01*
X141842712Y-61131298D02*
X141821061Y-61131298D01*
X145262501Y-57516999D02*
X145262501Y-57711509D01*
X141821061Y-61131298D02*
X141502863Y-61131298D01*
X145487500Y-57292000D02*
X145262501Y-57516999D01*
X140287500Y-59717000D02*
X139837500Y-59717000D01*
X139837500Y-59717000D02*
X138912500Y-60642000D01*
X141319992Y-62475122D02*
X141319992Y-62793320D01*
X140837500Y-63417000D02*
X140187500Y-63417000D01*
X140187500Y-63417000D02*
X139212500Y-62442000D01*
X141262500Y-62492000D02*
X143586460Y-62492000D01*
X146036460Y-60042000D02*
X146637500Y-60042000D01*
X141319992Y-62793320D02*
X141037500Y-63075812D01*
X141037500Y-63075812D02*
X141037500Y-63217000D01*
X143586460Y-62492000D02*
X146036460Y-60042000D01*
X141037500Y-63217000D02*
X140837500Y-63417000D01*
X143156649Y-63921811D02*
X146036460Y-61042000D01*
X146036460Y-61042000D02*
X146637500Y-61042000D01*
X138837500Y-63917000D02*
X139155698Y-63917000D01*
X139155698Y-63917000D02*
X139160509Y-63921811D01*
X139160509Y-63921811D02*
X143156649Y-63921811D01*
M02*
