  0
SECTION
  2
HEADER
  9
$ANGBASE
  50
0.0
  9
$ANGDIR
  70
  1
  9
$MEASUREMENT
  70
0
  0
ENDSEC
  0
SECTION
  2
TABLES
  0
TABLE
  2
LTYPE
  70
1
  0
LTYPE
  2
CONTINUOUS
  70
0
  3
Solid line
  72
65
  73
0
  40
0.0
  0
ENDTAB
  0
TABLE
  2
STYLE
  70
4
  0
STYLE
  2
KICAD
  70
0
  40
0
  41
1
  42
1
  50
0
  71
0
  3
isocp.shx
  0
STYLE
  2
KICADB
  70
0
  40
0
  41
1
  42
1
  50
0
  71
0
  3
isocp.shx
  0
STYLE
  2
KICADI
  70
0
  40
0
  41
1
  42
1
  50
15
  71
0
  3
isocp.shx
  0
STYLE
  2
KICADBI
  70
0
  40
0
  41
1
  42
1
  50
15
  71
0
  3
isocp.shx
  0
ENDTAB
  0
TABLE
  2
LAYER
  70
30
  0
LAYER
  2
BLACK
  70
0
  62
7
  6
CONTINUOUS
  0
LAYER
  2
GRAY1
  70
0
  62
251
  6
CONTINUOUS
  0
LAYER
  2
GRAY2
  70
0
  62
8
  6
CONTINUOUS
  0
LAYER
  2
GRAY3
  70
0
  62
9
  6
CONTINUOUS
  0
LAYER
  2
WHITE
  70
0
  62
7
  6
CONTINUOUS
  0
LAYER
  2
LYELLOW
  70
0
  62
51
  6
CONTINUOUS
  0
LAYER
  2
BLUE1
  70
0
  62
178
  6
CONTINUOUS
  0
LAYER
  2
GREEN1
  70
0
  62
98
  6
CONTINUOUS
  0
LAYER
  2
CYAN1
  70
0
  62
138
  6
CONTINUOUS
  0
LAYER
  2
RED1
  70
0
  62
18
  6
CONTINUOUS
  0
LAYER
  2
MAGENTA1
  70
0
  62
228
  6
CONTINUOUS
  0
LAYER
  2
BROWN1
  70
0
  62
58
  6
CONTINUOUS
  0
LAYER
  2
BLUE2
  70
0
  62
5
  6
CONTINUOUS
  0
LAYER
  2
GREEN2
  70
0
  62
3
  6
CONTINUOUS
  0
LAYER
  2
CYAN2
  70
0
  62
4
  6
CONTINUOUS
  0
LAYER
  2
RED2
  70
0
  62
1
  6
CONTINUOUS
  0
LAYER
  2
MAGENTA2
  70
0
  62
6
  6
CONTINUOUS
  0
LAYER
  2
BROWN2
  70
0
  62
54
  6
CONTINUOUS
  0
LAYER
  2
BLUE3
  70
0
  62
171
  6
CONTINUOUS
  0
LAYER
  2
GREEN3
  70
0
  62
91
  6
CONTINUOUS
  0
LAYER
  2
CYAN3
  70
0
  62
131
  6
CONTINUOUS
  0
LAYER
  2
RED3
  70
0
  62
11
  6
CONTINUOUS
  0
LAYER
  2
MAGENTA3
  70
0
  62
221
  6
CONTINUOUS
  0
LAYER
  2
YELLOW3
  70
0
  62
2
  6
CONTINUOUS
  0
LAYER
  2
BLUE4
  70
0
  62
5
  6
CONTINUOUS
  0
LAYER
  2
GREEN4
  70
0
  62
3
  6
CONTINUOUS
  0
LAYER
  2
CYAN4
  70
0
  62
4
  6
CONTINUOUS
  0
LAYER
  2
RED4
  70
0
  62
1
  6
CONTINUOUS
  0
LAYER
  2
MAGENTA4
  70
0
  62
6
  6
CONTINUOUS
  0
LAYER
  2
YELLOW4
  70
0
  62
2
  6
CONTINUOUS
  0
ENDTAB
  0
ENDSEC
  0
SECTION
  2
ENTITIES
0
LINE
8
Black
10
177.004
20
-61.7108
11
177.009
21
-61.7108
0
LINE
8
Black
10
177.009
20
-61.7108
11
177.013
21
-61.7123
0
LINE
8
Black
10
177.013
20
-61.7123
11
177.017
21
-61.713
0
LINE
8
Black
10
177.017
20
-61.713
11
177.021
21
-61.7152
0
LINE
8
Black
10
177.021
20
-61.7152
11
177.025
21
-61.7167
0
LINE
8
Black
10
177.025
20
-61.7167
11
177.028
21
-61.7195
0
LINE
8
Black
10
177.028
20
-61.7195
11
177.032
21
-61.7217
0
LINE
8
Black
10
177.032
20
-61.7217
11
177.035
21
-61.725
0
LINE
8
Black
10
177.035
20
-61.725
11
177.038
21
-61.7279
0
LINE
8
Black
10
177.038
20
-61.7279
11
177.04
21
-61.7316
0
LINE
8
Black
10
177.04
20
-61.7316
11
177.043
21
-61.735
0
LINE
8
Black
10
177.043
20
-61.735
11
177.045
21
-61.7391
0
LINE
8
Black
10
177.045
20
-61.7391
11
177.047
21
-61.7429
0
LINE
8
Black
10
177.047
20
-61.7429
11
177.048
21
-61.7472
0
LINE
8
Black
10
177.048
20
-61.7472
11
177.049
21
-61.7513
0
LINE
8
Black
10
177.049
20
-61.7513
11
177.049
21
-61.7557
0
LINE
8
Black
10
177.049
20
-61.7557
11
177.05
21
-61.76
0
LINE
8
Black
10
177.05
20
-61.76
11
177.05
21
-111.76
0
LINE
8
Black
10
177.05
20
-111.76
11
177.049
21
-111.764
0
LINE
8
Black
10
177.049
20
-111.764
11
177.049
21
-111.769
0
LINE
8
Black
10
177.049
20
-111.769
11
177.048
21
-111.773
0
LINE
8
Black
10
177.048
20
-111.773
11
177.047
21
-111.777
0
LINE
8
Black
10
177.047
20
-111.777
11
177.045
21
-111.781
0
LINE
8
Black
10
177.045
20
-111.781
11
177.043
21
-111.785
0
LINE
8
Black
10
177.043
20
-111.785
11
177.04
21
-111.788
0
LINE
8
Black
10
177.04
20
-111.788
11
177.038
21
-111.792
0
LINE
8
Black
10
177.038
20
-111.792
11
177.035
21
-111.795
0
LINE
8
Black
10
177.035
20
-111.795
11
177.032
21
-111.798
0
LINE
8
Black
10
177.032
20
-111.798
11
177.028
21
-111.8
0
LINE
8
Black
10
177.028
20
-111.8
11
177.025
21
-111.803
0
LINE
8
Black
10
177.025
20
-111.803
11
177.021
21
-111.805
0
LINE
8
Black
10
177.021
20
-111.805
11
177.017
21
-111.807
0
LINE
8
Black
10
177.017
20
-111.807
11
177.013
21
-111.808
0
LINE
8
Black
10
177.013
20
-111.808
11
177.009
21
-111.809
0
LINE
8
Black
10
177.009
20
-111.809
11
177.004
21
-111.809
0
LINE
8
Black
10
177.004
20
-111.809
11
177
21
-111.81
0
LINE
8
Black
10
177
20
-111.81
11
127
21
-111.81
0
LINE
8
Black
10
127
20
-111.81
11
126.996
21
-111.809
0
LINE
8
Black
10
126.996
20
-111.809
11
126.991
21
-111.809
0
LINE
8
Black
10
126.991
20
-111.809
11
126.987
21
-111.808
0
LINE
8
Black
10
126.987
20
-111.808
11
126.983
21
-111.807
0
LINE
8
Black
10
126.983
20
-111.807
11
126.979
21
-111.805
0
LINE
8
Black
10
126.979
20
-111.805
11
126.975
21
-111.803
0
LINE
8
Black
10
126.975
20
-111.803
11
126.972
21
-111.8
0
LINE
8
Black
10
126.972
20
-111.8
11
126.968
21
-111.798
0
LINE
8
Black
10
126.968
20
-111.798
11
126.965
21
-111.795
0
LINE
8
Black
10
126.965
20
-111.795
11
126.962
21
-111.792
0
LINE
8
Black
10
126.962
20
-111.792
11
126.96
21
-111.788
0
LINE
8
Black
10
126.96
20
-111.788
11
126.957
21
-111.785
0
LINE
8
Black
10
126.957
20
-111.785
11
126.955
21
-111.781
0
LINE
8
Black
10
126.955
20
-111.781
11
126.953
21
-111.777
0
LINE
8
Black
10
126.953
20
-111.777
11
126.952
21
-111.773
0
LINE
8
Black
10
126.952
20
-111.773
11
126.951
21
-111.769
0
LINE
8
Black
10
126.951
20
-111.769
11
126.951
21
-111.764
0
LINE
8
Black
10
126.951
20
-111.764
11
126.95
21
-111.76
0
LINE
8
Black
10
126.95
20
-111.76
11
126.95
21
-61.76
0
LINE
8
Black
10
126.95
20
-61.76
11
126.951
21
-61.7557
0
LINE
8
Black
10
126.951
20
-61.7557
11
126.951
21
-61.7513
0
LINE
8
Black
10
126.951
20
-61.7513
11
126.952
21
-61.7472
0
LINE
8
Black
10
126.952
20
-61.7472
11
126.953
21
-61.7429
0
LINE
8
Black
10
126.953
20
-61.7429
11
126.955
21
-61.7391
0
LINE
8
Black
10
126.955
20
-61.7391
11
126.957
21
-61.735
0
LINE
8
Black
10
126.957
20
-61.735
11
126.96
21
-61.7316
0
LINE
8
Black
10
126.96
20
-61.7316
11
126.962
21
-61.7279
0
LINE
8
Black
10
126.962
20
-61.7279
11
126.965
21
-61.725
0
LINE
8
Black
10
126.965
20
-61.725
11
126.968
21
-61.7217
0
LINE
8
Black
10
126.968
20
-61.7217
11
126.972
21
-61.7195
0
LINE
8
Black
10
126.972
20
-61.7195
11
126.975
21
-61.7167
0
LINE
8
Black
10
126.975
20
-61.7167
11
126.979
21
-61.7152
0
LINE
8
Black
10
126.979
20
-61.7152
11
126.983
21
-61.713
0
LINE
8
Black
10
126.983
20
-61.713
11
126.987
21
-61.7123
0
LINE
8
Black
10
126.987
20
-61.7123
11
126.991
21
-61.7108
0
LINE
8
Black
10
126.991
20
-61.7108
11
126.996
21
-61.7108
0
LINE
8
Black
10
126.996
20
-61.7108
11
127
21
-61.71
0
LINE
8
Black
10
127
20
-61.71
11
177
21
-61.71
0
LINE
8
Black
10
177
20
-61.71
11
177.004
21
-61.7108
0
LINE
8
Black
10
127.05
20
-61.81
11
127.05
21
-111.71
0
LINE
8
Black
10
127.05
20
-111.71
11
176.95
21
-111.71
0
LINE
8
Black
10
176.95
20
-111.71
11
176.95
21
-61.81
0
LINE
8
Black
10
176.95
20
-61.81
11
127.05
21
-61.81
  0
ENDSEC
  0
EOF
