<?xml version="1.0" encoding="utf-8"?>
<!-- Generator: Fusion 360, Shaper Origin Export Add-In, Version 1.6.10  -->
<svg xmlns="http://www.w3.org/2000/svg" xmlns:xlink="http://www.w3.org/1999/xlink" xmlns:shaper="http://www.shapertools.com/namespaces/shaper" shaper:fusionaddin="version:1.6.10" width="55.2019457cm" height="31.7085848cm" version="1.1" x="0cm" y="0cm" viewBox="0 0 55.2019457 31.7085848" enable-background="new 0 0 55.2019457 31.7085848" xml:space="preserve"><path d="M27.6009728,7.2907857 L-14.789873,24.4177991 -27.6009728,-7.2907857 21.7096356,-7.2907857 27.6009728,7.2907857z" transform="matrix(1,0,0,-1,27.6009728,24.4177991)" fill="rgb(0,0,0)" stroke-linecap="round" stroke-linejoin="round" /><path d="M-22.4111457,-4.0079424 a0.245745,0.245745 0 1,1 0.49149,0 a0.245745,0.245745 0 1,1 -0.49149,0z" transform="matrix(1,0,0,-1,27.6009728,24.4177991)" fill="rgb(255,255,255)" stroke="rgb(0,0,0)" stroke-width="0.0010cm" stroke-linecap="round" stroke-linejoin="round" /><path d="M23.5729299,4.7097164 a0.245745,0.245745 0 1,1 0.49149,0 a0.245745,0.245745 0 1,1 -0.49149,0z" transform="matrix(1,0,0,-1,27.6009728,24.4177991)" fill="rgb(255,255,255)" stroke="rgb(0,0,0)" stroke-width="0.0010cm" stroke-linecap="round" stroke-linejoin="round" /><path d="M20.0507671,-4.0079424 a0.245745,0.245745 0 1,1 0.49149,0 a0.245745,0.245745 0 1,1 -0.49149,0z" transform="matrix(1,0,0,-1,27.6009728,24.4177991)" fill="rgb(255,255,255)" stroke="rgb(0,0,0)" stroke-width="0.0010cm" stroke-linecap="round" stroke-linejoin="round" /><path d="M-12.9302985,19.457978 a0.245745,0.245745 0 1,1 0.49149,0 a0.245745,0.245745 0 1,1 -0.49149,0z" transform="matrix(1,0,0,-1,27.6009728,24.4177991)" fill="rgb(255,255,255)" stroke="rgb(0,0,0)" stroke-width="0.0010cm" stroke-linecap="round" stroke-linejoin="round" /></svg>