<?xml version="1.0" encoding="utf-8"?>
<!-- Generator: Fusion 360, Shaper Origin Export Add-In, Version 1.6.10  -->
<svg xmlns="http://www.w3.org/2000/svg" xmlns:xlink="http://www.w3.org/1999/xlink" xmlns:shaper="http://www.shapertools.com/namespaces/shaper" shaper:fusionaddin="version:1.6.10" width="49.5046cm" height="12.7cm" version="1.1" x="0cm" y="0cm" viewBox="0 0 49.5046 12.7" enable-background="new 0 0 49.5046 12.7" xml:space="preserve"><path d="M18.564225,6.35 L-30.940375,6.35 -30.940375,-6.35 18.564225,-6.35 18.564225,6.35z" transform="matrix(1,0,0,-1,30.940375,6.35)" fill="rgb(0,0,0)" shaper:cutDepth="0.01905" stroke-linecap="round" stroke-linejoin="round" /><path d="M-30.146625,3.81 a0.15875,0.15875 0 1,1 0.3175,0 a0.15875,0.15875 0 1,1 -0.3175,0z" transform="matrix(1,0,0,-1,30.940375,6.35)" fill="rgb(255,255,255)" stroke="rgb(0,0,0)" stroke-width="0.0010cm" stroke-linecap="round" stroke-linejoin="round" shaper:cutDepth="0.01905" /><path d="M-30.146625,-3.81 a0.15875,0.15875 0 1,1 0.3175,0 a0.15875,0.15875 0 1,1 -0.3175,0z" transform="matrix(1,0,0,-1,30.940375,6.35)" fill="rgb(255,255,255)" stroke="rgb(0,0,0)" stroke-width="0.0010cm" stroke-linecap="round" stroke-linejoin="round" shaper:cutDepth="0.01905" /><path d="M17.452975,-3.81 a0.15875,0.15875 0 1,1 0.3175,0 a0.15875,0.15875 0 1,1 -0.3175,0z" transform="matrix(1,0,0,-1,30.940375,6.35)" fill="rgb(255,255,255)" stroke="rgb(0,0,0)" stroke-width="0.0010cm" stroke-linecap="round" stroke-linejoin="round" shaper:cutDepth="0.01905" /><path d="M17.452975,3.81 a0.15875,0.15875 0 1,1 0.3175,0 a0.15875,0.15875 0 1,1 -0.3175,0z" transform="matrix(1,0,0,-1,30.940375,6.35)" fill="rgb(255,255,255)" stroke="rgb(0,0,0)" stroke-width="0.0010cm" stroke-linecap="round" stroke-linejoin="round" shaper:cutDepth="0.01905" /><path d="M-6.346825,5.08 a0.15875,0.15875 0 1,1 0.3175,0 a0.15875,0.15875 0 1,1 -0.3175,0z" transform="matrix(1,0,0,-1,30.940375,6.35)" fill="rgb(255,255,255)" stroke="rgb(0,0,0)" stroke-width="0.0010cm" stroke-linecap="round" stroke-linejoin="round" shaper:cutDepth="0.01905" /><path d="M-6.346825,-5.08 a0.15875,0.15875 0 1,1 0.3175,0 a0.15875,0.15875 0 1,1 -0.3175,0z" transform="matrix(1,0,0,-1,30.940375,6.35)" fill="rgb(255,255,255)" stroke="rgb(0,0,0)" stroke-width="0.0010cm" stroke-linecap="round" stroke-linejoin="round" shaper:cutDepth="0.01905" /><path d="M2.378075,-0 a3.81,3.81 0 1,1 7.62,0 a3.81,3.81 0 1,1 -7.62,0z" transform="matrix(1,0,0,-1,30.940375,6.35)" fill="rgb(255,255,255)" stroke="rgb(0,0,0)" stroke-width="0.0010cm" stroke-linecap="round" stroke-linejoin="round" shaper:cutDepth="0.01905" /><path d="M-9.998075,-0 a3.81,3.81 0 1,1 7.62,0 a3.81,3.81 0 1,1 -7.62,0z" transform="matrix(1,0,0,-1,30.940375,6.35)" fill="rgb(255,255,255)" stroke="rgb(0,0,0)" stroke-width="0.0010cm" stroke-linecap="round" stroke-linejoin="round" shaper:cutDepth="0.01905" /><path d="M-22.374225,-0 a3.81,3.81 0 1,1 7.62,0 a3.81,3.81 0 1,1 -7.62,0z" transform="matrix(1,0,0,-1,30.940375,6.35)" fill="rgb(255,255,255)" stroke="rgb(0,0,0)" stroke-width="0.0010cm" stroke-linecap="round" stroke-linejoin="round" shaper:cutDepth="0.01905" /></svg>