<?xml version="1.0" encoding="utf-8"?>
<!-- Generator: Fusion 360, Shaper Origin Export Add-In, Version 1.6.10  -->
<svg xmlns="http://www.w3.org/2000/svg" xmlns:xlink="http://www.w3.org/1999/xlink" xmlns:shaper="http://www.shapertools.com/namespaces/shaper" shaper:fusionaddin="version:1.6.10" width="34.1988103cm" height="45.72cm" version="1.1" x="0cm" y="0cm" viewBox="0 0 34.1988103 45.72" enable-background="new 0 0 34.1988103 45.72" xml:space="preserve"><path d="M-1.1855094,-17.3114166 A0.3175,0.3175 68 1,1 -1.0100661,-17.7247351 L0.4618383,-18.3194231 -1.3726739,-22.86 -17.0994052,-22.86 -17.0994052,-15.24 -15.5119052,-15.24 A0.3175,0.3175 180 1,1 -15.1944052,-14.9225 L-15.1944052,-2.8575 A0.3175,0.3175 270 1,1 -15.5119052,-2.54 L-17.0994052,-2.54 -17.0994052,10.16 -15.5119052,10.16 A0.3175,0.3175 180 1,1 -15.1944052,10.4775 L-15.1944052,22.86 17.0994052,22.86 5.219342,-6.5441881 3.7474376,-5.9495002 A0.3175,0.3175 338 1,1 3.3341192,-6.1249434 L-1.1855094,-17.3114166z" transform="matrix(1,0,0,-1,17.0994052,22.86)" fill="rgb(0,0,0)" shaper:cutDepth="0.01905" stroke-linecap="round" stroke-linejoin="round" /><path d="M-8.8444052,-17.78 L-6.9407417,-17.78 A3.175,3.175 270 0,1 -3.9969329,-15.7943759 L-1.2310493,-8.9485738 A3.175,3.175 338 0,1 -2.9854821,-4.8153891 L-7.6550292,-2.9287696 A3.175,3.175 68 0,1 -12.0194052,-5.8725784 L-12.0194052,-14.605 A3.175,3.175 180 0,1 -8.8444052,-17.78z" transform="matrix(1,0,0,-1,17.0994052,22.86)" fill="rgb(255,255,255)" stroke="rgb(0,0,0)" stroke-width="0.0010cm" stroke-linecap="round" stroke-linejoin="round" shaper:cutDepth="0.01905" /><path d="M-12.0194052,10.16 L-12.0194052,9.4532641 A7.62,7.62 180 0,1 -7.2539074,2.3881231 L-5.2038129,1.5598312 A7.62,7.62 248 0,1 4.7158303,5.7704699 L5.3360218,7.3054978 A7.62,7.62 338 0,1 -1.7291191,17.78 L-4.3994052,17.78 A7.62,7.62 90 0,1 -12.0194052,10.16z" transform="matrix(1,0,0,-1,17.0994052,22.86)" fill="rgb(255,255,255)" stroke="rgb(0,0,0)" stroke-width="0.0010cm" stroke-linecap="round" stroke-linejoin="round" shaper:cutDepth="0.01905" /><path d="M11.7217421,19.05 a0.2976626,0.2976626 0 1,1 0.5953252,0 a0.2976626,0.2976626 0 1,1 -0.5953252,0z" transform="matrix(1,0,0,-1,17.0994052,22.86)" fill="rgb(255,255,255)" stroke="rgb(0,0,0)" stroke-width="0.0010cm" stroke-linecap="round" stroke-linejoin="round" shaper:cutDepth="0.01905" /><path d="M-13.5870682,19.05 a0.2976626,0.2976626 0 1,1 0.5953252,0 a0.2976626,0.2976626 0 1,1 -0.5953252,0z" transform="matrix(1,0,0,-1,17.0994052,22.86)" fill="rgb(255,255,255)" stroke="rgb(0,0,0)" stroke-width="0.0010cm" stroke-linecap="round" stroke-linejoin="round" shaper:cutDepth="0.01905" /><path d="M-13.5870682,-20.32 a0.2976626,0.2976626 0 1,1 0.5953252,0 a0.2976626,0.2976626 0 1,1 -0.5953252,0z" transform="matrix(1,0,0,-1,17.0994052,22.86)" fill="rgb(255,255,255)" stroke="rgb(0,0,0)" stroke-width="0.0010cm" stroke-linecap="round" stroke-linejoin="round" shaper:cutDepth="0.01905" /><path d="M-4.1847704,-20.32 a0.2976626,0.2976626 0 1,1 0.5953252,0 a0.2976626,0.2976626 0 1,1 -0.5953252,0z" transform="matrix(1,0,0,-1,17.0994052,22.86)" fill="rgb(255,255,255)" stroke="rgb(0,0,0)" stroke-width="0.0010cm" stroke-linecap="round" stroke-linejoin="round" shaper:cutDepth="0.01905" /></svg>